<svg width="30" height="30" viewBox="0 0 30 30" fill="none" xmlns="http://www.w3.org/2000/svg">
<rect width="30" height="30" rx="4" fill="#3F59E9" fill-opacity="0.2" style="fill:#3F59E9;fill:color(display-p3 0.2471 0.3490 0.9137);fill-opacity:0.2;"/>
<path fill-rule="evenodd" clip-rule="evenodd" d="M9.34616 8.5C8.60236 8.5 8 9.10667 8 9.85417V19.3333C8 19.908 8.22692 20.4591 8.63085 20.8654C9.03478 21.2717 9.58262 21.5 10.1539 21.5H20.9232C20.3519 21.5 19.8041 21.2717 19.4002 20.8654C18.9962 20.4591 18.7693 19.908 18.7693 19.3333V9.85417C18.7693 9.10594 18.1662 8.5 17.4231 8.5H9.34616ZM15 13.375C14.8572 13.375 14.7203 13.4321 14.6193 13.5337C14.5183 13.6352 14.4616 13.773 14.4616 13.9167C14.4616 14.0603 14.5183 14.1981 14.6193 14.2997C14.7203 14.4013 14.8572 14.4583 15 14.4583H16.077C16.2198 14.4583 16.3567 14.4013 16.4577 14.2997C16.5587 14.1981 16.6154 14.0603 16.6154 13.9167C16.6154 13.773 16.5587 13.6352 16.4577 13.5337C16.3567 13.4321 16.2198 13.375 16.077 13.375H15ZM14.4616 11.75C14.4616 11.6063 14.5183 11.4686 14.6193 11.367C14.7203 11.2654 14.8572 11.2083 15 11.2083H16.077C16.2198 11.2083 16.3567 11.2654 16.4577 11.367C16.5587 11.4686 16.6154 11.6063 16.6154 11.75C16.6154 11.8937 16.5587 12.0314 16.4577 12.133C16.3567 12.2346 16.2198 12.2917 16.077 12.2917H15C14.8572 12.2917 14.7203 12.2346 14.6193 12.133C14.5183 12.0314 14.4616 11.8937 14.4616 11.75ZM10.6923 15.5417C10.5495 15.5417 10.4126 15.5987 10.3116 15.7003C10.2106 15.8019 10.1539 15.9397 10.1539 16.0833C10.1539 16.227 10.2106 16.3648 10.3116 16.4663C10.4126 16.5679 10.5495 16.625 10.6923 16.625H16.077C16.2198 16.625 16.3567 16.5679 16.4577 16.4663C16.5587 16.3648 16.6154 16.227 16.6154 16.0833C16.6154 15.9397 16.5587 15.8019 16.4577 15.7003C16.3567 15.5987 16.2198 15.5417 16.077 15.5417H10.6923ZM10.1539 18.25C10.1539 18.1063 10.2106 17.9686 10.3116 17.867C10.4126 17.7654 10.5495 17.7083 10.6923 17.7083H16.077C16.2198 17.7083 16.3567 17.7654 16.4577 17.867C16.5587 17.9686 16.6154 18.1063 16.6154 18.25C16.6154 18.3937 16.5587 18.5314 16.4577 18.633C16.3567 18.7346 16.2198 18.7917 16.077 18.7917H10.6923C10.5495 18.7917 10.4126 18.7346 10.3116 18.633C10.2106 18.5314 10.1539 18.3937 10.1539 18.25ZM10.6923 11.2083C10.5495 11.2083 10.4126 11.2654 10.3116 11.367C10.2106 11.4686 10.1539 11.6063 10.1539 11.75V13.9167C10.1539 14.2157 10.3951 14.4583 10.6923 14.4583H12.8462C12.989 14.4583 13.126 14.4013 13.2269 14.2997C13.3279 14.1981 13.3847 14.0603 13.3847 13.9167V11.75C13.3847 11.6063 13.3279 11.4686 13.2269 11.367C13.126 11.2654 12.989 11.2083 12.8462 11.2083H10.6923Z" fill="#3F59E9" style="fill:#3F59E9;fill:color(display-p3 0.2471 0.3490 0.9137);fill-opacity:1;"/>
<path d="M19.8461 11.2082H21.1923C21.6382 11.2082 22 11.5722 22 12.0207V19.3332C22 19.6205 21.8865 19.8961 21.6846 20.0992C21.4826 20.3024 21.2087 20.4165 20.9231 20.4165C20.6375 20.4165 20.3635 20.3024 20.1616 20.0992C19.9596 19.8961 19.8461 19.6205 19.8461 19.3332V11.2082Z" fill="#3F59E9" style="fill:#3F59E9;fill:color(display-p3 0.2471 0.3490 0.9137);fill-opacity:1;"/>
</svg>
