<svg width="30" height="30" viewBox="0 0 30 30" fill="none" xmlns="http://www.w3.org/2000/svg">
<rect width="30" height="30" rx="4" fill="#E85A39" fill-opacity="0.2" style="fill:#E85A39;fill:color(display-p3 0.9098 0.3529 0.2235);fill-opacity:0.2;"/>
<path fill-rule="evenodd" clip-rule="evenodd" d="M9.10642 8.49395C11.0535 8.16444 13.0249 7.9992 14.9996 8C17.0078 8 18.9773 8.16944 20.8936 8.49395C21.204 8.54755 21.4854 8.70934 21.688 8.95062C21.8905 9.1919 22.001 9.4971 22 9.81211V10.5616C21.9999 11.1328 21.7729 11.6806 21.3689 12.0844L16.9303 16.5228C16.8303 16.6228 16.751 16.7416 16.6969 16.8723C16.6428 17.003 16.615 17.1431 16.6151 17.2845V19.386C16.6152 19.786 16.5039 20.1782 16.2937 20.5186C16.0834 20.8589 15.7825 21.134 15.4247 21.3129L14.1632 21.9433C14.0811 21.9843 13.9899 22.0036 13.8982 21.9994C13.8065 21.9953 13.7175 21.9678 13.6394 21.9195C13.5614 21.8712 13.497 21.8038 13.4523 21.7237C13.4076 21.6435 13.3842 21.5533 13.3842 21.4616V17.2845C13.3839 16.999 13.2703 16.7253 13.0683 16.5235L8.63111 12.0837C8.22714 11.6799 8.00012 11.1321 8 10.5609V9.81211C8 9.16811 8.45879 8.6038 9.10642 8.49395Z" fill="#E85A39" style="fill:#E85A39;fill:color(display-p3 0.9098 0.3529 0.2235);fill-opacity:1;"/>
</svg>
