<svg width="30" height="30" viewBox="0 0 30 30" fill="none" xmlns="http://www.w3.org/2000/svg">
<rect width="30" height="30" rx="4" fill="#3F59E9" fill-opacity="0.2" style="fill:#3F59E9;fill:color(display-p3 0.2471 0.3490 0.9137);fill-opacity:0.2;"/>
<path d="M15 8C18.8663 8 22 11.134 22 15C21.9999 18.866 18.8662 22 15 22C11.1339 21.9999 8.00011 18.8659 8 15C8 11.134 11.1338 8.00012 15 8ZM14.1924 11.2305C13.7283 11.2306 13.2706 11.3404 12.8564 11.5498C12.4424 11.7592 12.0837 12.0629 11.8086 12.4365C11.5334 12.8102 11.3495 13.2435 11.2725 13.7012C11.1955 14.1587 11.2276 14.6282 11.3652 15.0713C11.503 15.5143 11.7427 15.9187 12.0654 16.252C12.3883 16.5854 12.7851 16.8383 13.2236 16.9902C13.6621 17.1421 14.13 17.1891 14.5898 17.127C15.0497 17.0648 15.4887 16.8957 15.8711 16.6328L17.3125 18.0723C17.3618 18.1251 17.4213 18.1678 17.4873 18.1973C17.5532 18.2266 17.6242 18.2428 17.6963 18.2441C17.7686 18.2454 17.8412 18.2322 17.9082 18.2051C17.9751 18.178 18.0359 18.137 18.0869 18.0859C18.1379 18.0349 18.178 17.9741 18.2051 17.9072C18.2321 17.8403 18.2454 17.7685 18.2441 17.6963C18.2429 17.624 18.2276 17.5523 18.1982 17.4863C18.1688 17.4203 18.1261 17.3608 18.0732 17.3115L16.6328 15.8711C16.9387 15.4264 17.1175 14.906 17.1494 14.3672C17.1813 13.8285 17.0657 13.2911 16.8145 12.8135C16.5632 12.3358 16.1857 11.9362 15.7236 11.6572C15.2616 11.3783 14.7321 11.2304 14.1924 11.2305ZM14.1924 12.3076C14.4399 12.3076 14.6854 12.3565 14.9141 12.4512C15.1426 12.5459 15.3504 12.6844 15.5254 12.8594C15.7003 13.0343 15.8389 13.2422 15.9336 13.4707C16.0283 13.6993 16.0771 13.9449 16.0771 14.1924C16.0771 14.692 15.8787 15.1711 15.5254 15.5244C15.1719 15.8778 14.6922 16.0762 14.1924 16.0762C13.6927 16.0761 13.2137 15.8777 12.8604 15.5244C12.507 15.1711 12.3077 14.6921 12.3076 14.1924C12.3076 13.9449 12.3565 13.6993 12.4512 13.4707C12.5459 13.2421 12.6854 13.0344 12.8604 12.8594C13.0353 12.6845 13.2431 12.5458 13.4717 12.4512C13.7002 12.3565 13.945 12.3077 14.1924 12.3076Z" fill="#3F59E9" style="fill:#3F59E9;fill:color(display-p3 0.2471 0.3490 0.9137);fill-opacity:1;"/>
</svg>
