<svg width="30" height="30" viewBox="0 0 30 30" fill="none" xmlns="http://www.w3.org/2000/svg">
<rect width="30" height="30" rx="4" fill="#E85A39" fill-opacity="0.2" style="fill:#E85A39;fill:color(display-p3 0.9098 0.3529 0.2235);fill-opacity:0.2;"/>
<path d="M20.3667 8.5H19.9C19.4668 8.5 19.0514 8.6712 18.7451 8.97595C18.4387 9.2807 18.2667 9.69402 18.2667 10.125V19.875C18.2667 20.772 18.9984 21.5 19.9 21.5H20.3667C20.7999 21.5 21.2153 21.3288 21.5216 21.024C21.8279 20.7193 22 20.306 22 19.875V10.125C22 9.69402 21.8279 9.2807 21.5216 8.97595C21.2153 8.6712 20.7999 8.5 20.3667 8.5ZM15.2333 13.1429H14.7667C14.3335 13.1429 13.918 13.3141 13.6117 13.6188C13.3054 13.9236 13.1333 14.3369 13.1333 14.7679V19.875C13.1333 20.772 13.8651 21.5 14.7667 21.5H15.2333C15.6665 21.5 16.082 21.3288 16.3883 21.024C16.6946 20.7193 16.8667 20.306 16.8667 19.875V14.7679C16.8667 14.3369 16.6946 13.9236 16.3883 13.6188C16.082 13.3141 15.6665 13.1429 15.2333 13.1429ZM10.1 16.8571H9.63333C9.20015 16.8571 8.7847 17.0283 8.47839 17.3331C8.17208 17.6378 8 18.0512 8 18.4821V19.875C8 20.772 8.73173 21.5 9.63333 21.5H10.1C10.5332 21.5 10.9486 21.3288 11.2549 21.024C11.5613 20.7193 11.7333 20.306 11.7333 19.875V18.4821C11.7333 18.0512 11.5613 17.6378 11.2549 17.3331C10.9486 17.0283 10.5332 16.8571 10.1 16.8571Z" fill="#E85A39" style="fill:#E85A39;fill:color(display-p3 0.9098 0.3529 0.2235);fill-opacity:1;"/>
</svg>
