<svg width="30" height="30" viewBox="0 0 30 30" fill="none" xmlns="http://www.w3.org/2000/svg">
<rect width="30" height="30" rx="4" fill="#3F59E9" fill-opacity="0.2" style="fill:#3F59E9;fill:color(display-p3 0.2471 0.3490 0.9137);fill-opacity:0.2;"/>
<path fill-rule="evenodd" clip-rule="evenodd" d="M11.7692 10.1537C11.7692 9.58251 11.9962 9.03471 12.4001 8.63081C12.804 8.22691 13.3518 8 13.9231 8H16.0769C16.6482 8 17.196 8.22691 17.5999 8.63081C18.0038 9.03471 18.2308 9.58251 18.2308 10.1537V10.3009C18.9006 10.3619 19.564 10.4423 20.2224 10.5407C21.2663 10.6972 22 11.6053 22 12.6348V14.8122C22 15.6816 21.473 16.5007 20.6101 16.7879C18.8007 17.3884 16.9064 17.6936 15 17.6917C13.04 17.6917 11.1539 17.3744 9.38995 16.7879C8.52697 16.5007 8 15.6816 8 14.8122V12.6348C8 11.6053 8.73374 10.6964 9.77764 10.5407C10.4391 10.4417 11.1032 10.3618 11.7692 10.3009V10.1537ZM17.1538 10.1537V10.2183C15.7193 10.1312 14.2807 10.1312 12.8462 10.2183V10.1537C12.8462 9.86811 12.9596 9.59421 13.1616 9.39226C13.3635 9.19031 13.6375 9.07685 13.9231 9.07685H16.0769C16.3625 9.07685 16.6365 9.19031 16.8384 9.39226C17.0404 9.59421 17.1538 9.86811 17.1538 10.1537ZM15 16.0764C15.1428 16.0764 15.2798 16.0197 15.3807 15.9187C15.4817 15.8177 15.5385 15.6808 15.5385 15.538C15.5385 15.3952 15.4817 15.2582 15.3807 15.1573C15.2798 15.0563 15.1428 14.9996 15 14.9996C14.8572 14.9996 14.7202 15.0563 14.6193 15.1573C14.5183 15.2582 14.4615 15.3952 14.4615 15.538C14.4615 15.6808 14.5183 15.8177 14.6193 15.9187C14.7202 16.0197 14.8572 16.0764 15 16.0764Z" fill="#3F59E9" style="fill:#3F59E9;fill:color(display-p3 0.2471 0.3490 0.9137);fill-opacity:1;"/>
<path d="M8.53845 19.595V17.5878C8.70201 17.6773 8.87335 17.7517 9.05035 17.8103C10.9692 18.4474 12.9781 18.7712 15 18.7694C17.0763 18.7694 19.0779 18.4335 20.9496 17.811C21.1306 17.7507 21.3014 17.6754 21.4615 17.5878V19.595C21.4615 20.6374 20.7098 21.5535 19.6501 21.6935C18.1281 21.8959 16.5759 22 15 22C13.4449 22.0003 11.8914 21.8979 10.3498 21.6935C9.29014 21.5535 8.53845 20.6374 8.53845 19.595Z" fill="#3F59E9" style="fill:#3F59E9;fill:color(display-p3 0.2471 0.3490 0.9137);fill-opacity:1;"/>
</svg>
