<svg width="30" height="30" viewBox="0 0 30 30" fill="none" xmlns="http://www.w3.org/2000/svg">
<rect width="30" height="30" rx="4" fill="#A855F7" fill-opacity="0.2" style="fill:#A855F7;fill:color(display-p3 0.6588 0.3333 0.9686);fill-opacity:0.2;"/>
<path d="M20.25 15.5909H21.4167C21.5714 15.5909 21.7198 15.5287 21.8291 15.4178C21.9385 15.307 22 15.1567 22 15C22 14.8433 21.9385 14.693 21.8291 14.5822C21.7198 14.4713 21.5714 14.4091 21.4167 14.4091H20.25C20.0953 14.4091 19.9469 14.4713 19.8375 14.5822C19.7281 14.693 19.6667 14.8433 19.6667 15C19.6667 15.1567 19.7281 15.307 19.8375 15.4178C19.9469 15.5287 20.0953 15.5909 20.25 15.5909ZM15 10.2727C15 10.116 15.0615 9.96571 15.1709 9.85489C15.2803 9.74407 15.4286 9.68182 15.5833 9.68182H21.4167C21.5714 9.68182 21.7198 9.74407 21.8291 9.85489C21.9385 9.96571 22 10.116 22 10.2727C22 10.4294 21.9385 10.5797 21.8291 10.6906C21.7198 10.8014 21.5714 10.8636 21.4167 10.8636H15.5833C15.4286 10.8636 15.2803 10.8014 15.1709 10.6906C15.0615 10.5797 15 10.4294 15 10.2727ZM15 19.7273C15 19.5706 15.0615 19.4203 15.1709 19.3094C15.2803 19.1986 15.4286 19.1364 15.5833 19.1364H21.4167C21.5714 19.1364 21.7198 19.1986 21.8291 19.3094C21.9385 19.4203 22 19.5706 22 19.7273C22 19.884 21.9385 20.0343 21.8291 20.1451C21.7198 20.2559 21.5714 20.3182 21.4167 20.3182H15.5833C15.4286 20.3182 15.2803 20.2559 15.1709 20.1451C15.0615 20.0343 15 19.884 15 19.7273ZM8.58333 10.8636H9.75C9.90471 10.8636 10.0531 10.8014 10.1625 10.6906C10.2719 10.5797 10.3333 10.4294 10.3333 10.2727C10.3333 10.116 10.2719 9.96571 10.1625 9.85489C10.0531 9.74407 9.90471 9.68182 9.75 9.68182H8.58333C8.42862 9.68182 8.28025 9.74407 8.17085 9.85489C8.06146 9.96571 8 10.116 8 10.2727C8 10.4294 8.06146 10.5797 8.17085 10.6906C8.28025 10.8014 8.42862 10.8636 8.58333 10.8636ZM9.75 20.3182H8.58333C8.42862 20.3182 8.28025 20.2559 8.17085 20.1451C8.06146 20.0343 8 19.884 8 19.7273C8 19.5706 8.06146 19.4203 8.17085 19.3094C8.28025 19.1986 8.42862 19.1364 8.58333 19.1364H9.75C9.90471 19.1364 10.0531 19.1986 10.1625 19.3094C10.2719 19.4203 10.3333 19.5706 10.3333 19.7273C10.3333 19.884 10.2719 20.0343 10.1625 20.1451C10.0531 20.2559 9.90471 20.3182 9.75 20.3182ZM8 15C8 14.8433 8.06146 14.693 8.17085 14.5822C8.28025 14.4713 8.42862 14.4091 8.58333 14.4091H14.4167C14.5714 14.4091 14.7197 14.4713 14.8291 14.5822C14.9385 14.693 15 14.8433 15 15C15 15.1567 14.9385 15.307 14.8291 15.4178C14.7197 15.5287 14.5714 15.5909 14.4167 15.5909H8.58333C8.42862 15.5909 8.28025 15.5287 8.17085 15.4178C8.06146 15.307 8 15.1567 8 15ZM12.6667 8.5C12.2025 8.5 11.7574 8.68677 11.4292 9.01922C11.101 9.35167 10.9167 9.80257 10.9167 10.2727C10.9167 10.7429 11.101 11.1938 11.4292 11.5262C11.7574 11.8587 12.2025 12.0455 12.6667 12.0455C13.1308 12.0455 13.5759 11.8587 13.9041 11.5262C14.2323 11.1938 14.4167 10.7429 14.4167 10.2727C14.4167 9.80257 14.2323 9.35167 13.9041 9.01922C13.5759 8.68677 13.1308 8.5 12.6667 8.5ZM15.5833 15C15.5833 14.5298 15.7677 14.0789 16.0959 13.7465C16.4241 13.414 16.8692 13.2273 17.3333 13.2273C17.7975 13.2273 18.2426 13.414 18.5708 13.7465C18.899 14.0789 19.0833 14.5298 19.0833 15C19.0833 15.4702 18.899 15.9211 18.5708 16.2535C18.2426 16.586 17.7975 16.7727 17.3333 16.7727C16.8692 16.7727 16.4241 16.586 16.0959 16.2535C15.7677 15.9211 15.5833 15.4702 15.5833 15ZM12.6667 17.9545C12.2025 17.9545 11.7574 18.1413 11.4292 18.4738C11.101 18.8062 10.9167 19.2571 10.9167 19.7273C10.9167 20.1974 11.101 20.6483 11.4292 20.9808C11.7574 21.3132 12.2025 21.5 12.6667 21.5C13.1308 21.5 13.5759 21.3132 13.9041 20.9808C14.2323 20.6483 14.4167 20.1974 14.4167 19.7273C14.4167 19.2571 14.2323 18.8062 13.9041 18.4738C13.5759 18.1413 13.1308 17.9545 12.6667 17.9545Z" fill="#A855F7" style="fill:#A855F7;fill:color(display-p3 0.6588 0.3333 0.9686);fill-opacity:1;"/>
</svg>
