<svg width="15" height="15" viewBox="0 0 15 15" fill="none" xmlns="http://www.w3.org/2000/svg">
<path d="M13.25 0.5H12.75C12.2859 0.5 11.8408 0.684375 11.5126 1.01256C11.1844 1.34075 11 1.78587 11 2.25V12.75C11 13.716 11.784 14.5 12.75 14.5H13.25C13.7141 14.5 14.1592 14.3156 14.4874 13.9874C14.8156 13.6592 15 13.2141 15 12.75V2.25C15 1.78587 14.8156 1.34075 14.4874 1.01256C14.1592 0.684375 13.7141 0.5 13.25 0.5ZM7.75 5.5H7.25C6.78587 5.5 6.34075 5.68437 6.01256 6.01256C5.68437 6.34075 5.5 6.78587 5.5 7.25V12.75C5.5 13.716 6.284 14.5 7.25 14.5H7.75C8.21413 14.5 8.65925 14.3156 8.98744 13.9874C9.31563 13.6592 9.5 13.2141 9.5 12.75V7.25C9.5 6.78587 9.31563 6.34075 8.98744 6.01256C8.65925 5.68437 8.21413 5.5 7.75 5.5ZM2.25 9.5H1.75C1.28587 9.5 0.840752 9.68437 0.512563 10.0126C0.184375 10.3408 0 10.7859 0 11.25V12.75C0 13.716 0.784 14.5 1.75 14.5H2.25C2.71413 14.5 3.15925 14.3156 3.48744 13.9874C3.81563 13.6592 4 13.2141 4 12.75V11.25C4 10.7859 3.81563 10.3408 3.48744 10.0126C3.15925 9.68437 2.71413 9.5 2.25 9.5Z" fill="#7B7B7F" style="fill:#7B7B7F;fill:color(display-p3 0.4824 0.4824 0.4980);fill-opacity:1;"/>
</svg>
