<svg width="15" height="15" viewBox="0 0 15 15" fill="none" xmlns="http://www.w3.org/2000/svg">
<path fill-rule="evenodd" clip-rule="evenodd" d="M1.44232 0.5C0.645389 0.5 0 1.15333 0 1.95833V12.1667C0 12.7855 0.243133 13.379 0.675912 13.8166C1.10869 14.2542 1.69567 14.5 2.30771 14.5H13.8462C13.2342 14.5 12.6472 14.2542 12.2144 13.8166C11.7817 13.379 11.5385 12.7855 11.5385 12.1667V1.95833C11.5385 1.15256 10.8924 0.5 10.0962 0.5H1.44232ZM7.50005 5.75C7.34704 5.75 7.2003 5.81146 7.0921 5.92085C6.98391 6.03025 6.92312 6.17862 6.92312 6.33333C6.92312 6.48804 6.98391 6.63642 7.0921 6.74581C7.2003 6.85521 7.34704 6.91667 7.50005 6.91667H8.6539C8.80691 6.91667 8.95366 6.85521 9.06185 6.74581C9.17005 6.63642 9.23083 6.48804 9.23083 6.33333C9.23083 6.17862 9.17005 6.03025 9.06185 5.92085C8.95366 5.81146 8.80691 5.75 8.6539 5.75H7.50005ZM6.92312 4C6.92312 3.84529 6.98391 3.69692 7.0921 3.58752C7.2003 3.47812 7.34704 3.41667 7.50005 3.41667H8.6539C8.80691 3.41667 8.95366 3.47812 9.06185 3.58752C9.17005 3.69692 9.23083 3.84529 9.23083 4C9.23083 4.15471 9.17005 4.30308 9.06185 4.41248C8.95366 4.52187 8.80691 4.58333 8.6539 4.58333H7.50005C7.34704 4.58333 7.2003 4.52187 7.0921 4.41248C6.98391 4.30308 6.92312 4.15471 6.92312 4ZM2.88463 8.08333C2.73162 8.08333 2.58488 8.14479 2.47669 8.25419C2.36849 8.36358 2.30771 8.51196 2.30771 8.66667C2.30771 8.82138 2.36849 8.96975 2.47669 9.07915C2.58488 9.18854 2.73162 9.25 2.88463 9.25H8.6539C8.80691 9.25 8.95366 9.18854 9.06185 9.07915C9.17005 8.96975 9.23083 8.82138 9.23083 8.66667C9.23083 8.51196 9.17005 8.36358 9.06185 8.25419C8.95366 8.14479 8.80691 8.08333 8.6539 8.08333H2.88463ZM2.30771 11C2.30771 10.8453 2.36849 10.6969 2.47669 10.5875C2.58488 10.4781 2.73162 10.4167 2.88463 10.4167H8.6539C8.80691 10.4167 8.95366 10.4781 9.06185 10.5875C9.17005 10.6969 9.23083 10.8453 9.23083 11C9.23083 11.1547 9.17005 11.3031 9.06185 11.4125C8.95366 11.5219 8.80691 11.5833 8.6539 11.5833H2.88463C2.73162 11.5833 2.58488 11.5219 2.47669 11.4125C2.36849 11.3031 2.30771 11.1547 2.30771 11ZM2.88463 3.41667C2.73162 3.41667 2.58488 3.47812 2.47669 3.58752C2.36849 3.69692 2.30771 3.84529 2.30771 4V6.33333C2.30771 6.65533 2.56617 6.91667 2.88463 6.91667H5.19234C5.34535 6.91667 5.4921 6.85521 5.60029 6.74581C5.70849 6.63642 5.76927 6.48804 5.76927 6.33333V4C5.76927 3.84529 5.70849 3.69692 5.60029 3.58752C5.4921 3.47812 5.34535 3.41667 5.19234 3.41667H2.88463Z" fill="#7B7B7F" style="fill:#7B7B7F;fill:color(display-p3 0.4824 0.4824 0.4980);fill-opacity:1;"/>
<path d="M12.6923 3.41654H14.1346C14.6123 3.41654 15 3.80854 15 4.29154V12.1665C15 12.476 14.8784 12.7727 14.662 12.9915C14.4457 13.2103 14.1522 13.3332 13.8461 13.3332C13.5401 13.3332 13.2466 13.2103 13.0302 12.9915C12.8139 12.7727 12.6923 12.476 12.6923 12.1665V3.41654Z" fill="#7B7B7F" style="fill:#7B7B7F;fill:color(display-p3 0.4824 0.4824 0.4980);fill-opacity:1;"/>
</svg>
