<svg width="15" height="15" viewBox="0 0 15 15" fill="none" xmlns="http://www.w3.org/2000/svg">
<path fill-rule="evenodd" clip-rule="evenodd" d="M1.18544 0.528894C3.27161 0.175824 5.38378 -0.00121856 7.49961 -0.000363126C9.65126 -0.000363126 11.7614 0.181185 13.8145 0.528894C14.1472 0.586328 14.4487 0.759676 14.6657 1.01821C14.8827 1.27674 15.0011 1.60375 15 1.94127V2.74439C14.9999 3.35641 14.7566 3.94332 14.3238 4.37601L9.56818 9.13164C9.46104 9.23884 9.37608 9.3661 9.31813 9.50614C9.26019 9.64619 9.2304 9.79628 9.23047 9.94783V12.1995C9.2306 12.6281 9.11134 13.0484 8.88606 13.413C8.66078 13.7777 8.33839 14.0725 7.95502 14.2642L6.60341 14.9396C6.51545 14.9835 6.41773 15.0042 6.31952 14.9998C6.2213 14.9953 6.12586 14.9658 6.04224 14.9141C5.95863 14.8624 5.88961 14.7902 5.84175 14.7043C5.79388 14.6184 5.76876 14.5218 5.76875 14.4234V9.94783C5.76849 9.6419 5.64674 9.3486 5.43028 9.13241L0.676188 4.37524C0.24336 3.94255 0.000130708 3.35564 0 2.74362V1.94127C0 1.25124 0.491563 0.646593 1.18544 0.528894Z" fill="#7B7B7F" style="fill:#7B7B7F;fill:color(display-p3 0.4824 0.4824 0.4980);fill-opacity:1;"/>
</svg>
