<svg width="15" height="15" viewBox="0 0 15 15" fill="none" xmlns="http://www.w3.org/2000/svg">
<path d="M7.5 0C11.6424 0 15 3.35781 15 7.5C14.9999 11.6421 11.6424 15 7.5 15C3.35774 14.9999 0.000114556 11.642 0 7.5C0 3.35789 3.35767 0.000129134 7.5 0ZM6.63477 3.46191C6.13753 3.46202 5.64685 3.57837 5.20312 3.80273C4.75953 4.02708 4.37483 4.35266 4.08008 4.75293C3.78525 5.15333 3.58836 5.61807 3.50586 6.1084C3.42346 6.59858 3.45796 7.1015 3.60547 7.57617C3.75304 8.0509 4.00964 8.48464 4.35547 8.8418C4.70136 9.19902 5.12684 9.47001 5.59668 9.63281C6.06644 9.79554 6.56788 9.84493 7.06055 9.77832C7.55332 9.7117 8.02386 9.53075 8.43359 9.24902L9.97754 10.792C10.0302 10.8485 10.0935 10.8943 10.1641 10.9258C10.2348 10.9573 10.3122 10.9742 10.3896 10.9756C10.4669 10.9769 10.5436 10.9625 10.6152 10.9336C10.6871 10.9046 10.7528 10.8614 10.8076 10.8066C10.8622 10.752 10.9056 10.6869 10.9346 10.6152C10.9636 10.5434 10.9779 10.4661 10.9766 10.3887C10.9752 10.3113 10.9582 10.2348 10.9268 10.1641C10.8952 10.0933 10.8496 10.0294 10.793 9.97656L9.25 8.43262C9.57761 7.95629 9.76851 7.39936 9.80273 6.82227C9.83696 6.245 9.71255 5.66904 9.44336 5.15723C9.17417 4.64557 8.77033 4.21682 8.27539 3.91797C7.78039 3.61913 7.21299 3.46184 6.63477 3.46191ZM6.63477 4.61523C6.89978 4.61523 7.16237 4.66721 7.40723 4.76855C7.65222 4.87003 7.87499 5.01953 8.0625 5.20703C8.24985 5.3944 8.39854 5.61657 8.5 5.86133C8.60148 6.10631 8.6543 6.3696 8.6543 6.63477C8.65419 7.17013 8.44109 7.68393 8.0625 8.0625C7.68384 8.44097 7.17017 8.65332 6.63477 8.65332C6.09935 8.65329 5.58568 8.44102 5.20703 8.0625C4.82844 7.68393 4.61535 7.17013 4.61523 6.63477C4.61523 6.3696 4.66805 6.10631 4.76953 5.86133C4.87097 5.61659 5.01972 5.39439 5.20703 5.20703C5.39454 5.01953 5.61731 4.87003 5.8623 4.76855C6.10719 4.66717 6.36972 4.61525 6.63477 4.61523Z" fill="#7B7B7F" style="fill:#7B7B7F;fill:color(display-p3 0.4824 0.4824 0.4980);fill-opacity:1;"/>
</svg>
