<svg width="15" height="11" viewBox="0 0 15 11" fill="none" xmlns="http://www.w3.org/2000/svg">
<path d="M7.5003 7.49971C8.05456 7.49971 8.58612 7.28899 8.97804 6.91392C9.36996 6.53885 9.59014 6.03014 9.59014 5.49971C9.59014 4.96927 9.36996 4.46056 8.97804 4.08549C8.58612 3.71042 8.05456 3.49971 7.5003 3.49971C6.94603 3.49971 6.41447 3.71042 6.02255 4.08549C5.63063 4.46056 5.41045 4.96927 5.41045 5.49971C5.41045 6.03014 5.63063 6.53885 6.02255 6.91392C6.41447 7.28899 6.94603 7.49971 7.5003 7.49971Z" fill="#7B7B7F" style="fill:#7B7B7F;fill:color(display-p3 0.4824 0.4824 0.4980);fill-opacity:1;"/>
<path fill-rule="evenodd" clip-rule="evenodd" d="M0.0624798 5.13133C1.09904 2.15067 4.03667 0 7.50094 0C10.9631 0 13.8993 2.14867 14.9373 5.12667C15.0209 5.368 15.0209 5.628 14.9373 5.86867C13.9014 8.84933 10.9631 11 7.49954 11C4.03737 11 1.10044 8.85133 0.0631765 5.87333C-0.0205929 5.6325 -0.0212896 5.37217 0.0624798 5.13133ZM11.1575 5.5C11.1575 6.42826 10.7722 7.3185 10.0863 7.97487C9.40043 8.63125 8.4702 9 7.50024 9C6.53028 9 5.60005 8.63125 4.91419 7.97487C4.22832 7.3185 3.84301 6.42826 3.84301 5.5C3.84301 4.57174 4.22832 3.6815 4.91419 3.02513C5.60005 2.36875 6.53028 2 7.50024 2C8.4702 2 9.40043 2.36875 10.0863 3.02513C10.7722 3.6815 11.1575 4.57174 11.1575 5.5Z" fill="#7B7B7F" style="fill:#7B7B7F;fill:color(display-p3 0.4824 0.4824 0.4980);fill-opacity:1;"/>
</svg>
