<svg width="15" height="15" viewBox="0 0 15 15" fill="none" xmlns="http://www.w3.org/2000/svg">
<path fill-rule="evenodd" clip-rule="evenodd" d="M4.03846 2.30755C4.03846 1.69555 4.28159 1.10861 4.71437 0.675864C5.14715 0.243116 5.73412 0 6.34615 0H8.65385C9.26588 0 9.85286 0.243116 10.2856 0.675864C10.7184 1.10861 10.9615 1.69555 10.9615 2.30755V2.46523C11.6792 2.53061 12.39 2.61676 13.0954 2.72213C14.2138 2.88982 15 3.86283 15 4.96584V7.29877C15 8.23024 14.4354 9.10788 13.5108 9.41555C11.5722 10.059 9.54259 10.386 7.5 10.384C5.4 10.384 3.37923 10.044 1.48923 9.41555C0.564615 9.10788 0 8.23024 0 7.29877V4.96584C0 3.86283 0.786154 2.88905 1.90462 2.72213C2.6133 2.61616 3.32487 2.53049 4.03846 2.46523V2.30755ZM9.80769 2.30755V2.37677C8.27065 2.28343 6.72935 2.28343 5.19231 2.37677V2.30755C5.19231 2.00155 5.31387 1.70808 5.53026 1.4917C5.74665 1.27533 6.04013 1.15377 6.34615 1.15377H8.65385C8.95987 1.15377 9.25335 1.27533 9.46974 1.4917C9.68613 1.70808 9.80769 2.00155 9.80769 2.30755ZM7.5 8.65329C7.65301 8.65329 7.79975 8.59251 7.90795 8.48433C8.01614 8.37614 8.07692 8.22941 8.07692 8.07641C8.07692 7.92341 8.01614 7.77668 7.90795 7.66849C7.79975 7.5603 7.65301 7.49952 7.5 7.49952C7.34699 7.49952 7.20025 7.5603 7.09205 7.66849C6.98386 7.77668 6.92308 7.92341 6.92308 8.07641C6.92308 8.22941 6.98386 8.37614 7.09205 8.48433C7.20025 8.59251 7.34699 8.65329 7.5 8.65329Z" fill="#7B7B7F" style="fill:#7B7B7F;fill:color(display-p3 0.4824 0.4824 0.4980);fill-opacity:1;"/>
<path d="M0.576913 12.4232V10.2726C0.752158 10.3685 0.935729 10.4483 1.12537 10.5111C3.18129 11.1936 5.33372 11.5406 7.49999 11.5387C9.72461 11.5387 11.8692 11.1787 13.8746 10.5118C14.0685 10.4472 14.2515 10.3664 14.4231 10.2726V12.4232C14.4231 13.5401 13.6177 14.5216 12.4823 14.6716C10.8515 14.8885 9.18845 15 7.49999 15C5.8338 15.0003 4.16941 14.8906 2.51768 14.6716C1.3823 14.5216 0.576913 13.5401 0.576913 12.4232Z" fill="#7B7B7F" style="fill:#7B7B7F;fill:color(display-p3 0.4824 0.4824 0.4980);fill-opacity:1;"/>
</svg>
