<svg width="15" height="15" viewBox="0 0 15 15" fill="none" xmlns="http://www.w3.org/2000/svg">
<path d="M13.125 8.13636H14.375C14.5408 8.13636 14.6997 8.06932 14.8169 7.94998C14.9342 7.83064 15 7.66877 15 7.5C15 7.33123 14.9342 7.16936 14.8169 7.05002C14.6997 6.93068 14.5408 6.86364 14.375 6.86364H13.125C12.9592 6.86364 12.8003 6.93068 12.6831 7.05002C12.5658 7.16936 12.5 7.33123 12.5 7.5C12.5 7.66877 12.5658 7.83064 12.6831 7.94998C12.8003 8.06932 12.9592 8.13636 13.125 8.13636ZM7.5 2.40909C7.5 2.24032 7.56585 2.07846 7.68306 1.95911C7.80027 1.83977 7.95924 1.77273 8.125 1.77273H14.375C14.5408 1.77273 14.6997 1.83977 14.8169 1.95911C14.9342 2.07846 15 2.24032 15 2.40909C15 2.57787 14.9342 2.73973 14.8169 2.85907C14.6997 2.97841 14.5408 3.04545 14.375 3.04545H8.125C7.95924 3.04545 7.80027 2.97841 7.68306 2.85907C7.56585 2.73973 7.5 2.57787 7.5 2.40909ZM7.5 12.5909C7.5 12.4221 7.56585 12.2603 7.68306 12.1409C7.80027 12.0216 7.95924 11.9545 8.125 11.9545H14.375C14.5408 11.9545 14.6997 12.0216 14.8169 12.1409C14.9342 12.2603 15 12.4221 15 12.5909C15 12.7597 14.9342 12.9215 14.8169 13.0409C14.6997 13.1602 14.5408 13.2273 14.375 13.2273H8.125C7.95924 13.2273 7.80027 13.1602 7.68306 13.0409C7.56585 12.9215 7.5 12.7597 7.5 12.5909ZM0.625 3.04545H1.875C2.04076 3.04545 2.19973 2.97841 2.31694 2.85907C2.43415 2.73973 2.5 2.57787 2.5 2.40909C2.5 2.24032 2.43415 2.07846 2.31694 1.95911C2.19973 1.83977 2.04076 1.77273 1.875 1.77273H0.625C0.45924 1.77273 0.300268 1.83977 0.183058 1.95911C0.0658479 2.07846 0 2.24032 0 2.40909C0 2.57787 0.0658479 2.73973 0.183058 2.85907C0.300268 2.97841 0.45924 3.04545 0.625 3.04545ZM1.875 13.2273H0.625C0.45924 13.2273 0.300268 13.1602 0.183058 13.0409C0.0658479 12.9215 0 12.7597 0 12.5909C0 12.4221 0.0658479 12.2603 0.183058 12.1409C0.300268 12.0216 0.45924 11.9545 0.625 11.9545H1.875C2.04076 11.9545 2.19973 12.0216 2.31694 12.1409C2.43415 12.2603 2.5 12.4221 2.5 12.5909C2.5 12.7597 2.43415 12.9215 2.31694 13.0409C2.19973 13.1602 2.04076 13.2273 1.875 13.2273ZM0 7.5C0 7.33123 0.0658479 7.16936 0.183058 7.05002C0.300268 6.93068 0.45924 6.86364 0.625 6.86364H6.875C7.04076 6.86364 7.19973 6.93068 7.31694 7.05002C7.43415 7.16936 7.5 7.33123 7.5 7.5C7.5 7.66877 7.43415 7.83064 7.31694 7.94998C7.19973 8.06932 7.04076 8.13636 6.875 8.13636H0.625C0.45924 8.13636 0.300268 8.06932 0.183058 7.94998C0.0658479 7.83064 0 7.66877 0 7.5ZM5 0.5C4.50272 0.5 4.02581 0.701136 3.67417 1.05916C3.32254 1.41718 3.125 1.90277 3.125 2.40909C3.125 2.91541 3.32254 3.401 3.67417 3.75902C4.02581 4.11705 4.50272 4.31818 5 4.31818C5.49728 4.31818 5.97419 4.11705 6.32582 3.75902C6.67746 3.401 6.875 2.91541 6.875 2.40909C6.875 1.90277 6.67746 1.41718 6.32582 1.05916C5.97419 0.701136 5.49728 0.5 5 0.5ZM8.125 7.5C8.125 6.99368 8.32254 6.50809 8.67417 6.15007C9.02581 5.79205 9.50272 5.59091 10 5.59091C10.4973 5.59091 10.9742 5.79205 11.3258 6.15007C11.6775 6.50809 11.875 6.99368 11.875 7.5C11.875 8.00632 11.6775 8.49191 11.3258 8.84993C10.9742 9.20796 10.4973 9.40909 10 9.40909C9.50272 9.40909 9.02581 9.20796 8.67417 8.84993C8.32254 8.49191 8.125 8.00632 8.125 7.5ZM5 10.6818C4.50272 10.6818 4.02581 10.883 3.67417 11.241C3.32254 11.599 3.125 12.0846 3.125 12.5909C3.125 13.0972 3.32254 13.5828 3.67417 13.9408C4.02581 14.2989 4.50272 14.5 5 14.5C5.49728 14.5 5.97419 14.2989 6.32582 13.9408C6.67746 13.5828 6.875 13.0972 6.875 12.5909C6.875 12.0846 6.67746 11.599 6.32582 11.241C5.97419 10.883 5.49728 10.6818 5 10.6818Z" fill="#7B7B7F" style="fill:#7B7B7F;fill:color(display-p3 0.4824 0.4824 0.4980);fill-opacity:1;"/>
</svg>
