<svg width="14" height="16" viewBox="0 0 14 16" fill="none" xmlns="http://www.w3.org/2000/svg">
<path fill-rule="evenodd" clip-rule="evenodd" d="M7.25749 5.40723C7.85395 5.4665 8.41488 5.73073 8.84245 6.1582C9.331 6.64669 9.60599 7.30918 9.60613 8L9.59343 8.25781C9.53424 8.85431 9.27007 9.41519 8.84245 9.84277C8.35374 10.3314 7.69077 10.6064 6.99968 10.6064C6.30857 10.6064 5.64564 10.3314 5.15691 9.84277C4.66821 9.35416 4.39324 8.69102 4.39324 8C4.39337 7.30918 4.66836 6.6467 5.15691 6.1582C5.64563 5.66965 6.3086 5.39454 6.99968 5.39453L7.25749 5.40723ZM6.99968 6.19531C6.5207 6.19532 6.06102 6.38509 5.72234 6.72363C5.38379 7.06212 5.19415 7.52138 5.19402 8C5.19402 8.47882 5.38365 8.93873 5.72234 9.27734C6.06103 9.61592 6.52068 9.80566 6.99968 9.80566C7.47866 9.80563 7.93836 9.61591 8.27703 9.27734C8.61566 8.93874 8.80535 8.47878 8.80535 8L8.79656 7.82227C8.75554 7.40892 8.57339 7.01995 8.27703 6.72363C7.98074 6.42742 7.59175 6.24521 7.17839 6.2041L6.99968 6.19531Z" fill="#FCFCFC" style="fill:#FCFCFC;fill:color(display-p3 0.9900 0.9900 0.9900);fill-opacity:1;"/>
<path fill-rule="evenodd" clip-rule="evenodd" d="M7.95378 0.983398C8.55299 0.983743 9.06627 1.41742 9.16472 2.00879L9.32097 2.9502L9.35124 3.05176C9.39519 3.15091 9.47833 3.24233 9.59441 3.30664C9.65586 3.33995 9.71467 3.37436 9.76921 3.40723L9.88445 3.46191C10.0001 3.50249 10.1161 3.50196 10.2126 3.46582L11.1071 3.13086L11.2106 3.09766C11.4538 3.03019 11.7135 3.03847 11.9528 3.12402C12.2262 3.22195 12.4559 3.41459 12.6012 3.66602L13.5544 5.31738L13.6052 5.41406C13.7114 5.64293 13.7443 5.90038 13.6989 6.15039C13.6469 6.43606 13.4954 6.69446 13.2712 6.87891L13.2702 6.87793L12.5339 7.48633C12.4539 7.55211 12.3961 7.65263 12.3737 7.77246L12.363 7.89844V8.10254C12.3593 8.27705 12.427 8.4258 12.5339 8.51367L13.2721 9.12207L13.3552 9.19727C13.7213 9.55961 13.823 10.1151 13.6071 10.583L13.5553 10.6826L12.6012 12.334C12.4561 12.5854 12.226 12.7779 11.9528 12.876C11.7136 12.9617 11.4539 12.9706 11.2106 12.9033L11.1071 12.8701L10.2126 12.5342C10.0839 12.4861 9.91994 12.5021 9.76726 12.5938C9.71024 12.6284 9.65272 12.6629 9.59441 12.6953C9.44079 12.7802 9.34406 12.914 9.32097 13.0508L9.16472 13.9912C9.06645 14.584 8.55283 15.0163 7.95378 15.0166H6.04558C5.4455 15.0165 4.93483 14.5827 4.83562 13.9922L4.83464 13.9912L4.67839 13.0498C4.6559 12.9142 4.56069 12.7802 4.40593 12.6943L4.23113 12.5938C4.07985 12.5025 3.9167 12.4869 3.78679 12.5352L2.89226 12.8701C2.62048 12.9721 2.32086 12.9737 2.04753 12.876C1.80827 12.7904 1.60189 12.6332 1.45671 12.4268L1.39812 12.335L0.444994 10.6826C0.299853 10.431 0.248524 10.1364 0.300463 9.85059C0.352432 9.5648 0.503817 9.30653 0.728197 9.12207L1.46648 8.51465L1.53777 8.4375C1.57999 8.37966 1.61153 8.30858 1.62663 8.22852L1.6364 8.10156C1.63517 8.03429 1.63516 7.96668 1.6364 7.89941L1.62663 7.77246C1.60399 7.65212 1.54525 7.55221 1.4655 7.48633L0.728197 6.87891C0.504053 6.69447 0.352401 6.43598 0.300463 6.15039C0.248606 5.86488 0.299189 5.56982 0.444018 5.31836L1.39812 3.66602C1.54345 3.41446 1.77403 3.223 2.04753 3.125C2.32111 3.02709 2.6212 3.02872 2.89324 3.13086L3.78679 3.46582L3.88933 3.49023C3.99709 3.5018 4.11762 3.47564 4.23113 3.40723C4.28979 3.37145 4.34925 3.33756 4.40203 3.30762L4.40593 3.30469L4.51042 3.2334C4.6034 3.15372 4.66149 3.05311 4.67839 2.95117L4.83562 2.00879C4.93417 1.41729 5.44713 0.983433 6.04656 0.983398H7.95378ZM6.04656 1.78418C5.8635 1.78421 5.70401 1.90001 5.64421 2.06641L5.62468 2.14062L5.46745 3.08301C5.39857 3.49643 5.12625 3.82188 4.79265 4.00586L4.79167 4.00488C4.73828 4.03518 4.69129 4.06325 4.64617 4.09082L4.64421 4.0918C4.31786 4.28857 3.89996 4.36259 3.50652 4.21582L3.50554 4.21484L2.61199 3.87988C2.51731 3.84434 2.41229 3.8439 2.31706 3.87793C2.2457 3.90353 2.18272 3.94761 2.13445 4.00488L2.09148 4.06641L1.13738 5.71875C1.08723 5.80615 1.06954 5.90868 1.08757 6.00781C1.10567 6.10695 1.1582 6.19661 1.23601 6.26074L1.97429 6.86914L2.08757 6.97461C2.29686 7.19716 2.40859 7.48305 2.4323 7.77051L2.43621 7.91406C2.43515 7.97154 2.43515 8.02943 2.43621 8.08691L2.4323 8.23047C2.40865 8.51696 2.29709 8.80374 2.08757 9.02637L1.97429 9.13184L1.23601 9.74023C1.15815 9.80433 1.10573 9.89403 1.08757 9.99316C1.0695 10.0926 1.08688 10.1956 1.13738 10.2832L2.09148 11.9346C2.1421 12.022 2.22188 12.089 2.31706 12.123C2.41212 12.1569 2.51651 12.1565 2.61101 12.1211L3.50652 11.7852L3.65496 11.7402C4.00283 11.6587 4.35868 11.7361 4.64421 11.9082L4.79265 11.9941L4.79363 11.9951L4.91472 12.0703C5.1911 12.2619 5.40736 12.5565 5.46745 12.9189L5.62468 13.8604C5.65954 14.0662 5.83725 14.2166 6.04558 14.2168H7.95378C8.16302 14.2165 8.34066 14.0655 8.37468 13.8604L8.53191 12.9189L8.56706 12.7666C8.65562 12.474 8.84797 12.2342 9.08464 12.0703L9.20671 11.9951C9.2562 11.9676 9.3058 11.9386 9.35417 11.9092L9.35515 11.9082L9.4821 11.8408C9.78606 11.6973 10.1489 11.6565 10.4928 11.7852L11.3884 12.1211L11.4606 12.1406C11.5343 12.1541 11.611 12.1486 11.6823 12.123C11.7773 12.0889 11.8574 12.0218 11.9079 11.9346L12.863 10.2822L12.8942 10.2129C12.9533 10.047 12.9047 9.85603 12.7634 9.73926L12.0251 9.13184C11.7012 8.86535 11.5551 8.46705 11.5632 8.08594V7.91309C11.5558 7.53221 11.7019 7.13515 12.0251 6.86914L12.7624 6.26074L12.8171 6.20801C12.8655 6.15105 12.8983 6.08127 12.9118 6.00684C12.9252 5.93249 12.9186 5.85639 12.8932 5.78613L12.862 5.71777L11.9089 4.06543C11.8584 3.97807 11.7783 3.91208 11.6833 3.87793C11.6121 3.85247 11.5351 3.8459 11.4616 3.85938L11.3884 3.87988L10.4928 4.21582C10.149 4.34444 9.78587 4.30391 9.4821 4.16016L9.35613 4.0918C9.30438 4.06062 9.25674 4.03274 9.21062 4.00781L9.20671 4.00586C8.87342 3.82114 8.60153 3.49623 8.53191 3.08301L8.37468 2.14062C8.34065 1.93577 8.1627 1.78452 7.95378 1.78418H6.04656Z" fill="#FCFCFC" style="fill:#FCFCFC;fill:color(display-p3 0.9900 0.9900 0.9900);fill-opacity:1;"/>
</svg>
