<svg width="14" height="14" viewBox="0 0 14 14" fill="none" xmlns="http://www.w3.org/2000/svg">
<path d="M9.25974 4.54376V2.04376C9.25974 1.64594 9.11197 1.26441 8.84893 0.983102C8.58589 0.701797 8.22913 0.543762 7.85714 0.543762H2.4026C2.03061 0.543762 1.67385 0.701797 1.41081 0.983102C1.14777 1.26441 1 1.64594 1 2.04376V11.0438C1 11.4416 1.14777 11.8231 1.41081 12.1044C1.67385 12.3857 2.03061 12.5438 2.4026 12.5438H7.85714C8.22913 12.5438 8.58589 12.3857 8.84893 12.1044C9.11197 11.8231 9.25974 11.4416 9.25974 11.0438V8.54376M11.1299 8.54376L13 6.54376M13 6.54376L11.1299 4.54376M13 6.54376H5.05195" stroke="#FCFCFC" style="stroke:#FCFCFC;stroke:color(display-p3 0.9900 0.9900 0.9900);stroke-opacity:1;" stroke-linecap="round" stroke-linejoin="round"/>
</svg>
