<svg width="18" height="18" viewBox="0 0 18 18" fill="none" xmlns="http://www.w3.org/2000/svg">
<path fill-rule="evenodd" clip-rule="evenodd" d="M0.000610352 10.3845C0.000610352 8.36479 0.802897 6.42778 2.23098 4.99962C3.65906 3.57145 5.59595 2.76911 7.61556 2.76911C7.79916 2.76911 7.97524 2.84205 8.10507 2.97189C8.23489 3.10172 8.30783 3.27781 8.30783 3.46142V9.69222H14.5382C14.7218 9.69222 14.8979 9.76516 15.0277 9.89499C15.1576 10.0248 15.2305 10.2009 15.2305 10.3845C15.2305 12.4043 14.4282 14.3413 13.0001 15.7694C11.5721 17.1976 9.63517 17.9999 7.61556 17.9999C5.59595 17.9999 3.65906 17.1976 2.23098 15.7694C0.802897 14.3413 0.000610352 12.4043 0.000610352 10.3845Z" fill="white" style="fill:white;fill-opacity:1;"/>
<path fill-rule="evenodd" clip-rule="evenodd" d="M9.69219 0.69231C9.69219 0.508698 9.76513 0.332606 9.89496 0.202773C10.0248 0.0729395 10.2009 0 10.3845 0C12.4041 0 14.341 0.802336 15.769 2.2305C17.1971 3.65867 17.9994 5.59568 17.9994 7.61541C17.9994 7.79903 17.9265 7.97512 17.7967 8.10495C17.6668 8.23478 17.4907 8.30772 17.3071 8.30772H10.3845C10.2009 8.30772 10.0248 8.23478 9.89496 8.10495C9.76513 7.97512 9.69219 7.79903 9.69219 7.61541V0.69231Z" fill="white" style="fill:white;fill-opacity:1;"/>
</svg>
