<svg width="18" height="18" viewBox="0 0 18 18" fill="none" xmlns="http://www.w3.org/2000/svg">
<path d="M8.69486 0.0769748C8.78862 0.0264108 8.89347 -6.10352e-05 9 -6.10352e-05C9.10652 -6.10352e-05 9.21138 0.0264108 9.30514 0.0769748L17.6622 4.57694C17.7642 4.63202 17.8495 4.71369 17.9089 4.81328C17.9683 4.91287 17.9997 5.02668 17.9997 5.14265C17.9997 5.25862 17.9683 5.37243 17.9089 5.47202C17.8495 5.57161 17.7642 5.65328 17.6622 5.70836L9.30514 10.2083C9.21138 10.2589 9.10652 10.2854 9 10.2854C8.89347 10.2854 8.78862 10.2589 8.69486 10.2083L0.337847 5.70836C0.235795 5.65328 0.150543 5.57161 0.0911247 5.47202C0.0317067 5.37243 0.000335693 5.25862 0.000335693 5.14265C0.000335693 5.02668 0.0317067 4.91287 0.0911247 4.81328C0.150543 4.71369 0.235795 4.63202 0.337847 4.57694L8.69486 0.0769748Z" fill="white" style="fill:white;fill-opacity:1;"/>
<path d="M1.51289 7.80134L8.08536 11.3405C8.36642 11.4919 8.68067 11.5711 8.99992 11.5711C9.31916 11.5711 9.63341 11.4919 9.91448 11.3405L16.4869 7.80049L17.6612 8.43391C17.7633 8.48899 17.8485 8.57066 17.9079 8.67025C17.9674 8.76984 17.9987 8.88365 17.9987 8.99962C17.9987 9.11559 17.9674 9.2294 17.9079 9.32899C17.8485 9.42858 17.7633 9.51025 17.6612 9.56533L9.3042 14.0653C9.21065 14.1156 9.10611 14.1419 8.99992 14.1419C8.89372 14.1419 8.78918 14.1156 8.69564 14.0653L0.338623 9.56533C0.23657 9.51025 0.151318 9.42858 0.0919002 9.32899C0.0324822 9.2294 0.0011112 9.11559 0.0011112 8.99962C0.0011112 8.88365 0.0324822 8.76984 0.0919002 8.67025C0.151318 8.57066 0.23657 8.48899 0.338623 8.43391L1.51289 7.80134Z" fill="white" style="fill:white;fill-opacity:1;"/>
<path d="M8.08536 15.1981L1.51289 11.6582L0.338627 12.2916C0.236574 12.3467 0.151322 12.4283 0.0919038 12.5279C0.0324858 12.6275 0.00111478 12.7413 0.00111478 12.8573C0.00111478 12.9733 0.0324858 13.0871 0.0919038 13.1867C0.151322 13.2862 0.236574 13.3679 0.338627 13.423L8.69564 17.923C8.88507 18.0258 9.11478 18.0258 9.3042 17.923L17.6612 13.423C17.7633 13.3679 17.8485 13.2862 17.9079 13.1867C17.9674 13.0871 17.9987 12.9733 17.9987 12.8573C17.9987 12.7413 17.9674 12.6275 17.9079 12.5279C17.8485 12.4283 17.7633 12.3467 17.6612 12.2916L16.4869 11.659L9.91448 15.199C9.63335 15.3502 9.31906 15.4293 8.99981 15.4292C8.68057 15.429 8.36636 15.3496 8.08536 15.1981Z" fill="white" style="fill:white;fill-opacity:1;"/>
</svg>
