<svg width="18" height="18" viewBox="0 0 18 18" fill="none" xmlns="http://www.w3.org/2000/svg">
<path d="M8.54633 1.98965C8.66676 1.86801 8.83001 1.79969 9.00021 1.79969C9.17041 1.79969 9.33366 1.86801 9.45409 1.98965L16.896 9.51575C16.9552 9.57776 17.0261 9.62721 17.1045 9.66121C17.1829 9.69522 17.2672 9.71309 17.3524 9.7138C17.4377 9.71451 17.5223 9.69804 17.6012 9.66534C17.6801 9.63264 17.7518 9.58438 17.8121 9.52336C17.8724 9.46234 17.92 9.3898 17.9523 9.30996C17.9845 9.23011 18.0008 9.14458 18 9.05833C17.9992 8.97208 17.9814 8.88686 17.9477 8.80763C17.914 8.7284 17.8651 8.65674 17.8037 8.59686L10.3627 1.07075C10.1838 0.889802 9.97136 0.746264 9.73758 0.648334C9.50381 0.550404 9.25325 0.5 9.00021 0.5C8.74717 0.5 8.49661 0.550404 8.26284 0.648334C8.02906 0.746264 7.81665 0.889802 7.63772 1.07075L0.195859 8.59686C0.134544 8.6568 0.0856476 8.7285 0.0520239 8.80776C0.0184002 8.88703 0.000722261 8.97227 2.16734e-05 9.05852C-0.000678914 9.14476 0.0156118 9.23029 0.0479433 9.3101C0.0802749 9.38991 0.128 9.46241 0.188333 9.52337C0.248667 9.58433 0.3204 9.63252 0.399349 9.66515C0.478297 9.69777 0.562879 9.71416 0.64816 9.71337C0.733441 9.71258 0.817712 9.69462 0.896056 9.66055C0.974401 9.62647 1.04525 9.57695 1.10447 9.51488L8.54633 1.98965Z" fill="white" style="fill:white;fill-opacity:1;"/>
<path d="M9.00021 3.36756L15.9873 10.4338C16.013 10.4598 16.0387 10.484 16.0653 10.5083V15.8761C16.0653 16.7725 15.3459 17.5 14.4596 17.5H11.5693C11.399 17.5 11.2356 17.4316 11.1152 17.3098C10.9947 17.1879 10.927 17.0227 10.927 16.8505V12.9532C10.927 12.7809 10.8594 12.6157 10.7389 12.4939C10.6185 12.372 10.4551 12.3036 10.2848 12.3036H7.71565C7.54531 12.3036 7.38195 12.372 7.2615 12.4939C7.14104 12.6157 7.07338 12.7809 7.07338 12.9532V16.8505C7.07338 17.0227 7.00571 17.1879 6.88526 17.3098C6.76481 17.4316 6.60144 17.5 6.4311 17.5H3.54084C3.11499 17.5 2.70657 17.3289 2.40545 17.0244C2.10432 16.7198 1.93515 16.3068 1.93515 15.8761V10.5083C1.96179 10.4842 1.98778 10.4593 2.01308 10.4338L9.00021 3.36756Z" fill="white" style="fill:white;fill-opacity:1;"/>
</svg>
