<svg width="18" height="18" viewBox="0 0 18 18" fill="none" xmlns="http://www.w3.org/2000/svg">
<path d="M15.4286 17.5C16.1106 17.5 16.7646 17.2015 17.2468 16.6701C17.7291 16.1388 18 15.4181 18 14.6667V10.4167C18 9.66522 17.7291 8.94455 17.2468 8.4132C16.7646 7.88184 16.1106 7.58333 15.4286 7.58333H2.57143C1.88944 7.58333 1.23539 7.88184 0.753154 8.4132C0.270918 8.94455 0 9.66522 0 10.4167V14.6667C0 15.4181 0.270918 16.1388 0.753154 16.6701C1.23539 17.2015 1.88944 17.5 2.57143 17.5H15.4286ZM0 7.249V3.33333C0 2.58189 0.270918 1.86122 0.753154 1.32986C1.23539 0.798511 1.88944 0.5 2.57143 0.5H7.182C7.69319 0.500246 8.18339 0.724106 8.54486 1.12239L10.3637 3.12556C10.4837 3.25872 10.6474 3.33333 10.818 3.33333H15.4286C16.1106 3.33333 16.7646 3.63184 17.2468 4.1632C17.7291 4.69455 18 5.41522 18 6.16667V7.249C17.2936 6.55071 16.3776 6.16518 15.4286 6.16667H2.57143C1.62239 6.16518 0.706431 6.55071 0 7.249Z" fill="white" style="fill:white;fill-opacity:1;"/>
</svg>
