<svg width="18" height="18" viewBox="0 0 18 18" fill="none" xmlns="http://www.w3.org/2000/svg">
<path d="M16.65 12.9375C15.8691 12.9375 15.2333 12.3064 15.2333 11.5312V6.1875C15.2333 2.77537 12.4374 0 9 0C7.34737 0.00178669 5.76294 0.654256 4.59436 1.81425C3.42577 2.97424 2.76847 4.54702 2.76667 6.1875V11.5312C2.76667 12.3064 2.13087 12.9375 1.35 12.9375C1.12457 12.9375 0.908365 13.0264 0.748959 13.1846C0.589553 13.3429 0.5 13.5575 0.5 13.7812C0.5 14.005 0.589553 14.2196 0.748959 14.3779C0.908365 14.5361 1.12457 14.625 1.35 14.625H16.65C16.8754 14.625 17.0916 14.5361 17.251 14.3779C17.4104 14.2196 17.5 14.005 17.5 13.7812C17.5 13.5575 17.4104 13.3429 17.251 13.1846C17.0916 13.0264 16.8754 12.9375 16.65 12.9375ZM7.64113 15.75C7.55684 15.75 7.47361 15.7688 7.39753 15.8048C7.32144 15.8408 7.25441 15.8932 7.20131 15.9582C7.14822 16.0232 7.1104 16.0991 7.09061 16.1805C7.07083 16.2618 7.06957 16.3465 7.08693 16.4284C7.283 17.3531 8.07067 18 9.00113 18C9.9316 18 10.7193 17.3531 10.9153 16.4284C10.9327 16.3465 10.9314 16.2618 10.9117 16.1805C10.8919 16.0991 10.854 16.0232 10.801 15.9582C10.7479 15.8932 10.6808 15.8408 10.6047 15.8048C10.5287 15.7688 10.4454 15.75 10.3611 15.75H7.64113Z" fill="white" style="fill:white;fill-opacity:1;"/>
</svg>
