<svg width="18" height="18" viewBox="0 0 18 18" fill="none" xmlns="http://www.w3.org/2000/svg">
<path fill-rule="evenodd" clip-rule="evenodd" d="M6.69857 5.21486C9.16714 2.04257 13.0243 0 17.3571 0C17.5276 0 17.6912 0.0677294 17.8117 0.188289C17.9323 0.308848 18 0.472361 18 0.642857C18 4.97657 15.9574 8.83286 12.7851 11.3023C12.9171 12.1288 12.8681 12.9741 12.6417 13.7798C12.4152 14.5855 12.0166 15.3325 11.4734 15.9693C10.9302 16.606 10.2554 17.1173 9.49537 17.4679C8.73539 17.8185 7.90838 18 7.07143 18C6.90093 18 6.73742 17.9323 6.61686 17.8117C6.4963 17.6912 6.42857 17.5276 6.42857 17.3571V13.8163C5.59537 13.1583 4.84222 12.4049 4.18457 11.5714H0.642857C0.472361 11.5714 0.308848 11.5037 0.188289 11.3831C0.0677294 11.2626 1.89411e-08 11.0991 1.89411e-08 10.9286C-6.77076e-05 10.0915 0.181487 9.26445 0.532134 8.50439C0.882782 7.74434 1.39417 7.06942 2.03101 6.52621C2.66785 5.983 3.41497 5.58445 4.22081 5.35805C5.02665 5.13164 5.87202 5.08279 6.69857 5.21486ZM11.5714 4.5C11.0599 4.5 10.5694 4.70319 10.2077 5.06487C9.84605 5.42654 9.64286 5.91708 9.64286 6.42857C9.64286 6.94006 9.84605 7.4306 10.2077 7.79228C10.5694 8.15396 11.0599 8.35714 11.5714 8.35714C12.0829 8.35714 12.5735 8.15396 12.9351 7.79228C13.2968 7.4306 13.5 6.94006 13.5 6.42857C13.5 5.91708 13.2968 5.42654 12.9351 5.06487C12.5735 4.70319 12.0829 4.5 11.5714 4.5Z" fill="white" style="fill:white;fill-opacity:1;"/>
<path d="M3.22287 13.4932C3.29058 13.4427 3.34768 13.3794 3.39091 13.3068C3.43414 13.2343 3.46266 13.1539 3.47484 13.0703C3.48702 12.9867 3.48261 12.9016 3.46188 12.8197C3.44115 12.7379 3.4045 12.6609 3.35401 12.5932C3.30353 12.5255 3.24021 12.4684 3.16765 12.4251C3.0951 12.3819 3.01475 12.3534 2.93117 12.3412C2.8476 12.329 2.76245 12.3334 2.68058 12.3541C2.59871 12.3749 2.52172 12.4115 2.45401 12.462C1.79649 12.9511 1.28522 13.6107 0.975514 14.3694C0.665806 15.1281 0.56945 15.9571 0.696871 16.7666C0.717593 16.9014 0.780668 17.0262 0.876974 17.1228C0.973279 17.2194 1.09782 17.2829 1.23259 17.304C2.04218 17.4313 2.87119 17.3349 3.6299 17.025C4.38862 16.7151 5.04816 16.2037 5.53716 15.546C5.58927 15.4785 5.62742 15.4013 5.64939 15.3189C5.67136 15.2364 5.67671 15.1505 5.66513 15.066C5.65354 14.9815 5.62526 14.9001 5.58192 14.8266C5.53859 14.7532 5.48106 14.6891 5.4127 14.6381C5.34434 14.587 5.26652 14.5501 5.18376 14.5295C5.101 14.5089 5.01496 14.5049 4.93065 14.5179C4.84634 14.5308 4.76545 14.5604 4.6927 14.6049C4.61994 14.6494 4.55677 14.708 4.50687 14.7772C4.20796 15.1792 3.81908 15.5056 3.37137 15.7304C2.92365 15.9551 2.42954 16.0719 1.92859 16.0714C1.92859 15.0172 2.43601 14.0803 3.22287 13.4932Z" fill="white" style="fill:white;fill-opacity:1;"/>
</svg>
