<svg width="18" height="18" viewBox="0 0 18 18" fill="none" xmlns="http://www.w3.org/2000/svg">
<path fill-rule="evenodd" clip-rule="evenodd" d="M9.44985 0.183699C9.32838 0.0657473 9.16738 0 9 0C8.83263 0 8.67162 0.0657473 8.55016 0.183699C6.69957 1.98382 4.23488 2.97095 1.68303 2.93405C1.54401 2.9322 1.40803 2.97579 1.29484 3.05849C1.18165 3.14118 1.09715 3.25869 1.0536 3.39393C0.685674 4.54244 0.498801 5.74366 0.500006 6.95242C0.500006 12.2584 4.04298 16.7153 8.83698 17.9788C8.94391 18.0071 9.05609 18.0071 9.16303 17.9788C13.957 16.7153 17.5 12.2584 17.5 6.95242C17.5 5.71119 17.3056 4.51461 16.9464 3.39393C16.903 3.25852 16.8186 3.14082 16.7054 3.05795C16.5922 2.97508 16.4561 2.93137 16.317 2.93316L16.1923 2.93405C13.5804 2.93405 11.2083 1.88927 9.44985 0.183699Z" fill="white" style="fill:white;fill-opacity:1;"/>
</svg>
