<svg width="16" height="14" viewBox="0 0 16 14" fill="none" xmlns="http://www.w3.org/2000/svg">
<path d="M12.9219 0.5H3.07812C2.39452 0.500492 1.73905 0.769686 1.25566 1.24847C0.772279 1.72725 0.500497 2.37647 0.5 3.05357V10.9464C0.500497 11.6235 0.772279 12.2728 1.25566 12.7515C1.73905 13.2303 2.39452 13.4995 3.07812 13.5H12.9219C13.6055 13.4995 14.261 13.2303 14.7443 12.7515C15.2277 12.2728 15.4995 11.6235 15.5 10.9464V3.05357C15.4995 2.37647 15.2277 1.72725 14.7443 1.24847C14.261 0.769686 13.6055 0.500492 12.9219 0.5ZM4.71875 10.0179C4.71875 10.2026 4.64467 10.3797 4.51281 10.5103C4.38095 10.6409 4.20211 10.7143 4.01562 10.7143C3.82914 10.7143 3.6503 10.6409 3.51844 10.5103C3.38658 10.3797 3.3125 10.2026 3.3125 10.0179V3.98214C3.3125 3.79744 3.38658 3.6203 3.51844 3.48969C3.6503 3.35909 3.82914 3.28571 4.01562 3.28571C4.20211 3.28571 4.38095 3.35909 4.51281 3.48969C4.64467 3.6203 4.71875 3.79744 4.71875 3.98214V10.0179ZM11.9844 7.69643H8.05719L8.96656 8.59714C9.09471 8.72843 9.16566 8.90432 9.16415 9.08692C9.16263 9.26952 9.08877 9.44423 8.95846 9.57342C8.82816 9.7026 8.65184 9.77593 8.46749 9.7776C8.28313 9.77927 8.10548 9.70916 7.97281 9.58236L5.86344 7.49307C5.7981 7.4284 5.74627 7.3516 5.7109 7.26708C5.67554 7.18256 5.65734 7.09196 5.65734 7.00046C5.65734 6.90897 5.67554 6.81837 5.7109 6.73385C5.74627 6.64933 5.7981 6.57253 5.86344 6.50786L7.97281 4.41857C8.10472 4.28792 8.28362 4.21453 8.47016 4.21453C8.6567 4.21453 8.8356 4.28792 8.9675 4.41857C9.0994 4.54922 9.17351 4.72642 9.17351 4.91118C9.17351 5.09594 9.0994 5.27314 8.9675 5.40379L8.05813 6.3045H11.9853C12.1718 6.3045 12.3506 6.37787 12.4825 6.50848C12.6144 6.63908 12.6884 6.81622 12.6884 7.00093C12.6884 7.18563 12.6144 7.36277 12.4825 7.49338C12.3506 7.62398 12.1718 7.69736 11.9853 7.69736L11.9844 7.69643Z" fill="white" style="fill:white;fill-opacity:1;"/>
</svg>
