<svg width="16" height="12" viewBox="0 0 16 12" fill="none" xmlns="http://www.w3.org/2000/svg">
<path fill-rule="evenodd" clip-rule="evenodd" d="M13.3657 0.502865C14.5546 0.561757 15.5 1.52292 15.5 2.7V9.3L15.4971 9.41315C15.4388 10.5381 14.5163 11.4401 13.3657 11.4971L13.25 11.5H2.75L2.63428 11.4971C1.48375 11.4401 0.561219 10.5381 0.50293 9.41315L0.5 9.3V2.7C0.5 1.52292 1.44542 0.561757 2.63428 0.502865L2.75 0.5H13.25L13.3657 0.502865ZM2.75 1.6C2.12868 1.6 1.625 2.09249 1.625 2.7V9.3C1.625 9.90751 2.12868 10.4 2.75 10.4H5.75V1.6H2.75ZM6.875 10.4H13.25C13.8713 10.4 14.375 9.90751 14.375 9.3V2.7C14.375 2.09249 13.8713 1.6 13.25 1.6H6.875V10.4Z" fill="white" style="fill:white;fill-opacity:1;"/>
</svg>
