<svg width="16" height="16" viewBox="0 0 16 16" fill="none" xmlns="http://www.w3.org/2000/svg">
<path fill-rule="evenodd" clip-rule="evenodd" d="M7.85887 8.88241e-08C7.10728 8.88241e-08 6.46482 0.544 6.34092 1.28574L6.26626 1.73621C6.24556 1.84928 6.19546 1.95491 6.121 2.04248C6.04653 2.13005 5.95033 2.19648 5.84205 2.23508C5.70947 2.28467 5.57866 2.33886 5.44985 2.39754C5.34596 2.44693 5.2309 2.46808 5.11624 2.45886C5.00158 2.44964 4.89138 2.41038 4.79672 2.34503L4.42503 2.07918C4.12865 1.86744 3.76676 1.76771 3.40376 1.79776C3.04076 1.82781 2.70019 1.98569 2.44267 2.24328L2.24328 2.44267C1.98569 2.70019 1.82781 3.04076 1.79776 3.40376C1.76771 3.76676 1.86744 4.12865 2.07918 4.42503L2.34503 4.79672C2.41038 4.89138 2.44964 5.00158 2.45886 5.11624C2.46808 5.2309 2.44693 5.34596 2.39754 5.44985C2.33886 5.57866 2.28467 5.70947 2.23508 5.84205C2.19648 5.95033 2.13005 6.04653 2.04248 6.121C1.95491 6.19546 1.84928 6.24556 1.73621 6.26626L1.28492 6.34174C0.925881 6.40173 0.599742 6.58709 0.364479 6.86487C0.129216 7.14265 7.05012e-05 7.49485 0 7.85887V8.14113C0 8.89272 0.544 9.53518 1.28574 9.65908L1.73621 9.73374C1.96677 9.77231 2.15303 9.93887 2.23508 10.1579C2.28431 10.2909 2.33928 10.4213 2.39754 10.5502C2.44693 10.654 2.46808 10.7691 2.45886 10.8838C2.44964 10.9984 2.41038 11.1086 2.34503 11.2033L2.07918 11.575C1.86744 11.8714 1.76771 12.2332 1.79776 12.5962C1.82781 12.9592 1.98569 13.2998 2.24328 13.5573L2.44267 13.7567C2.97436 14.2884 3.81292 14.3582 4.42503 13.9208L4.79672 13.655C4.89138 13.5896 5.00158 13.5504 5.11624 13.5411C5.2309 13.5319 5.34596 13.5531 5.44985 13.6025C5.57867 13.6607 5.70913 13.7149 5.84205 13.7649C6.06113 13.847 6.22769 14.0332 6.26626 14.2638L6.34174 14.7151C6.46482 15.456 7.10646 16 7.85887 16H8.14113C8.89272 16 9.53518 15.456 9.65908 14.7143L9.73374 14.2638C9.75444 14.1507 9.80454 14.0451 9.879 13.9575C9.95347 13.8699 10.0497 13.8035 10.1579 13.7649C10.2905 13.7153 10.4213 13.6611 10.5502 13.6025C10.654 13.5531 10.7691 13.5319 10.8838 13.5411C10.9984 13.5504 11.1086 13.5896 11.2033 13.655L11.575 13.9208C11.8714 14.1326 12.2332 14.2323 12.5962 14.2022C12.9592 14.1722 13.2998 14.0143 13.5573 13.7567L13.7567 13.5573C14.2884 13.0256 14.3582 12.1871 13.9208 11.575L13.655 11.2033C13.5896 11.1086 13.5504 10.9984 13.5411 10.8838C13.5319 10.7691 13.5531 10.654 13.6025 10.5502C13.6607 10.4213 13.7149 10.2909 13.7649 10.1579C13.847 9.93887 14.0332 9.77231 14.2638 9.73374L14.7151 9.65908C15.0743 9.59906 15.4005 9.41359 15.6358 9.13564C15.8711 8.85769 16.0001 8.50529 16 8.14113V7.85887C16 7.10728 15.456 6.46482 14.7143 6.34092L14.2638 6.26626C14.1507 6.24556 14.0451 6.19546 13.9575 6.121C13.8699 6.04653 13.8035 5.95033 13.7649 5.84205C13.7153 5.70949 13.6611 5.57868 13.6025 5.44985C13.5531 5.34596 13.5319 5.2309 13.5411 5.11624C13.5504 5.00158 13.5896 4.89138 13.655 4.79672L13.9208 4.42503C14.1326 4.12865 14.2323 3.76676 14.2022 3.40376C14.1722 3.04076 14.0143 2.70019 13.7567 2.44267L13.5573 2.24328C13.2998 1.98569 12.9592 1.82781 12.5962 1.79776C12.2332 1.76771 11.8714 1.86744 11.575 2.07918L11.2033 2.34503C11.1086 2.41038 10.9984 2.44964 10.8838 2.45886C10.7691 2.46808 10.654 2.44693 10.5502 2.39754C10.4213 2.33887 10.2905 2.28468 10.1579 2.23508C10.0497 2.19648 9.95347 2.13005 9.879 2.04248C9.80454 1.95491 9.75444 1.84928 9.73374 1.73621L9.65908 1.28492C9.59906 0.925742 9.41359 0.599494 9.13564 0.364214C8.85769 0.128933 8.50529 -0.000123599 8.14113 8.88241e-08H7.85887ZM8 11.0769C8.81605 11.0769 9.59868 10.7527 10.1757 10.1757C10.7527 9.59868 11.0769 8.81605 11.0769 8C11.0769 7.18395 10.7527 6.40132 10.1757 5.82429C9.59868 5.24725 8.81605 4.92308 8 4.92308C7.18395 4.92308 6.40132 5.24725 5.82429 5.82429C5.24725 6.40132 4.92308 7.18395 4.92308 8C4.92308 8.81605 5.24725 9.59868 5.82429 10.1757C6.40132 10.7527 7.18395 11.0769 8 11.0769Z" fill="#F5F5FF" style="fill:#F5F5FF;fill:color(display-p3 0.9615 0.9615 1.0000);fill-opacity:1;"/>
</svg>
