<svg width="14" height="15" viewBox="0 0 14 15" fill="none" xmlns="http://www.w3.org/2000/svg">
<path d="M13.3 10.7812C12.6569 10.7812 12.1333 10.2553 12.1333 9.60938V5.15625C12.1333 2.31281 9.8308 0 7 0C5.63901 0.00148891 4.33419 0.545213 3.37182 1.51188C2.40946 2.47854 1.86815 3.78918 1.86667 5.15625V9.60938C1.86667 10.2553 1.34307 10.7812 0.7 10.7812C0.514348 10.7812 0.336301 10.8553 0.205025 10.9872C0.0737497 11.1191 0 11.2979 0 11.4844C0 11.6709 0.0737497 11.8497 0.205025 11.9816C0.336301 12.1134 0.514348 12.1875 0.7 12.1875H13.3C13.4857 12.1875 13.6637 12.1134 13.795 11.9816C13.9263 11.8497 14 11.6709 14 11.4844C14 11.2979 13.9263 11.1191 13.795 10.9872C13.6637 10.8553 13.4857 10.7812 13.3 10.7812ZM5.88093 13.125C5.81151 13.125 5.74298 13.1406 5.68032 13.1706C5.61766 13.2007 5.56245 13.2443 5.51873 13.2985C5.475 13.3527 5.44386 13.4159 5.42756 13.4837C5.41127 13.5515 5.41023 13.6221 5.42453 13.6903C5.586 14.4609 6.23467 15 7.00093 15C7.7672 15 8.41587 14.4609 8.57733 13.6903C8.59163 13.6221 8.5906 13.5515 8.5743 13.4837C8.55801 13.4159 8.52686 13.3527 8.48314 13.2985C8.43941 13.2443 8.38421 13.2007 8.32155 13.1706C8.25889 13.1406 8.19035 13.125 8.12093 13.125H5.88093Z" fill="white" style="fill:white;fill-opacity:1;"/>
</svg>
