<svg width="16" height="12" viewBox="0 0 16 12" fill="none" xmlns="http://www.w3.org/2000/svg">
<path d="M4.77515 5.6C4.81642 5.60006 4.8497 5.63569 4.84985 5.67969V6.32031C4.8497 6.36431 4.81642 6.39994 4.77515 6.4H2.67529C2.63397 6.4 2.60001 6.36435 2.59985 6.32031V5.67969C2.60001 5.63565 2.63397 5.6 2.67529 5.6H4.77515Z" fill="white" style="fill:white;fill-opacity:1;"/>
<path d="M4.77515 4C4.81642 4.00006 4.8497 4.03569 4.84985 4.07969V4.72031C4.8497 4.76431 4.81642 4.79994 4.77515 4.8H2.67529C2.63397 4.8 2.60001 4.76435 2.59985 4.72031V4.07969C2.60001 4.03565 2.63397 4 2.67529 4H4.77515Z" fill="white" style="fill:white;fill-opacity:1;"/>
<path d="M4.77515 2.4C4.81642 2.40006 4.8497 2.43569 4.84985 2.47969V3.12031C4.8497 3.16431 4.81642 3.19994 4.77515 3.2H2.67529C2.63397 3.2 2.60001 3.16435 2.59985 3.12031V2.47969C2.60001 2.43565 2.63397 2.4 2.67529 2.4H4.77515Z" fill="white" style="fill:white;fill-opacity:1;"/>
<path fill-rule="evenodd" clip-rule="evenodd" d="M13.3657 0.003125C14.5546 0.0673713 15.5 1.11592 15.5 2.4V9.6L15.4971 9.72344C15.4388 10.9507 14.5163 11.9347 13.3657 11.9969L13.25 12H2.75L2.63428 11.9969C1.48375 11.9347 0.561219 10.9507 0.50293 9.72344L0.5 9.6V2.4C0.5 1.11592 1.44542 0.0673716 2.63428 0.003125L2.75 0H13.25L13.3657 0.003125ZM2.75 1.2C2.12868 1.2 1.625 1.73726 1.625 2.4V9.6C1.625 10.2627 2.12868 10.8 2.75 10.8H5.75V1.2H2.75ZM6.875 10.8H13.25C13.8713 10.8 14.375 10.2627 14.375 9.6V2.4C14.375 1.73726 13.8713 1.2 13.25 1.2H6.875V10.8Z" fill="white" style="fill:white;fill-opacity:1;"/>
</svg>
