<svg width="16" height="16" viewBox="0 0 16 16" fill="none" xmlns="http://www.w3.org/2000/svg">
<path d="M13.6958 3.91803C14.0656 3.91803 14.4205 4.06487 14.6821 4.32623C14.9436 4.5877 15.0911 4.94283 15.0913 5.31256C15.0913 5.63632 14.9783 5.94904 14.7749 6.19733L14.6821 6.29987L6.67334 14.3096C6.37957 14.6032 6.02577 14.8283 5.63721 14.9708L5.46924 15.0274L3.97217 15.4727C3.84911 15.5093 3.7163 15.4756 3.62549 15.3848C3.53494 15.294 3.50109 15.1611 3.5376 15.0381L3.98291 13.5411L4.03857 13.3721C4.18113 12.9836 4.40718 12.6297 4.70068 12.336L11.769 5.26764L12.7095 4.32623L12.812 4.23346C13.0601 4.03029 13.3723 3.91808 13.6958 3.91803ZM5.1958 12.8311C4.97422 13.0529 4.80342 13.32 4.6958 13.6133L4.65381 13.7413L4.39209 14.6172L5.26904 14.3565L5.396 14.3135C5.68956 14.2059 5.95728 14.0363 6.1792 13.8145L12.9995 6.99225L12.0161 6.00885L5.1958 12.8311ZM4.93213 0.995178C5.19196 2.75358 6.57241 4.13473 8.33057 4.39459L8.81299 4.46588L8.33057 4.53619C6.57245 4.79604 5.19201 6.17726 4.93213 7.93561L4.86084 8.41803L4.78955 7.93561C4.52967 6.17726 3.14923 4.79604 1.39111 4.53619L0.908691 4.46588L1.39111 4.39459C3.14926 4.13473 4.52972 2.75358 4.78955 0.995178L4.86084 0.512756L4.93213 0.995178ZM13.6958 4.61725C13.5576 4.61729 13.4234 4.65887 13.3101 4.73444L13.2046 4.82135L12.5112 5.51471L13.4937 6.49713L14.187 5.80475L14.2739 5.6983C14.3494 5.585 14.3911 5.45071 14.3911 5.31256C14.3909 5.12845 14.3172 4.95154 14.187 4.82135C14.0567 4.69125 13.8799 4.61725 13.6958 4.61725Z" fill="white" style="fill:white;fill-opacity:1;"/>
</svg>
