<svg width="16" height="16" viewBox="0 0 16 16" fill="none" xmlns="http://www.w3.org/2000/svg">
<path fill-rule="evenodd" clip-rule="evenodd" d="M0 1.53846C0 0.68841 0.689231 0 1.53846 0H5.84615C6.69621 0 7.38462 0.689231 7.38462 1.53846V12.3077C7.38462 13.287 6.99561 14.2261 6.30316 14.9185C5.61072 15.611 4.67157 16 3.69231 16C2.71305 16 1.77389 15.611 1.08145 14.9185C0.38901 14.2261 0 13.287 0 12.3077V1.53846ZM3.69231 13.2308C3.93712 13.2308 4.17191 13.1335 4.34502 12.9604C4.51813 12.7873 4.61538 12.5525 4.61538 12.3077C4.61538 12.0629 4.51813 11.8281 4.34502 11.655C4.17191 11.4819 3.93712 11.3846 3.69231 11.3846C3.44749 11.3846 3.2127 11.4819 3.03959 11.655C2.86648 11.8281 2.76923 12.0629 2.76923 12.3077C2.76923 12.5525 2.86648 12.7873 3.03959 12.9604C3.2127 13.1335 3.44749 13.2308 3.69231 13.2308Z" fill="#F5F5FF" style="fill:#F5F5FF;fill:color(display-p3 0.9615 0.9615 1.0000);fill-opacity:1;"/>
<path d="M6.94892 15.9999H14.4615C15.3116 15.9999 16 15.3107 16 14.4614V10.1538C16 9.3037 15.3108 8.61529 14.4615 8.61529H14.3467L7.17374 15.789C7.09989 15.8621 7.02605 15.9326 6.94892 15.9999ZM8.60553 12.6153L13.9175 7.30329C14.2059 7.0148 14.3679 6.6236 14.3679 6.2157C14.3679 5.80781 14.2059 5.41661 13.9175 5.12811L10.8718 2.08155C10.5833 1.79319 10.1921 1.63121 9.7842 1.63121C9.37631 1.63121 8.98511 1.79319 8.69661 2.08155L8.61456 2.16278V12.3076C8.61456 12.411 8.61128 12.5135 8.60553 12.6153Z" fill="#F5F5FF" style="fill:#F5F5FF;fill:color(display-p3 0.9615 0.9615 1.0000);fill-opacity:1;"/>
</svg>
