<svg width="15" height="15" viewBox="0 0 15 15" fill="none" xmlns="http://www.w3.org/2000/svg">
<path d="M5.99033 5.99615L0.583566 11.2084C0.209804 11.5707 0 12.0609 0 12.5719C0 13.0829 0.209804 13.5731 0.583566 13.9354C0.962518 14.2998 1.46396 14.5 1.99985 14.5C2.53478 14.5 3.03718 14.2998 3.41518 13.9354L8.82098 8.72406L5.99033 5.99615ZM14.5091 5.80426L9.96358 1.42226C9.69713 1.16588 9.34893 1.0034 8.97505 0.961L4.96544 0.505272C4.85776 0.492296 4.74843 0.503351 4.64589 0.537581C4.54335 0.571812 4.45034 0.628303 4.37404 0.702692L3.95872 1.10307C3.89203 1.16732 3.83912 1.24362 3.80303 1.32759C3.76693 1.41156 3.74835 1.50157 3.74835 1.59247C3.74835 1.68337 3.76693 1.77337 3.80303 1.85735C3.83912 1.94132 3.89203 2.01762 3.95872 2.08187L11.1645 9.02942C11.4899 9.344 11.9196 9.50175 12.3483 9.50175C12.777 9.50175 13.2057 9.34492 13.532 9.02942L14.5081 8.08844C14.8239 7.78216 15 7.3781 15 6.94543C15 6.51369 14.8258 6.1087 14.5091 5.80426Z" fill="#FCFCFC" style="fill:#FCFCFC;fill:color(display-p3 0.9900 0.9900 0.9900);fill-opacity:1;"/>
</svg>
