<svg width="15" height="15" viewBox="0 0 15 15" fill="none" xmlns="http://www.w3.org/2000/svg">
<path d="M8.25558 5.24105C8.6988 5.45266 9.08476 5.76755 9.38104 6.15925C9.67732 6.55096 9.87528 7.00805 9.95827 7.49212C10.0413 7.9762 10.0069 8.47312 9.858 8.94115C9.70913 9.40919 9.4501 9.83465 9.10269 10.1818L6.03347 13.251C5.45787 13.8266 4.6772 14.15 3.86319 14.15C3.04917 14.15 2.2685 13.8266 1.69291 13.251C1.11731 12.6754 0.793945 11.8948 0.793945 11.0808C0.793945 10.2667 1.11731 9.48607 1.69291 8.91048L2.89127 7.71212M11.9966 7.28788L13.195 6.08952C13.7706 5.51393 14.0939 4.73325 14.0939 3.91924C14.0939 3.10523 13.7706 2.32455 13.195 1.74896C12.6194 1.17336 11.8387 0.849998 11.0247 0.849998C10.2107 0.849998 9.43002 1.17336 8.85442 1.74896L5.7852 4.81818C5.43779 5.16535 5.17877 5.59081 5.02989 6.05884C4.88101 6.52687 4.84662 7.0238 4.92962 7.50787C5.01262 7.99195 5.21057 8.44904 5.50685 8.84075C5.80313 9.23245 6.18909 9.54734 6.63231 9.75895" stroke="#FCFCFC" style="stroke:#FCFCFC;stroke:color(display-p3 0.9900 0.9900 0.9900);stroke-opacity:1;" stroke-width="1.58806" stroke-linecap="round" stroke-linejoin="round"/>
</svg>
