<svg width="156" height="156" viewBox="0 0 156 156" fill="none" xmlns="http://www.w3.org/2000/svg">
<mask id="mask0_47_2821" style="mask-type:luminance" maskUnits="userSpaceOnUse" x="0" y="0" width="156" height="156">
<path d="M0 59.1724H5.37931V56.4827C5.37931 55.7694 5.09594 55.0853 4.59152 54.5809C4.08711 54.0765 3.403 53.7931 2.68966 53.7931C1.97631 53.7931 1.2922 54.0765 0.787792 54.5809C0.283368 55.0853 0 55.7694 0 56.4827" fill="white" style="fill:white;fill-opacity:1;"/>
<path d="M5.37931 64.5517V59.1724H0V61.8621C0 62.5754 0.283369 63.2595 0.787774 63.7639C1.2922 64.2684 1.97631 64.5517 2.68966 64.5517" fill="white" style="fill:white;fill-opacity:1;"/>
<path d="M2.68966 91.4483C4.17511 91.4483 5.37931 90.244 5.37931 88.7586C5.37931 87.2732 4.17511 86.069 2.68966 86.069C1.2042 86.069 0 87.2732 0 88.7586C0 90.244 1.2042 91.4483 2.68966 91.4483Z" fill="white" style="fill:white;fill-opacity:1;"/>
<path d="M5.37931 102.207V96.8276H2.68966C1.97631 96.8276 1.2922 97.1109 0.787774 97.6154C0.283369 98.1198 0 98.8039 0 99.5172C0 100.231 0.283369 100.915 0.787774 101.419C1.2922 101.924 1.97631 102.207 2.68966 102.207" fill="white" style="fill:white;fill-opacity:1;"/>
<path d="M5.37931 112.966V107.586H2.68966C1.97631 107.586 1.2922 107.87 0.787774 108.374C0.283369 108.878 0 109.563 0 110.276C0 110.989 0.283369 111.673 0.787774 112.178C1.2922 112.682 1.97631 112.966 2.68966 112.966" fill="white" style="fill:white;fill-opacity:1;"/>
<path d="M10.7587 48.4138V43.0345H8.06905C7.35568 43.0345 6.67164 43.3179 6.16717 43.8223C5.66276 44.3267 5.37939 45.0108 5.37939 45.7241C5.37939 46.4375 5.66276 47.1215 6.16717 47.626C6.67164 48.1304 7.35568 48.4138 8.06905 48.4138" fill="white" style="fill:white;fill-opacity:1;"/>
<path d="M10.7587 59.1724H5.37939V64.5517H10.7587V59.1724Z" fill="white" style="fill:white;fill-opacity:1;"/>
<path d="M10.7587 64.5517H5.37939V67.2414C5.37939 67.9547 5.66276 68.6388 6.16719 69.1432C6.67164 69.6476 7.35568 69.931 8.06905 69.931C8.78242 69.931 9.46646 69.6476 9.9709 69.1432C10.4753 68.6388 10.7587 67.9547 10.7587 67.2414" fill="white" style="fill:white;fill-opacity:1;"/>
<path d="M5.37939 96.8276V102.207H10.7587V99.5172C10.7587 98.8039 10.4753 98.1198 9.9709 97.6154C9.46646 97.1109 8.78242 96.8276 8.06905 96.8276" fill="white" style="fill:white;fill-opacity:1;"/>
<path d="M10.7587 102.207H5.37939V107.586H10.7587V102.207Z" fill="white" style="fill:white;fill-opacity:1;"/>
<path d="M10.7587 107.586H5.37939V112.966H10.7587V107.586Z" fill="white" style="fill:white;fill-opacity:1;"/>
<path d="M10.7585 43.0345V48.4138H16.1379V45.7241C16.1379 45.0108 15.8545 44.3267 15.35 43.8223C14.8456 43.3179 14.1616 43.0345 13.4482 43.0345" fill="white" style="fill:white;fill-opacity:1;"/>
<path d="M16.1379 48.4138H10.7585V51.1034C10.7585 51.8168 11.0419 52.5008 11.5464 53.0053C12.0508 53.5097 12.7348 53.7931 13.4482 53.7931C14.1616 53.7931 14.8456 53.5097 15.35 53.0053C15.8545 52.5008 16.1379 51.8168 16.1379 51.1034" fill="white" style="fill:white;fill-opacity:1;"/>
<path d="M10.7585 59.1724V64.5517H13.4482C14.1616 64.5517 14.8456 64.2684 15.35 63.7639C15.8545 63.2595 16.1379 62.5754 16.1379 61.8621C16.1379 61.1487 15.8545 60.4647 15.35 59.9602C14.8456 59.4558 14.1616 59.1724 13.4482 59.1724" fill="white" style="fill:white;fill-opacity:1;"/>
<path d="M10.7585 80.6897H16.1379V75.3104H13.4482C12.7348 75.3104 12.0508 75.5937 11.5464 76.0982C11.0419 76.6026 10.7585 77.2867 10.7585 78" fill="white" style="fill:white;fill-opacity:1;"/>
<path d="M16.1379 80.6896H10.7585V86.0689H16.1379V80.6896Z" fill="white" style="fill:white;fill-opacity:1;"/>
<path d="M16.1379 86.069H10.7585V88.7586C10.7585 89.472 11.0419 90.156 11.5464 90.6605C12.0508 91.1649 12.7348 91.4483 13.4482 91.4483C14.1616 91.4483 14.8456 91.1649 15.35 90.6605C15.8545 90.156 16.1379 89.472 16.1379 88.7586" fill="white" style="fill:white;fill-opacity:1;"/>
<path d="M10.7585 107.586V112.966H13.4482C14.1616 112.966 14.8456 112.682 15.35 112.178C15.8545 111.673 16.1379 110.989 16.1379 110.276C16.1379 109.563 15.8545 108.878 15.35 108.374C14.8456 107.87 14.1616 107.586 13.4482 107.586" fill="white" style="fill:white;fill-opacity:1;"/>
<path d="M21.5175 59.1724V53.7931H18.8278C18.1145 53.7931 17.4304 54.0765 16.926 54.5809C16.4216 55.0853 16.1382 55.7694 16.1382 56.4827C16.1382 57.1961 16.4216 57.8802 16.926 58.3846C17.4304 58.889 18.1145 59.1724 18.8278 59.1724" fill="white" style="fill:white;fill-opacity:1;"/>
<path d="M21.5175 75.3104H16.1382V80.6897H21.5175V75.3104Z" fill="white" style="fill:white;fill-opacity:1;"/>
<path d="M21.5175 96.8276V91.4483H18.8278C18.1145 91.4483 17.4304 91.7317 16.926 92.2361C16.4216 92.7405 16.1382 93.4246 16.1382 94.138C16.1382 94.8513 16.4216 95.5354 16.926 96.0398C17.4304 96.5442 18.1145 96.8276 18.8278 96.8276" fill="white" style="fill:white;fill-opacity:1;"/>
<path d="M21.5175 107.586V102.207H18.8278C18.1145 102.207 17.4304 102.49 16.926 102.995C16.4216 103.499 16.1382 104.183 16.1382 104.897C16.1382 105.61 16.4216 106.294 16.926 106.798C17.4304 107.303 18.1145 107.586 18.8278 107.586" fill="white" style="fill:white;fill-opacity:1;"/>
<path d="M21.5171 53.7931V59.1724H24.2067C24.9201 59.1724 25.6042 58.889 26.1086 58.3846C26.613 57.8802 26.8964 57.1961 26.8964 56.4827C26.8964 55.7694 26.613 55.0853 26.1086 54.5809C25.6042 54.0765 24.9201 53.7931 24.2067 53.7931" fill="white" style="fill:white;fill-opacity:1;"/>
<path d="M24.2067 69.931C25.6921 69.931 26.8964 68.7267 26.8964 67.2414C26.8964 65.756 25.6921 64.5517 24.2067 64.5517C22.7214 64.5517 21.5171 65.756 21.5171 67.2414C21.5171 68.7267 22.7214 69.931 24.2067 69.931Z" fill="white" style="fill:white;fill-opacity:1;"/>
<path d="M26.8964 75.3104H21.5171V80.6897H26.8964V75.3104Z" fill="white" style="fill:white;fill-opacity:1;"/>
<path d="M21.5171 91.4483V96.8276H26.8964V94.138C26.8964 93.4246 26.613 92.7405 26.1086 92.2361C25.6042 91.7317 24.9201 91.4483 24.2067 91.4483" fill="white" style="fill:white;fill-opacity:1;"/>
<path d="M26.8964 96.8276H21.5171V102.207H26.8964V96.8276Z" fill="white" style="fill:white;fill-opacity:1;"/>
<path d="M26.8964 102.207H21.5171V107.586H26.8964V102.207Z" fill="white" style="fill:white;fill-opacity:1;"/>
<path d="M29.5861 53.7931C31.0715 53.7931 32.2758 52.5888 32.2758 51.1034C32.2758 49.618 31.0715 48.4138 29.5861 48.4138C28.1008 48.4138 26.8965 49.618 26.8965 51.1034C26.8965 52.5888 28.1008 53.7931 29.5861 53.7931Z" fill="white" style="fill:white;fill-opacity:1;"/>
<path d="M29.5861 64.5517C31.0715 64.5517 32.2758 63.3475 32.2758 61.8621C32.2758 60.3767 31.0715 59.1724 29.5861 59.1724C28.1008 59.1724 26.8965 60.3767 26.8965 61.8621C26.8965 63.3475 28.1008 64.5517 29.5861 64.5517Z" fill="white" style="fill:white;fill-opacity:1;"/>
<path d="M26.8965 75.3103H32.2758V72.6207C32.2758 71.9073 31.9924 71.2233 31.488 70.7188C30.9835 70.2144 30.2995 69.931 29.5861 69.931C28.8728 69.931 28.1887 70.2144 27.6843 70.7188C27.1799 71.2233 26.8965 71.9073 26.8965 72.6207" fill="white" style="fill:white;fill-opacity:1;"/>
<path d="M32.2758 75.3104H26.8965V80.6897H32.2758V75.3104Z" fill="white" style="fill:white;fill-opacity:1;"/>
<path d="M32.2758 91.4483V86.069H29.5861C28.8728 86.069 28.1887 86.3523 27.6843 86.8568C27.1799 87.3612 26.8965 88.0453 26.8965 88.7586C26.8965 89.472 27.1799 90.156 27.6843 90.6605C28.1887 91.1649 28.8728 91.4483 29.5861 91.4483" fill="white" style="fill:white;fill-opacity:1;"/>
<path d="M26.8965 102.207V107.586H29.5861C30.2995 107.586 30.9835 107.303 31.488 106.798C31.9924 106.294 32.2758 105.61 32.2758 104.897C32.2758 104.183 31.9924 103.499 31.488 102.995C30.9835 102.49 30.2995 102.207 29.5861 102.207" fill="white" style="fill:white;fill-opacity:1;"/>
<path d="M34.9655 48.4138C36.4509 48.4138 37.6552 47.2095 37.6552 45.7241C37.6552 44.2388 36.4509 43.0345 34.9655 43.0345C33.4802 43.0345 32.2759 44.2388 32.2759 45.7241C32.2759 47.2095 33.4802 48.4138 34.9655 48.4138Z" fill="white" style="fill:white;fill-opacity:1;"/>
<path d="M37.6552 59.1724V53.7931H34.9655C34.2522 53.7931 33.5681 54.0765 33.0637 54.5809C32.5592 55.0853 32.2759 55.7694 32.2759 56.4827C32.2759 57.1961 32.5592 57.8802 33.0637 58.3846C33.5681 58.889 34.2522 59.1724 34.9655 59.1724" fill="white" style="fill:white;fill-opacity:1;"/>
<path d="M34.9655 69.931C36.4509 69.931 37.6552 68.7267 37.6552 67.2414C37.6552 65.756 36.4509 64.5517 34.9655 64.5517C33.4802 64.5517 32.2759 65.756 32.2759 67.2414C32.2759 68.7267 33.4802 69.931 34.9655 69.931Z" fill="white" style="fill:white;fill-opacity:1;"/>
<path d="M37.6552 75.3104H32.2759V80.6897H37.6552V75.3104Z" fill="white" style="fill:white;fill-opacity:1;"/>
<path d="M37.6552 86.069H32.2759V91.4483H37.6552V86.069Z" fill="white" style="fill:white;fill-opacity:1;"/>
<path d="M37.6552 102.207V96.8276H34.9655C34.2522 96.8276 33.5681 97.1109 33.0637 97.6154C32.5592 98.1198 32.2759 98.8039 32.2759 99.5172C32.2759 100.231 32.5592 100.915 33.0637 101.419C33.5681 101.924 34.2522 102.207 34.9655 102.207" fill="white" style="fill:white;fill-opacity:1;"/>
<path d="M37.6552 112.966V107.586H34.9655C34.2522 107.586 33.5681 107.87 33.0637 108.374C32.5592 108.878 32.2759 109.563 32.2759 110.276C32.2759 110.989 32.5592 111.673 33.0637 112.178C33.5681 112.682 34.2522 112.966 34.9655 112.966" fill="white" style="fill:white;fill-opacity:1;"/>
<path d="M37.655 53.7931V59.1724H43.0343V56.4827C43.0343 55.7694 42.751 55.0853 42.2465 54.5809C41.7421 54.0765 41.0581 53.7931 40.3447 53.7931" fill="white" style="fill:white;fill-opacity:1;"/>
<path d="M43.0343 64.5517V59.1724H37.655V61.8621C37.655 62.5754 37.9384 63.2595 38.4428 63.7639C38.9473 64.2684 39.6313 64.5517 40.3447 64.5517" fill="white" style="fill:white;fill-opacity:1;"/>
<path d="M37.655 75.3103H43.0343V69.931H40.3447C39.6313 69.931 38.9473 70.2144 38.4428 70.7188C37.9384 71.2233 37.655 71.9073 37.655 72.6207" fill="white" style="fill:white;fill-opacity:1;"/>
<path d="M43.0343 75.3104H37.655V80.6897H43.0343V75.3104Z" fill="white" style="fill:white;fill-opacity:1;"/>
<path d="M43.0343 80.6896H37.655V86.0689H43.0343V80.6896Z" fill="white" style="fill:white;fill-opacity:1;"/>
<path d="M43.0343 86.069H37.655V91.4483H43.0343V86.069Z" fill="white" style="fill:white;fill-opacity:1;"/>
<path d="M43.0343 91.4483H37.655V96.8276H43.0343V91.4483Z" fill="white" style="fill:white;fill-opacity:1;"/>
<path d="M43.0343 96.8276H37.655V102.207H43.0343V96.8276Z" fill="white" style="fill:white;fill-opacity:1;"/>
<path d="M43.0343 102.207H37.655V107.586H43.0343V102.207Z" fill="white" style="fill:white;fill-opacity:1;"/>
<path d="M43.0343 107.586H37.655V112.966H40.3447C41.0581 112.966 41.7421 112.682 42.2465 112.178C42.751 111.673 43.0343 110.989 43.0343 110.276" fill="white" style="fill:white;fill-opacity:1;"/>
<path d="M43.0344 10.7586H48.4137V5.3793H45.7241C45.0107 5.3793 44.3267 5.66267 43.8222 6.16709C43.3178 6.67155 43.0344 7.35559 43.0344 8.06896" fill="white" style="fill:white;fill-opacity:1;"/>
<path d="M48.4137 10.7586H43.0344V16.1379H48.4137V10.7586Z" fill="white" style="fill:white;fill-opacity:1;"/>
<path d="M48.4137 16.1379H43.0344V18.8276C43.0344 19.541 43.3178 20.225 43.8222 20.7294C44.3267 21.2339 45.0107 21.5172 45.7241 21.5172C46.4374 21.5172 47.1215 21.2339 47.6259 20.7294C48.1304 20.225 48.4137 19.541 48.4137 18.8276" fill="white" style="fill:white;fill-opacity:1;"/>
<path d="M43.0344 32.2759H48.4137V29.5862C48.4137 28.8729 48.1304 28.1888 47.6259 27.6844C47.1215 27.1799 46.4374 26.8966 45.7241 26.8966C45.0107 26.8966 44.3267 27.1799 43.8222 27.6844C43.3178 28.1888 43.0344 28.8729 43.0344 29.5862" fill="white" style="fill:white;fill-opacity:1;"/>
<path d="M48.4137 32.2758H43.0344V34.9655C43.0344 35.6789 43.3178 36.3629 43.8222 36.8673C44.3267 37.3718 45.0107 37.6552 45.7241 37.6552C46.4374 37.6552 47.1215 37.3718 47.6259 36.8673C48.1304 36.3629 48.4137 35.6789 48.4137 34.9655" fill="white" style="fill:white;fill-opacity:1;"/>
<path d="M48.4137 59.1724H43.0344V64.5517H48.4137V59.1724Z" fill="white" style="fill:white;fill-opacity:1;"/>
<path d="M48.4137 64.5517H43.0344V69.931H48.4137V64.5517Z" fill="white" style="fill:white;fill-opacity:1;"/>
<path d="M48.4137 69.931H43.0344V75.3103H48.4137V69.931Z" fill="white" style="fill:white;fill-opacity:1;"/>
<path d="M43.0344 80.6896V86.0689H45.7241C46.4374 86.0689 47.1215 85.7856 47.6259 85.2811C48.1304 84.7767 48.4137 84.0927 48.4137 83.3793C48.4137 82.6659 48.1304 81.9819 47.6259 81.4774C47.1215 80.973 46.4374 80.6896 45.7241 80.6896" fill="white" style="fill:white;fill-opacity:1;"/>
<path d="M43.0344 102.207V107.586H45.7241C46.4374 107.586 47.1215 107.303 47.6259 106.798C48.1304 106.294 48.4137 105.61 48.4137 104.897C48.4137 104.183 48.1304 103.499 47.6259 102.995C47.1215 102.49 46.4374 102.207 45.7241 102.207" fill="white" style="fill:white;fill-opacity:1;"/>
<path d="M43.0344 145.241H48.4137V142.552C48.4137 141.838 48.1304 141.154 47.6259 140.65C47.1215 140.145 46.4374 139.862 45.7241 139.862C45.0107 139.862 44.3267 140.145 43.8222 140.65C43.3178 141.154 43.0344 141.838 43.0344 142.552" fill="white" style="fill:white;fill-opacity:1;"/>
<path d="M48.4137 145.241H43.0344V147.931C43.0344 148.644 43.3178 149.328 43.8222 149.833C44.3267 150.337 45.0107 150.621 45.7241 150.621C46.4374 150.621 47.1215 150.337 47.6259 149.833C48.1304 149.328 48.4137 148.644 48.4137 147.931" fill="white" style="fill:white;fill-opacity:1;"/>
<path d="M48.4138 5.3793V10.7586H53.7931V8.06896C53.7931 7.35559 53.5098 6.67155 53.0053 6.16708C52.5009 5.66267 51.8168 5.3793 51.1035 5.3793" fill="white" style="fill:white;fill-opacity:1;"/>
<path d="M53.7931 10.7586H48.4138V16.1379H53.7931V10.7586Z" fill="white" style="fill:white;fill-opacity:1;"/>
<path d="M53.7931 26.8966V21.5172H51.1035C50.3901 21.5172 49.7061 21.8006 49.2016 22.305C48.6972 22.8095 48.4138 23.4935 48.4138 24.2069C48.4138 24.9203 48.6972 25.6043 49.2016 26.1087C49.7061 26.6132 50.3901 26.8966 51.1035 26.8966" fill="white" style="fill:white;fill-opacity:1;"/>
<path d="M48.4138 43.0345H53.7931V37.6552H51.1035C50.3901 37.6552 49.7061 37.9386 49.2016 38.443C48.6972 38.9474 48.4138 39.6315 48.4138 40.3448" fill="white" style="fill:white;fill-opacity:1;"/>
<path d="M53.7931 48.4138V43.0345H48.4138V45.7241C48.4138 46.4375 48.6972 47.1215 49.2016 47.626C49.7061 48.1304 50.3901 48.4138 51.1035 48.4138" fill="white" style="fill:white;fill-opacity:1;"/>
<path d="M48.4138 59.1724H53.7931V56.4827C53.7931 55.7694 53.5098 55.0853 53.0053 54.5809C52.5009 54.0765 51.8168 53.7931 51.1035 53.7931C50.3901 53.7931 49.7061 54.0765 49.2016 54.5809C48.6972 55.0853 48.4138 55.7694 48.4138 56.4827" fill="white" style="fill:white;fill-opacity:1;"/>
<path d="M53.7931 59.1724H48.4138V64.5517H51.1035C51.8168 64.5517 52.5009 64.2684 53.0053 63.7639C53.5098 63.2595 53.7931 62.5754 53.7931 61.8621" fill="white" style="fill:white;fill-opacity:1;"/>
<path d="M48.4138 69.931V75.3103H51.1035C51.8168 75.3103 52.5009 75.027 53.0053 74.5225C53.5098 74.0181 53.7931 73.3341 53.7931 72.6207C53.7931 71.9073 53.5098 71.2233 53.0053 70.7188C52.5009 70.2144 51.8168 69.931 51.1035 69.931" fill="white" style="fill:white;fill-opacity:1;"/>
<path d="M48.4138 91.4483H53.7931V88.7586C53.7931 88.0453 53.5098 87.3612 53.0053 86.8568C52.5009 86.3523 51.8168 86.069 51.1035 86.069C50.3901 86.069 49.7061 86.3523 49.2016 86.8568C48.6972 87.3612 48.4138 88.0453 48.4138 88.7586" fill="white" style="fill:white;fill-opacity:1;"/>
<path d="M53.7931 91.4483H48.4138V94.138C48.4138 94.8513 48.6972 95.5354 49.2016 96.0398C49.7061 96.5442 50.3901 96.8276 51.1035 96.8276C51.8168 96.8276 52.5009 96.5442 53.0053 96.0398C53.5098 95.5354 53.7931 94.8513 53.7931 94.138" fill="white" style="fill:white;fill-opacity:1;"/>
<path d="M48.4138 129.103H53.7931V123.724H51.1035C50.3901 123.724 49.7061 124.007 49.2016 124.512C48.6972 125.016 48.4138 125.7 48.4138 126.414" fill="white" style="fill:white;fill-opacity:1;"/>
<path d="M53.7931 129.103H48.4138V131.793C48.4138 132.506 48.6972 133.19 49.2016 133.695C49.7061 134.199 50.3901 134.483 51.1035 134.483C51.8168 134.483 52.5009 134.199 53.0053 133.695C53.5098 133.19 53.7931 132.506 53.7931 131.793" fill="white" style="fill:white;fill-opacity:1;"/>
<path d="M51.1035 156C52.5889 156 53.7931 154.796 53.7931 153.31C53.7931 151.825 52.5889 150.621 51.1035 150.621C49.6181 150.621 48.4138 151.825 48.4138 153.31C48.4138 154.796 49.6181 156 51.1035 156Z" fill="white" style="fill:white;fill-opacity:1;"/>
<path d="M59.1725 5.37931V0H56.4829C55.7695 0 55.0855 0.283369 54.581 0.787774C54.0766 1.2922 53.7932 1.97631 53.7932 2.68966C53.7932 3.403 54.0766 4.08711 54.581 4.59154C55.0855 5.09594 55.7695 5.37931 56.4829 5.37931" fill="white" style="fill:white;fill-opacity:1;"/>
<path d="M53.7932 10.7586V16.1379H56.4829C57.1962 16.1379 57.8803 15.8545 58.3847 15.3501C58.8892 14.8457 59.1725 14.1616 59.1725 13.4483C59.1725 12.7349 58.8892 12.0509 58.3847 11.5464C57.8803 11.042 57.1962 10.7586 56.4829 10.7586" fill="white" style="fill:white;fill-opacity:1;"/>
<path d="M53.7932 21.5172V26.8966H56.4829C57.1962 26.8966 57.8803 26.6132 58.3847 26.1087C58.8892 25.6043 59.1725 24.9203 59.1725 24.2069C59.1725 23.4935 58.8892 22.8095 58.3847 22.305C57.8803 21.8006 57.1962 21.5172 56.4829 21.5172" fill="white" style="fill:white;fill-opacity:1;"/>
<path d="M53.7932 37.6552H59.1725V34.9655C59.1725 34.2521 58.8892 33.5681 58.3847 33.0637C57.8803 32.5592 57.1962 32.2758 56.4829 32.2758C55.7695 32.2758 55.0855 32.5592 54.581 33.0637C54.0766 33.5681 53.7932 34.2521 53.7932 34.9655" fill="white" style="fill:white;fill-opacity:1;"/>
<path d="M59.1725 37.6552H53.7932V43.0345H59.1725V37.6552Z" fill="white" style="fill:white;fill-opacity:1;"/>
<path d="M59.1725 43.0345H53.7932V48.4138H59.1725V43.0345Z" fill="white" style="fill:white;fill-opacity:1;"/>
<path d="M59.1725 48.4138H53.7932V51.1034C53.7932 51.8168 54.0766 52.5008 54.581 53.0053C55.0855 53.5097 55.7695 53.7931 56.4829 53.7931C57.1962 53.7931 57.8803 53.5097 58.3847 53.0053C58.8892 52.5008 59.1725 51.8168 59.1725 51.1034" fill="white" style="fill:white;fill-opacity:1;"/>
<path d="M53.7932 123.724H59.1725V121.034C59.1725 120.321 58.8892 119.637 58.3847 119.133C57.8803 118.628 57.1962 118.345 56.4829 118.345C55.7695 118.345 55.0855 118.628 54.581 119.133C54.0766 119.637 53.7932 120.321 53.7932 121.034" fill="white" style="fill:white;fill-opacity:1;"/>
<path d="M59.1725 123.724H53.7932V129.103H56.4829C57.1962 129.103 57.8803 128.82 58.3847 128.316C58.8892 127.811 59.1725 127.127 59.1725 126.414" fill="white" style="fill:white;fill-opacity:1;"/>
<path d="M56.4829 139.862C57.9683 139.862 59.1725 138.658 59.1725 137.172C59.1725 135.687 57.9683 134.483 56.4829 134.483C54.9975 134.483 53.7932 135.687 53.7932 137.172C53.7932 138.658 54.9975 139.862 56.4829 139.862Z" fill="white" style="fill:white;fill-opacity:1;"/>
<path d="M56.4829 150.621C57.9683 150.621 59.1725 149.416 59.1725 147.931C59.1725 146.446 57.9683 145.241 56.4829 145.241C54.9975 145.241 53.7932 146.446 53.7932 147.931C53.7932 149.416 54.9975 150.621 56.4829 150.621Z" fill="white" style="fill:white;fill-opacity:1;"/>
<path d="M59.1721 0V5.37931H61.8618C62.5751 5.37931 63.2592 5.09594 63.7636 4.59154C64.2681 4.08711 64.5514 3.403 64.5514 2.68966C64.5514 1.97631 64.2681 1.2922 63.7636 0.787774C63.2592 0.283369 62.5751 0 61.8618 0" fill="white" style="fill:white;fill-opacity:1;"/>
<path d="M61.8618 32.2759C63.3472 32.2759 64.5514 31.0716 64.5514 29.5862C64.5514 28.1008 63.3472 26.8966 61.8618 26.8966C60.3764 26.8966 59.1721 28.1008 59.1721 29.5862C59.1721 31.0716 60.3764 32.2759 61.8618 32.2759Z" fill="white" style="fill:white;fill-opacity:1;"/>
<path d="M59.1721 43.0345V48.4138H61.8618C62.5751 48.4138 63.2592 48.1304 63.7636 47.626C64.2681 47.1215 64.5514 46.4375 64.5514 45.7241C64.5514 45.0108 64.2681 44.3267 63.7636 43.8223C63.2592 43.3179 62.5751 43.0345 61.8618 43.0345" fill="white" style="fill:white;fill-opacity:1;"/>
<path d="M64.5514 107.586V102.207H61.8618C61.1484 102.207 60.4644 102.49 59.9599 102.995C59.4555 103.499 59.1721 104.183 59.1721 104.897C59.1721 105.61 59.4555 106.294 59.9599 106.798C60.4644 107.303 61.1484 107.586 61.8618 107.586" fill="white" style="fill:white;fill-opacity:1;"/>
<path d="M61.8618 134.483C63.3472 134.483 64.5514 133.278 64.5514 131.793C64.5514 130.308 63.3472 129.103 61.8618 129.103C60.3764 129.103 59.1721 130.308 59.1721 131.793C59.1721 133.278 60.3764 134.483 61.8618 134.483Z" fill="white" style="fill:white;fill-opacity:1;"/>
<path d="M64.5514 156V150.621H61.8618C61.1484 150.621 60.4644 150.904 59.9599 151.409C59.4555 151.913 59.1721 152.597 59.1721 153.31C59.1721 154.024 59.4555 154.708 59.9599 155.212C60.4644 155.717 61.1484 156 61.8618 156" fill="white" style="fill:white;fill-opacity:1;"/>
<path d="M64.5515 16.1379H69.9308V10.7586H67.2412C66.5278 10.7586 65.8438 11.042 65.3393 11.5464C64.8349 12.0509 64.5515 12.7349 64.5515 13.4483" fill="white" style="fill:white;fill-opacity:1;"/>
<path d="M69.9308 16.1379H64.5515V21.5172H69.9308V16.1379Z" fill="white" style="fill:white;fill-opacity:1;"/>
<path d="M69.9308 26.8966V21.5172H64.5515V24.2069C64.5515 24.9203 64.8349 25.6043 65.3393 26.1087C65.8438 26.6132 66.5278 26.8966 67.2412 26.8966" fill="white" style="fill:white;fill-opacity:1;"/>
<path d="M64.5515 37.6552H69.9308V34.9655C69.9308 34.2521 69.6475 33.5681 69.143 33.0637C68.6386 32.5592 67.9545 32.2758 67.2412 32.2758C66.5278 32.2758 65.8438 32.5592 65.3393 33.0637C64.8349 33.5681 64.5515 34.2521 64.5515 34.9655" fill="white" style="fill:white;fill-opacity:1;"/>
<path d="M69.9308 37.6552H64.5515V40.3448C64.5515 41.0582 64.8349 41.7422 65.3393 42.2467C65.8438 42.7511 66.5278 43.0345 67.2412 43.0345C67.9545 43.0345 68.6386 42.7511 69.143 42.2467C69.6475 41.7422 69.9308 41.0582 69.9308 40.3448" fill="white" style="fill:white;fill-opacity:1;"/>
<path d="M69.9308 53.7931V48.4138H67.2412C66.5278 48.4138 65.8438 48.6971 65.3393 49.2016C64.8349 49.706 64.5515 50.39 64.5515 51.1034C64.5515 51.8168 64.8349 52.5008 65.3393 53.0053C65.8438 53.5097 66.5278 53.7931 67.2412 53.7931" fill="white" style="fill:white;fill-opacity:1;"/>
<path d="M69.9308 102.207H64.5515V107.586H69.9308V102.207Z" fill="white" style="fill:white;fill-opacity:1;"/>
<path d="M69.9308 107.586H64.5515V112.966H69.9308V107.586Z" fill="white" style="fill:white;fill-opacity:1;"/>
<path d="M69.9308 112.965H64.5515V115.655C64.5515 116.368 64.8349 117.053 65.3393 117.557C65.8438 118.061 66.5278 118.345 67.2412 118.345C67.9545 118.345 68.6386 118.061 69.143 117.557C69.6475 117.053 69.9308 116.368 69.9308 115.655" fill="white" style="fill:white;fill-opacity:1;"/>
<path d="M69.9308 129.103V123.724H67.2412C66.5278 123.724 65.8438 124.007 65.3393 124.512C64.8349 125.016 64.5515 125.7 64.5515 126.414C64.5515 127.127 64.8349 127.811 65.3393 128.316C65.8438 128.82 66.5278 129.103 67.2412 129.103" fill="white" style="fill:white;fill-opacity:1;"/>
<path d="M64.5515 145.241H69.9308V139.862H67.2412C66.5278 139.862 65.8438 140.145 65.3393 140.65C64.8349 141.154 64.5515 141.838 64.5515 142.552" fill="white" style="fill:white;fill-opacity:1;"/>
<path d="M69.9308 145.241H64.5515V150.621H69.9308V145.241Z" fill="white" style="fill:white;fill-opacity:1;"/>
<path d="M69.9308 150.621H64.5515V156H69.9308V150.621Z" fill="white" style="fill:white;fill-opacity:1;"/>
<path d="M69.9312 10.7586H75.3105V5.3793H72.6208C71.9074 5.3793 71.2234 5.66267 70.719 6.16709C70.2145 6.67155 69.9312 7.35559 69.9312 8.06896" fill="white" style="fill:white;fill-opacity:1;"/>
<path d="M75.3105 10.7586H69.9312V16.1379H72.6208C73.3342 16.1379 74.0182 15.8545 74.5227 15.3501C75.0271 14.8457 75.3105 14.1616 75.3105 13.4483" fill="white" style="fill:white;fill-opacity:1;"/>
<path d="M75.3105 21.5172H69.9312V26.8966H75.3105V21.5172Z" fill="white" style="fill:white;fill-opacity:1;"/>
<path d="M69.9312 48.4138H75.3105V45.7241C75.3105 45.0108 75.0271 44.3267 74.5227 43.8223C74.0182 43.3179 73.3342 43.0345 72.6208 43.0345C71.9074 43.0345 71.2234 43.3179 70.719 43.8223C70.2145 44.3267 69.9312 45.0108 69.9312 45.7241" fill="white" style="fill:white;fill-opacity:1;"/>
<path d="M75.3105 48.4138H69.9312V53.7931H75.3105V48.4138Z" fill="white" style="fill:white;fill-opacity:1;"/>
<path d="M75.3105 102.207H69.9312V107.586H75.3105V102.207Z" fill="white" style="fill:white;fill-opacity:1;"/>
<path d="M69.9312 123.724H75.3105V121.034C75.3105 120.321 75.0271 119.637 74.5227 119.133C74.0182 118.628 73.3342 118.345 72.6208 118.345C71.9074 118.345 71.2234 118.628 70.719 119.133C70.2145 119.637 69.9312 120.321 69.9312 121.034" fill="white" style="fill:white;fill-opacity:1;"/>
<path d="M75.3105 123.724H69.9312V129.103H75.3105V123.724Z" fill="white" style="fill:white;fill-opacity:1;"/>
<path d="M69.9312 139.862H75.3105V134.483H72.6208C71.9074 134.483 71.2234 134.766 70.719 135.271C70.2145 135.775 69.9312 136.459 69.9312 137.172" fill="white" style="fill:white;fill-opacity:1;"/>
<path d="M75.3105 139.862H69.9312V145.241H75.3105V139.862Z" fill="white" style="fill:white;fill-opacity:1;"/>
<path d="M75.3105 145.241H69.9312V150.621H75.3105V145.241Z" fill="white" style="fill:white;fill-opacity:1;"/>
<path d="M75.3105 150.621H69.9312V156H75.3105V150.621Z" fill="white" style="fill:white;fill-opacity:1;"/>
<path d="M75.3101 5.37931H80.6894V0H77.9997C77.2863 0 76.6023 0.283368 76.0979 0.787792C75.5934 1.2922 75.3101 1.97631 75.3101 2.68966" fill="white" style="fill:white;fill-opacity:1;"/>
<path d="M80.6894 5.3793H75.3101V10.7586H80.6894V5.3793Z" fill="white" style="fill:white;fill-opacity:1;"/>
<path d="M75.3101 21.5172V26.8966H77.9997C78.7131 26.8966 79.3971 26.6132 79.9016 26.1087C80.406 25.6043 80.6894 24.9203 80.6894 24.2069C80.6894 23.4935 80.406 22.8095 79.9016 22.305C79.3971 21.8006 78.7131 21.5172 77.9997 21.5172" fill="white" style="fill:white;fill-opacity:1;"/>
<path d="M77.9997 37.6552C79.4851 37.6552 80.6894 36.4509 80.6894 34.9655C80.6894 33.4801 79.4851 32.2758 77.9997 32.2758C76.5143 32.2758 75.3101 33.4801 75.3101 34.9655C75.3101 36.4509 76.5143 37.6552 77.9997 37.6552Z" fill="white" style="fill:white;fill-opacity:1;"/>
<path d="M80.6894 48.4138H75.3101V53.7931H80.6894V48.4138Z" fill="white" style="fill:white;fill-opacity:1;"/>
<path d="M75.3101 102.207V107.586H80.6894V104.897C80.6894 104.183 80.406 103.499 79.9016 102.995C79.3971 102.49 78.7131 102.207 77.9997 102.207" fill="white" style="fill:white;fill-opacity:1;"/>
<path d="M80.6894 107.586H75.3101V110.276C75.3101 110.989 75.5934 111.673 76.0979 112.178C76.6023 112.682 77.2863 112.966 77.9997 112.966C78.7131 112.966 79.3971 112.682 79.9016 112.178C80.406 111.673 80.6894 110.989 80.6894 110.276" fill="white" style="fill:white;fill-opacity:1;"/>
<path d="M75.3101 123.724V129.103H80.6894V126.414C80.6894 125.7 80.406 125.016 79.9016 124.512C79.3971 124.007 78.7131 123.724 77.9997 123.724" fill="white" style="fill:white;fill-opacity:1;"/>
<path d="M80.6894 129.103H75.3101V134.483H80.6894V129.103Z" fill="white" style="fill:white;fill-opacity:1;"/>
<path d="M80.6894 134.483H75.3101V139.862H80.6894V134.483Z" fill="white" style="fill:white;fill-opacity:1;"/>
<path d="M75.3101 150.621V156H77.9997C78.7131 156 79.3971 155.717 79.9016 155.212C80.406 154.708 80.6894 154.024 80.6894 153.31C80.6894 152.597 80.406 151.913 79.9016 151.409C79.3971 150.904 78.7131 150.621 77.9997 150.621" fill="white" style="fill:white;fill-opacity:1;"/>
<path d="M86.0693 0H80.6899V5.37931H86.0693V0Z" fill="white" style="fill:white;fill-opacity:1;"/>
<path d="M86.0693 5.3793H80.6899V10.7586H83.3796C84.093 10.7586 84.777 10.4752 85.2814 9.9708C85.7859 9.46636 86.0693 8.78232 86.0693 8.06896" fill="white" style="fill:white;fill-opacity:1;"/>
<path d="M83.3796 32.2759C84.865 32.2759 86.0693 31.0716 86.0693 29.5862C86.0693 28.1008 84.865 26.8966 83.3796 26.8966C81.8942 26.8966 80.6899 28.1008 80.6899 29.5862C80.6899 31.0716 81.8942 32.2759 83.3796 32.2759Z" fill="white" style="fill:white;fill-opacity:1;"/>
<path d="M83.3796 43.0345C84.865 43.0345 86.0693 41.8302 86.0693 40.3448C86.0693 38.8595 84.865 37.6552 83.3796 37.6552C81.8942 37.6552 80.6899 38.8595 80.6899 40.3448C80.6899 41.8302 81.8942 43.0345 83.3796 43.0345Z" fill="white" style="fill:white;fill-opacity:1;"/>
<path d="M80.6899 48.4138V53.7931H83.3796C84.093 53.7931 84.777 53.5097 85.2814 53.0053C85.7859 52.5008 86.0693 51.8168 86.0693 51.1034C86.0693 50.39 85.7859 49.706 85.2814 49.2016C84.777 48.6971 84.093 48.4138 83.3796 48.4138" fill="white" style="fill:white;fill-opacity:1;"/>
<path d="M80.6899 118.345H86.0693V112.965H83.3796C82.6662 112.965 81.9822 113.249 81.4777 113.753C80.9733 114.258 80.6899 114.942 80.6899 115.655" fill="white" style="fill:white;fill-opacity:1;"/>
<path d="M86.0693 118.345H80.6899V121.034C80.6899 121.748 80.9733 122.432 81.4777 122.936C81.9822 123.441 82.6662 123.724 83.3796 123.724C84.093 123.724 84.777 123.441 85.2814 122.936C85.7859 122.432 86.0693 121.748 86.0693 121.034" fill="white" style="fill:white;fill-opacity:1;"/>
<path d="M86.0693 129.103H80.6899V134.483H86.0693V129.103Z" fill="white" style="fill:white;fill-opacity:1;"/>
<path d="M86.0693 134.483H80.6899V139.862H86.0693V134.483Z" fill="white" style="fill:white;fill-opacity:1;"/>
<path d="M86.0693 150.621V145.241H83.3796C82.6662 145.241 81.9822 145.525 81.4777 146.029C80.9733 146.534 80.6899 147.218 80.6899 147.931C80.6899 148.644 80.9733 149.328 81.4777 149.833C81.9822 150.337 82.6662 150.621 83.3796 150.621" fill="white" style="fill:white;fill-opacity:1;"/>
<path d="M86.0688 0V5.37931H88.7585C89.4719 5.37931 90.1559 5.09594 90.6604 4.59154C91.1648 4.08711 91.4482 3.403 91.4482 2.68966C91.4482 1.97631 91.1648 1.2922 90.6604 0.787774C90.1559 0.283369 89.4719 0 88.7585 0" fill="white" style="fill:white;fill-opacity:1;"/>
<path d="M86.0688 16.1379H91.4482V10.7586H88.7585C88.0451 10.7586 87.3611 11.042 86.8567 11.5464C86.3522 12.0509 86.0688 12.7349 86.0688 13.4483" fill="white" style="fill:white;fill-opacity:1;"/>
<path d="M91.4482 21.5172V16.1379H86.0688V18.8276C86.0688 19.541 86.3522 20.225 86.8567 20.7294C87.3611 21.2339 88.0451 21.5172 88.7585 21.5172" fill="white" style="fill:white;fill-opacity:1;"/>
<path d="M88.7585 37.6552C90.2439 37.6552 91.4482 36.4509 91.4482 34.9655C91.4482 33.4801 90.2439 32.2758 88.7585 32.2758C87.2731 32.2758 86.0688 33.4801 86.0688 34.9655C86.0688 36.4509 87.2731 37.6552 88.7585 37.6552Z" fill="white" style="fill:white;fill-opacity:1;"/>
<path d="M86.0688 112.966H91.4482V107.586H88.7585C88.0451 107.586 87.3611 107.87 86.8567 108.374C86.3522 108.878 86.0688 109.563 86.0688 110.276" fill="white" style="fill:white;fill-opacity:1;"/>
<path d="M91.4482 112.965H86.0688V118.345H91.4482V112.965Z" fill="white" style="fill:white;fill-opacity:1;"/>
<path d="M86.0688 129.103V134.483H91.4482V131.793C91.4482 131.08 91.1648 130.396 90.6604 129.891C90.1559 129.387 89.4719 129.103 88.7585 129.103" fill="white" style="fill:white;fill-opacity:1;"/>
<path d="M91.4482 134.483H86.0688V139.862H91.4482V134.483Z" fill="white" style="fill:white;fill-opacity:1;"/>
<path d="M86.0688 145.241V150.621H88.7585C89.4719 150.621 90.1559 150.337 90.6604 149.833C91.1648 149.328 91.4482 148.644 91.4482 147.931C91.4482 147.218 91.1648 146.534 90.6604 146.029C90.1559 145.525 89.4719 145.241 88.7585 145.241" fill="white" style="fill:white;fill-opacity:1;"/>
<path d="M91.4485 10.7586H96.8278V8.06896C96.8278 7.35559 96.5444 6.67155 96.04 6.16709C95.5356 5.66267 94.8515 5.3793 94.1381 5.3793C93.4248 5.3793 92.7407 5.66267 92.2363 6.16709C91.7319 6.67155 91.4485 7.35559 91.4485 8.06896" fill="white" style="fill:white;fill-opacity:1;"/>
<path d="M96.8278 10.7586H91.4485V16.1379H96.8278V10.7586Z" fill="white" style="fill:white;fill-opacity:1;"/>
<path d="M96.8278 16.1379H91.4485V21.5172H96.8278V16.1379Z" fill="white" style="fill:white;fill-opacity:1;"/>
<path d="M96.8278 21.5172H91.4485V26.8966H96.8278V21.5172Z" fill="white" style="fill:white;fill-opacity:1;"/>
<path d="M96.8278 26.8966H91.4485V29.5862C91.4485 30.2996 91.7319 30.9836 92.2363 31.4881C92.7407 31.9925 93.4248 32.2759 94.1381 32.2759C94.8515 32.2759 95.5356 31.9925 96.04 31.4881C96.5444 30.9836 96.8278 30.2996 96.8278 29.5862" fill="white" style="fill:white;fill-opacity:1;"/>
<path d="M96.8278 43.0345V37.6552H94.1381C93.4248 37.6552 92.7407 37.9386 92.2363 38.443C91.7319 38.9474 91.4485 39.6315 91.4485 40.3448C91.4485 41.0582 91.7319 41.7422 92.2363 42.2467C92.7407 42.7511 93.4248 43.0345 94.1381 43.0345" fill="white" style="fill:white;fill-opacity:1;"/>
<path d="M91.4485 107.586H96.8278V104.897C96.8278 104.183 96.5444 103.499 96.04 102.995C95.5356 102.49 94.8515 102.207 94.1381 102.207C93.4248 102.207 92.7407 102.49 92.2363 102.995C91.7319 103.499 91.4485 104.183 91.4485 104.897" fill="white" style="fill:white;fill-opacity:1;"/>
<path d="M96.8278 107.586H91.4485V112.966H96.8278V107.586Z" fill="white" style="fill:white;fill-opacity:1;"/>
<path d="M96.8278 112.965H91.4485V118.345H94.1381C94.8515 118.345 95.5356 118.061 96.04 117.557C96.5444 117.053 96.8278 116.368 96.8278 115.655" fill="white" style="fill:white;fill-opacity:1;"/>
<path d="M94.1381 129.103C95.6235 129.103 96.8278 127.899 96.8278 126.414C96.8278 124.928 95.6235 123.724 94.1381 123.724C92.6528 123.724 91.4485 124.928 91.4485 126.414C91.4485 127.899 92.6528 129.103 94.1381 129.103Z" fill="white" style="fill:white;fill-opacity:1;"/>
<path d="M96.8278 134.483H91.4485V139.862H96.8278V134.483Z" fill="white" style="fill:white;fill-opacity:1;"/>
<path d="M99.5175 5.37931C101.003 5.37931 102.207 4.17511 102.207 2.68966C102.207 1.2042 101.003 0 99.5175 0C98.0322 0 96.8279 1.2042 96.8279 2.68966C96.8279 4.17511 98.0322 5.37931 99.5175 5.37931Z" fill="white" style="fill:white;fill-opacity:1;"/>
<path d="M102.207 16.1379H96.8279V21.5172H102.207V16.1379Z" fill="white" style="fill:white;fill-opacity:1;"/>
<path d="M96.8279 37.6552H102.207V34.9655C102.207 34.2521 101.924 33.5681 101.419 33.0637C100.915 32.5592 100.231 32.2758 99.5175 32.2758C98.8042 32.2758 98.1201 32.5592 97.6157 33.0637C97.1112 33.5681 96.8279 34.2521 96.8279 34.9655" fill="white" style="fill:white;fill-opacity:1;"/>
<path d="M102.207 37.6552H96.8279V43.0345H102.207V37.6552Z" fill="white" style="fill:white;fill-opacity:1;"/>
<path d="M102.207 43.0345H96.8279V48.4138H102.207V43.0345Z" fill="white" style="fill:white;fill-opacity:1;"/>
<path d="M102.207 53.7931V48.4138H96.8279V51.1034C96.8279 51.8168 97.1112 52.5008 97.6157 53.0053C98.1201 53.5097 98.8042 53.7931 99.5175 53.7931" fill="white" style="fill:white;fill-opacity:1;"/>
<path d="M102.207 123.724V118.345H99.5175C98.8042 118.345 98.1201 118.628 97.6157 119.133C97.1112 119.637 96.8279 120.321 96.8279 121.034C96.8279 121.748 97.1112 122.432 97.6157 122.936C98.1201 123.441 98.8042 123.724 99.5175 123.724" fill="white" style="fill:white;fill-opacity:1;"/>
<path d="M96.8279 134.483H102.207V129.103H99.5175C98.8042 129.103 98.1201 129.387 97.6157 129.891C97.1112 130.396 96.8279 131.08 96.8279 131.793" fill="white" style="fill:white;fill-opacity:1;"/>
<path d="M102.207 134.483H96.8279V139.862H99.5175C100.231 139.862 100.915 139.579 101.419 139.074C101.924 138.57 102.207 137.886 102.207 137.172" fill="white" style="fill:white;fill-opacity:1;"/>
<path d="M102.207 16.1379V21.5172H104.896C105.61 21.5172 106.294 21.2339 106.798 20.7294C107.303 20.225 107.586 19.541 107.586 18.8276C107.586 18.1142 107.303 17.4302 106.798 16.9257C106.294 16.4213 105.61 16.1379 104.896 16.1379" fill="white" style="fill:white;fill-opacity:1;"/>
<path d="M102.207 43.0345V48.4138H107.586V45.7241C107.586 45.0108 107.303 44.3267 106.798 43.8223C106.294 43.3179 105.61 43.0345 104.896 43.0345" fill="white" style="fill:white;fill-opacity:1;"/>
<path d="M107.586 48.4138H102.207V53.7931H104.896C105.61 53.7931 106.294 53.5097 106.798 53.0053C107.303 52.5008 107.586 51.8168 107.586 51.1034" fill="white" style="fill:white;fill-opacity:1;"/>
<path d="M107.586 64.5517V59.1724H104.896C104.183 59.1724 103.499 59.4558 102.995 59.9602C102.49 60.4647 102.207 61.1487 102.207 61.8621C102.207 62.5754 102.49 63.2595 102.995 63.7639C103.499 64.2684 104.183 64.5517 104.896 64.5517" fill="white" style="fill:white;fill-opacity:1;"/>
<path d="M107.586 75.3103V69.931H104.896C104.183 69.931 103.499 70.2144 102.995 70.7188C102.49 71.2233 102.207 71.9073 102.207 72.6207C102.207 73.3341 102.49 74.0181 102.995 74.5225C103.499 75.027 104.183 75.3103 104.896 75.3103" fill="white" style="fill:white;fill-opacity:1;"/>
<path d="M107.586 96.8276V91.4483H104.896C104.183 91.4483 103.499 91.7317 102.995 92.2361C102.49 92.7405 102.207 93.4246 102.207 94.138C102.207 94.8513 102.49 95.5354 102.995 96.0398C103.499 96.5442 104.183 96.8276 104.896 96.8276" fill="white" style="fill:white;fill-opacity:1;"/>
<path d="M107.586 107.586V102.207H104.896C104.183 102.207 103.499 102.49 102.995 102.995C102.49 103.499 102.207 104.183 102.207 104.897C102.207 105.61 102.49 106.294 102.995 106.798C103.499 107.303 104.183 107.586 104.896 107.586" fill="white" style="fill:white;fill-opacity:1;"/>
<path d="M102.207 118.345H107.586V112.965H104.896C104.183 112.965 103.499 113.249 102.995 113.753C102.49 114.258 102.207 114.942 102.207 115.655" fill="white" style="fill:white;fill-opacity:1;"/>
<path d="M107.586 118.345H102.207V123.724H107.586V118.345Z" fill="white" style="fill:white;fill-opacity:1;"/>
<path d="M107.586 123.724H102.207V129.103H107.586V123.724Z" fill="white" style="fill:white;fill-opacity:1;"/>
<path d="M107.586 129.103H102.207V134.483H107.586V129.103Z" fill="white" style="fill:white;fill-opacity:1;"/>
<path d="M107.586 145.241V139.862H104.896C104.183 139.862 103.499 140.145 102.995 140.65C102.49 141.154 102.207 141.838 102.207 142.552C102.207 143.265 102.49 143.949 102.995 144.454C103.499 144.958 104.183 145.241 104.896 145.241" fill="white" style="fill:white;fill-opacity:1;"/>
<path d="M104.896 156C106.382 156 107.586 154.796 107.586 153.31C107.586 151.825 106.382 150.621 104.896 150.621C103.411 150.621 102.207 151.825 102.207 153.31C102.207 154.796 103.411 156 104.896 156Z" fill="white" style="fill:white;fill-opacity:1;"/>
<path d="M107.586 10.7586H112.965V8.06896C112.965 7.35559 112.682 6.67155 112.178 6.16709C111.673 5.66267 110.989 5.3793 110.276 5.3793C109.562 5.3793 108.878 5.66267 108.374 6.16709C107.87 6.67155 107.586 7.35559 107.586 8.06896" fill="white" style="fill:white;fill-opacity:1;"/>
<path d="M112.965 10.7586H107.586V13.4483C107.586 14.1616 107.87 14.8457 108.374 15.3501C108.878 15.8545 109.562 16.1379 110.276 16.1379C110.989 16.1379 111.673 15.8545 112.178 15.3501C112.682 14.8457 112.965 14.1616 112.965 13.4483" fill="white" style="fill:white;fill-opacity:1;"/>
<path d="M107.586 37.6552H112.965V34.9655C112.965 34.2521 112.682 33.5681 112.178 33.0637C111.673 32.5592 110.989 32.2758 110.276 32.2758C109.562 32.2758 108.878 32.5592 108.374 33.0637C107.87 33.5681 107.586 34.2521 107.586 34.9655" fill="white" style="fill:white;fill-opacity:1;"/>
<path d="M112.965 37.6552H107.586V40.3448C107.586 41.0582 107.87 41.7422 108.374 42.2467C108.878 42.7511 109.562 43.0345 110.276 43.0345C110.989 43.0345 111.673 42.7511 112.178 42.2467C112.682 41.7422 112.965 41.0582 112.965 40.3448" fill="white" style="fill:white;fill-opacity:1;"/>
<path d="M107.586 59.1724H112.965V56.4827C112.965 55.7694 112.682 55.0853 112.178 54.5809C111.673 54.0765 110.989 53.7931 110.276 53.7931C109.562 53.7931 108.878 54.0765 108.374 54.5809C107.87 55.0853 107.586 55.7694 107.586 56.4827" fill="white" style="fill:white;fill-opacity:1;"/>
<path d="M112.965 59.1724H107.586V64.5517H112.965V59.1724Z" fill="white" style="fill:white;fill-opacity:1;"/>
<path d="M107.586 69.931V75.3103H112.965V72.6207C112.965 71.9073 112.682 71.2233 112.178 70.7188C111.673 70.2144 110.989 69.931 110.276 69.931" fill="white" style="fill:white;fill-opacity:1;"/>
<path d="M112.965 80.6897V75.3104H107.586V78C107.586 78.7134 107.87 79.3974 108.374 79.9019C108.878 80.4063 109.562 80.6897 110.276 80.6897" fill="white" style="fill:white;fill-opacity:1;"/>
<path d="M107.586 91.4483H112.965V88.7586C112.965 88.0453 112.682 87.3612 112.178 86.8568C111.673 86.3523 110.989 86.069 110.276 86.069C109.562 86.069 108.878 86.3523 108.374 86.8568C107.87 87.3612 107.586 88.0453 107.586 88.7586" fill="white" style="fill:white;fill-opacity:1;"/>
<path d="M112.965 91.4483H107.586V96.8276H112.965V91.4483Z" fill="white" style="fill:white;fill-opacity:1;"/>
<path d="M112.965 96.8276H107.586V102.207H112.965V96.8276Z" fill="white" style="fill:white;fill-opacity:1;"/>
<path d="M112.965 102.207H107.586V107.586H112.965V102.207Z" fill="white" style="fill:white;fill-opacity:1;"/>
<path d="M112.965 107.586H107.586V112.966H112.965V107.586Z" fill="white" style="fill:white;fill-opacity:1;"/>
<path d="M112.965 112.965H107.586V118.345H112.965V112.965Z" fill="white" style="fill:white;fill-opacity:1;"/>
<path d="M112.965 118.345H107.586V123.724H112.965V118.345Z" fill="white" style="fill:white;fill-opacity:1;"/>
<path d="M112.965 123.724H107.586V129.103H112.965V123.724Z" fill="white" style="fill:white;fill-opacity:1;"/>
<path d="M112.965 129.103H107.586V134.483H112.965V129.103Z" fill="white" style="fill:white;fill-opacity:1;"/>
<path d="M107.586 139.862V145.241H110.276C110.989 145.241 111.673 144.958 112.178 144.454C112.682 143.949 112.965 143.265 112.965 142.552C112.965 141.838 112.682 141.154 112.178 140.65C111.673 140.145 110.989 139.862 110.276 139.862" fill="white" style="fill:white;fill-opacity:1;"/>
<path d="M115.655 48.4138C117.141 48.4138 118.345 47.2095 118.345 45.7241C118.345 44.2388 117.141 43.0345 115.655 43.0345C114.17 43.0345 112.966 44.2388 112.966 45.7241C112.966 47.2095 114.17 48.4138 115.655 48.4138Z" fill="white" style="fill:white;fill-opacity:1;"/>
<path d="M118.345 59.1724H112.966V64.5517H118.345V59.1724Z" fill="white" style="fill:white;fill-opacity:1;"/>
<path d="M118.345 75.3104H112.966V80.6897H118.345V75.3104Z" fill="white" style="fill:white;fill-opacity:1;"/>
<path d="M112.966 96.8276V102.207H118.345V99.5172C118.345 98.8039 118.062 98.1198 117.557 97.6154C117.053 97.1109 116.369 96.8276 115.655 96.8276" fill="white" style="fill:white;fill-opacity:1;"/>
<path d="M118.345 102.207H112.966V107.586H118.345V102.207Z" fill="white" style="fill:white;fill-opacity:1;"/>
<path d="M118.345 107.586H112.966V112.966H118.345V107.586Z" fill="white" style="fill:white;fill-opacity:1;"/>
<path d="M118.345 129.103H112.966V134.483H118.345V129.103Z" fill="white" style="fill:white;fill-opacity:1;"/>
<path d="M118.345 134.483H112.966V137.172C112.966 137.886 113.249 138.57 113.753 139.074C114.258 139.579 114.942 139.862 115.655 139.862C116.369 139.862 117.053 139.579 117.557 139.074C118.062 138.57 118.345 137.886 118.345 137.172" fill="white" style="fill:white;fill-opacity:1;"/>
<path d="M112.966 150.621H118.345V145.241H115.655C114.942 145.241 114.258 145.525 113.753 146.029C113.249 146.534 112.966 147.218 112.966 147.931" fill="white" style="fill:white;fill-opacity:1;"/>
<path d="M118.345 150.621H112.966V153.31C112.966 154.024 113.249 154.708 113.753 155.212C114.258 155.717 114.942 156 115.655 156C116.369 156 117.053 155.717 117.557 155.212C118.062 154.708 118.345 154.024 118.345 153.31" fill="white" style="fill:white;fill-opacity:1;"/>
<path d="M118.345 53.7931H123.724V48.4138H121.035C120.321 48.4138 119.637 48.6971 119.133 49.2016C118.628 49.706 118.345 50.39 118.345 51.1034" fill="white" style="fill:white;fill-opacity:1;"/>
<path d="M123.724 53.7931H118.345V59.1724H123.724V53.7931Z" fill="white" style="fill:white;fill-opacity:1;"/>
<path d="M123.724 59.1724H118.345V64.5517H123.724V59.1724Z" fill="white" style="fill:white;fill-opacity:1;"/>
<path d="M123.724 64.5517H118.345V69.931H123.724V64.5517Z" fill="white" style="fill:white;fill-opacity:1;"/>
<path d="M123.724 69.931H118.345V75.3103H123.724V69.931Z" fill="white" style="fill:white;fill-opacity:1;"/>
<path d="M123.724 75.3104H118.345V80.6897H121.035C121.748 80.6897 122.432 80.4063 122.936 79.9019C123.441 79.3974 123.724 78.7134 123.724 78" fill="white" style="fill:white;fill-opacity:1;"/>
<path d="M118.345 91.4483H123.724V88.7586C123.724 88.0453 123.441 87.3612 122.936 86.8568C122.432 86.3523 121.748 86.069 121.035 86.069C120.321 86.069 119.637 86.3523 119.133 86.8568C118.628 87.3612 118.345 88.0453 118.345 88.7586" fill="white" style="fill:white;fill-opacity:1;"/>
<path d="M123.724 91.4483H118.345V94.138C118.345 94.8513 118.628 95.5354 119.133 96.0398C119.637 96.5442 120.321 96.8276 121.035 96.8276C121.748 96.8276 122.432 96.5442 122.936 96.0398C123.441 95.5354 123.724 94.8513 123.724 94.138" fill="white" style="fill:white;fill-opacity:1;"/>
<path d="M118.345 102.207V107.586H123.724V104.897C123.724 104.183 123.441 103.499 122.936 102.995C122.432 102.49 121.748 102.207 121.035 102.207" fill="white" style="fill:white;fill-opacity:1;"/>
<path d="M123.724 107.586H118.345V112.966H123.724V107.586Z" fill="white" style="fill:white;fill-opacity:1;"/>
<path d="M121.035 123.724C122.52 123.724 123.724 122.52 123.724 121.034C123.724 119.549 122.52 118.345 121.035 118.345C119.549 118.345 118.345 119.549 118.345 121.034C118.345 122.52 119.549 123.724 121.035 123.724Z" fill="white" style="fill:white;fill-opacity:1;"/>
<path d="M123.724 129.103H118.345V134.483H123.724V129.103Z" fill="white" style="fill:white;fill-opacity:1;"/>
<path d="M118.345 145.241H123.724V142.552C123.724 141.838 123.441 141.154 122.936 140.65C122.432 140.145 121.748 139.862 121.035 139.862C120.321 139.862 119.637 140.145 119.133 140.65C118.628 141.154 118.345 141.838 118.345 142.552" fill="white" style="fill:white;fill-opacity:1;"/>
<path d="M123.724 145.241H118.345V150.621H123.724V145.241Z" fill="white" style="fill:white;fill-opacity:1;"/>
<path d="M123.724 48.4138H129.103V45.7241C129.103 45.0108 128.82 44.3267 128.316 43.8223C127.811 43.3179 127.127 43.0345 126.414 43.0345C125.7 43.0345 125.016 43.3179 124.512 43.8223C124.007 44.3267 123.724 45.0108 123.724 45.7241" fill="white" style="fill:white;fill-opacity:1;"/>
<path d="M129.103 48.4138H123.724V53.7931H129.103V48.4138Z" fill="white" style="fill:white;fill-opacity:1;"/>
<path d="M129.103 53.7931H123.724V59.1724H129.103V53.7931Z" fill="white" style="fill:white;fill-opacity:1;"/>
<path d="M129.103 59.1724H123.724V64.5517H129.103V59.1724Z" fill="white" style="fill:white;fill-opacity:1;"/>
<path d="M123.724 69.931V75.3103H126.414C127.127 75.3103 127.811 75.027 128.316 74.5225C128.82 74.0181 129.103 73.3341 129.103 72.6207C129.103 71.9073 128.82 71.2233 128.316 70.7188C127.811 70.2144 127.127 69.931 126.414 69.931" fill="white" style="fill:white;fill-opacity:1;"/>
<path d="M126.414 86.0689C127.899 86.0689 129.103 84.8647 129.103 83.3793C129.103 81.8939 127.899 80.6896 126.414 80.6896C124.928 80.6896 123.724 81.8939 123.724 83.3793C123.724 84.8647 124.928 86.0689 126.414 86.0689Z" fill="white" style="fill:white;fill-opacity:1;"/>
<path d="M129.103 102.207V96.8276H126.414C125.7 96.8276 125.016 97.1109 124.512 97.6154C124.007 98.1198 123.724 98.8039 123.724 99.5172C123.724 100.231 124.007 100.915 124.512 101.419C125.016 101.924 125.7 102.207 126.414 102.207" fill="white" style="fill:white;fill-opacity:1;"/>
<path d="M129.103 107.586H123.724V112.966H129.103V107.586Z" fill="white" style="fill:white;fill-opacity:1;"/>
<path d="M129.103 129.103H123.724V134.483H129.103V129.103Z" fill="white" style="fill:white;fill-opacity:1;"/>
<path d="M123.724 145.241V150.621H126.414C127.127 150.621 127.811 150.337 128.316 149.833C128.82 149.328 129.103 148.644 129.103 147.931C129.103 147.218 128.82 146.534 128.316 146.029C127.811 145.525 127.127 145.241 126.414 145.241" fill="white" style="fill:white;fill-opacity:1;"/>
<path d="M129.104 48.4138V53.7931H131.793C132.507 53.7931 133.191 53.5097 133.695 53.0053C134.199 52.5008 134.483 51.8168 134.483 51.1034C134.483 50.39 134.199 49.706 133.695 49.2016C133.191 48.6971 132.507 48.4138 131.793 48.4138" fill="white" style="fill:white;fill-opacity:1;"/>
<path d="M134.483 59.1724H129.104V64.5517H134.483V59.1724Z" fill="white" style="fill:white;fill-opacity:1;"/>
<path d="M134.483 96.8276H129.104V102.207H134.483V96.8276Z" fill="white" style="fill:white;fill-opacity:1;"/>
<path d="M129.104 107.586V112.966H134.483V110.276C134.483 109.563 134.199 108.878 133.695 108.374C133.191 107.87 132.507 107.586 131.793 107.586" fill="white" style="fill:white;fill-opacity:1;"/>
<path d="M134.483 112.965H129.104V118.345H134.483V112.965Z" fill="white" style="fill:white;fill-opacity:1;"/>
<path d="M134.483 118.345H129.104V123.724H134.483V118.345Z" fill="white" style="fill:white;fill-opacity:1;"/>
<path d="M134.483 123.724H129.104V129.103H134.483V123.724Z" fill="white" style="fill:white;fill-opacity:1;"/>
<path d="M134.483 129.103H129.104V134.483H134.483V129.103Z" fill="white" style="fill:white;fill-opacity:1;"/>
<path d="M134.483 134.483H129.104V139.862H134.483V134.483Z" fill="white" style="fill:white;fill-opacity:1;"/>
<path d="M134.483 145.241V139.862H129.104V142.552C129.104 143.265 129.387 143.949 129.891 144.454C130.396 144.958 131.08 145.241 131.793 145.241" fill="white" style="fill:white;fill-opacity:1;"/>
<path d="M131.793 156C133.279 156 134.483 154.796 134.483 153.31C134.483 151.825 133.279 150.621 131.793 150.621C130.308 150.621 129.104 151.825 129.104 153.31C129.104 154.796 130.308 156 131.793 156Z" fill="white" style="fill:white;fill-opacity:1;"/>
<path d="M139.862 48.4138V43.0345H137.173C136.459 43.0345 135.775 43.3179 135.271 43.8223C134.766 44.3267 134.483 45.0108 134.483 45.7241C134.483 46.4375 134.766 47.1215 135.271 47.626C135.775 48.1304 136.459 48.4138 137.173 48.4138" fill="white" style="fill:white;fill-opacity:1;"/>
<path d="M134.483 59.1724V64.5517H139.862V61.8621C139.862 61.1487 139.579 60.4647 139.074 59.9602C138.57 59.4558 137.886 59.1724 137.173 59.1724" fill="white" style="fill:white;fill-opacity:1;"/>
<path d="M139.862 64.5517H134.483V69.931H139.862V64.5517Z" fill="white" style="fill:white;fill-opacity:1;"/>
<path d="M139.862 69.931H134.483V75.3103H139.862V69.931Z" fill="white" style="fill:white;fill-opacity:1;"/>
<path d="M139.862 80.6897V75.3104H134.483V78C134.483 78.7134 134.766 79.3974 135.271 79.9019C135.775 80.4063 136.459 80.6897 137.173 80.6897" fill="white" style="fill:white;fill-opacity:1;"/>
<path d="M139.862 91.4483V86.069H137.173C136.459 86.069 135.775 86.3523 135.271 86.8568C134.766 87.3612 134.483 88.0453 134.483 88.7586C134.483 89.472 134.766 90.156 135.271 90.6605C135.775 91.1649 136.459 91.4483 137.173 91.4483" fill="white" style="fill:white;fill-opacity:1;"/>
<path d="M134.483 96.8276V102.207H139.862V99.5172C139.862 98.8039 139.579 98.1198 139.074 97.6154C138.57 97.1109 137.886 96.8276 137.173 96.8276" fill="white" style="fill:white;fill-opacity:1;"/>
<path d="M139.862 102.207H134.483V104.897C134.483 105.61 134.766 106.294 135.271 106.798C135.775 107.303 136.459 107.586 137.173 107.586C137.886 107.586 138.57 107.303 139.074 106.798C139.579 106.294 139.862 105.61 139.862 104.897" fill="white" style="fill:white;fill-opacity:1;"/>
<path d="M134.483 129.103V134.483H137.173C137.886 134.483 138.57 134.199 139.074 133.695C139.579 133.19 139.862 132.506 139.862 131.793C139.862 131.08 139.579 130.396 139.074 129.891C138.57 129.387 137.886 129.103 137.173 129.103" fill="white" style="fill:white;fill-opacity:1;"/>
<path d="M139.862 139.862H134.483V145.241H139.862V139.862Z" fill="white" style="fill:white;fill-opacity:1;"/>
<path d="M139.862 145.241H134.483V147.931C134.483 148.644 134.766 149.328 135.271 149.833C135.775 150.337 136.459 150.621 137.173 150.621C137.886 150.621 138.57 150.337 139.074 149.833C139.579 149.328 139.862 148.644 139.862 147.931" fill="white" style="fill:white;fill-opacity:1;"/>
<path d="M145.241 43.0345H139.862V48.4138H145.241V43.0345Z" fill="white" style="fill:white;fill-opacity:1;"/>
<path d="M145.241 53.7931V48.4138H139.862V51.1034C139.862 51.8168 140.145 52.5008 140.65 53.0053C141.154 53.5097 141.838 53.7931 142.552 53.7931" fill="white" style="fill:white;fill-opacity:1;"/>
<path d="M145.241 64.5517H139.862V69.931H145.241V64.5517Z" fill="white" style="fill:white;fill-opacity:1;"/>
<path d="M145.241 75.3104H139.862V80.6897H145.241V75.3104Z" fill="white" style="fill:white;fill-opacity:1;"/>
<path d="M145.241 80.6896H139.862V86.0689H145.241V80.6896Z" fill="white" style="fill:white;fill-opacity:1;"/>
<path d="M145.241 86.069H139.862V91.4483H145.241V86.069Z" fill="white" style="fill:white;fill-opacity:1;"/>
<path d="M142.552 112.966C144.037 112.966 145.241 111.761 145.241 110.276C145.241 108.791 144.037 107.586 142.552 107.586C141.066 107.586 139.862 108.791 139.862 110.276C139.862 111.761 141.066 112.966 142.552 112.966Z" fill="white" style="fill:white;fill-opacity:1;"/>
<path d="M142.552 129.103C144.037 129.103 145.241 127.899 145.241 126.414C145.241 124.928 144.037 123.724 142.552 123.724C141.066 123.724 139.862 124.928 139.862 126.414C139.862 127.899 141.066 129.103 142.552 129.103Z" fill="white" style="fill:white;fill-opacity:1;"/>
<path d="M139.862 139.862H145.241V137.172C145.241 136.459 144.958 135.775 144.454 135.271C143.949 134.766 143.265 134.483 142.552 134.483C141.838 134.483 141.154 134.766 140.65 135.271C140.145 135.775 139.862 136.459 139.862 137.172" fill="white" style="fill:white;fill-opacity:1;"/>
<path d="M145.241 139.862H139.862V145.241H142.552C143.265 145.241 143.949 144.958 144.454 144.454C144.958 143.949 145.241 143.265 145.241 142.552" fill="white" style="fill:white;fill-opacity:1;"/>
<path d="M142.552 156C144.037 156 145.241 154.796 145.241 153.31C145.241 151.825 144.037 150.621 142.552 150.621C141.066 150.621 139.862 151.825 139.862 153.31C139.862 154.796 141.066 156 142.552 156Z" fill="white" style="fill:white;fill-opacity:1;"/>
<path d="M145.241 43.0345V48.4138H150.621V45.7241C150.621 45.0108 150.337 44.3267 149.833 43.8223C149.329 43.3179 148.644 43.0345 147.931 43.0345" fill="white" style="fill:white;fill-opacity:1;"/>
<path d="M150.621 48.4138H145.241V53.7931H150.621V48.4138Z" fill="white" style="fill:white;fill-opacity:1;"/>
<path d="M150.621 53.7931H145.241V59.1724H150.621V53.7931Z" fill="white" style="fill:white;fill-opacity:1;"/>
<path d="M150.621 59.1724H145.241V64.5517H150.621V59.1724Z" fill="white" style="fill:white;fill-opacity:1;"/>
<path d="M150.621 64.5517H145.241V69.931H150.621V64.5517Z" fill="white" style="fill:white;fill-opacity:1;"/>
<path d="M150.621 75.3104H145.241V80.6897H150.621V75.3104Z" fill="white" style="fill:white;fill-opacity:1;"/>
<path d="M145.241 86.069V91.4483H147.931C148.644 91.4483 149.329 91.1649 149.833 90.6605C150.337 90.156 150.621 89.472 150.621 88.7586C150.621 88.0453 150.337 87.3612 149.833 86.8568C149.329 86.3523 148.644 86.069 147.931 86.069" fill="white" style="fill:white;fill-opacity:1;"/>
<path d="M150.621 107.586V102.207H147.931C147.218 102.207 146.534 102.49 146.029 102.995C145.525 103.499 145.241 104.183 145.241 104.897C145.241 105.61 145.525 106.294 146.029 106.798C146.534 107.303 147.218 107.586 147.931 107.586" fill="white" style="fill:white;fill-opacity:1;"/>
<path d="M150.621 118.345V112.965H147.931C147.218 112.965 146.534 113.249 146.029 113.753C145.525 114.258 145.241 114.942 145.241 115.655C145.241 116.368 145.525 117.053 146.029 117.557C146.534 118.061 147.218 118.345 147.931 118.345" fill="white" style="fill:white;fill-opacity:1;"/>
<path d="M147.931 134.483C149.416 134.483 150.621 133.278 150.621 131.793C150.621 130.308 149.416 129.103 147.931 129.103C146.446 129.103 145.241 130.308 145.241 131.793C145.241 133.278 146.446 134.483 147.931 134.483Z" fill="white" style="fill:white;fill-opacity:1;"/>
<path d="M150.621 150.621V145.241H147.931C147.218 145.241 146.534 145.525 146.029 146.029C145.525 146.534 145.241 147.218 145.241 147.931C145.241 148.644 145.525 149.328 146.029 149.833C146.534 150.337 147.218 150.621 147.931 150.621" fill="white" style="fill:white;fill-opacity:1;"/>
<path d="M150.621 48.4138V53.7931H153.31C154.024 53.7931 154.708 53.5097 155.212 53.0053C155.717 52.5008 156 51.8168 156 51.1034C156 50.39 155.717 49.706 155.212 49.2016C154.708 48.6971 154.024 48.4138 153.31 48.4138" fill="white" style="fill:white;fill-opacity:1;"/>
<path d="M150.621 59.1724V64.5517H156V61.8621C156 61.1487 155.717 60.4647 155.212 59.9602C154.708 59.4558 154.024 59.1724 153.31 59.1724" fill="white" style="fill:white;fill-opacity:1;"/>
<path d="M156 64.5517H150.621V69.931H156V64.5517Z" fill="white" style="fill:white;fill-opacity:1;"/>
<path d="M156 69.931H150.621V75.3103H156V69.931Z" fill="white" style="fill:white;fill-opacity:1;"/>
<path d="M156 75.3104H150.621V80.6897H156V75.3104Z" fill="white" style="fill:white;fill-opacity:1;"/>
<path d="M156 80.6896H150.621V83.3793C150.621 84.0927 150.904 84.7767 151.408 85.2811C151.913 85.7856 152.597 86.0689 153.31 86.0689C154.024 86.0689 154.708 85.7856 155.212 85.2811C155.717 84.7767 156 84.0927 156 83.3793" fill="white" style="fill:white;fill-opacity:1;"/>
<path d="M150.621 102.207H156V99.5172C156 98.8039 155.717 98.1198 155.212 97.6154C154.708 97.1109 154.024 96.8276 153.31 96.8276C152.597 96.8276 151.913 97.1109 151.408 97.6154C150.904 98.1198 150.621 98.8039 150.621 99.5172" fill="white" style="fill:white;fill-opacity:1;"/>
<path d="M156 102.207H150.621V107.586H156V102.207Z" fill="white" style="fill:white;fill-opacity:1;"/>
<path d="M156 107.586H150.621V112.966H156V107.586Z" fill="white" style="fill:white;fill-opacity:1;"/>
<path d="M156 112.965H150.621V118.345H156V112.965Z" fill="white" style="fill:white;fill-opacity:1;"/>
<path d="M156 118.345H150.621V123.724H156V118.345Z" fill="white" style="fill:white;fill-opacity:1;"/>
<path d="M156 123.724H150.621V126.414C150.621 127.127 150.904 127.811 151.408 128.316C151.913 128.82 152.597 129.103 153.31 129.103C154.024 129.103 154.708 128.82 155.212 128.316C155.717 127.811 156 127.127 156 126.414" fill="white" style="fill:white;fill-opacity:1;"/>
<path d="M153.31 139.862C154.796 139.862 156 138.658 156 137.172C156 135.687 154.796 134.483 153.31 134.483C151.825 134.483 150.621 135.687 150.621 137.172C150.621 138.658 151.825 139.862 153.31 139.862Z" fill="white" style="fill:white;fill-opacity:1;"/>
<path d="M150.621 145.241V150.621H153.31C154.024 150.621 154.708 150.337 155.212 149.833C155.717 149.328 156 148.644 156 147.931C156 147.218 155.717 146.534 155.212 146.029C154.708 145.525 154.024 145.241 153.31 145.241" fill="white" style="fill:white;fill-opacity:1;"/>
</mask>
<g mask="url(#mask0_47_2821)">
<path d="M156 0H0V156H156V0Z" fill="#CCCCCC" style="fill:#CCCCCC;fill:color(display-p3 0.8000 0.8000 0.8000);fill-opacity:1;"/>
</g>
<path d="M87.9283 60.3871H67.8984C63.7501 60.3871 60.3872 63.75 60.3872 67.8983V87.9282C60.3872 92.0765 63.7501 95.4394 67.8984 95.4394H87.9283C92.0766 95.4394 95.4395 92.0765 95.4395 87.9282V67.8983C95.4395 63.75 92.0766 60.3871 87.9283 60.3871Z" fill="url(#paint0_linear_47_2821)" style=""/>
<path d="M77.6193 69.331C77.7413 69.09 78.0856 69.09 78.2075 69.331L79.1357 71.1662C80.3412 73.5497 82.2769 75.4854 84.6605 76.6909L86.4957 77.6191C86.7367 77.7411 86.7367 78.0854 86.4957 78.2074L84.6605 79.1356C82.2769 80.341 80.3412 82.2767 79.1357 84.6603L78.2075 86.4955C78.0856 86.7365 77.7413 86.7365 77.6193 86.4955L76.6911 84.6603C75.4856 82.2767 73.5499 80.341 71.1664 79.1356L69.3312 78.2074C69.0901 78.0854 69.0901 77.7411 69.3312 77.6191L71.1664 76.6909C73.5499 75.4854 75.4856 73.5497 76.6911 71.1662L77.6193 69.331Z" fill="url(#paint1_linear_47_2821)" style=""/>
<mask id="mask1_47_2821" style="mask-type:luminance" maskUnits="userSpaceOnUse" x="0" y="0" width="38" height="38">
<path d="M0 5.37931H5.37931V0H2.68966C1.97631 0 1.2922 0.283369 0.787774 0.787774C0.283369 1.2922 0 1.97631 0 2.68966" fill="white" style="fill:white;fill-opacity:1;"/>
<path d="M5.37931 5.3793H0V10.7586H5.37931V5.3793Z" fill="white" style="fill:white;fill-opacity:1;"/>
<path d="M5.37931 10.7586H0V16.1379H5.37931V10.7586Z" fill="white" style="fill:white;fill-opacity:1;"/>
<path d="M5.37931 16.1379H0V21.5172H5.37931V16.1379Z" fill="white" style="fill:white;fill-opacity:1;"/>
<path d="M5.37931 21.5172H0V26.8966H5.37931V21.5172Z" fill="white" style="fill:white;fill-opacity:1;"/>
<path d="M5.37931 26.8966H0V32.2759H5.37931V26.8966Z" fill="white" style="fill:white;fill-opacity:1;"/>
<path d="M5.37931 37.6552V32.2758H0V34.9655C0 35.6789 0.283369 36.3629 0.787774 36.8673C1.2922 37.3718 1.97631 37.6552 2.68966 37.6552" fill="white" style="fill:white;fill-opacity:1;"/>
<path d="M10.7587 0H5.37939V5.37931H10.7587V0Z" fill="white" style="fill:white;fill-opacity:1;"/>
<path d="M10.7587 32.2758H5.37939V37.6552H10.7587V32.2758Z" fill="white" style="fill:white;fill-opacity:1;"/>
<path d="M16.1379 0H10.7585V5.37931H16.1379V0Z" fill="white" style="fill:white;fill-opacity:1;"/>
<path d="M16.1379 32.2758H10.7585V37.6552H16.1379V32.2758Z" fill="white" style="fill:white;fill-opacity:1;"/>
<path d="M21.5175 0H16.1382V5.37931H21.5175V0Z" fill="white" style="fill:white;fill-opacity:1;"/>
<path d="M21.5175 32.2758H16.1382V37.6552H21.5175V32.2758Z" fill="white" style="fill:white;fill-opacity:1;"/>
<path d="M26.8964 0H21.5171V5.37931H26.8964V0Z" fill="white" style="fill:white;fill-opacity:1;"/>
<path d="M26.8964 32.2758H21.5171V37.6552H26.8964V32.2758Z" fill="white" style="fill:white;fill-opacity:1;"/>
<path d="M32.2758 0H26.8965V5.37931H32.2758V0Z" fill="white" style="fill:white;fill-opacity:1;"/>
<path d="M32.2758 32.2758H26.8965V37.6552H32.2758V32.2758Z" fill="white" style="fill:white;fill-opacity:1;"/>
<path d="M32.2759 0V5.37931H37.6552V2.68966C37.6552 1.97631 37.3718 1.2922 36.8674 0.787774C36.3629 0.283369 35.6789 0 34.9655 0" fill="white" style="fill:white;fill-opacity:1;"/>
<path d="M37.6552 5.3793H32.2759V10.7586H37.6552V5.3793Z" fill="white" style="fill:white;fill-opacity:1;"/>
<path d="M37.6552 10.7586H32.2759V16.1379H37.6552V10.7586Z" fill="white" style="fill:white;fill-opacity:1;"/>
<path d="M37.6552 16.1379H32.2759V21.5172H37.6552V16.1379Z" fill="white" style="fill:white;fill-opacity:1;"/>
<path d="M37.6552 21.5172H32.2759V26.8966H37.6552V21.5172Z" fill="white" style="fill:white;fill-opacity:1;"/>
<path d="M37.6552 26.8966H32.2759V32.2759H37.6552V26.8966Z" fill="white" style="fill:white;fill-opacity:1;"/>
<path d="M37.6552 32.2758H32.2759V37.6552H34.9655C35.6789 37.6552 36.3629 37.3718 36.8674 36.8673C37.3718 36.3629 37.6552 35.6789 37.6552 34.9655" fill="white" style="fill:white;fill-opacity:1;"/>
</mask>
<g mask="url(#mask1_47_2821)">
<path d="M37.6552 0H0V37.6552H37.6552V0Z" fill="#CCCCCC" style="fill:#CCCCCC;fill:color(display-p3 0.8000 0.8000 0.8000);fill-opacity:1;"/>
</g>
<mask id="mask2_47_2821" style="mask-type:luminance" maskUnits="userSpaceOnUse" x="10" y="10" width="17" height="17">
<path d="M10.7585 16.1379H16.1379V10.7586H13.4482C12.7348 10.7586 12.0508 11.042 11.5464 11.5464C11.0419 12.0509 10.7585 12.7349 10.7585 13.4483" fill="white" style="fill:white;fill-opacity:1;"/>
<path d="M16.1379 16.1379H10.7585V21.5172H16.1379V16.1379Z" fill="white" style="fill:white;fill-opacity:1;"/>
<path d="M16.1379 26.8966V21.5172H10.7585V24.2069C10.7585 24.9203 11.0419 25.6043 11.5464 26.1087C12.0508 26.6132 12.7348 26.8966 13.4482 26.8966" fill="white" style="fill:white;fill-opacity:1;"/>
<path d="M21.5175 10.7586H16.1382V16.1379H21.5175V10.7586Z" fill="white" style="fill:white;fill-opacity:1;"/>
<path d="M21.5175 16.1379H16.1382V21.5172H21.5175V16.1379Z" fill="white" style="fill:white;fill-opacity:1;"/>
<path d="M21.5175 21.5172H16.1382V26.8966H21.5175V21.5172Z" fill="white" style="fill:white;fill-opacity:1;"/>
<path d="M21.5171 10.7586V16.1379H26.8964V13.4483C26.8964 12.7349 26.613 12.0509 26.1086 11.5464C25.6042 11.042 24.9201 10.7586 24.2067 10.7586" fill="white" style="fill:white;fill-opacity:1;"/>
<path d="M26.8964 16.1379H21.5171V21.5172H26.8964V16.1379Z" fill="white" style="fill:white;fill-opacity:1;"/>
<path d="M26.8964 21.5172H21.5171V26.8966H24.2067C24.9201 26.8966 25.6042 26.6132 26.1086 26.1087C26.613 25.6043 26.8964 24.9203 26.8964 24.2069" fill="white" style="fill:white;fill-opacity:1;"/>
</mask>
<g mask="url(#mask2_47_2821)">
<path d="M26.8965 10.7586H10.7585V26.8965H26.8965V10.7586Z" fill="#CCCCCC" style="fill:#CCCCCC;fill:color(display-p3 0.8000 0.8000 0.8000);fill-opacity:1;"/>
</g>
<mask id="mask3_47_2821" style="mask-type:luminance" maskUnits="userSpaceOnUse" x="118" y="0" width="38" height="38">
<path d="M118.345 5.37931H123.724V0H121.035C120.321 0 119.637 0.283368 119.133 0.787792C118.628 1.2922 118.345 1.97631 118.345 2.68966" fill="white" style="fill:white;fill-opacity:1;"/>
<path d="M123.724 5.3793H118.345V10.7586H123.724V5.3793Z" fill="white" style="fill:white;fill-opacity:1;"/>
<path d="M123.724 10.7586H118.345V16.1379H123.724V10.7586Z" fill="white" style="fill:white;fill-opacity:1;"/>
<path d="M123.724 16.1379H118.345V21.5172H123.724V16.1379Z" fill="white" style="fill:white;fill-opacity:1;"/>
<path d="M123.724 21.5172H118.345V26.8966H123.724V21.5172Z" fill="white" style="fill:white;fill-opacity:1;"/>
<path d="M123.724 26.8966H118.345V32.2759H123.724V26.8966Z" fill="white" style="fill:white;fill-opacity:1;"/>
<path d="M123.724 37.6552V32.2758H118.345V34.9655C118.345 35.6789 118.628 36.3629 119.133 36.8673C119.637 37.3718 120.321 37.6552 121.035 37.6552" fill="white" style="fill:white;fill-opacity:1;"/>
<path d="M129.103 0H123.724V5.37931H129.103V0Z" fill="white" style="fill:white;fill-opacity:1;"/>
<path d="M129.103 32.2758H123.724V37.6552H129.103V32.2758Z" fill="white" style="fill:white;fill-opacity:1;"/>
<path d="M134.483 0H129.104V5.37931H134.483V0Z" fill="white" style="fill:white;fill-opacity:1;"/>
<path d="M134.483 32.2758H129.104V37.6552H134.483V32.2758Z" fill="white" style="fill:white;fill-opacity:1;"/>
<path d="M139.862 0H134.483V5.37931H139.862V0Z" fill="white" style="fill:white;fill-opacity:1;"/>
<path d="M139.862 32.2758H134.483V37.6552H139.862V32.2758Z" fill="white" style="fill:white;fill-opacity:1;"/>
<path d="M145.241 0H139.862V5.37931H145.241V0Z" fill="white" style="fill:white;fill-opacity:1;"/>
<path d="M145.241 32.2758H139.862V37.6552H145.241V32.2758Z" fill="white" style="fill:white;fill-opacity:1;"/>
<path d="M150.621 0H145.241V5.37931H150.621V0Z" fill="white" style="fill:white;fill-opacity:1;"/>
<path d="M150.621 32.2758H145.241V37.6552H150.621V32.2758Z" fill="white" style="fill:white;fill-opacity:1;"/>
<path d="M150.621 0V5.37931H156V2.68966C156 1.97631 155.717 1.2922 155.212 0.787774C154.708 0.283369 154.024 0 153.31 0" fill="white" style="fill:white;fill-opacity:1;"/>
<path d="M156 5.3793H150.621V10.7586H156V5.3793Z" fill="white" style="fill:white;fill-opacity:1;"/>
<path d="M156 10.7586H150.621V16.1379H156V10.7586Z" fill="white" style="fill:white;fill-opacity:1;"/>
<path d="M156 16.1379H150.621V21.5172H156V16.1379Z" fill="white" style="fill:white;fill-opacity:1;"/>
<path d="M156 21.5172H150.621V26.8966H156V21.5172Z" fill="white" style="fill:white;fill-opacity:1;"/>
<path d="M156 26.8966H150.621V32.2759H156V26.8966Z" fill="white" style="fill:white;fill-opacity:1;"/>
<path d="M156 32.2758H150.621V37.6552H153.31C154.024 37.6552 154.708 37.3718 155.212 36.8673C155.717 36.3629 156 35.6789 156 34.9655" fill="white" style="fill:white;fill-opacity:1;"/>
</mask>
<g mask="url(#mask3_47_2821)">
<path d="M156 0H118.345V37.6552H156V0Z" fill="#CCCCCC" style="fill:#CCCCCC;fill:color(display-p3 0.8000 0.8000 0.8000);fill-opacity:1;"/>
</g>
<mask id="mask4_47_2821" style="mask-type:luminance" maskUnits="userSpaceOnUse" x="129" y="10" width="17" height="17">
<path d="M129.104 16.1379H134.483V10.7586H131.793C131.08 10.7586 130.396 11.042 129.891 11.5464C129.387 12.0509 129.104 12.7349 129.104 13.4483" fill="white" style="fill:white;fill-opacity:1;"/>
<path d="M134.483 16.1379H129.104V21.5172H134.483V16.1379Z" fill="white" style="fill:white;fill-opacity:1;"/>
<path d="M134.483 26.8966V21.5172H129.104V24.2069C129.104 24.9203 129.387 25.6043 129.891 26.1087C130.396 26.6132 131.08 26.8966 131.793 26.8966" fill="white" style="fill:white;fill-opacity:1;"/>
<path d="M139.862 10.7586H134.483V16.1379H139.862V10.7586Z" fill="white" style="fill:white;fill-opacity:1;"/>
<path d="M139.862 16.1379H134.483V21.5172H139.862V16.1379Z" fill="white" style="fill:white;fill-opacity:1;"/>
<path d="M139.862 21.5172H134.483V26.8966H139.862V21.5172Z" fill="white" style="fill:white;fill-opacity:1;"/>
<path d="M139.862 10.7586V16.1379H145.241V13.4483C145.241 12.7349 144.958 12.0509 144.453 11.5464C143.949 11.042 143.265 10.7586 142.551 10.7586" fill="white" style="fill:white;fill-opacity:1;"/>
<path d="M145.241 16.1379H139.862V21.5172H145.241V16.1379Z" fill="white" style="fill:white;fill-opacity:1;"/>
<path d="M145.241 21.5172H139.862V26.8966H142.551C143.265 26.8966 143.949 26.6132 144.453 26.1087C144.958 25.6043 145.241 24.9203 145.241 24.2069" fill="white" style="fill:white;fill-opacity:1;"/>
</mask>
<g mask="url(#mask4_47_2821)">
<path d="M145.241 10.7586H129.104V26.8965H145.241V10.7586Z" fill="#CCCCCC" style="fill:#CCCCCC;fill:color(display-p3 0.8000 0.8000 0.8000);fill-opacity:1;"/>
</g>
<mask id="mask5_47_2821" style="mask-type:luminance" maskUnits="userSpaceOnUse" x="0" y="118" width="38" height="38">
<path d="M0 123.724H5.37931V118.345H2.68966C1.97631 118.345 1.2922 118.628 0.787792 119.133C0.283368 119.637 0 120.321 0 121.034" fill="white" style="fill:white;fill-opacity:1;"/>
<path d="M5.37931 123.724H0V129.103H5.37931V123.724Z" fill="white" style="fill:white;fill-opacity:1;"/>
<path d="M5.37931 129.103H0V134.483H5.37931V129.103Z" fill="white" style="fill:white;fill-opacity:1;"/>
<path d="M5.37931 134.483H0V139.862H5.37931V134.483Z" fill="white" style="fill:white;fill-opacity:1;"/>
<path d="M5.37931 139.862H0V145.241H5.37931V139.862Z" fill="white" style="fill:white;fill-opacity:1;"/>
<path d="M5.37931 145.241H0V150.621H5.37931V145.241Z" fill="white" style="fill:white;fill-opacity:1;"/>
<path d="M5.37931 156V150.621H0V153.31C0 154.024 0.283369 154.708 0.787774 155.212C1.2922 155.717 1.97631 156 2.68966 156" fill="white" style="fill:white;fill-opacity:1;"/>
<path d="M10.7587 118.345H5.37939V123.724H10.7587V118.345Z" fill="white" style="fill:white;fill-opacity:1;"/>
<path d="M10.7587 150.621H5.37939V156H10.7587V150.621Z" fill="white" style="fill:white;fill-opacity:1;"/>
<path d="M16.1379 118.345H10.7585V123.724H16.1379V118.345Z" fill="white" style="fill:white;fill-opacity:1;"/>
<path d="M16.1379 150.621H10.7585V156H16.1379V150.621Z" fill="white" style="fill:white;fill-opacity:1;"/>
<path d="M21.5175 118.345H16.1382V123.724H21.5175V118.345Z" fill="white" style="fill:white;fill-opacity:1;"/>
<path d="M21.5175 150.621H16.1382V156H21.5175V150.621Z" fill="white" style="fill:white;fill-opacity:1;"/>
<path d="M26.8964 118.345H21.5171V123.724H26.8964V118.345Z" fill="white" style="fill:white;fill-opacity:1;"/>
<path d="M26.8964 150.621H21.5171V156H26.8964V150.621Z" fill="white" style="fill:white;fill-opacity:1;"/>
<path d="M32.2758 118.345H26.8965V123.724H32.2758V118.345Z" fill="white" style="fill:white;fill-opacity:1;"/>
<path d="M32.2758 150.621H26.8965V156H32.2758V150.621Z" fill="white" style="fill:white;fill-opacity:1;"/>
<path d="M32.2759 118.345V123.724H37.6552V121.034C37.6552 120.321 37.3718 119.637 36.8674 119.133C36.3629 118.628 35.6789 118.345 34.9655 118.345" fill="white" style="fill:white;fill-opacity:1;"/>
<path d="M37.6552 123.724H32.2759V129.103H37.6552V123.724Z" fill="white" style="fill:white;fill-opacity:1;"/>
<path d="M37.6552 129.103H32.2759V134.483H37.6552V129.103Z" fill="white" style="fill:white;fill-opacity:1;"/>
<path d="M37.6552 134.483H32.2759V139.862H37.6552V134.483Z" fill="white" style="fill:white;fill-opacity:1;"/>
<path d="M37.6552 139.862H32.2759V145.241H37.6552V139.862Z" fill="white" style="fill:white;fill-opacity:1;"/>
<path d="M37.6552 145.241H32.2759V150.621H37.6552V145.241Z" fill="white" style="fill:white;fill-opacity:1;"/>
<path d="M37.6552 150.621H32.2759V156H34.9655C35.6789 156 36.3629 155.717 36.8674 155.212C37.3718 154.708 37.6552 154.024 37.6552 153.31" fill="white" style="fill:white;fill-opacity:1;"/>
</mask>
<g mask="url(#mask5_47_2821)">
<path d="M37.6552 118.345H0V156H37.6552V118.345Z" fill="#CCCCCC" style="fill:#CCCCCC;fill:color(display-p3 0.8000 0.8000 0.8000);fill-opacity:1;"/>
</g>
<mask id="mask6_47_2821" style="mask-type:luminance" maskUnits="userSpaceOnUse" x="10" y="129" width="17" height="17">
<path d="M10.7585 134.483H16.1379V129.103H13.4482C12.7348 129.103 12.0508 129.387 11.5464 129.891C11.0419 130.396 10.7585 131.08 10.7585 131.793" fill="white" style="fill:white;fill-opacity:1;"/>
<path d="M16.1379 134.483H10.7585V139.862H16.1379V134.483Z" fill="white" style="fill:white;fill-opacity:1;"/>
<path d="M16.1379 145.241V139.862H10.7585V142.552C10.7585 143.265 11.0419 143.949 11.5464 144.454C12.0508 144.958 12.7348 145.241 13.4482 145.241" fill="white" style="fill:white;fill-opacity:1;"/>
<path d="M21.5175 129.103H16.1382V134.483H21.5175V129.103Z" fill="white" style="fill:white;fill-opacity:1;"/>
<path d="M21.5175 134.483H16.1382V139.862H21.5175V134.483Z" fill="white" style="fill:white;fill-opacity:1;"/>
<path d="M21.5175 139.862H16.1382V145.241H21.5175V139.862Z" fill="white" style="fill:white;fill-opacity:1;"/>
<path d="M21.5171 129.103V134.483H26.8964V131.793C26.8964 131.08 26.613 130.396 26.1086 129.891C25.6042 129.387 24.9201 129.103 24.2067 129.103" fill="white" style="fill:white;fill-opacity:1;"/>
<path d="M26.8964 134.483H21.5171V139.862H26.8964V134.483Z" fill="white" style="fill:white;fill-opacity:1;"/>
<path d="M26.8964 139.862H21.5171V145.241H24.2067C24.9201 145.241 25.6042 144.958 26.1086 144.454C26.613 143.949 26.8964 143.265 26.8964 142.552" fill="white" style="fill:white;fill-opacity:1;"/>
</mask>
<g mask="url(#mask6_47_2821)">
<path d="M26.8965 129.103H10.7585V145.241H26.8965V129.103Z" fill="#CCCCCC" style="fill:#CCCCCC;fill:color(display-p3 0.8000 0.8000 0.8000);fill-opacity:1;"/>
</g>
<defs>
<linearGradient id="paint0_linear_47_2821" x1="77.9133" y1="60.3871" x2="77.9133" y2="95.4394" gradientUnits="userSpaceOnUse">
<stop stop-color="#0074FA" style="stop-color:#0074FA;stop-color:color(display-p3 0.0000 0.4560 0.9800);stop-opacity:1;"/>
<stop offset="1" stop-color="#00397A" style="stop-color:#00397A;stop-color:color(display-p3 0.0000 0.2233 0.4800);stop-opacity:1;"/>
</linearGradient>
<linearGradient id="paint1_linear_47_2821" x1="77.9134" y1="68.7493" x2="77.9134" y2="87.0772" gradientUnits="userSpaceOnUse">
<stop stop-color="white" style="stop-color:white;stop-opacity:1;"/>
<stop offset="1" stop-color="#AFAFAF" style="stop-color:#AFAFAF;stop-color:color(display-p3 0.6863 0.6863 0.6863);stop-opacity:1;"/>
</linearGradient>
</defs>
</svg>
