<svg width="12" height="11" viewBox="0 0 12 11" fill="none" xmlns="http://www.w3.org/2000/svg">
<path d="M0.5 7.75L3.41021 4.6546C3.52806 4.52924 3.66798 4.4298 3.82198 4.36195C3.97597 4.29411 4.14101 4.25919 4.30769 4.25919C4.47437 4.25919 4.63942 4.29411 4.79341 4.36195C4.9474 4.4298 5.08732 4.52924 5.20518 4.6546L8.11538 7.75M7.26923 6.85L8.06405 6.0046C8.18191 5.87924 8.32183 5.7798 8.47582 5.71195C8.62981 5.64411 8.79486 5.60919 8.96154 5.60919C9.12822 5.60919 9.29326 5.64411 9.44726 5.71195C9.60125 5.7798 9.74117 5.87924 9.85903 6.0046L11.5 7.75M1.34615 10H10.6538C10.8783 10 11.0935 9.90518 11.2522 9.7364C11.4109 9.56761 11.5 9.3387 11.5 9.1V1.9C11.5 1.66131 11.4109 1.43239 11.2522 1.2636C11.0935 1.09482 10.8783 1 10.6538 1H1.34615C1.12174 1 0.906517 1.09482 0.747833 1.2636C0.589148 1.43239 0.5 1.66131 0.5 1.9V9.1C0.5 9.3387 0.589148 9.56761 0.747833 9.7364C0.906517 9.90518 1.12174 10 1.34615 10ZM7.26923 3.25H7.27374V3.2548H7.26923V3.25ZM7.48077 3.25C7.48077 3.30967 7.45848 3.3669 7.41881 3.4091C7.37914 3.45129 7.32533 3.475 7.26923 3.475C7.21313 3.475 7.15932 3.45129 7.11965 3.4091C7.07998 3.3669 7.05769 3.30967 7.05769 3.25C7.05769 3.19033 7.07998 3.1331 7.11965 3.0909C7.15932 3.04871 7.21313 3.025 7.26923 3.025C7.32533 3.025 7.37914 3.04871 7.41881 3.0909C7.45848 3.1331 7.48077 3.19033 7.48077 3.25Z" stroke="#E6E6E6" style="stroke:#E6E6E6;stroke:color(display-p3 0.9020 0.9020 0.9020);stroke-opacity:1;" stroke-width="0.7" stroke-linecap="round" stroke-linejoin="round"/>
</svg>
