<svg width="343" height="344" viewBox="0 0 343 344" fill="none" xmlns="http://www.w3.org/2000/svg">
<mask id="path-1-inside-1_377_898" fill="white">
<path d="M79.6062 34.1016C77.7267 31.2821 73.9076 30.5156 71.162 32.5016C49.8361 47.9272 32.3099 68.0816 19.9694 91.4261C6.6701 116.584 -0.190312 144.66 0.0040154 173.133C0.198342 201.606 7.44132 229.585 21.0828 254.558C33.7408 277.731 51.5404 297.643 73.0748 312.774C75.8473 314.723 79.6555 313.904 81.4962 311.059L86.0423 304.033C87.8768 301.198 87.0621 297.423 84.3082 295.468C65.6171 282.203 50.1585 264.83 39.1328 244.646C27.1284 222.669 20.7545 198.048 20.5835 172.992C20.4125 147.935 26.4497 123.229 38.1531 101.09C48.9023 80.7555 64.1224 63.1718 82.6309 49.6517C85.3577 47.6598 86.1205 43.8741 84.2475 41.0643L79.6062 34.1016Z"/>
</mask>
<path d="M79.6062 34.1016C77.7267 31.2821 73.9076 30.5156 71.162 32.5016C49.8361 47.9272 32.3099 68.0816 19.9694 91.4261C6.6701 116.584 -0.190312 144.66 0.0040154 173.133C0.198342 201.606 7.44132 229.585 21.0828 254.558C33.7408 277.731 51.5404 297.643 73.0748 312.774C75.8473 314.723 79.6555 313.904 81.4962 311.059L86.0423 304.033C87.8768 301.198 87.0621 297.423 84.3082 295.468C65.6171 282.203 50.1585 264.83 39.1328 244.646C27.1284 222.669 20.7545 198.048 20.5835 172.992C20.4125 147.935 26.4497 123.229 38.1531 101.09C48.9023 80.7555 64.1224 63.1718 82.6309 49.6517C85.3577 47.6598 86.1205 43.8741 84.2475 41.0643L79.6062 34.1016Z" fill="#0072F5" fill-opacity="0.7" stroke="#111111" style="fill:#0072F5;fill:color(display-p3 0.0000 0.4471 0.9608);fill-opacity:0.7;stroke:#111111;stroke:color(display-p3 0.0667 0.0667 0.0667);stroke-opacity:1;" stroke-width="4" mask="url(#path-1-inside-1_377_898)"/>
<mask id="path-2-inside-2_377_898" fill="white">
<path d="M81.467 311.075C79.6322 313.91 80.433 317.706 83.3274 319.445C111.409 336.323 143.765 344.811 176.576 343.837C209.388 342.863 241.187 332.47 268.223 313.955C271.009 312.047 271.584 308.211 269.585 305.49L264.633 298.748C262.627 296.017 258.791 295.445 255.985 297.345C232.33 313.369 204.586 322.362 175.967 323.211C147.348 324.061 119.122 316.73 94.563 302.138C91.6499 300.407 87.8547 301.205 86.0137 304.05L81.467 311.075Z"/>
</mask>
<path d="M81.467 311.075C79.6322 313.91 80.433 317.706 83.3274 319.445C111.409 336.323 143.765 344.811 176.576 343.837C209.388 342.863 241.187 332.47 268.223 313.955C271.009 312.047 271.584 308.211 269.585 305.49L264.633 298.748C262.627 296.017 258.791 295.445 255.985 297.345C232.33 313.369 204.586 322.362 175.967 323.211C147.348 324.061 119.122 316.73 94.563 302.138C91.6499 300.407 87.8547 301.205 86.0137 304.05L81.467 311.075Z" fill="#0072F5" fill-opacity="0.4" stroke="#111111" style="fill:#0072F5;fill:color(display-p3 0.0000 0.4471 0.9608);fill-opacity:0.4;stroke:#111111;stroke:color(display-p3 0.0667 0.0667 0.0667);stroke-opacity:1;" stroke-width="4" mask="url(#path-2-inside-2_377_898)"/>
<mask id="path-3-inside-3_377_898" fill="white">
<path d="M79.4677 34.1583C77.5922 31.3502 78.3378 27.5437 81.2066 25.7624C107.823 9.23574 138.481 0.308078 169.864 0.00782779C201.246 -0.292421 232.069 8.04693 258.994 24.0612C261.897 25.7874 262.715 29.5791 260.893 32.4225L256.379 39.4692C254.551 42.3224 250.759 43.1376 247.838 41.4202C224.3 27.5812 197.422 20.3798 170.06 20.6416C142.698 20.9034 115.962 28.6178 92.6915 42.9045C89.8037 44.6775 85.9972 43.9348 84.1152 41.1168L79.4677 34.1583Z"/>
</mask>
<path d="M79.4677 34.1583C77.5922 31.3502 78.3378 27.5437 81.2066 25.7624C107.823 9.23574 138.481 0.308078 169.864 0.00782779C201.246 -0.292421 232.069 8.04693 258.994 24.0612C261.897 25.7874 262.715 29.5791 260.893 32.4225L256.379 39.4692C254.551 42.3224 250.759 43.1376 247.838 41.4202C224.3 27.5812 197.422 20.3798 170.06 20.6416C142.698 20.9034 115.962 28.6178 92.6915 42.9045C89.8037 44.6775 85.9972 43.9348 84.1152 41.1168L79.4677 34.1583Z" fill="#0072F5" stroke="#111111" style="fill:#0072F5;fill:color(display-p3 0.0000 0.4471 0.9608);fill-opacity:1;stroke:#111111;stroke:color(display-p3 0.0667 0.0667 0.0667);stroke-opacity:1;" stroke-width="4" mask="url(#path-3-inside-3_377_898)"/>
<ellipse cx="171.691" cy="172.023" rx="141.191" ry="141.567" fill="#D9D9D9" fill-opacity="0.02" style="fill:#D9D9D9;fill:color(display-p3 0.8510 0.8510 0.8510);fill-opacity:0.02;"/>
</svg>
