<svg width="24" height="24" viewBox="0 0 24 24" fill="none" xmlns="http://www.w3.org/2000/svg">
<rect width="24" height="24" rx="7.7037" fill="#0072F5" fill-opacity="0.2" style="fill:#0072F5;fill:color(display-p3 0.0000 0.4471 0.9608);fill-opacity:0.2;"/>
<path fill-rule="evenodd" clip-rule="evenodd" d="M5.84779 11.1608C5.73753 11.2711 5.65006 11.4019 5.59039 11.546C5.53071 11.69 5.5 11.8444 5.5 12.0003C5.5 12.1562 5.53071 12.3106 5.59039 12.4546C5.65006 12.5987 5.73753 12.7295 5.84779 12.8398L9.88371 16.8751C10.1066 17.0973 10.4085 17.2226 10.7232 17.2226H16.6007C17.1045 17.2226 17.5875 17.0225 17.9437 16.6663C18.2999 16.3102 18.5 15.8271 18.5 15.3234V8.6766C18.5 8.17289 18.2999 7.6898 17.9437 7.33362C17.5875 6.97744 17.1045 6.77734 16.6007 6.77734H10.7232C10.4085 6.77734 10.1066 6.90269 9.88371 7.12554L5.84779 11.1608ZM12.1881 10.2403C12.1447 10.1937 12.0922 10.1563 12.034 10.1303C11.9758 10.1044 11.9129 10.0904 11.8491 10.0893C11.7854 10.0881 11.7221 10.0999 11.6629 10.1238C11.6038 10.1476 11.5501 10.1832 11.505 10.2283C11.4599 10.2734 11.4244 10.3271 11.4005 10.3862C11.3766 10.4453 11.3649 10.5086 11.366 10.5724C11.3671 10.6361 11.3811 10.699 11.407 10.7573C11.433 10.8155 11.4704 10.8679 11.5171 10.9114L12.606 12.0003L11.5171 13.0892C11.4704 13.1327 11.433 13.1851 11.407 13.2433C11.3811 13.3016 11.3671 13.3645 11.366 13.4282C11.3649 13.492 11.3766 13.5553 11.4005 13.6144C11.4244 13.6735 11.4599 13.7272 11.505 13.7723C11.5501 13.8174 11.6038 13.853 11.6629 13.8768C11.7221 13.9007 11.7854 13.9125 11.8491 13.9113C11.9129 13.9102 11.9758 13.8962 12.034 13.8703C12.0922 13.8443 12.1447 13.8069 12.1881 13.7603L13.277 12.6714L14.366 13.7603C14.4094 13.8069 14.4618 13.8443 14.5201 13.8703C14.5783 13.8962 14.6412 13.9102 14.705 13.9113C14.7687 13.9125 14.832 13.9007 14.8912 13.8768C14.9503 13.853 15.004 13.8174 15.0491 13.7723C15.0942 13.7272 15.1297 13.6735 15.1536 13.6144C15.1775 13.5553 15.1892 13.492 15.1881 13.4282C15.1869 13.3645 15.173 13.3016 15.147 13.2433C15.1211 13.1851 15.0837 13.1327 15.037 13.0892L13.9481 12.0003L15.037 10.9114C15.0837 10.8679 15.1211 10.8155 15.147 10.7573C15.173 10.699 15.1869 10.6361 15.1881 10.5724C15.1892 10.5086 15.1775 10.4453 15.1536 10.3862C15.1297 10.3271 15.0942 10.2734 15.0491 10.2283C15.004 10.1832 14.9503 10.1476 14.8912 10.1238C14.832 10.0999 14.7687 10.0881 14.705 10.0893C14.6412 10.0904 14.5783 10.1044 14.5201 10.1303C14.4618 10.1563 14.4094 10.1937 14.366 10.2403L13.277 11.3292L12.1881 10.2403Z" fill="#0072F5" style="fill:#0072F5;fill:color(display-p3 0.0000 0.4471 0.9608);fill-opacity:1;"/>
</svg>
