<svg width="26" height="26" viewBox="0 0 26 26" fill="none" xmlns="http://www.w3.org/2000/svg">
<rect width="26" height="26" rx="7.7037" fill="#0072F5" fill-opacity="0.2" style="fill:#0072F5;fill:color(display-p3 0.0000 0.4471 0.9608);fill-opacity:0.2;"/>
<path fill-rule="evenodd" clip-rule="evenodd" d="M6.37454 12.0963C6.2558 12.215 6.1616 12.3559 6.09734 12.5111C6.03308 12.6662 6 12.8324 6 13.0003C6 13.1682 6.03308 13.3345 6.09734 13.4896C6.1616 13.6447 6.2558 13.7857 6.37454 13.9044L10.7209 18.2501C10.9609 18.4894 11.2861 18.6244 11.625 18.6244H17.9546C18.4971 18.6244 19.0174 18.4089 19.4009 18.0253C19.7845 17.6417 20 17.1215 20 16.579V9.42096C20 8.8785 19.7845 8.35826 19.4009 7.97468C19.0174 7.5911 18.4971 7.37561 17.9546 7.37561H11.625C11.2861 7.37561 10.9609 7.5106 10.7209 7.75059L6.37454 12.0963ZM13.2026 11.105C13.1558 11.0547 13.0993 11.0144 13.0366 10.9865C12.9739 10.9585 12.9062 10.9435 12.8375 10.9423C12.7689 10.9411 12.7007 10.9537 12.637 10.9794C12.5733 11.0052 12.5155 11.0434 12.4669 11.092C12.4184 11.1405 12.3801 11.1984 12.3544 11.2621C12.3287 11.3257 12.316 11.3939 12.3172 11.4626C12.3185 11.5312 12.3335 11.599 12.3614 11.6617C12.3894 11.7244 12.4297 11.7808 12.4799 11.8277L13.6526 13.0003L12.4799 14.173C12.4297 14.2198 12.3894 14.2763 12.3614 14.339C12.3335 14.4017 12.3185 14.4694 12.3172 14.5381C12.316 14.6067 12.3287 14.6749 12.3544 14.7386C12.3801 14.8023 12.4184 14.8601 12.4669 14.9087C12.5155 14.9572 12.5733 14.9955 12.637 15.0212C12.7007 15.0469 12.7689 15.0596 12.8375 15.0584C12.9062 15.0571 12.9739 15.0421 13.0366 15.0142C13.0993 14.9862 13.1558 14.9459 13.2026 14.8957L14.3753 13.723L15.5479 14.8957C15.5948 14.9459 15.6512 14.9862 15.7139 15.0142C15.7767 15.0421 15.8444 15.0571 15.913 15.0584C15.9817 15.0596 16.0499 15.0469 16.1136 15.0212C16.1772 14.9955 16.2351 14.9572 16.2836 14.9087C16.3322 14.8601 16.3705 14.8023 16.3962 14.7386C16.4219 14.6749 16.4345 14.6067 16.4333 14.5381C16.4321 14.4694 16.4171 14.4017 16.3891 14.339C16.3612 14.2763 16.3209 14.2198 16.2706 14.173L15.098 13.0003L16.2706 11.8277C16.3209 11.7808 16.3612 11.7244 16.3891 11.6617C16.4171 11.599 16.4321 11.5312 16.4333 11.4626C16.4345 11.3939 16.4219 11.3257 16.3962 11.2621C16.3705 11.1984 16.3322 11.1405 16.2836 11.092C16.2351 11.0434 16.1772 11.0052 16.1136 10.9794C16.0499 10.9537 15.9817 10.9411 15.913 10.9423C15.8444 10.9435 15.7767 10.9585 15.7139 10.9865C15.6512 11.0144 15.5948 11.0547 15.5479 11.105L14.3753 12.2776L13.2026 11.105Z" fill="#0072F5" style="fill:#0072F5;fill:color(display-p3 0.0000 0.4471 0.9608);fill-opacity:1;"/>
</svg>
