<svg width="24" height="24" viewBox="0 0 24 24" fill="none" xmlns="http://www.w3.org/2000/svg">
<rect width="24" height="24" rx="7.7037" fill="#0072F5" fill-opacity="0.2" style="fill:#0072F5;fill:color(display-p3 0.0000 0.4471 0.9608);fill-opacity:0.2;"/>
<path fill-rule="evenodd" clip-rule="evenodd" d="M6.38912 5.72431C6.56693 5.60076 6.77719 5.52394 6.99009 5.50474C7.203 5.48554 7.40777 5.52494 7.5754 5.61734L17.6781 11.1893C17.8362 11.2764 17.9539 11.4067 18.0164 11.5635C18.0788 11.7204 18.0833 11.8968 18.0289 12.0705C17.9747 12.2441 17.8642 12.4072 17.7117 12.539C17.5589 12.6708 17.371 12.7655 17.1714 12.8111L14.2941 13.4696L17.3053 17.0257C17.4536 17.2011 17.5065 17.4314 17.4524 17.6657C17.3982 17.9002 17.2414 18.1196 17.0165 18.2758C16.7916 18.4319 16.5169 18.5121 16.2529 18.4985C15.9889 18.4849 15.7573 18.3787 15.6089 18.2034L12.5995 14.6478L11.1509 16.9931C11.0506 17.1559 10.9008 17.2959 10.7206 17.3953C10.5404 17.4946 10.3378 17.549 10.1385 17.5514C9.93925 17.5538 9.75222 17.5041 9.60114 17.4087C9.45007 17.3134 9.34175 17.1765 9.28991 17.0155L5.96814 6.73361C5.91283 6.56307 5.92368 6.37372 5.99916 6.19238C6.07464 6.01105 6.21092 5.84692 6.38869 5.72326L6.38912 5.72431Z" fill="#0072F5" style="fill:#0072F5;fill:color(display-p3 0.0000 0.4471 0.9608);fill-opacity:1;"/>
</svg>
