<svg width="26" height="26" viewBox="0 0 26 26" fill="none" xmlns="http://www.w3.org/2000/svg">
<rect width="26" height="26" rx="7.7037" fill="#0072F5" fill-opacity="0.2" style="fill:#0072F5;fill:color(display-p3 0.0000 0.4471 0.9608);fill-opacity:0.2;"/>
<path fill-rule="evenodd" clip-rule="evenodd" d="M6.9575 6.24157C7.14899 6.10851 7.37542 6.02578 7.60471 6.00511C7.83399 5.98443 8.05451 6.02686 8.23504 6.12637L19.1149 12.1269C19.2852 12.2208 19.4119 12.361 19.4792 12.5299C19.5464 12.6989 19.5512 12.8889 19.4927 13.0759C19.4343 13.2629 19.3153 13.4385 19.151 13.5805C18.9865 13.7224 18.7841 13.8244 18.5692 13.8735L15.4706 14.5827L18.7134 18.4123C18.8731 18.6012 18.9301 18.8492 18.8718 19.1016C18.8135 19.3541 18.6446 19.5904 18.4023 19.7585C18.1601 19.9267 17.8643 20.013 17.5801 19.9984C17.2958 19.9837 17.0463 19.8694 16.8865 19.6805L13.6456 15.8515L12.0855 18.3771C11.9775 18.5525 11.8163 18.7032 11.6222 18.8103C11.4281 18.9172 11.21 18.9759 10.9953 18.9784C10.7807 18.981 10.5793 18.9275 10.4166 18.8248C10.2539 18.7221 10.1373 18.5747 10.0814 18.4013L6.50414 7.3285C6.44458 7.14484 6.45627 6.94093 6.53755 6.74564C6.61884 6.55036 6.76559 6.37361 6.95704 6.24043L6.9575 6.24157Z" fill="#0072F5" style="fill:#0072F5;fill:color(display-p3 0.0000 0.4471 0.9608);fill-opacity:1;"/>
</svg>
