<svg width="26" height="26" viewBox="0 0 26 26" fill="none" xmlns="http://www.w3.org/2000/svg">
<rect width="26" height="26" rx="7.7037" fill="#0072F5" fill-opacity="0.2" style="fill:#0072F5;fill:color(display-p3 0.0000 0.4471 0.9608);fill-opacity:0.2;"/>
<path d="M18.8592 9.87363L15.3239 6.44888C15.1776 6.3062 15.0035 6.19306 14.8117 6.11601C14.6199 6.03896 14.4143 5.99953 14.2067 6H9.16124C8.50262 6.00047 7.87112 6.25413 7.40541 6.70529C6.93969 7.15645 6.67785 7.76822 6.67737 8.40625V17.5938C6.67785 18.2318 6.93969 18.8436 7.40541 19.2947C7.87112 19.7459 8.50262 19.9995 9.16124 20H16.8387C17.4973 19.9995 18.1288 19.7459 18.5945 19.2947C19.0602 18.8436 19.3221 18.2318 19.3225 17.5938V10.956C19.3225 10.5474 19.1581 10.1624 18.8592 9.87363ZM10.0645 10.375H11.8709C12.0506 10.375 12.2229 10.4441 12.3499 10.5672C12.477 10.6903 12.5483 10.8572 12.5483 11.0313C12.5483 11.2053 12.477 11.3722 12.3499 11.4953C12.2229 11.6184 12.0506 11.6875 11.8709 11.6875H10.0645C9.8848 11.6875 9.7125 11.6184 9.58546 11.4953C9.45842 11.3722 9.38705 11.2053 9.38705 11.0313C9.38705 10.8572 9.45842 10.6903 9.58546 10.5672C9.7125 10.4441 9.8848 10.375 10.0645 10.375ZM15.9354 16.9375H10.0645C9.8848 16.9375 9.7125 16.8684 9.58546 16.7453C9.45842 16.6222 9.38705 16.4553 9.38705 16.2813C9.38705 16.1072 9.45842 15.9403 9.58546 15.8172C9.7125 15.6941 9.8848 15.625 10.0645 15.625H15.9354C16.1151 15.625 16.2874 15.6941 16.4144 15.8172C16.5415 15.9403 16.6129 16.1072 16.6129 16.2813C16.6129 16.4553 16.5415 16.6222 16.4144 16.7453C16.2874 16.8684 16.1151 16.9375 15.9354 16.9375ZM15.9354 14.3125H10.0645C9.8848 14.3125 9.7125 14.2434 9.58546 14.1203C9.45842 13.9972 9.38705 13.8303 9.38705 13.6563C9.38705 13.4822 9.45842 13.3153 9.58546 13.1922C9.7125 13.0691 9.8848 13 10.0645 13H15.9354C16.1151 13 16.2874 13.0691 16.4144 13.1922C16.5415 13.3153 16.6129 13.4822 16.6129 13.6563C16.6129 13.8303 16.5415 13.9972 16.4144 14.1203C16.2874 14.2434 16.1151 14.3125 15.9354 14.3125ZM17.9063 10.8125H15.258C14.7612 10.8125 14.3548 10.4188 14.3548 9.9375V7.38163L14.3665 7.37725L17.909 10.8081L17.9063 10.8125Z" fill="#0072F5" style="fill:#0072F5;fill:color(display-p3 0.0000 0.4471 0.9608);fill-opacity:1;"/>
</svg>
