<svg width="24" height="24" viewBox="0 0 24 24" fill="none" xmlns="http://www.w3.org/2000/svg">
<rect width="24" height="24" rx="7.7037" fill="#0072F5" fill-opacity="0.2" style="fill:#0072F5;fill:color(display-p3 0.0000 0.4471 0.9608);fill-opacity:0.2;"/>
<path d="M17.4407 9.09694L14.158 5.91682C14.0221 5.78433 13.8604 5.67927 13.6824 5.60772C13.5043 5.53618 13.3133 5.49956 13.1205 5.5H8.43548C7.82391 5.50043 7.23751 5.73598 6.80506 6.15491C6.37262 6.57385 6.12947 7.14192 6.12903 7.73438V16.2656C6.12947 16.8581 6.37262 17.4262 6.80506 17.8451C7.23751 18.264 7.82391 18.4996 8.43548 18.5H15.5645C16.1761 18.4996 16.7625 18.264 17.1949 17.8451C17.6274 17.4262 17.8705 16.8581 17.871 16.2656V10.102C17.871 9.72256 17.7183 9.36507 17.4407 9.09694ZM9.27419 9.5625H10.9516C11.1184 9.5625 11.2784 9.6267 11.3964 9.74098C11.5144 9.85526 11.5806 10.0103 11.5806 10.1719C11.5806 10.3335 11.5144 10.4885 11.3964 10.6028C11.2784 10.717 11.1184 10.7813 10.9516 10.7813H9.27419C9.10736 10.7813 8.94736 10.717 8.8294 10.6028C8.71143 10.4885 8.64516 10.3335 8.64516 10.1719C8.64516 10.0103 8.71143 9.85526 8.8294 9.74098C8.94736 9.6267 9.10736 9.5625 9.27419 9.5625ZM14.7258 15.6563H9.27419C9.10736 15.6563 8.94736 15.592 8.8294 15.4778C8.71143 15.3635 8.64516 15.2085 8.64516 15.0469C8.64516 14.8853 8.71143 14.7303 8.8294 14.616C8.94736 14.5017 9.10736 14.4375 9.27419 14.4375H14.7258C14.8926 14.4375 15.0526 14.5017 15.1706 14.616C15.2886 14.7303 15.3548 14.8853 15.3548 15.0469C15.3548 15.2085 15.2886 15.3635 15.1706 15.4778C15.0526 15.592 14.8926 15.6563 14.7258 15.6563ZM14.7258 13.2188H9.27419C9.10736 13.2188 8.94736 13.1545 8.8294 13.0403C8.71143 12.926 8.64516 12.771 8.64516 12.6094C8.64516 12.4478 8.71143 12.2928 8.8294 12.1785C8.94736 12.0642 9.10736 12 9.27419 12H14.7258C14.8926 12 15.0526 12.0642 15.1706 12.1785C15.2886 12.2928 15.3548 12.4478 15.3548 12.6094C15.3548 12.771 15.2886 12.926 15.1706 13.0403C15.0526 13.1545 14.8926 13.2188 14.7258 13.2188ZM16.5559 9.96875H14.0968C13.6355 9.96875 13.2581 9.60313 13.2581 9.15625V6.78294L13.269 6.77888L16.5584 9.96469L16.5559 9.96875Z" fill="#0072F5" style="fill:#0072F5;fill:color(display-p3 0.0000 0.4471 0.9608);fill-opacity:1;"/>
</svg>
