<svg width="26" height="26" viewBox="0 0 26 26" fill="none" xmlns="http://www.w3.org/2000/svg">
<rect width="26" height="26" rx="7.7037" fill="#0072F5" fill-opacity="0.2" style="fill:#0072F5;fill:color(display-p3 0.0000 0.4471 0.9608);fill-opacity:0.2;"/>
<path fill-rule="evenodd" clip-rule="evenodd" d="M13 6C15.4987 6 17.5244 8.02564 17.5244 10.5244V15.4756C17.5244 17.9744 15.4987 20 13 20C10.5012 20 8.47559 17.9744 8.47559 15.4756V10.5244C8.47559 8.02564 10.5012 6 13 6ZM13.0284 8.6748C12.7141 8.6748 12.4593 8.92959 12.4593 9.2439V11.6341C12.4593 11.9485 12.7141 12.2033 13.0284 12.2033C13.3427 12.2033 13.5975 11.9485 13.5975 11.6341V9.2439C13.5975 8.92959 13.3427 8.6748 13.0284 8.6748Z" fill="#D9D9D9" style="fill:#D9D9D9;fill:color(display-p3 0.8510 0.8510 0.8510);fill-opacity:1;"/>
<path fill-rule="evenodd" clip-rule="evenodd" d="M13 6C15.4987 6 17.5244 8.02564 17.5244 10.5244V15.4756C17.5244 17.9744 15.4987 20 13 20C10.5012 20 8.47559 17.9744 8.47559 15.4756V10.5244C8.47559 8.02564 10.5012 6 13 6ZM13.0284 8.6748C12.7141 8.6748 12.4593 8.92959 12.4593 9.2439V11.6341C12.4593 11.9485 12.7141 12.2033 13.0284 12.2033C13.3427 12.2033 13.5975 11.9485 13.5975 11.6341V9.2439C13.5975 8.92959 13.3427 8.6748 13.0284 8.6748Z" fill="#0072F5" style="fill:#0072F5;fill:color(display-p3 0.0000 0.4471 0.9608);fill-opacity:1;"/>
</svg>
