<svg width="24" height="24" viewBox="0 0 24 24" fill="none" xmlns="http://www.w3.org/2000/svg">
<rect width="24" height="24" rx="7.7037" fill="#0072F5" fill-opacity="0.2" style="fill:#0072F5;fill:color(display-p3 0.0000 0.4471 0.9608);fill-opacity:0.2;"/>
<path fill-rule="evenodd" clip-rule="evenodd" d="M12.0004 5.5C14.3224 5.50003 16.2044 7.38099 16.2044 9.70124V14.2988C16.2044 16.619 14.3224 18.5 12.0004 18.5C9.67839 18.5 7.79553 16.619 7.79553 14.2988V9.70124C7.79553 7.38097 9.67839 5.5 12.0004 5.5ZM12.0267 7.81961C11.7055 7.81964 11.3314 8.08001 11.3312 8.40088V10.8429C11.3313 11.1638 11.7055 11.4242 12.0267 11.4242C12.3479 11.4242 12.722 11.1639 12.7222 10.8429V8.40088C12.7219 8.08 12.3479 7.81961 12.0267 7.81961Z" fill="#D9D9D9" style="fill:#D9D9D9;fill:color(display-p3 0.8510 0.8510 0.8510);fill-opacity:1;"/>
<path fill-rule="evenodd" clip-rule="evenodd" d="M12.0004 5.5C14.3224 5.50003 16.2044 7.38099 16.2044 9.70124V14.2988C16.2044 16.619 14.3224 18.5 12.0004 18.5C9.67839 18.5 7.79553 16.619 7.79553 14.2988V9.70124C7.79553 7.38097 9.67839 5.5 12.0004 5.5ZM12.0267 7.81961C11.7055 7.81964 11.3314 8.08001 11.3312 8.40088V10.8429C11.3313 11.1638 11.7055 11.4242 12.0267 11.4242C12.3479 11.4242 12.722 11.1639 12.7222 10.8429V8.40088C12.7219 8.08 12.3479 7.81961 12.0267 7.81961Z" fill="#0072F5" style="fill:#0072F5;fill:color(display-p3 0.0000 0.4471 0.9608);fill-opacity:1;"/>
</svg>
