<svg width="24" height="24" viewBox="0 0 24 24" fill="none" xmlns="http://www.w3.org/2000/svg">
<rect width="24" height="24" rx="7.7037" fill="#0072F5" fill-opacity="0.2" style="fill:#0072F5;fill:color(display-p3 0.0000 0.4471 0.9608);fill-opacity:0.2;"/>
<path d="M12 5.5C8.41606 5.5 5.5 8.41606 5.5 12C5.5 15.5839 8.41606 18.5 12 18.5C15.5839 18.5 18.5 15.5839 18.5 12C18.5 8.41606 15.5839 5.5 12 5.5ZM15.1419 14.1751C15.05 14.3078 14.9091 14.3987 14.7502 14.4276C14.5913 14.4566 14.4274 14.4213 14.2945 14.3294L11.6539 12.5013C11.5728 12.4453 11.5066 12.3703 11.4608 12.283C11.4151 12.1957 11.3913 12.0986 11.3914 12V8.54688C11.3914 8.38526 11.4556 8.23026 11.5699 8.11598C11.6842 8.0017 11.8392 7.9375 12.0008 7.9375C12.1624 7.9375 12.3174 8.0017 12.4317 8.11598C12.546 8.23026 12.6102 8.38526 12.6102 8.54688V11.6807L14.9884 13.3268C15.0542 13.3723 15.1104 13.4303 15.1538 13.4975C15.1972 13.5647 15.2269 13.6398 15.2413 13.7185C15.2556 13.7972 15.2543 13.878 15.2374 13.9562C15.2205 14.0344 15.1883 14.1085 15.1428 14.1742L15.1419 14.1751Z" fill="#0072F5" style="fill:#0072F5;fill:color(display-p3 0.0000 0.4471 0.9608);fill-opacity:1;"/>
</svg>
