<svg width="26" height="26" viewBox="0 0 26 26" fill="none" xmlns="http://www.w3.org/2000/svg">
<rect width="26" height="26" rx="7.7037" fill="#0072F5" fill-opacity="0.2" style="fill:#0072F5;fill:color(display-p3 0.0000 0.4471 0.9608);fill-opacity:0.2;"/>
<path d="M13 6C9.14038 6 6 9.14038 6 13C6 16.8596 9.14038 20 13 20C16.8596 20 20 16.8596 20 13C20 9.14038 16.8596 6 13 6ZM16.3836 15.3424C16.2846 15.4854 16.1328 15.5832 15.9617 15.6144C15.7906 15.6456 15.6141 15.6075 15.471 15.5086L12.6273 13.5399C12.5399 13.4795 12.4686 13.3988 12.4194 13.3048C12.3701 13.2107 12.3445 13.1061 12.3446 13V9.28125C12.3446 9.1072 12.4138 8.94028 12.5368 8.81721C12.6599 8.69414 12.8268 8.625 13.0009 8.625C13.1749 8.625 13.3418 8.69414 13.4649 8.81721C13.588 8.94028 13.6571 9.1072 13.6571 9.28125V12.6561L16.2183 14.4289C16.2892 14.4778 16.3497 14.5403 16.3964 14.6127C16.4432 14.6851 16.4752 14.7659 16.4906 14.8507C16.5061 14.9355 16.5046 15.0225 16.4864 15.1067C16.4682 15.1909 16.4336 15.2707 16.3845 15.3415L16.3836 15.3424Z" fill="#0072F5" style="fill:#0072F5;fill:color(display-p3 0.0000 0.4471 0.9608);fill-opacity:1;"/>
</svg>
