<svg width="24" height="24" viewBox="0 0 24 24" fill="none" xmlns="http://www.w3.org/2000/svg">
<rect width="24" height="24" rx="7.7037" fill="#0072F5" fill-opacity="0.2" style="fill:#0072F5;fill:color(display-p3 0.0000 0.4471 0.9608);fill-opacity:0.2;"/>
<path fill-rule="evenodd" clip-rule="evenodd" d="M10.8644 7.77141C11.2156 7.77241 11.5524 7.91179 11.8012 8.15959L16.1873 12.5457C16.581 12.9386 16.7973 13.4613 16.7973 14.0178C16.7973 14.5743 16.581 15.097 16.1873 15.4899L13.7858 17.8915C13.5926 18.0849 13.3626 18.238 13.11 18.3425C12.8575 18.4469 12.5869 18.5005 12.3136 18.5C12.0404 18.5005 11.7698 18.4469 11.5173 18.3425C11.2647 18.238 11.0347 18.0849 10.8415 17.8915L6.45544 13.5054C6.20484 13.2555 6.06726 12.9222 6.06726 12.5686V8.33927C6.06726 8.18866 6.12713 8.04427 6.23362 7.93778C6.34012 7.83128 6.48451 7.77141 6.63511 7.77141H10.8644ZM9.2851 10.0428C8.76343 10.0428 8.33867 10.4676 8.33867 10.9892C8.33867 11.5109 8.76343 11.9357 9.2851 11.9357C9.80676 11.9357 10.2315 11.5109 10.2315 10.9892C10.2315 10.4676 9.80676 10.0428 9.2851 10.0428Z" fill="#0072F5" style="fill:#0072F5;fill:color(display-p3 0.0000 0.4471 0.9608);fill-opacity:1;"/>
<path d="M12.0001 5.5C12.3492 5.5 12.6901 5.64137 12.937 5.88818L17.323 10.2743C17.7553 10.7073 17.9755 11.3056 17.9256 11.915C17.9144 12.057 17.8499 12.1902 17.7452 12.2869C17.6406 12.3835 17.5032 12.437 17.3607 12.437C17.3448 12.437 17.3293 12.4378 17.3134 12.4362C17.1635 12.424 17.0242 12.3527 16.9267 12.2381C16.8292 12.1234 16.7815 11.9741 16.7936 11.824C16.8045 11.6873 16.7854 11.5498 16.7382 11.4211C16.6909 11.2922 16.6162 11.1752 16.5193 11.078L12.134 6.69116C12.0982 6.65605 12.0503 6.63602 12.0001 6.63571H8.30614C8.26145 6.76194 8.17323 6.86817 8.05771 6.9359C7.94222 7.00355 7.80662 7.02878 7.6747 7.00614C7.54278 6.9835 7.42312 6.91472 7.3368 6.81242C7.25046 6.71005 7.20302 6.58034 7.20297 6.44642V6.06785C7.20297 5.91725 7.26284 5.77286 7.36933 5.66636C7.47582 5.55987 7.62022 5.5 7.77082 5.5H12.0001Z" fill="#0072F5" style="fill:#0072F5;fill:color(display-p3 0.0000 0.4471 0.9608);fill-opacity:1;"/>
</svg>
