<svg width="26" height="26" viewBox="0 0 26 26" fill="none" xmlns="http://www.w3.org/2000/svg">
<rect width="26" height="26" rx="7.7037" fill="#0072F5" fill-opacity="0.2" style="fill:#0072F5;fill:color(display-p3 0.0000 0.4471 0.9608);fill-opacity:0.2;"/>
<path fill-rule="evenodd" clip-rule="evenodd" d="M11.7772 8.44614C12.1553 8.44722 12.5181 8.59731 12.786 8.86418L17.5095 13.5876C17.9335 14.0108 18.1664 14.5737 18.1664 15.173C18.1664 15.7723 17.9335 16.3352 17.5095 16.7584L14.9232 19.3447C14.7152 19.553 14.4674 19.7179 14.1954 19.8304C13.9235 19.9428 13.6321 20.0005 13.3378 20C13.0436 20.0005 12.7522 19.9428 12.4803 19.8304C12.2082 19.7179 11.9605 19.553 11.7525 19.3447L7.029 14.6212C6.75913 14.3521 6.61096 13.9931 6.61096 13.6123V9.05767C6.61096 8.89548 6.67544 8.73998 6.79012 8.6253C6.90481 8.51061 7.06031 8.44614 7.2225 8.44614H11.7772ZM10.0763 10.8923C9.51453 10.8923 9.0571 11.3497 9.0571 11.9115C9.0571 12.4733 9.51453 12.9307 10.0763 12.9307C10.6381 12.9307 11.0955 12.4733 11.0955 11.9115C11.0955 11.3497 10.6381 10.8923 10.0763 10.8923Z" fill="#0072F5" style="fill:#0072F5;fill:color(display-p3 0.0000 0.4471 0.9608);fill-opacity:1;"/>
<path d="M13.0002 6C13.3761 6 13.7433 6.15224 14.0091 6.41804L18.7326 11.1415C19.1981 11.6078 19.4352 12.2521 19.3815 12.9084C19.3694 13.0614 19.3 13.2048 19.1872 13.309C19.0745 13.413 18.9266 13.4707 18.7732 13.4706C18.756 13.4706 18.7393 13.4714 18.7222 13.4698C18.5607 13.4566 18.4107 13.3799 18.3058 13.2564C18.2008 13.1329 18.1494 12.9721 18.1624 12.8105C18.1742 12.6632 18.1536 12.5152 18.1027 12.3765C18.0518 12.2378 17.9714 12.1118 17.867 12.0071L13.1443 7.28279C13.1058 7.24497 13.0542 7.22341 13.0002 7.22307H9.02206C8.97393 7.35902 8.87892 7.47341 8.75452 7.54635C8.63015 7.61921 8.48411 7.64638 8.34205 7.622C8.19998 7.59761 8.07111 7.52354 7.97816 7.41338C7.88518 7.30313 7.83409 7.16344 7.83403 7.01922V6.61153C7.83403 6.44935 7.89851 6.29385 8.01319 6.17916C8.12788 6.06448 8.28338 6 8.44557 6H13.0002Z" fill="#0072F5" style="fill:#0072F5;fill:color(display-p3 0.0000 0.4471 0.9608);fill-opacity:1;"/>
</svg>
