<svg width="24" height="24" viewBox="0 0 24 24" fill="none" xmlns="http://www.w3.org/2000/svg">
<rect width="24" height="24" rx="7.7037" fill="#0072F5" fill-opacity="0.2" style="fill:#0072F5;fill:color(display-p3 0.0000 0.4471 0.9608);fill-opacity:0.2;"/>
<path d="M12.0007 11.1878C12.3742 11.1878 12.744 11.1142 13.089 10.9713C13.4341 10.8284 13.7476 10.6189 14.0116 10.3548C14.2757 10.0907 14.4852 9.77723 14.6281 9.4322C14.771 9.08716 14.8446 8.71735 14.8446 8.34389C14.8446 7.97042 14.771 7.60062 14.6281 7.25558C14.4852 6.91054 14.2757 6.59704 14.0116 6.33296C13.7476 6.06888 13.4341 5.8594 13.089 5.71648C12.744 5.57356 12.3742 5.5 12.0007 5.5C11.2465 5.5 10.5231 5.79962 9.98978 6.33296C9.45645 6.86629 9.15683 7.58964 9.15683 8.34389C9.15683 9.09813 9.45645 9.82149 9.98978 10.3548C10.5231 10.8882 11.2465 11.1878 12.0007 11.1878ZM12.0007 12.0003C10.8999 12.0015 9.82302 12.322 8.90071 12.923C7.97839 13.5239 7.25024 14.3796 6.80452 15.3862C6.70132 15.6199 6.64856 15.8728 6.64968 16.1283C6.6508 16.3838 6.70577 16.6362 6.81102 16.8691C6.91924 17.1072 7.07639 17.32 7.27223 17.4934C7.46808 17.6669 7.69825 17.7972 7.94777 17.8758C10.5851 18.7081 13.4147 18.7081 16.052 17.8758C16.3016 17.7972 16.5318 17.667 16.7277 17.4935C16.9235 17.3201 17.0806 17.1073 17.1888 16.8691C17.4017 16.3978 17.4041 15.8574 17.1953 15.3862C16.7496 14.3796 16.0214 13.5239 15.0991 12.923C14.1768 12.322 13.0999 12.0015 11.9991 12.0003H12.0007Z" fill="#0072F5" style="fill:#0072F5;fill:color(display-p3 0.0000 0.4471 0.9608);fill-opacity:1;"/>
</svg>
