<svg width="26" height="26" viewBox="0 0 26 26" fill="none" xmlns="http://www.w3.org/2000/svg">
<rect width="26" height="26" rx="7.7037" fill="#0072F5" fill-opacity="0.2" style="fill:#0072F5;fill:color(display-p3 0.0000 0.4471 0.9608);fill-opacity:0.2;"/>
<path d="M13.0008 12.1253C13.403 12.1253 13.8013 12.0461 14.1729 11.8922C14.5444 11.7383 14.8821 11.5127 15.1665 11.2283C15.4508 10.9439 15.6764 10.6063 15.8304 10.2347C15.9843 9.8631 16.0635 9.46484 16.0635 9.06265C16.0635 8.66046 15.9843 8.2622 15.8304 7.89062C15.6764 7.51905 15.4508 7.18142 15.1665 6.89703C14.8821 6.61264 14.5444 6.38704 14.1729 6.23313C13.8013 6.07922 13.403 6 13.0008 6C12.1886 6 11.4096 6.32267 10.8352 6.89703C10.2609 7.47139 9.93819 8.25038 9.93819 9.06265C9.93819 9.87491 10.2609 10.6539 10.8352 11.2283C11.4096 11.8026 12.1886 12.1253 13.0008 12.1253ZM13.0008 13.0003C11.8153 13.0016 10.6556 13.3468 9.66236 13.994C8.6691 14.6412 7.88494 15.5626 7.40494 16.6466C7.29379 16.8984 7.23697 17.1707 7.23818 17.4459C7.23938 17.721 7.29859 17.9929 7.41194 18.2436C7.52848 18.5001 7.69771 18.7292 7.90863 18.916C8.11954 19.1028 8.36741 19.2431 8.63612 19.3278C11.4763 20.2241 14.5236 20.2241 17.3638 19.3278C17.6326 19.2432 17.8805 19.1029 18.0914 18.9161C18.3023 18.7293 18.4715 18.5002 18.588 18.2436C18.8172 17.7361 18.8199 17.1542 18.595 16.6466C18.115 15.5626 17.3308 14.6412 16.3376 13.994C15.3443 13.3468 14.1846 13.0016 12.9991 13.0003H13.0008Z" fill="#0072F5" style="fill:#0072F5;fill:color(display-p3 0.0000 0.4471 0.9608);fill-opacity:1;"/>
</svg>
