<svg width="26" height="26" viewBox="0 0 26 26" fill="none" xmlns="http://www.w3.org/2000/svg">
<rect width="26" height="26" rx="7.7037" fill="#0072F5" fill-opacity="0.2" style="fill:#0072F5;fill:color(display-p3 0.0000 0.4471 0.9608);fill-opacity:0.2;"/>
<path d="M19.8177 15.0609C19.4285 14.2801 18.8288 13.6236 18.0863 13.1655C17.3438 12.7075 16.488 12.4661 15.6156 12.4686C15.374 12.4686 15.1393 12.495 14.9037 12.5222C14.5623 12.5678 14.2262 12.6467 13.9002 12.7578C15.1589 13.3876 16.1816 14.4056 16.8173 15.6613C17.166 16.351 17.2255 17.1411 17.024 17.8844C17.2017 17.8657 17.3616 17.8428 17.4875 17.8138C18.0632 17.6795 18.4978 17.568 18.8873 17.4294C19.1105 17.3491 19.3141 17.2222 19.4846 17.0573C19.6552 16.8923 19.7887 16.6931 19.8764 16.4726C19.9671 16.2464 20.0087 16.0035 19.9985 15.7599C19.9882 15.5164 19.9263 15.2778 19.8169 15.06L19.8177 15.0609ZM15.6802 16.2379C15.2394 15.3587 14.5622 14.6197 13.7247 14.1041C12.8871 13.5885 11.9224 13.3167 10.9388 13.3191C9.9553 13.3167 8.99057 13.5885 8.153 14.1041C7.31544 14.6197 6.63824 15.3587 6.19748 16.2379C6.07853 16.4742 6.01166 16.7333 6.00139 16.9977C5.99112 17.2621 6.03769 17.5256 6.13795 17.7705C6.24102 18.0255 6.39749 18.2555 6.59685 18.445C6.7962 18.6346 7.03382 18.7792 7.29373 18.8693C9.65455 19.6897 12.2231 19.6897 14.584 18.8693C14.8435 18.7789 15.0807 18.6341 15.2798 18.4446C15.4788 18.2551 15.6351 18.0253 15.738 17.7705C15.8383 17.5257 15.885 17.2623 15.875 16.9979C15.865 16.7336 15.7986 16.4745 15.6802 16.2379ZM15.6164 6.51535C15.1274 6.51535 14.6741 6.66078 14.2854 6.89976C14.8685 7.63839 15.1874 8.55099 15.1912 9.49199C15.1912 10.1979 15.0024 10.8536 14.6962 11.4396C14.9828 11.551 15.2907 11.6182 15.6164 11.6182C17.0231 11.6182 18.1678 10.4734 18.1678 9.06676C18.1678 7.66008 17.0231 6.51535 15.6164 6.51535ZM10.9388 12.4686C11.3297 12.4686 11.7168 12.3916 12.078 12.2421C12.4391 12.0925 12.7672 11.8732 13.0436 11.5968C13.3201 11.3204 13.5393 10.9922 13.6889 10.6311C13.8385 10.27 13.9155 9.88289 13.9155 9.49199C13.9155 9.10109 13.8385 8.71402 13.6889 8.35288C13.5393 7.99174 13.3201 7.6636 13.0436 7.38719C12.7672 7.11078 12.4391 6.89152 12.078 6.74193C11.7168 6.59234 11.3297 6.51535 10.9388 6.51535C10.1494 6.51535 9.39227 6.82896 8.83404 7.38719C8.27581 7.94542 7.9622 8.70254 7.9622 9.49199C7.9622 10.2814 8.27581 11.0386 8.83404 11.5968C9.39227 12.155 10.1494 12.4686 10.9388 12.4686Z" fill="#0072F5" style="fill:#0072F5;fill:color(display-p3 0.0000 0.4471 0.9608);fill-opacity:1;"/>
</svg>
