<svg width="24" height="24" viewBox="0 0 24 24" fill="none" xmlns="http://www.w3.org/2000/svg">
<rect width="24" height="24" rx="7.7037" fill="#0072F5" fill-opacity="0.2" style="fill:#0072F5;fill:color(display-p3 0.0000 0.4471 0.9608);fill-opacity:0.2;"/>
<path d="M18.3308 13.9137C17.9694 13.1886 17.4125 12.579 16.723 12.1537C16.0335 11.7284 15.2389 11.5042 14.4287 11.5066C14.2045 11.5066 13.9865 11.5311 13.7678 11.5563C13.4507 11.5987 13.1386 11.6719 12.8359 11.7751C14.0047 12.3599 14.9543 13.3052 15.5446 14.4712C15.8684 15.1117 15.9237 15.8453 15.7365 16.5355C15.9016 16.5182 16.05 16.4968 16.1669 16.47C16.7016 16.3452 17.1051 16.2418 17.4668 16.113C17.6741 16.0384 17.8631 15.9206 18.0215 15.7675C18.1798 15.6143 18.3038 15.4293 18.3853 15.2246C18.4695 15.0145 18.5081 14.7889 18.4986 14.5628C18.4891 14.3367 18.4316 14.1151 18.33 13.9129L18.3308 13.9137ZM14.4888 15.0066C14.0795 14.1902 13.4507 13.504 12.6729 13.0253C11.8952 12.5465 10.9994 12.2941 10.0861 12.2963C9.17278 12.2941 8.27695 12.5465 7.49922 13.0253C6.72148 13.504 6.09265 14.1902 5.68337 15.0066C5.57292 15.2261 5.51083 15.4667 5.50129 15.7122C5.49176 15.9577 5.535 16.2024 5.62809 16.4297C5.7238 16.6665 5.8691 16.8801 6.05422 17.0561C6.23933 17.2321 6.45998 17.3664 6.70132 17.45C8.89351 18.2119 11.2786 18.2119 13.4708 17.45C13.7118 17.3661 13.9321 17.2317 14.1169 17.0557C14.3018 16.8798 14.4468 16.6663 14.5425 16.4297C14.6356 16.2024 14.6789 15.9578 14.6697 15.7124C14.6604 15.4669 14.5987 15.2263 14.4888 15.0066ZM14.4295 5.97855C13.9754 5.97855 13.5545 6.11359 13.1936 6.3355C13.735 7.02136 14.0311 7.86879 14.0347 8.74257C14.0347 9.39804 13.8594 10.0069 13.5751 10.551C13.8412 10.6545 14.1271 10.7169 14.4295 10.7169C15.7357 10.7169 16.7987 9.65391 16.7987 8.34771C16.7987 7.04151 15.7357 5.97855 14.4295 5.97855ZM10.0861 11.5066C10.449 11.5066 10.8085 11.4351 11.1438 11.2962C11.4792 11.1573 11.7839 10.9537 12.0405 10.697C12.2972 10.4404 12.5008 10.1357 12.6397 9.80032C12.7786 9.46497 12.8501 9.10555 12.8501 8.74257C12.8501 8.37959 12.7786 8.02017 12.6397 7.68482C12.5008 7.34948 12.2972 7.04477 12.0405 6.78811C11.7839 6.53145 11.4792 6.32785 11.1438 6.18894C10.8085 6.05004 10.449 5.97855 10.0861 5.97855C9.35301 5.97855 8.64996 6.26976 8.13161 6.78811C7.61325 7.30647 7.32205 8.00951 7.32205 8.74257C7.32205 9.47564 7.61325 10.1787 8.13161 10.697C8.64996 11.2154 9.35301 11.5066 10.0861 11.5066Z" fill="#0072F5" style="fill:#0072F5;fill:color(display-p3 0.0000 0.4471 0.9608);fill-opacity:1;"/>
</svg>
