<svg width="15" height="15" viewBox="0 0 15 15" fill="none" xmlns="http://www.w3.org/2000/svg">
<path d="M6.92481 8.79417C7.24248 8.4765 7.75752 8.4765 8.07519 8.79417L10.4838 11.2028C10.8014 11.5204 10.8014 12.0355 10.4838 12.3531L8.07519 14.7617C7.75752 15.0794 7.24248 15.0794 6.92481 14.7617L4.51622 12.3531C4.19856 12.0355 4.19856 11.5204 4.51622 11.2028L6.92481 8.79417Z" fill="#D9D9D9" style="fill:#D9D9D9;fill:color(display-p3 0.8510 0.8510 0.8510);fill-opacity:1;"/>
<path d="M2.64684 4.51622C2.96451 4.19855 3.47955 4.19855 3.79722 4.51622L6.2058 6.92481C6.52347 7.24248 6.52347 7.75752 6.2058 8.07519L3.79722 10.4838C3.47955 10.8014 2.96451 10.8014 2.64684 10.4838L0.23825 8.07519C-0.0794168 7.75752 -0.0794168 7.24248 0.23825 6.92481L2.64684 4.51622Z" fill="#D9D9D9" style="fill:#D9D9D9;fill:color(display-p3 0.8510 0.8510 0.8510);fill-opacity:1;"/>
<path d="M11.2028 4.51622C11.5205 4.19855 12.0355 4.19855 12.3532 4.51622L14.7617 6.92481C15.0794 7.24248 15.0794 7.75752 14.7617 8.07519L12.3532 10.4838C12.0355 10.8014 11.5205 10.8014 11.2028 10.4838L8.7942 8.07519C8.47653 7.75752 8.47653 7.24248 8.7942 6.92481L11.2028 4.51622Z" fill="#D9D9D9" style="fill:#D9D9D9;fill:color(display-p3 0.8510 0.8510 0.8510);fill-opacity:1;"/>
<path d="M6.92481 0.23825C7.24248 -0.0794168 7.75752 -0.0794168 8.07519 0.23825L10.4838 2.64684C10.8014 2.96451 10.8014 3.47955 10.4838 3.79722L8.07519 6.2058C7.75752 6.52347 7.24248 6.52347 6.92481 6.2058L4.51622 3.79722C4.19856 3.47955 4.19856 2.96451 4.51622 2.64684L6.92481 0.23825Z" fill="#D9D9D9" style="fill:#D9D9D9;fill:color(display-p3 0.8510 0.8510 0.8510);fill-opacity:1;"/>
</svg>
