<svg width="15" height="15" viewBox="0 0 15 15" fill="none" xmlns="http://www.w3.org/2000/svg">
<path fill-rule="evenodd" clip-rule="evenodd" d="M6.43929 1.56189V5.19628C6.43917 5.77227 6.21558 6.32462 5.81771 6.73184L5.01915 7.57039C6.26167 7.48074 6.62257 7.734 7.73692 8.30379C8.98728 8.94411 9.53724 9.10735 10.8945 8.76424L11.0961 8.71284L9.18234 6.73184C8.78446 6.32462 8.56087 5.77227 8.56075 5.19628V1.56189C7.85431 1.51586 7.14573 1.51586 6.43929 1.56189ZM9.62148 1.6618C9.75727 1.66306 9.88836 1.61095 9.98774 1.51621C10.0871 1.42147 10.1472 1.29131 10.1556 1.15255C10.1641 1.01379 10.1202 0.877011 10.0331 0.770388C9.94591 0.663765 9.82214 0.595425 9.68725 0.579448C8.9617 0.486788 8.2312 0.440605 7.50002 0.441167C6.76886 0.440999 6.03839 0.487181 5.3128 0.579448C5.1779 0.595425 5.05414 0.663765 4.96699 0.770388C4.87985 0.877011 4.83598 1.01379 4.84441 1.15255C4.85284 1.29131 4.91293 1.42147 5.01231 1.51621C5.11169 1.61095 5.24278 1.66306 5.37856 1.6618V5.19628C5.37832 5.4842 5.2664 5.76024 5.06742 5.9637L0.617298 10.5204C-0.528291 11.694 -0.0212616 13.7603 1.65752 14.0535C3.55694 14.3865 5.50939 14.5588 7.50002 14.5588C9.49137 14.5588 11.4431 14.3858 13.3425 14.0542C15.0206 13.7603 15.529 11.694 14.382 10.5204L9.93263 5.96442C9.83402 5.86359 9.75579 5.74385 9.7024 5.61205C9.64901 5.48025 9.62151 5.33897 9.62148 5.19628V1.6618Z" fill="#D9D9D9" style="fill:#D9D9D9;fill:color(display-p3 0.8510 0.8510 0.8510);fill-opacity:1;"/>
</svg>
