<svg width="15" height="15" viewBox="0 0 15 15" fill="none" xmlns="http://www.w3.org/2000/svg">
<path fill-rule="evenodd" clip-rule="evenodd" d="M2.43681 5.19426C2.43681 3.81665 2.97025 2.49548 3.91979 1.52136C4.86933 0.547251 6.15718 0 7.50003 0C8.84288 0 10.1307 0.547251 11.0803 1.52136C12.0298 2.49548 12.5632 3.81665 12.5632 5.19426V5.7714C12.5632 7.40509 13.1633 8.89334 14.152 10.0191C14.2136 10.0892 14.2575 10.1736 14.2799 10.2651C14.3023 10.3565 14.3025 10.4522 14.2806 10.5438C14.2586 10.6354 14.215 10.72 14.1538 10.7903C14.0925 10.8607 14.0154 10.9145 13.9292 10.9472C12.771 11.3858 11.5589 11.709 10.3054 11.9037C10.3336 12.2993 10.282 12.6967 10.1539 13.071C10.0257 13.4452 9.82362 13.7884 9.56035 14.0789C9.29708 14.3695 8.97825 14.6013 8.62375 14.7597C8.26926 14.9182 7.88672 15 7.50003 15C7.11334 15 6.7308 14.9182 6.3763 14.7597C6.02181 14.6013 5.70297 14.3695 5.43971 14.0789C5.17644 13.7884 4.9744 13.4452 4.8462 13.071C4.71801 12.6967 4.66641 12.2993 4.69463 11.9037C3.45819 11.7115 2.24402 11.3907 1.07087 10.9464C0.984704 10.9138 0.907641 10.86 0.846406 10.7898C0.785171 10.7196 0.741627 10.635 0.719577 10.5435C0.697528 10.4521 0.697643 10.3565 0.719913 10.2651C0.742183 10.1736 0.785931 10.0892 0.847335 10.0191C1.87258 8.85461 2.43912 7.34059 2.43681 5.7714V5.19426ZM5.81379 12.043C5.80419 12.2763 5.8407 12.5092 5.92112 12.7276C6.00153 12.9461 6.12419 13.1456 6.28172 13.3142C6.43925 13.4828 6.62839 13.6169 6.83776 13.7085C7.04713 13.8002 7.2724 13.8474 7.50003 13.8474C7.72765 13.8474 7.95293 13.8002 8.1623 13.7085C8.37167 13.6169 8.56081 13.4828 8.71833 13.3142C8.87586 13.1456 8.99852 12.9461 9.07894 12.7276C9.15935 12.5092 9.19586 12.2763 9.18627 12.043C8.06438 12.1467 6.93568 12.1467 5.81379 12.043Z" fill="#D9D9D9" style="fill:#D9D9D9;fill:color(display-p3 0.8510 0.8510 0.8510);fill-opacity:1;"/>
</svg>
