<svg width="15" height="15" viewBox="0 0 15 15" fill="none" xmlns="http://www.w3.org/2000/svg">
<path d="M4.45312 3.28125C4.26664 3.28125 4.0878 3.20717 3.95594 3.07531C3.82408 2.94345 3.75 2.76461 3.75 2.57812V0.703125C3.75 0.516645 3.82408 0.337802 3.95594 0.20594C4.0878 0.0740789 4.26664 0 4.45312 0C4.63961 0 4.81845 0.0740789 4.95031 0.20594C5.08217 0.337802 5.15625 0.516645 5.15625 0.703125V2.57812C5.15625 2.76461 5.08217 2.94345 4.95031 3.07531C4.81845 3.20717 4.63961 3.28125 4.45312 3.28125ZM10.5469 3.28125C10.3604 3.28125 10.1816 3.20717 10.0497 3.07531C9.91783 2.94345 9.84375 2.76461 9.84375 2.57812V0.703125C9.84375 0.516645 9.91783 0.337802 10.0497 0.20594C10.1816 0.0740789 10.3604 0 10.5469 0C10.7334 0 10.9122 0.0740789 11.0441 0.20594C11.1759 0.337802 11.25 0.516645 11.25 0.703125V2.57812C11.25 2.76461 11.1759 2.94345 11.0441 3.07531C10.9122 3.20717 10.7334 3.28125 10.5469 3.28125Z" fill="#D9D9D9" style="fill:#D9D9D9;fill:color(display-p3 0.8510 0.8510 0.8510);fill-opacity:1;"/>
<path d="M11.9531 1.875H3.04688C2.36327 1.8755 1.7078 2.14728 1.22441 2.63066C0.741029 3.11405 0.469247 3.76952 0.46875 4.45312V12.4219C0.469247 13.1055 0.741029 13.761 1.22441 14.2443C1.7078 14.7277 2.36327 14.9995 3.04688 15H11.9531C12.6367 14.9995 13.2922 14.7277 13.7756 14.2443C14.259 13.761 14.5308 13.1055 14.5312 12.4219V4.45312C14.5308 3.76952 14.259 3.11405 13.7756 2.63066C13.2922 2.14728 12.6367 1.8755 11.9531 1.875ZM11.9531 13.5938H3.04688C2.40094 13.5938 1.875 13.0678 1.875 12.4219V6.5625H13.125V12.4219C13.125 13.0678 12.5991 13.5938 11.9531 13.5938Z" fill="#D9D9D9" style="fill:#D9D9D9;fill:color(display-p3 0.8510 0.8510 0.8510);fill-opacity:1;"/>
</svg>
