<svg width="15" height="13" viewBox="0 0 15 13" fill="none" xmlns="http://www.w3.org/2000/svg">
<path d="M15 3.45312C14.9995 2.76952 14.7277 2.11405 14.2443 1.63066C13.761 1.14728 13.1055 0.875497 12.4219 0.875H2.57812C1.89452 0.875497 1.23905 1.14728 0.755664 1.63066C0.272279 2.11405 0.000496629 2.76952 0 3.45312V4.15625H15V3.45312ZM0 9.54688C0.000496629 10.2305 0.272279 10.886 0.755664 11.3693C1.23905 11.8527 1.89452 12.1245 2.57812 12.125H12.4219C13.1055 12.1245 13.761 11.8527 14.2443 11.3693C14.7277 10.886 14.9995 10.2305 15 9.54688V5.5625H0V9.54688ZM11.0156 7.90625H11.9531C12.1396 7.90625 12.3184 7.98033 12.4503 8.11219C12.5822 8.24405 12.6562 8.42289 12.6562 8.60938C12.6562 8.79586 12.5822 8.9747 12.4503 9.10656C12.3184 9.23842 12.1396 9.3125 11.9531 9.3125H11.0156C10.8291 9.3125 10.6503 9.23842 10.5184 9.10656C10.3866 8.9747 10.3125 8.79586 10.3125 8.60938C10.3125 8.42289 10.3866 8.24405 10.5184 8.11219C10.6503 7.98033 10.8291 7.90625 11.0156 7.90625ZM3.04688 7.90625H5.85938C6.04586 7.90625 6.2247 7.98033 6.35656 8.11219C6.48842 8.24405 6.5625 8.42289 6.5625 8.60938C6.5625 8.79586 6.48842 8.9747 6.35656 9.10656C6.2247 9.23842 6.04586 9.3125 5.85938 9.3125H3.04688C2.86039 9.3125 2.68155 9.23842 2.54969 9.10656C2.41783 8.9747 2.34375 8.79586 2.34375 8.60938C2.34375 8.42289 2.41783 8.24405 2.54969 8.11219C2.68155 7.98033 2.86039 7.90625 3.04688 7.90625Z" fill="#D9D9D9" style="fill:#D9D9D9;fill:color(display-p3 0.8510 0.8510 0.8510);fill-opacity:1;"/>
</svg>
