<svg width="15" height="15" viewBox="0 0 15 15" fill="none" xmlns="http://www.w3.org/2000/svg">
<path d="M13.25 0.535767H12.75C12.2859 0.535767 11.8408 0.7192 11.5126 1.04571C11.1844 1.37223 11 1.81508 11 2.27684V12.7233C11 13.6843 11.784 14.4643 12.75 14.4643H13.25C13.7141 14.4643 14.1592 14.2809 14.4874 13.9544C14.8156 13.6279 15 13.185 15 12.7233V2.27684C15 1.81508 14.8156 1.37223 14.4874 1.04571C14.1592 0.7192 13.7141 0.535767 13.25 0.535767ZM7.75 5.51026H7.25C6.78587 5.51026 6.34075 5.69369 6.01256 6.0202C5.68437 6.34672 5.5 6.78957 5.5 7.25133V12.7233C5.5 13.6843 6.284 14.4643 7.25 14.4643H7.75C8.21413 14.4643 8.65925 14.2809 8.98744 13.9544C9.31563 13.6279 9.5 13.185 9.5 12.7233V7.25133C9.5 6.78957 9.31563 6.34672 8.98744 6.0202C8.65925 5.69369 8.21413 5.51026 7.75 5.51026ZM2.25 9.48985H1.75C1.28587 9.48985 0.840752 9.67328 0.512563 9.99979C0.184375 10.3263 0 10.7692 0 11.2309V12.7233C0 13.6843 0.784 14.4643 1.75 14.4643H2.25C2.71413 14.4643 3.15925 14.2809 3.48744 13.9544C3.81563 13.6279 4 13.185 4 12.7233V11.2309C4 10.7692 3.81563 10.3263 3.48744 9.99979C3.15925 9.67328 2.71413 9.48985 2.25 9.48985Z" fill="#D9D9D9" style="fill:#D9D9D9;fill:color(display-p3 0.8510 0.8510 0.8510);fill-opacity:1;"/>
</svg>
