<svg width="15" height="15" viewBox="0 0 15 15" fill="none" xmlns="http://www.w3.org/2000/svg">
<path d="M7.72733 10.9099C7.72884 9.58866 8.80004 8.51744 10.1213 8.51588H13.8606C14.0485 8.51588 14.2152 8.39316 14.2697 8.21285C14.4523 7.59316 14.5455 6.94998 14.5455 6.30376V4.47498C14.5447 3.71437 14.2425 2.98483 13.7054 2.44696C13.1675 1.90985 12.4379 1.60758 11.6773 1.60682H8.03032V0.515916C8.03032 0.281832 7.84017 0.0916748 7.60608 0.0916748H6.93942C6.70533 0.0916748 6.51517 0.281826 6.51517 0.515916V1.60682H2.86971C2.10835 1.60682 1.37881 1.90909 0.840142 2.44696C0.302273 2.98559 0 3.71515 0 4.47653V6.1841C0.00227277 8.06364 0.749243 9.86583 2.07883 11.1947C3.40762 12.5242 5.20997 13.2712 7.08943 13.2735H7.3061C7.53942 13.272 7.72807 13.0819 7.72731 12.8478L7.72733 10.9099ZM9.69697 5.5463C10.1871 5.5463 10.6295 5.84174 10.8167 6.29478C11.0045 6.7478 10.9007 7.26901 10.5538 7.61523C10.2076 7.96221 9.68634 8.06598 9.23332 7.87812C8.7803 7.691 8.48483 7.24857 8.48483 6.75843C8.48483 6.08874 9.02728 5.5463 9.69697 5.5463ZM4.8485 7.97053C4.35836 7.97053 3.91593 7.67508 3.72882 7.22204C3.54094 6.76902 3.64473 6.24781 3.9917 5.90159C4.33792 5.55462 4.85913 5.45084 5.31215 5.63871C5.76518 5.82583 6.06064 6.26825 6.06064 6.75839C6.06064 7.07959 5.93261 7.38794 5.70534 7.61521C5.47808 7.84249 5.16972 7.97053 4.8485 7.97053Z" fill="#D9D9D9" style="fill:#D9D9D9;fill:color(display-p3 0.8510 0.8510 0.8510);fill-opacity:1;"/>
<path d="M9.44701 14.9083C9.47656 14.9083 9.50535 14.9023 9.53186 14.8901L11.3258 14.0689H14.1212C14.3546 14.0689 14.578 13.9765 14.7424 13.8114C14.9076 13.647 15 13.4235 15 13.1901V10.9174C15 10.4318 14.6068 10.0386 14.1212 10.0386H10.1212C9.63866 10.0386 9.24625 10.4272 9.24247 10.9098V14.6976C9.24095 14.7529 9.2614 14.8067 9.30004 14.8461C9.33868 14.8855 9.39171 14.9083 9.44701 14.9083Z" fill="#D9D9D9" style="fill:#D9D9D9;fill:color(display-p3 0.8510 0.8510 0.8510);fill-opacity:1;"/>
</svg>
