<svg width="13" height="15" viewBox="0 0 13 15" fill="none" xmlns="http://www.w3.org/2000/svg">
<path d="M9.98781 1.36364H9.73204C9.67684 0.985856 9.48432 0.640133 9.18971 0.389726C8.89509 0.139319 8.51809 0.000972403 8.12767 0H4.87242C4.05489 0 3.38245 0.594545 3.26805 1.36364H3.01228C2.33409 1.36412 1.68382 1.62766 1.20426 2.0964C0.724711 2.56514 0.455083 3.20074 0.45459 3.86364V12.5C0.455083 13.1629 0.724711 13.7985 1.20426 14.2672C1.68382 14.736 2.33409 14.9995 3.01228 15H9.98781C10.666 14.9995 11.3163 14.736 11.7958 14.2672C12.2754 13.7985 12.545 13.1629 12.5455 12.5V3.86364C12.545 3.20074 12.2754 2.56514 11.7958 2.0964C11.3163 1.62766 10.666 1.36412 9.98781 1.36364ZM4.6399 1.59091C4.6399 1.53063 4.6644 1.47283 4.70801 1.4302C4.75161 1.38758 4.81075 1.36364 4.87242 1.36364H8.12767C8.18933 1.36364 8.24848 1.38758 8.29208 1.4302C8.33569 1.47283 8.36018 1.53063 8.36018 1.59091V2.5C8.36018 2.56028 8.33569 2.61808 8.29208 2.66071C8.24848 2.70333 8.18933 2.72727 8.12767 2.72727H4.87242C4.81075 2.72727 4.75161 2.70333 4.70801 2.66071C4.6644 2.61808 4.6399 2.56028 4.6399 2.5V1.59091ZM9.05774 10.9091H3.94235C3.75735 10.9091 3.57992 10.8373 3.44911 10.7094C3.31829 10.5815 3.2448 10.4081 3.2448 10.2273C3.2448 10.0464 3.31829 9.87302 3.44911 9.74516C3.57992 9.61729 3.75735 9.54545 3.94235 9.54545H9.05774C9.24274 9.54545 9.42016 9.61729 9.55098 9.74516C9.6818 9.87302 9.75529 10.0464 9.75529 10.2273C9.75529 10.4081 9.6818 10.5815 9.55098 10.7094C9.42016 10.8373 9.24274 10.9091 9.05774 10.9091ZM9.05774 8.18182H3.94235C3.75735 8.18182 3.57992 8.10998 3.44911 7.98212C3.31829 7.85425 3.2448 7.68083 3.2448 7.5C3.2448 7.31917 3.31829 7.14575 3.44911 7.01788C3.57992 6.89002 3.75735 6.81818 3.94235 6.81818H9.05774C9.24274 6.81818 9.42016 6.89002 9.55098 7.01788C9.6818 7.14575 9.75529 7.31917 9.75529 7.5C9.75529 7.68083 9.6818 7.85425 9.55098 7.98212C9.42016 8.10998 9.24274 8.18182 9.05774 8.18182Z" fill="#D9D9D9" style="fill:#D9D9D9;fill:color(display-p3 0.8510 0.8510 0.8510);fill-opacity:1;"/>
</svg>
