<svg width="15" height="15" viewBox="0 0 15 15" fill="none" xmlns="http://www.w3.org/2000/svg">
<path d="M7.5 0C3.36469 0 0 3.36469 0 7.5C0 11.6353 3.36469 15 7.5 15C11.6353 15 15 11.6353 15 7.5C15 3.36469 11.6353 0 7.5 0ZM11.1253 10.0097C11.0192 10.1629 10.8566 10.2677 10.6733 10.3011C10.4899 10.3345 10.3008 10.2938 10.1475 10.1878L7.10063 8.07844C7.00708 8.01375 6.93065 7.92731 6.8779 7.82655C6.82515 7.72579 6.79767 7.61373 6.79781 7.5V3.51562C6.79781 3.32914 6.87189 3.1503 7.00375 3.01844C7.13561 2.88658 7.31446 2.8125 7.50094 2.8125C7.68742 2.8125 7.86626 2.88658 7.99812 3.01844C8.12998 3.1503 8.20406 3.32914 8.20406 3.51562V7.13156L10.9481 9.03094C11.0241 9.08339 11.089 9.15031 11.139 9.22787C11.1891 9.30542 11.2234 9.39209 11.2399 9.48291C11.2565 9.57373 11.255 9.66692 11.2355 9.75715C11.2159 9.84738 11.1788 9.93288 11.1263 10.0087L11.1253 10.0097Z" fill="#D9D9D9" style="fill:#D9D9D9;fill:color(display-p3 0.8510 0.8510 0.8510);fill-opacity:1;"/>
</svg>
