<svg width="15" height="13" viewBox="0 0 15 13" fill="none" xmlns="http://www.w3.org/2000/svg">
<path fill-rule="evenodd" clip-rule="evenodd" d="M2.14421 4.86504C2.14371 3.85056 2.49045 2.86761 3.12477 2.08528C3.7591 1.30295 4.64136 0.770157 5.61979 0.578539C6.59821 0.386922 7.61164 0.548465 8.48574 1.03538C9.35984 1.52229 10.04 2.30414 10.4091 3.24642C10.8188 3.19853 11.2338 3.24762 11.6218 3.38987C12.0099 3.53212 12.3604 3.76369 12.646 4.06652C12.9317 4.36935 13.1448 4.73526 13.2688 5.13574C13.3928 5.53621 13.4242 5.96042 13.3607 6.3753C13.9803 6.72982 14.467 7.28347 14.7446 7.94962C15.0223 8.61577 15.0752 9.35685 14.8951 10.0569C14.7151 10.7569 14.3122 11.3764 13.7495 11.8185C13.1868 12.2606 12.496 12.5002 11.7853 12.5H3.75106C2.89812 12.5004 2.07054 12.2047 1.40491 11.6617C0.73928 11.1186 0.275395 10.3607 0.0898205 9.51309C-0.0957542 8.66545 0.00807391 7.77871 0.384168 6.99924C0.760261 6.21978 1.38614 5.59418 2.1585 5.2257C2.14891 5.10573 2.14414 4.9854 2.14421 4.86504Z" fill="#D9D9D9" style="fill:#D9D9D9;fill:color(display-p3 0.8510 0.8510 0.8510);fill-opacity:1;"/>
</svg>
