<svg width="15" height="15" viewBox="0 0 15 15" fill="none" xmlns="http://www.w3.org/2000/svg">
<path d="M14.25 3.48213C14.25 5.40498 11.2275 6.96426 7.5 6.96426C3.7725 6.96426 0.75 5.40498 0.75 3.48213C0.75 1.55928 3.7725 0 7.5 0C11.2275 0 14.25 1.55928 14.25 3.48213Z" fill="#D9D9D9" style="fill:#D9D9D9;fill:color(display-p3 0.8510 0.8510 0.8510);fill-opacity:1;"/>
<path d="M7.5 8.03574C9.51375 8.03574 11.3925 7.61717 12.8085 6.88646C13.3296 6.62296 13.8087 6.29009 14.2313 5.89789C14.2433 5.98432 14.25 6.07218 14.25 6.16075C14.25 8.0836 11.2275 9.64288 7.5 9.64288C3.7725 9.64288 0.75 8.0836 0.75 6.16075C0.75 6.07218 0.75675 5.98432 0.76875 5.89789C1.19131 6.29008 1.67037 6.62294 2.1915 6.88646C3.60675 7.61717 5.48625 8.03574 7.5 8.03574Z" fill="#D9D9D9" style="fill:#D9D9D9;fill:color(display-p3 0.8510 0.8510 0.8510);fill-opacity:1;"/>
<path d="M7.5 10.7143C9.51375 10.7143 11.3925 10.2957 12.8085 9.56502C13.3296 9.30153 13.8087 8.96866 14.2313 8.57645C14.2433 8.66288 14.25 8.75074 14.25 8.83931C14.25 10.7622 11.2275 12.3214 7.5 12.3214C3.7725 12.3214 0.75 10.7622 0.75 8.83931C0.75 8.75074 0.75675 8.66288 0.76875 8.57645C1.19131 8.96864 1.67037 9.30151 2.1915 9.56502C3.60675 10.2957 5.48625 10.7143 7.5 10.7143Z" fill="#D9D9D9" style="fill:#D9D9D9;fill:color(display-p3 0.8510 0.8510 0.8510);fill-opacity:1;"/>
<path d="M7.5 13.3929C9.51375 13.3929 11.3925 12.9743 12.8085 12.2436C13.3296 11.9801 13.8087 11.6472 14.2313 11.255C14.2433 11.3414 14.25 11.4293 14.25 11.5179C14.25 13.4407 11.2275 15 7.5 15C3.7725 15 0.75 13.4407 0.75 11.5179C0.75 11.4293 0.75675 11.3414 0.76875 11.255C1.19131 11.6472 1.67037 11.9801 2.1915 12.2436C3.60675 12.9743 5.48625 13.3929 7.5 13.3929Z" fill="#D9D9D9" style="fill:#D9D9D9;fill:color(display-p3 0.8510 0.8510 0.8510);fill-opacity:1;"/>
</svg>
