<svg width="15" height="15" viewBox="0 0 15 15" fill="none" xmlns="http://www.w3.org/2000/svg">
<path fill-rule="evenodd" clip-rule="evenodd" d="M0 3.125C0 2.54484 0.243131 1.98844 0.675907 1.5782C1.10868 1.16797 1.69565 0.9375 2.30769 0.9375H12.6923C13.3043 0.9375 13.8913 1.16797 14.3241 1.5782C14.7569 1.98844 15 2.54484 15 3.125V11.875C15 12.4552 14.7569 13.0116 14.3241 13.4218C13.8913 13.832 13.3043 14.0625 12.6923 14.0625H2.30769C1.69565 14.0625 1.10868 13.832 0.675907 13.4218C0.243131 13.0116 0 12.4552 0 11.875V3.125ZM3.05385 3.83229C3.16202 3.72988 3.30865 3.67236 3.46154 3.67236C3.61442 3.67236 3.76106 3.72988 3.86923 3.83229L5.6 5.47292C5.70804 5.57546 5.76872 5.71445 5.76872 5.85938C5.76872 6.0043 5.70804 6.14329 5.6 6.24583L3.86923 7.88646C3.75987 7.98306 3.61521 8.03565 3.46575 8.03315C3.31629 8.03065 3.17369 7.97325 3.06798 7.87306C2.96228 7.77286 2.90173 7.63768 2.8991 7.49601C2.89646 7.35433 2.95194 7.21721 3.05385 7.11354L4.37692 5.85938L3.05385 4.60521C2.94581 4.50267 2.88512 4.36367 2.88512 4.21875C2.88512 4.07383 2.94581 3.93483 3.05385 3.83229ZM6.34615 6.95312C6.19314 6.95312 6.0464 7.01074 5.93821 7.1133C5.83001 7.21586 5.76923 7.35496 5.76923 7.5C5.76923 7.64504 5.83001 7.78414 5.93821 7.8867C6.0464 7.98926 6.19314 8.04688 6.34615 8.04688H8.65385C8.80686 8.04688 8.9536 7.98926 9.06179 7.8867C9.16999 7.78414 9.23077 7.64504 9.23077 7.5C9.23077 7.35496 9.16999 7.21586 9.06179 7.1133C8.9536 7.01074 8.80686 6.95312 8.65385 6.95312H6.34615Z" fill="#D9D9D9" style="fill:#D9D9D9;fill:color(display-p3 0.8510 0.8510 0.8510);fill-opacity:1;"/>
</svg>
