<svg width="13" height="15" viewBox="0 0 13 15" fill="none" xmlns="http://www.w3.org/2000/svg">
<path fill-rule="evenodd" clip-rule="evenodd" d="M12.75 9.31891C12.75 12.4562 9.95185 15 6.5 15C3.04815 15 0.25 12.4562 0.25 9.31891C0.25 7.77947 0.949538 6.55719 2.01778 5.35903C2.90466 4.36488 5.09395 1.733 5.78253 0.280731C5.81105 0.212233 5.85757 0.151481 5.91782 0.104025C5.97808 0.0565698 6.05016 0.0239254 6.12746 0.00907514C6.20477 -0.00577514 6.28485 -0.00235757 6.36037 0.0190155C6.43589 0.0403885 6.50445 0.0790354 6.55979 0.131424C7.14872 0.736999 7.87416 2.06036 8.11133 3.56271C8.15916 3.86874 8.17909 4.1182 8.19503 4.31666C8.22892 4.74232 8.24486 4.93151 8.48103 4.93151C8.85272 4.93151 9.09686 4.40569 9.14967 3.86225C9.18455 3.51448 9.55425 3.39856 9.80935 3.51448C11.038 4.07462 12.2906 6.73989 12.5936 8.04748C12.6882 8.45738 12.75 8.88305 12.75 9.31891ZM6.5 11.8636C7.46062 11.8636 8.23888 11.1774 8.23888 10.3297C8.23888 8.97949 7.16964 8.01317 6.63752 7.72012C6.60164 7.70065 6.58371 7.69044 6.53488 7.6923C6.49259 7.69553 6.45248 7.71111 6.42028 7.73681C6.3854 7.76834 6.37544 7.80451 6.3575 7.87777C6.26284 8.2478 5.96588 8.5121 5.65298 8.78938C5.2225 9.17239 4.76212 9.58136 4.76212 10.3297C4.76212 11.1774 5.53938 11.8636 6.5 11.8636Z" fill="#D9D9D9" style="fill:#D9D9D9;fill:color(display-p3 0.8510 0.8510 0.8510);fill-opacity:1;"/>
</svg>
