<svg width="15" height="15" viewBox="0 0 15 15" fill="none" xmlns="http://www.w3.org/2000/svg">
<path d="M3.35774 9.29083C3.17964 9.29083 3.00883 9.22007 2.88289 9.09413C2.75695 8.96819 2.68619 8.79738 2.68619 8.61928V6.38078C2.68619 6.20268 2.75695 6.03187 2.88289 5.90593C3.00883 5.77999 3.17964 5.70923 3.35774 5.70923C3.53585 5.70923 3.70666 5.77999 3.8326 5.90593C3.95854 6.03187 4.02929 6.20268 4.02929 6.38078V8.61928C4.02929 8.79738 3.95854 8.96819 3.8326 9.09413C3.70666 9.22007 3.53585 9.29083 3.35774 9.29083ZM10.9686 6.15693C10.7905 6.15693 10.6197 6.08618 10.4938 5.96024C10.3678 5.8343 10.2971 5.66349 10.2971 5.48538V3.69459C10.2971 3.63522 10.2735 3.57828 10.2315 3.5363C10.1895 3.49432 10.1326 3.47074 10.0732 3.47074H8.28243C8.10433 3.47074 7.93351 3.39999 7.80757 3.27405C7.68163 3.14811 7.61088 2.9773 7.61088 2.79919C7.61088 2.62109 7.68163 2.45027 7.80757 2.32433C7.93351 2.19839 8.10433 2.12764 8.28243 2.12764H10.0732C10.9373 2.12764 11.6402 2.83053 11.6402 3.69459V5.48538C11.6402 5.66349 11.5694 5.8343 11.4435 5.96024C11.3175 6.08618 11.1467 6.15693 10.9686 6.15693ZM10.0732 12.8724H8.28243C8.10433 12.8724 7.93351 12.8017 7.80757 12.6757C7.68163 12.5498 7.61088 12.379 7.61088 12.2009C7.61088 12.0228 7.68163 11.852 7.80757 11.726C7.93351 11.6001 8.10433 11.5293 8.28243 11.5293H10.0732C10.1326 11.5293 10.1895 11.5057 10.2315 11.4638C10.2735 11.4218 10.2971 11.3648 10.2971 11.3055V9.51468C10.2971 9.33657 10.3678 9.16576 10.4938 9.03982C10.6197 8.91388 10.7905 8.84313 10.9686 8.84313C11.1467 8.84313 11.3175 8.91388 11.4435 9.03982C11.5694 9.16576 11.6402 9.33657 11.6402 9.51468V11.3055C11.6402 12.1695 10.9373 12.8724 10.0732 12.8724ZM5.14854 0.784546H1.56695C1.15137 0.784546 0.752807 0.949635 0.458948 1.24349C0.165089 1.53735 0 1.93591 0 2.35149V3.24689C0 4.11184 0.701992 4.81384 1.56695 4.81384H5.14854C5.56412 4.81384 5.96268 4.64875 6.25654 4.35489C6.5504 4.06103 6.71548 3.66247 6.71548 3.24689V2.35149C6.71548 1.93591 6.5504 1.53735 6.25654 1.24349C5.96268 0.949635 5.56412 0.784546 5.14854 0.784546ZM5.14854 10.1862H1.56695C1.15137 10.1862 0.752807 10.3513 0.458948 10.6452C0.165089 10.939 0 11.3376 0 11.7532V12.6486C0 13.5135 0.701992 14.2155 1.56695 14.2155H5.14854C5.56412 14.2155 5.96268 14.0504 6.25654 13.7566C6.5504 13.4627 6.71548 13.0641 6.71548 12.6486V11.7532C6.71548 11.3376 6.5504 10.939 6.25654 10.6452C5.96268 10.3513 5.56412 10.1862 5.14854 10.1862Z" fill="#D9D9D9" style="fill:#D9D9D9;fill:color(display-p3 0.8510 0.8510 0.8510);fill-opacity:1;"/>
<path d="M14.672 6.92429L11.3142 4.90964C11.2101 4.84677 11.0907 4.81355 10.9691 4.81355C10.8474 4.81355 10.7281 4.84677 10.6239 4.90964L7.26615 6.92429C7.16633 6.98362 7.08364 7.06789 7.02621 7.16883C6.96879 7.26977 6.93859 7.3839 6.93859 7.50003C6.93859 7.61616 6.96879 7.73029 7.02621 7.83123C7.08364 7.93217 7.16633 8.01644 7.26615 8.07577L10.6239 10.0904C10.7284 10.1529 10.8478 10.1859 10.9695 10.1859C11.0912 10.1859 11.2107 10.1529 11.3151 10.0904L14.6729 8.07577C14.7727 8.01636 14.8553 7.93202 14.9126 7.83104C14.97 7.73006 15.0001 7.61591 15 7.49978C14.9999 7.38365 14.9696 7.26954 14.9121 7.16864C14.8546 7.06775 14.7719 6.98355 14.672 6.92429Z" fill="#D9D9D9" style="fill:#D9D9D9;fill:color(display-p3 0.8510 0.8510 0.8510);fill-opacity:1;"/>
</svg>
