<svg width="15" height="15" viewBox="0 0 15 15" fill="none" xmlns="http://www.w3.org/2000/svg">
<path d="M13.338 5.2846C13.6201 5.2846 13.8911 5.32669 14.1459 5.40423V5.2846C14.1459 4.69703 13.9125 4.13353 13.497 3.71806C13.0815 3.30259 12.518 3.06918 11.9305 3.06918H9.06593C8.91909 3.06905 8.77831 3.01061 8.67454 2.90672L7.10824 1.34115C6.95401 1.18673 6.77086 1.0642 6.56927 0.980575C6.36768 0.896947 6.15158 0.853855 5.93333 0.85376H3.06879C2.48122 0.85376 1.91772 1.08717 1.50225 1.50264C1.08678 1.91811 0.853369 2.48161 0.853369 3.06918V5.40423C1.11529 5.32471 1.38753 5.2844 1.66126 5.2846H13.338ZM1.66126 6.39231C1.42324 6.39235 1.18801 6.44353 0.971492 6.54239C0.754973 6.64124 0.562218 6.78546 0.406277 6.96528C0.250336 7.14509 0.134849 7.35632 0.0676321 7.58465C0.000415526 7.81298 -0.016961 8.05308 0.0166788 8.28871L0.649551 12.7196C0.706075 13.1155 0.903507 13.4777 1.20561 13.7398C1.5077 14.0019 1.89419 14.1462 2.29413 14.1463H12.7059C13.1058 14.1462 13.4923 14.0019 13.7944 13.7398C14.0965 13.4777 14.2939 13.1155 14.3504 12.7196L14.9833 8.28871C15.017 8.05308 14.9996 7.81298 14.9324 7.58465C14.8652 7.35632 14.7497 7.14509 14.5937 6.96528C14.4378 6.78546 14.245 6.64124 14.0285 6.54239C13.812 6.44353 13.5768 6.39235 13.3387 6.39231H1.66126Z" fill="#D9D9D9" style="fill:#D9D9D9;fill:color(display-p3 0.8510 0.8510 0.8510);fill-opacity:1;"/>
</svg>
