<svg width="15" height="13" viewBox="0 0 15 13" fill="none" xmlns="http://www.w3.org/2000/svg">
<path fill-rule="evenodd" clip-rule="evenodd" d="M12.8571 12.9286C13.4255 12.9286 13.9705 12.7028 14.3724 12.3009C14.7742 11.8991 15 11.354 15 10.7857V4.35713C15 3.7888 14.7742 3.24376 14.3724 2.8419C13.9705 2.44003 13.4255 2.21427 12.8571 2.21427H9.015C8.87297 2.21414 8.7368 2.15762 8.63643 2.05713L7.12143 0.54284C6.97225 0.393474 6.7951 0.274962 6.60011 0.194073C6.40512 0.113184 6.1961 0.0715031 5.985 0.0714111H2.14286C1.57454 0.0714111 1.02949 0.297176 0.627628 0.69904C0.225765 1.1009 0 1.64595 0 2.21427V10.7857C0 11.354 0.225765 11.8991 0.627628 12.3009C1.02949 12.7028 1.57454 12.9286 2.14286 12.9286H12.8571ZM8.03571 5.42855C8.03571 5.28647 7.97927 5.15021 7.87881 5.04975C7.77834 4.94928 7.64208 4.89284 7.5 4.89284C7.35792 4.89284 7.22166 4.94928 7.12119 5.04975C7.02073 5.15021 6.96429 5.28647 6.96429 5.42855V8.42141L5.73571 7.19284C5.63416 7.09821 5.49984 7.04669 5.36106 7.04914C5.22227 7.05159 5.08985 7.10781 4.9917 7.20597C4.89355 7.30412 4.83732 7.43654 4.83487 7.57532C4.83243 7.71411 4.88394 7.84843 4.97857 7.94998L7.12143 10.0928C7.22188 10.1932 7.35804 10.2495 7.5 10.2495C7.64196 10.2495 7.77812 10.1932 7.87857 10.0928L10.0214 7.94998C10.0741 7.90094 10.1163 7.84179 10.1456 7.77608C10.1748 7.71037 10.1906 7.63943 10.1919 7.5675C10.1931 7.49557 10.1799 7.42412 10.1529 7.35741C10.126 7.29071 10.0859 7.23011 10.035 7.17924C9.98416 7.12837 9.92356 7.08827 9.85686 7.06132C9.79015 7.03438 9.7187 7.02115 9.64677 7.02242C9.57484 7.02369 9.5039 7.03943 9.43819 7.06871C9.37247 7.09799 9.31333 7.14021 9.26429 7.19284L8.03571 8.42141V5.42855Z" fill="#D9D9D9" style="fill:#D9D9D9;fill:color(display-p3 0.8510 0.8510 0.8510);fill-opacity:1;"/>
</svg>
