<svg width="15" height="15" viewBox="0 0 15 15" fill="none" xmlns="http://www.w3.org/2000/svg">
<path d="M12.0536 0H2.94643C2.16516 0.000567575 1.41606 0.311176 0.863616 0.863616C0.311176 1.41606 0.000567575 2.16516 0 2.94643V12.0536C0.000567575 12.8348 0.311176 13.5839 0.863616 14.1364C1.41606 14.6888 2.16516 14.9994 2.94643 15H12.0536C12.8348 14.9994 13.5839 14.6888 14.1364 14.1364C14.6888 13.5839 14.9994 12.8348 15 12.0536V2.94643C14.9994 2.16516 14.6888 1.41606 14.1364 0.863616C13.5839 0.311176 12.8348 0.000567575 12.0536 0ZM9.375 10.7143C9.58812 10.7143 9.79251 10.7989 9.94321 10.9496C10.0939 11.1003 10.1786 11.3047 10.1786 11.5179C10.1786 11.731 10.0939 11.9354 9.94321 12.0861C9.79251 12.2368 9.58812 12.3214 9.375 12.3214C8.67294 12.3216 7.99917 12.0447 7.5 11.5511C7.00083 12.0447 6.32706 12.3216 5.625 12.3214C5.41188 12.3214 5.20749 12.2368 5.05679 12.0861C4.90609 11.9354 4.82143 11.731 4.82143 11.5179C4.82143 11.3047 4.90609 11.1003 5.05679 10.9496C5.20749 10.7989 5.41188 10.7143 5.625 10.7143C6.21536 10.7143 6.69643 10.2332 6.69643 9.64286V5.35714C6.69643 4.76679 6.21536 4.28571 5.625 4.28571C5.41188 4.28571 5.20749 4.20105 5.05679 4.05035C4.90609 3.89965 4.82143 3.69526 4.82143 3.48214C4.82143 3.26902 4.90609 3.06463 5.05679 2.91393C5.20749 2.76323 5.41188 2.67857 5.625 2.67857C6.35464 2.67857 7.01679 2.97321 7.5 3.44893C7.99917 2.95526 8.67294 2.67843 9.375 2.67857C9.58812 2.67857 9.79251 2.76323 9.94321 2.91393C10.0939 3.06463 10.1786 3.26902 10.1786 3.48214C10.1786 3.69526 10.0939 3.89965 9.94321 4.05035C9.79251 4.20105 9.58812 4.28571 9.375 4.28571C8.78464 4.28571 8.30357 4.76679 8.30357 5.35714V9.64286C8.30357 10.2332 8.78464 10.7143 9.375 10.7143Z" fill="#D9D9D9" style="fill:#D9D9D9;fill:color(display-p3 0.8510 0.8510 0.8510);fill-opacity:1;"/>
</svg>
