<svg width="15" height="15" viewBox="0 0 15 15" fill="none" xmlns="http://www.w3.org/2000/svg">
<path fill-rule="evenodd" clip-rule="evenodd" d="M6.79002 4.53648e-08C6.08464 4.53648e-08 5.4831 0.51 5.36695 1.20538L5.23002 2.03C5.21464 2.12231 5.14156 2.23 5.00156 2.29769C4.73798 2.42439 4.48443 2.57097 4.2431 2.73615C4.11541 2.82462 3.98618 2.83308 3.89695 2.8L3.11464 2.50615C2.79482 2.38634 2.44287 2.38389 2.12142 2.49926C1.79997 2.61463 1.52989 2.84032 1.35925 3.13615L0.650024 4.36462C0.479323 4.66028 0.419035 5.0069 0.479884 5.34284C0.540732 5.67877 0.718772 5.98223 0.982332 6.19923L1.62849 6.73154C1.70156 6.79154 1.75925 6.90769 1.74695 7.06231C1.72503 7.35395 1.72503 7.64682 1.74695 7.93846C1.75849 8.09231 1.70156 8.20923 1.62925 8.26923L0.982332 8.80154C0.718772 9.01854 0.540732 9.322 0.479884 9.65793C0.419035 9.99387 0.479323 10.3405 0.650024 10.6362L1.35925 11.8646C1.53001 12.1603 1.80015 12.3858 2.12158 12.5011C2.44302 12.6163 2.79491 12.6137 3.11464 12.4938L3.89849 12.2C3.98695 12.1669 4.11618 12.1762 4.24464 12.2631C4.48464 12.4277 4.73772 12.5746 5.00233 12.7015C5.14233 12.7692 5.21541 12.8769 5.23079 12.9708L5.36772 13.7946C5.48387 14.49 6.08541 15 6.79079 15H8.20925C8.91387 15 9.51618 14.49 9.63233 13.7946L9.76925 12.97C9.78464 12.8777 9.85695 12.77 9.99772 12.7015C10.2623 12.5746 10.5154 12.4277 10.7554 12.2631C10.8839 12.1754 11.0131 12.1669 11.1016 12.2L11.8862 12.4938C12.2058 12.6133 12.5574 12.6155 12.8785 12.5001C13.1996 12.3848 13.4694 12.1593 13.64 11.8638L14.35 10.6354C14.5207 10.3397 14.581 9.9931 14.5202 9.65716C14.4593 9.32123 14.2813 9.01777 14.0177 8.80077L13.3716 8.26846C13.2985 8.20846 13.2408 8.09231 13.2531 7.93769C13.275 7.64605 13.275 7.35318 13.2531 7.06154C13.2408 6.90769 13.2985 6.79077 13.3708 6.73077L14.0169 6.19846C14.5616 5.75077 14.7023 4.97538 14.35 4.36385L13.6408 3.13538C13.47 2.83968 13.1999 2.61416 12.8785 2.49893C12.557 2.38371 12.2051 2.38627 11.8854 2.50615L11.1008 2.8C11.0131 2.83308 10.8839 2.82385 10.7554 2.73615C10.5143 2.571 10.261 2.42442 9.99772 2.29769C9.85695 2.23077 9.78464 2.12308 9.76925 2.03L9.63156 1.20538C9.57546 0.868511 9.40165 0.562473 9.14105 0.341744C8.88046 0.121014 8.55 -8.55695e-05 8.20848 4.53648e-08H6.79079H6.79002ZM7.49925 10.3846C8.2643 10.3846 8.99801 10.0807 9.53899 9.53973C10.08 8.99876 10.3839 8.26505 10.3839 7.5C10.3839 6.73495 10.08 6.00124 9.53899 5.46027C8.99801 4.9193 8.2643 4.61538 7.49925 4.61538C6.73421 4.61538 6.00049 4.9193 5.45952 5.46027C4.91855 6.00124 4.61464 6.73495 4.61464 7.5C4.61464 8.26505 4.91855 8.99876 5.45952 9.53973C6.00049 10.0807 6.73421 10.3846 7.49925 10.3846Z" fill="#D9D9D9" style="fill:#D9D9D9;fill:color(display-p3 0.8510 0.8510 0.8510);fill-opacity:1;"/>
</svg>
