<svg width="15" height="15" viewBox="0 0 15 15" fill="none" xmlns="http://www.w3.org/2000/svg">
<path d="M7.12194 1.658C7.2223 1.55663 7.35834 1.4997 7.50018 1.4997C7.64201 1.4997 7.77805 1.55663 7.87841 1.658L14.08 7.92975C14.1294 7.98143 14.1884 8.02263 14.2537 8.05097C14.3191 8.07931 14.3893 8.0942 14.4604 8.0948C14.5314 8.09539 14.6019 8.08166 14.6677 8.05441C14.7334 8.02716 14.7932 7.98694 14.8434 7.93609C14.8936 7.88525 14.9334 7.82479 14.9602 7.75826C14.9871 7.69172 15.0006 7.62044 15 7.54857C14.9993 7.47669 14.9845 7.40567 14.9564 7.33965C14.9284 7.27362 14.8876 7.21391 14.8364 7.16401L8.63558 0.892254C8.48648 0.741461 8.30947 0.621846 8.11465 0.540238C7.91984 0.458629 7.71104 0.416626 7.50018 0.416626C7.28931 0.416626 7.08051 0.458629 6.8857 0.540238C6.69088 0.621846 6.51387 0.741461 6.36477 0.892254L0.163216 7.16401C0.11212 7.21396 0.071373 7.27371 0.0433532 7.33976C0.0153335 7.40582 0.000601884 7.47685 1.80611e-05 7.54872C-0.000565762 7.62059 0.0130098 7.69186 0.0399528 7.75837C0.0668957 7.82488 0.106666 7.8853 0.156944 7.9361C0.207222 7.9869 0.267 8.02706 0.332791 8.05425C0.398581 8.08143 0.469066 8.0951 0.540133 8.09444C0.611201 8.09378 0.681426 8.07881 0.746713 8.05041C0.812001 8.02202 0.871041 7.98075 0.920391 7.92903L7.12194 1.658Z" fill="#D9D9D9" style="fill:#D9D9D9;fill:color(display-p3 0.8510 0.8510 0.8510);fill-opacity:1;"/>
<path d="M7.50018 2.80626L13.3228 8.69477C13.3442 8.71643 13.3656 8.73663 13.3877 8.75684V13.2301C13.3877 13.977 12.7883 14.5833 12.0496 14.5833H9.6411C9.49915 14.5833 9.36301 14.5263 9.26264 14.4248C9.16226 14.3232 9.10587 14.1856 9.10587 14.042V10.7943C9.10587 10.6507 9.04948 10.513 8.9491 10.4115C8.84873 10.31 8.71259 10.253 8.57064 10.253H6.42971C6.28776 10.253 6.15162 10.31 6.05125 10.4115C5.95087 10.513 5.89448 10.6507 5.89448 10.7943V14.042C5.89448 14.1856 5.83809 14.3232 5.73771 14.4248C5.63734 14.5263 5.5012 14.5833 5.35925 14.5833H2.9507C2.59582 14.5833 2.25548 14.4407 2.00454 14.1869C1.7536 13.9332 1.61262 13.589 1.61262 13.2301V8.75684C1.63483 8.73676 1.65648 8.71606 1.67757 8.69477L7.50018 2.80626Z" fill="#D9D9D9" style="fill:#D9D9D9;fill:color(display-p3 0.8510 0.8510 0.8510);fill-opacity:1;"/>
</svg>
