<svg width="15" height="13" viewBox="0 0 15 13" fill="none" xmlns="http://www.w3.org/2000/svg">
<path fill-rule="evenodd" clip-rule="evenodd" d="M0 2.06818C0 1.62741 0.169323 1.20469 0.470721 0.893019C0.772119 0.581346 1.1809 0.40625 1.60714 0.40625H13.3929C13.8191 0.40625 14.2279 0.581346 14.5293 0.893019C14.8307 1.20469 15 1.62741 15 2.06818V10.9318C15 11.3726 14.8307 11.7953 14.5293 12.107C14.2279 12.4187 13.8191 12.5938 13.3929 12.5938H1.60714C1.1809 12.5938 0.772119 12.4187 0.470721 12.107C0.169323 11.7953 0 11.3726 0 10.9318V2.06818ZM1.07143 9.49886V10.9318C1.07143 11.2376 1.31143 11.4858 1.60714 11.4858H13.3929C13.5349 11.4858 13.6712 11.4274 13.7717 11.3235C13.8721 11.2196 13.9286 11.0787 13.9286 10.9318V9.49886L12.0071 7.51267C11.8062 7.30519 11.5339 7.18865 11.25 7.18865C10.9661 7.18865 10.6938 7.30519 10.4929 7.51267L9.86429 8.16193L10.5571 8.87841C10.6098 8.92913 10.652 8.99028 10.6813 9.05824C10.7106 9.12619 10.7263 9.19955 10.7276 9.27393C10.7288 9.34832 10.7156 9.4222 10.6887 9.49118C10.6617 9.56016 10.6216 9.62282 10.5707 9.67543C10.5199 9.72803 10.4593 9.7695 10.3926 9.79736C10.3259 9.82523 10.2544 9.83891 10.1825 9.8376C10.1106 9.83628 10.0396 9.82 9.9739 9.78973C9.90819 9.75945 9.84904 9.71579 9.8 9.66136L6.11429 5.85074C5.91339 5.64326 5.64107 5.52671 5.35714 5.52671C5.07321 5.52671 4.80089 5.64326 4.6 5.85074L1.07143 9.4996V9.49886ZM8.30357 3.73011C8.30357 3.50973 8.38823 3.29837 8.53893 3.14253C8.68963 2.9867 8.89402 2.89915 9.10714 2.89915C9.32026 2.89915 9.52466 2.9867 9.67535 3.14253C9.82605 3.29837 9.91071 3.50973 9.91071 3.73011C9.91071 3.9505 9.82605 4.16186 9.67535 4.3177C9.52466 4.47353 9.32026 4.56108 9.10714 4.56108C8.89402 4.56108 8.68963 4.47353 8.53893 4.3177C8.38823 4.16186 8.30357 3.9505 8.30357 3.73011Z" fill="#D9D9D9" style="fill:#D9D9D9;fill:color(display-p3 0.8510 0.8510 0.8510);fill-opacity:1;"/>
</svg>
