<svg width="15" height="15" viewBox="0 0 15 15" fill="none" xmlns="http://www.w3.org/2000/svg">
<path d="M4.39174 8.80026H1.80836C1.32876 8.80026 0.868791 8.99079 0.529657 9.32992C0.190524 9.66905 0 10.129 0 10.6086V13.192C0 14.1913 0.810147 15.0004 1.80836 15.0004H4.39174C4.87135 15.0004 5.33131 14.8098 5.67045 14.4707C6.00958 14.1316 6.2001 13.6716 6.2001 13.192V10.6086C6.2001 10.129 6.00958 9.66905 5.67045 9.32992C5.33131 8.99079 4.87135 8.80026 4.39174 8.80026ZM12.6585 8.80026H10.0752C9.59556 8.80026 9.13559 8.99079 8.79646 9.32992C8.45733 9.66905 8.2668 10.129 8.2668 10.6086V13.192C8.2668 14.1913 9.07695 15.0004 10.0752 15.0004H12.6585C13.1382 15.0004 13.5981 14.8098 13.9372 14.4707C14.2764 14.1316 14.4669 13.6716 14.4669 13.192V10.6086C14.4669 10.129 14.2764 9.66905 13.9372 9.32992C13.5981 8.99079 13.1382 8.80026 12.6585 8.80026ZM14.4721 2.35629L12.6441 0.527259C12.3044 0.189409 11.8449 -0.000244141 11.3658 -0.000244141C10.8868 -0.000244141 10.4272 0.189409 10.0876 0.527259L8.25957 2.35629C7.92178 2.69574 7.73216 3.15514 7.73216 3.63403C7.73216 4.11291 7.92178 4.57231 8.25957 4.91176L10.0876 6.74079C10.4399 7.09213 10.9029 7.2678 11.3658 7.2678C11.8288 7.2678 12.2917 7.09213 12.6441 6.74079L14.4721 4.91176C14.8102 4.57227 15 4.11265 15 3.63351C15 3.15437 14.8102 2.69475 14.4721 2.35526V2.35629ZM4.39174 0.533459H1.80836C1.32876 0.533459 0.868791 0.723982 0.529657 1.06312C0.190524 1.40225 0 1.86221 0 2.34182V4.9252C0 5.92445 0.810147 6.73356 1.80836 6.73356H4.39174C4.87135 6.73356 5.33131 6.54304 5.67045 6.2039C6.00958 5.86477 6.2001 5.40481 6.2001 4.9252V2.34182C6.2001 1.86221 6.00958 1.40225 5.67045 1.06312C5.33131 0.723982 4.87135 0.533459 4.39174 0.533459Z" fill="#D9D9D9" style="fill:#D9D9D9;fill:color(display-p3 0.8510 0.8510 0.8510);fill-opacity:1;"/>
</svg>
