<svg width="15" height="15" viewBox="0 0 15 15" fill="none" xmlns="http://www.w3.org/2000/svg">
<path d="M8.31174 5.24115C8.75495 5.45276 9.14091 5.76765 9.43719 6.15935C9.73348 6.55106 9.93143 7.00815 10.0144 7.49222C10.0974 7.9763 10.063 8.47322 9.91416 8.94125C9.76528 9.40928 9.50625 9.83475 9.15884 10.1819L6.08962 13.2511C5.51403 13.8267 4.73335 14.1501 3.91934 14.1501C3.10533 14.1501 2.32465 13.8267 1.74906 13.2511C1.17346 12.6755 0.850098 11.8949 0.850098 11.0809C0.850098 10.2668 1.17346 9.48617 1.74906 8.91058L2.94742 7.71222M12.0528 7.28798L13.2511 6.08962C13.8267 5.51403 14.1501 4.73335 14.1501 3.91934C14.1501 3.10533 13.8267 2.32465 13.2511 1.74906C12.6755 1.17346 11.8949 0.850098 11.0809 0.850098C10.2668 0.850098 9.48617 1.17346 8.91058 1.74906L5.84135 4.81828C5.49394 5.16544 5.23492 5.59091 5.08604 6.05894C4.93716 6.52697 4.90278 7.0239 4.98577 7.50797C5.06877 7.99205 5.26672 8.44914 5.563 8.84085C5.85929 9.23255 6.24525 9.54744 6.68846 9.75905" stroke="#D9D9D9" style="stroke:#D9D9D9;stroke:color(display-p3 0.8510 0.8510 0.8510);stroke-opacity:1;" stroke-width="1.58806" stroke-linecap="round" stroke-linejoin="round"/>
</svg>
