<svg width="15" height="15" viewBox="0 0 15 15" fill="none" xmlns="http://www.w3.org/2000/svg">
<path d="M11.2561 1.74355C9.14561 2.58831 6.89267 3.02031 4.61943 3.01614H4.04273C3.02984 3.01467 2.05342 3.39403 1.3072 4.07893C0.560974 4.76383 0.0994895 5.70423 0.0143085 6.71353C-0.0708725 7.72283 0.226475 8.72727 0.847353 9.52755C1.46823 10.3278 2.36726 10.8655 3.36607 11.0338C3.6206 12.0755 3.97545 13.0901 4.42565 14.0634C4.78244 14.8354 5.71285 15.0784 6.41104 14.6754L6.91622 14.384C7.59288 13.9934 7.81203 13.1591 7.50984 12.4863C7.3282 12.0828 7.16704 11.6704 7.02695 11.2506C8.50176 11.449 9.91813 11.8273 11.2561 12.3625C11.8278 10.6508 12.1183 8.85771 12.1165 7.05303C12.1165 5.19683 11.8143 3.41214 11.2561 1.74355ZM12.3164 1.27835C12.9497 3.13769 13.2719 5.08879 13.2699 7.05303C13.272 9.14922 12.905 11.2294 12.1857 13.1983C12.1597 13.2695 12.1479 13.345 12.151 13.4207C12.1542 13.4964 12.1722 13.5708 12.2041 13.6395C12.236 13.7082 12.2811 13.77 12.3368 13.8213C12.3926 13.8726 12.4579 13.9124 12.529 13.9384C12.6002 13.9645 12.6757 13.9763 12.7514 13.9731C12.8271 13.9699 12.9015 13.9519 12.9702 13.92C13.0389 13.8882 13.1007 13.843 13.152 13.7873C13.2033 13.7315 13.2431 13.6662 13.2691 13.5951C13.8521 12.0033 14.2181 10.3403 14.3572 8.65086C14.7702 8.22157 15.0007 7.64878 15 7.05303C15 6.4325 14.7547 5.86887 14.3572 5.45519C14.2172 3.76587 13.8513 2.10297 13.2691 0.510958C13.2431 0.439819 13.2033 0.374508 13.152 0.318754C13.1007 0.263001 13.0389 0.217896 12.9702 0.186015C12.8314 0.121628 12.6727 0.115015 12.529 0.16763C12.3854 0.220245 12.2685 0.327777 12.2041 0.466572C12.1397 0.605367 12.1331 0.764055 12.1857 0.907726C12.2311 1.03076 12.2749 1.15378 12.3164 1.27835Z" fill="#D9D9D9" style="fill:#D9D9D9;fill:color(display-p3 0.8510 0.8510 0.8510);fill-opacity:1;"/>
</svg>
