<svg width="15" height="15" viewBox="0 0 15 15" fill="none" xmlns="http://www.w3.org/2000/svg">
<path fill-rule="evenodd" clip-rule="evenodd" d="M2.37462 14.6863C2.23724 14.6728 2.10047 14.6538 1.96462 14.6294C1.86484 14.6115 1.77154 14.5677 1.6941 14.5022C1.61667 14.4368 1.55783 14.3522 1.52351 14.2568C1.4892 14.1614 1.48062 14.0587 1.49864 13.9589C1.51666 13.8592 1.56064 13.766 1.62615 13.6886C1.94174 13.3166 2.15724 12.8702 2.25231 12.3917C2.27 12.3032 2.23538 12.1478 2.05692 11.974C0.787692 10.7394 0 9.06476 0 7.21092C0 3.34169 3.40615 0.287842 7.5 0.287842C11.5938 0.287842 15 3.34169 15 7.21092C15 11.0801 11.5938 14.134 7.5 14.134C6.85923 14.134 6.23615 14.0594 5.64077 13.9194C4.66757 14.531 3.51832 14.8008 2.37462 14.6863Z" fill="#D9D9D9" style="fill:#D9D9D9;fill:color(display-p3 0.8510 0.8510 0.8510);fill-opacity:1;"/>
</svg>
