<svg width="15" height="15" viewBox="0 0 15 15" fill="none" xmlns="http://www.w3.org/2000/svg">
<path d="M13.7778 4.15032L9.99002 0.480942C9.83323 0.32807 9.64669 0.206848 9.44121 0.124295C9.23573 0.041741 9.01538 -0.000504411 8.79293 4.54453e-06H3.38712C2.68146 0.000501173 2.00485 0.272284 1.50587 0.755668C1.00689 1.23905 0.726343 1.89452 0.72583 2.57813V12.4219C0.726343 13.1055 1.00689 13.761 1.50587 14.2443C2.00485 14.7277 2.68146 14.9995 3.38712 15H11.6129C12.3186 14.9995 12.9952 14.7277 13.4942 14.2443C13.9932 13.761 14.2737 13.1055 14.2742 12.4219V5.31C14.2742 4.87219 14.0981 4.45969 13.7778 4.15032ZM4.35486 4.6875H6.29035C6.48284 4.6875 6.66745 4.76158 6.80357 4.89344C6.93968 5.0253 7.01615 5.20415 7.01615 5.39063C7.01615 5.57711 6.93968 5.75595 6.80357 5.88781C6.66745 6.01967 6.48284 6.09375 6.29035 6.09375H4.35486C4.16237 6.09375 3.97775 6.01967 3.84164 5.88781C3.70552 5.75595 3.62906 5.57711 3.62906 5.39063C3.62906 5.20415 3.70552 5.0253 3.84164 4.89344C3.97775 4.76158 4.16237 4.6875 4.35486 4.6875ZM10.6452 11.7187H4.35486C4.16237 11.7187 3.97775 11.6447 3.84164 11.5128C3.70552 11.3809 3.62906 11.2021 3.62906 11.0156C3.62906 10.8291 3.70552 10.6503 3.84164 10.5184C3.97775 10.3866 4.16237 10.3125 4.35486 10.3125H10.6452C10.8377 10.3125 11.0223 10.3866 11.1584 10.5184C11.2945 10.6503 11.371 10.8291 11.371 11.0156C11.371 11.2021 11.2945 11.3809 11.1584 11.5128C11.0223 11.6447 10.8377 11.7187 10.6452 11.7187ZM10.6452 8.90625H4.35486C4.16237 8.90625 3.97775 8.83217 3.84164 8.70031C3.70552 8.56845 3.62906 8.38961 3.62906 8.20313C3.62906 8.01665 3.70552 7.8378 3.84164 7.70594C3.97775 7.57408 4.16237 7.5 4.35486 7.5H10.6452C10.8377 7.5 11.0223 7.57408 11.1584 7.70594C11.2945 7.8378 11.371 8.01665 11.371 8.20313C11.371 8.38961 11.2945 8.56845 11.1584 8.70031C11.0223 8.83217 10.8377 8.90625 10.6452 8.90625ZM12.7568 5.15625H9.91938C9.38712 5.15625 8.95164 4.73438 8.95164 4.21875V1.48032L8.96422 1.47563L12.7597 5.15156L12.7568 5.15625Z" fill="#D9D9D9" style="fill:#D9D9D9;fill:color(display-p3 0.8510 0.8510 0.8510);fill-opacity:1;"/>
</svg>
