<svg width="15" height="15" viewBox="0 0 15 15" fill="none" xmlns="http://www.w3.org/2000/svg">
<path d="M13.987 4.03866L10.073 0.246973C9.91098 0.089006 9.71823 -0.0362566 9.50589 -0.121562C9.29356 -0.206868 9.06587 -0.250521 8.836 -0.249995H3.25C2.52082 -0.249482 1.82165 0.0313598 1.30604 0.530857C0.790431 1.03035 0.50053 1.70767 0.5 2.41407V12.5859C0.50053 13.2923 0.790431 13.9696 1.30604 14.4691C1.82165 14.9686 2.52082 15.2495 3.25 15.25H11.75C12.4792 15.2495 13.1783 14.9686 13.694 14.4691C14.2096 13.9696 14.4995 13.2923 14.5 12.5859V5.237C14.5 4.7846 14.318 4.35835 13.987 4.03866ZM4.25 4.59375H6.25C6.44891 4.59375 6.63968 4.6703 6.78033 4.80656C6.92098 4.94281 7 5.12762 7 5.32031C7 5.51301 6.92098 5.69781 6.78033 5.83407C6.63968 5.97033 6.44891 6.04688 6.25 6.04688H4.25C4.05109 6.04688 3.86032 5.97033 3.71967 5.83407C3.57902 5.69781 3.5 5.51301 3.5 5.32031C3.5 5.12762 3.57902 4.94281 3.71967 4.80656C3.86032 4.6703 4.05109 4.59375 4.25 4.59375ZM10.75 11.8594H4.25C4.05109 11.8594 3.86032 11.7828 3.71967 11.6466C3.57902 11.5103 3.5 11.3255 3.5 11.1328C3.5 10.9401 3.57902 10.7553 3.71967 10.6191C3.86032 10.4828 4.05109 10.4063 4.25 10.4063H10.75C10.9489 10.4063 11.1397 10.4828 11.2803 10.6191C11.421 10.7553 11.5 10.9401 11.5 11.1328C11.5 11.3255 11.421 11.5103 11.2803 11.6466C11.1397 11.7828 10.9489 11.8594 10.75 11.8594ZM10.75 8.95313H4.25C4.05109 8.95313 3.86032 8.87658 3.71967 8.74032C3.57902 8.60406 3.5 8.41926 3.5 8.22656C3.5 8.03387 3.57902 7.84906 3.71967 7.71281C3.86032 7.57655 4.05109 7.5 4.25 7.5H10.75C10.9489 7.5 11.1397 7.57655 11.2803 7.71281C11.421 7.84906 11.5 8.03387 11.5 8.22656C11.5 8.41926 11.421 8.60406 11.2803 8.74032C11.1397 8.87658 10.9489 8.95313 10.75 8.95313ZM12.932 5.07813H10C9.45 5.07813 9 4.64219 9 4.10938V1.27966L9.013 1.27482L12.935 5.07328L12.932 5.07813Z" fill="#D9D9D9" style="fill:#D9D9D9;fill:color(display-p3 0.8510 0.8510 0.8510);fill-opacity:1;"/>
</svg>
