<svg width="13" height="15" viewBox="0 0 13 15" fill="none" xmlns="http://www.w3.org/2000/svg">
<path fill-rule="evenodd" clip-rule="evenodd" d="M6.50008 1.37722e-06C5.12793 1.37722e-06 3.77435 0.0792878 2.44291 0.233575C1.37361 0.357861 0.607178 1.27644 0.607178 2.32645V14.4644C0.607198 14.552 0.628683 14.6382 0.669752 14.7155C0.710821 14.7929 0.770222 14.859 0.842754 14.908C0.915287 14.9571 0.998739 14.9876 1.08581 14.997C1.17287 15.0063 1.2609 14.9941 1.34218 14.9616L3.82149 13.9701L6.30151 14.9616C6.429 15.0124 6.57116 15.0124 6.69866 14.9616L9.17868 13.9701L11.658 14.9616C11.7393 14.9941 11.8273 15.0063 11.9144 14.997C12.0014 14.9876 12.0849 14.9571 12.1574 14.908C12.2299 14.859 12.2893 14.7929 12.3304 14.7155C12.3715 14.6382 12.393 14.552 12.393 14.4644V2.32645C12.393 1.27644 11.6266 0.357861 10.5573 0.233575C9.2105 0.0776099 7.85585 -0.00037797 6.50008 1.37722e-06ZM5.80722 4.66433C5.85985 4.61528 5.90207 4.55614 5.93135 4.49042C5.96063 4.42471 5.97638 4.35377 5.97764 4.28184C5.97891 4.20991 5.96568 4.13846 5.93874 4.07175C5.91179 4.00504 5.87169 3.94445 5.82082 3.89358C5.76995 3.84271 5.70935 3.8026 5.64265 3.77566C5.57594 3.74872 5.50449 3.73548 5.43256 3.73675C5.36063 3.73802 5.28969 3.75377 5.22397 3.78305C5.15826 3.81233 5.09912 3.85454 5.05007 3.90718L3.44292 5.51433C3.34259 5.61478 3.28624 5.75094 3.28624 5.89291C3.28624 6.03487 3.34259 6.17103 3.44292 6.27148L5.05007 7.87864C5.09912 7.93127 5.15826 7.97349 5.22397 8.00277C5.28969 8.03205 5.36063 8.04779 5.43256 8.04906C5.50449 8.05033 5.57594 8.0371 5.64265 8.01016C5.70935 7.98321 5.76995 7.94311 5.82082 7.89224C5.87169 7.84137 5.91179 7.78077 5.93874 7.71406C5.96568 7.64736 5.97891 7.57591 5.97764 7.50398C5.97638 7.43204 5.96063 7.36111 5.93135 7.29539C5.90207 7.22968 5.85985 7.17053 5.80722 7.12149L5.11436 6.42863H7.30366C7.65886 6.42863 7.99952 6.56973 8.25069 6.8209C8.50185 7.07206 8.64296 7.41272 8.64296 7.76792C8.64296 8.12313 8.50185 8.46378 8.25069 8.71495C7.99952 8.96612 7.65886 9.10722 7.30366 9.10722H6.50008C6.358 9.10722 6.22174 9.16366 6.12127 9.26413C6.02081 9.3646 5.96436 9.50086 5.96436 9.64294C5.96436 9.78502 6.02081 9.92128 6.12127 10.0217C6.22174 10.1222 6.358 10.1787 6.50008 10.1787H7.30366C7.62024 10.1787 7.93373 10.1163 8.22621 9.99515C8.51869 9.874 8.78445 9.69643 9.00831 9.47257C9.23216 9.24871 9.40974 8.98295 9.53089 8.69047C9.65204 8.39799 9.7144 8.08451 9.7144 7.76792C9.7144 7.45134 9.65204 7.13786 9.53089 6.84538C9.40974 6.55289 9.23216 6.28713 9.00831 6.06328C8.78445 5.83942 8.51869 5.66185 8.22621 5.54069C7.93373 5.41954 7.62024 5.35719 7.30366 5.35719H5.11507L5.80793 4.66433H5.80722Z" fill="#D9D9D9" style="fill:#D9D9D9;fill:color(display-p3 0.8510 0.8510 0.8510);fill-opacity:1;"/>
</svg>
