<svg width="15" height="15" viewBox="0 0 15 15" fill="none" xmlns="http://www.w3.org/2000/svg">
<path d="M10.8896 0.135742C10.9567 0.124992 11.027 0.125225 11.0957 0.160156C11.1651 0.195536 11.2057 0.252344 11.2344 0.313477C11.2612 0.370697 11.2842 0.444779 11.3096 0.527344L12.5527 4.57031C12.5759 4.6455 12.5971 4.7141 12.6064 4.77148C12.6164 4.83257 12.616 4.89905 12.5801 4.96387C12.5446 5.02774 12.489 5.06411 12.4326 5.08984C12.3787 5.11444 12.3082 5.13567 12.2295 5.16016V5.16113L8.07422 6.45312C7.98799 6.47994 7.91211 6.50357 7.84863 6.51465C7.78171 6.52628 7.71072 6.52721 7.6416 6.49316C7.57183 6.4587 7.53056 6.40155 7.50098 6.34082C7.47335 6.28396 7.44942 6.21011 7.42285 6.12793L7.13379 5.23145C7.10944 5.15613 7.08637 5.0878 7.07617 5.03027C7.06534 4.969 7.0651 4.90154 7.10059 4.83594C7.1356 4.77139 7.19159 4.73422 7.24805 4.70801C7.30202 4.68297 7.37228 4.66084 7.45117 4.63574L8.69824 4.23828C8.0343 4.05967 7.33611 4.01623 6.65234 4.12109C5.63888 4.27659 4.71692 4.74256 4.03125 5.44531C3.34578 6.14789 2.93463 7.04756 2.85938 8.00293C2.78414 8.95836 3.04961 9.91772 3.61621 10.7314C4.18293 11.5454 5.01866 12.1679 5.99414 12.499C6.96952 12.8302 8.02785 12.8512 9.00293 12.5596C9.97789 12.268 10.8137 11.6802 11.3809 10.8906C11.8782 10.198 12.145 9.38326 12.1533 8.54688C12.1542 8.46091 12.1549 8.38448 12.1631 8.32422C12.1716 8.26215 12.1907 8.19603 12.2441 8.14355C12.2958 8.09306 12.3603 8.0727 12.4219 8.0625C12.4817 8.0526 12.5571 8.04908 12.6436 8.04492L13.8564 7.9873C13.9452 7.98303 14.0242 7.97899 14.0879 7.98438C14.155 7.9901 14.2226 8.00696 14.2803 8.05762C14.3384 8.10863 14.3627 8.17261 14.374 8.23828C14.3843 8.29796 14.3855 8.37117 14.3867 8.4502C14.407 9.75026 14.0083 11.0213 13.2383 12.0938C12.3951 13.268 11.1549 14.1383 9.71387 14.5693C8.27301 15.0003 6.7107 14.968 5.27148 14.4795C3.83235 13.9908 2.59499 13.0728 1.75488 11.8662C0.914617 10.6594 0.518756 9.23227 0.630859 7.80859C0.743001 6.38486 1.35696 5.04637 2.375 4.00293C3.39293 2.95965 4.75767 2.27059 6.25391 2.04102C7.46593 1.85509 8.71022 1.97857 9.8584 2.39258L9.45508 1.04297C9.43238 0.967218 9.41126 0.89854 9.40234 0.84082C9.39284 0.779312 9.39375 0.712265 9.43066 0.647461C9.46704 0.583679 9.52403 0.547565 9.58105 0.522461C9.63558 0.498522 9.7067 0.477651 9.78613 0.454102L10.6621 0.194336C10.7491 0.168546 10.8258 0.145989 10.8896 0.135742Z" fill="#D9D9D9" stroke="#D9D9D9" style="fill:#D9D9D9;fill:color(display-p3 0.8510 0.8510 0.8510);fill-opacity:1;stroke:#D9D9D9;stroke:color(display-p3 0.8510 0.8510 0.8510);stroke-opacity:1;" stroke-width="0.241667"/>
</svg>
