<svg width="15" height="15" viewBox="0 0 15 15" fill="none" xmlns="http://www.w3.org/2000/svg">
<path d="M10.7007 2.67891C9.32415 1.98966 7.75177 1.74249 6.22958 1.97605C4.70739 2.2096 3.32124 2.91072 2.28797 3.96972C1.25469 5.02874 0.632567 6.38589 0.518904 7.82893C0.405241 9.27196 0.806454 10.7194 1.65979 11.945C2.51312 13.1706 3.77042 14.105 5.23505 14.6023C6.69968 15.0994 8.289 15.1314 9.75443 14.6931C11.2198 14.2547 12.4787 13.3708 13.3341 12.1795C14.1154 11.0916 14.5198 9.80334 14.4993 8.48539C14.4966 8.3131 14.4953 8.22695 14.4315 8.17094C14.3677 8.11491 14.2722 8.1195 14.0813 8.12868L12.827 8.189C12.6417 8.19792 12.5492 8.20237 12.4954 8.25485C12.4417 8.30734 12.4408 8.39965 12.4389 8.58425C12.43 9.47547 12.1458 10.3429 11.6165 11.0801C11.0129 11.9206 10.1247 12.5443 9.0907 12.8536C8.05672 13.1629 6.9353 13.1404 5.90188 12.7895C4.86844 12.4387 3.98129 11.7794 3.3792 10.9146C2.77709 10.0499 2.494 9.02855 2.57419 8.01036C2.65439 6.99217 3.09337 6.03457 3.82244 5.28735C4.55151 4.54011 5.52956 4.04541 6.60361 3.88062C7.67765 3.71582 8.7871 3.89022 9.75842 4.37654L10.7007 2.67891Z" fill="#D9D9D9" style="fill:#D9D9D9;fill:color(display-p3 0.8510 0.8510 0.8510);fill-opacity:1;"/>
<path d="M10.5135 3.69366L7.48766 4.65622C7.31757 4.71033 7.23252 4.73738 7.19658 4.80384C7.16062 4.8703 7.18696 4.95177 7.23963 5.11471L7.53945 6.04215C7.59686 6.2197 7.62556 6.30849 7.70209 6.34618C7.77862 6.38388 7.87152 6.35498 8.05731 6.29721L12.3554 4.96062C12.5248 4.90793 12.6095 4.88158 12.6459 4.81583C12.6824 4.75006 12.6574 4.66879 12.6075 4.50628L11.3211 0.323955C11.2662 0.145765 11.2388 0.0566695 11.1629 0.018007C11.0869 -0.0206565 10.9935 0.0070122 10.8069 0.0623507L9.90001 0.331229C9.72871 0.382015 9.64305 0.407413 9.60564 0.473137C9.56821 0.53885 9.59276 0.620782 9.64186 0.784625L10.5135 3.69366Z" fill="#D9D9D9" style="fill:#D9D9D9;fill:color(display-p3 0.8510 0.8510 0.8510);fill-opacity:1;"/>
<path d="M10.4597 4.58164L11.2205 3.21096L9.56213 2.38063L8.8013 3.7513L10.4597 4.58164Z" fill="#D9D9D9" style="fill:#D9D9D9;fill:color(display-p3 0.8510 0.8510 0.8510);fill-opacity:1;"/>
</svg>
