<svg width="15" height="15" viewBox="0 0 15 15" fill="none" xmlns="http://www.w3.org/2000/svg">
<path d="M7.49951 0.000488281C11.6416 0.000488281 14.9993 3.35771 14.9995 7.49951C14.9995 11.6415 11.6417 14.9995 7.49951 14.9995C3.35745 14.9994 0.000488281 11.6414 0.000488281 7.49951C0.000670667 3.3578 3.35756 0.000633853 7.49951 0.000488281ZM6.63428 3.46143C6.1372 3.46155 5.64722 3.57897 5.20361 3.80322C4.75989 4.02758 4.3744 4.35304 4.07959 4.75342C3.78491 5.15369 3.58886 5.61777 3.50635 6.10791C3.42387 6.5981 3.45752 7.10098 3.60498 7.57568C3.75253 8.05048 4.01009 8.48411 4.35596 8.84131C4.7018 9.19845 5.12643 9.46955 5.59619 9.63232C6.06596 9.7951 6.56737 9.8454 7.06006 9.77881C7.5528 9.71219 8.02339 9.53024 8.43311 9.24854L9.97705 10.7915C10.0298 10.8481 10.093 10.8938 10.1636 10.9253C10.2342 10.9568 10.3108 10.9737 10.3882 10.9751C10.4656 10.9765 10.5429 10.9621 10.6147 10.9331C10.6865 10.9041 10.7514 10.8609 10.8062 10.8062C10.8609 10.7514 10.9051 10.6866 10.9341 10.6147C10.9631 10.5429 10.9765 10.4656 10.9751 10.3882C10.9737 10.3108 10.9568 10.2343 10.9253 10.1636C10.8938 10.093 10.8491 10.0288 10.7925 9.97607L9.24854 8.43311C9.57621 7.95683 9.76795 7.39983 9.80225 6.82275C9.83647 6.24552 9.71204 5.6695 9.44287 5.15771C9.1737 4.64597 8.7699 4.21734 8.2749 3.91846C7.7799 3.6196 7.21251 3.46135 6.63428 3.46143ZM6.63428 4.61572C6.89933 4.61572 7.16185 4.66766 7.40674 4.76904C7.65163 4.87048 7.87455 5.01915 8.06201 5.20654C8.24948 5.394 8.39804 5.6169 8.49951 5.86182C8.60096 6.10671 8.65378 6.36921 8.65381 6.63428C8.65381 7.16975 8.44066 7.68337 8.06201 8.06201C7.68334 8.44066 7.1698 8.65381 6.63428 8.65381C6.09879 8.65379 5.58519 8.44064 5.20654 8.06201C4.82794 7.68338 4.61475 7.16971 4.61475 6.63428C4.61478 6.36921 4.6676 6.10671 4.76904 5.86182C4.87052 5.61688 5.01906 5.39401 5.20654 5.20654C5.39402 5.01911 5.61689 4.87049 5.86182 4.76904C6.10672 4.66763 6.3692 4.61573 6.63428 4.61572Z" fill="#D9D9D9" style="fill:#D9D9D9;fill:color(display-p3 0.8510 0.8510 0.8510);fill-opacity:1;"/>
</svg>
