<svg width="15" height="15" viewBox="0 0 15 15" fill="none" xmlns="http://www.w3.org/2000/svg">
<path d="M12.9671 1.6629L8.00386 0.0785059C7.67613 -0.0261686 7.32382 -0.0261686 6.99609 0.0785059L2.03191 1.6629C1.69763 1.76898 1.40596 1.97859 1.19923 2.2613C0.99251 2.54401 0.881502 2.8851 0.882329 3.23503V9.38398C0.882329 12.6914 5.55722 14.4578 6.99042 14.9199C7.32137 15.0267 7.67763 15.0267 8.00859 14.9199C9.44273 14.4578 14.1176 12.6905 14.1176 9.38398V3.23503C14.1176 2.51451 13.6553 1.88264 12.9671 1.6629ZM12.6996 9.38398C12.6996 11.7983 8.42833 13.2978 7.57182 13.5732C7.54724 13.5807 7.52361 13.5732 7.49997 13.5732V1.41487C7.52361 1.41487 7.54819 1.41864 7.57182 1.42618L12.5341 3.01057C12.582 3.0256 12.6239 3.05546 12.6536 3.09582C12.6834 3.13618 12.6995 3.18494 12.6996 3.23503V9.38398Z" fill="#D9D9D9" style="fill:#D9D9D9;fill:color(display-p3 0.8510 0.8510 0.8510);fill-opacity:1;"/>
</svg>
