<svg width="15" height="15" viewBox="0 0 15 15" fill="none" xmlns="http://www.w3.org/2000/svg">
<path d="M3.89626 14.4838C3.76462 14.4838 3.63563 14.4468 3.52408 14.3769C2.44316 13.7049 1.55198 12.7678 0.935189 11.6545C0.3184 10.5412 -0.00351288 9.2887 2.89128e-05 8.01596C2.89128e-05 3.88067 3.3647 0.515991 7.5 0.515991C11.6353 0.515991 15 3.88067 15 8.01596C15.0035 9.2887 14.6816 10.5412 14.0648 11.6545C13.448 12.7678 12.5568 13.7049 11.4759 14.3769C11.3178 14.4758 11.1268 14.5079 10.945 14.4661C10.7632 14.4242 10.6055 14.3119 10.5066 14.1538C10.4076 13.9956 10.3755 13.8046 10.4173 13.6229C10.4592 13.4411 10.5715 13.2833 10.7297 13.1844C11.6081 12.6385 12.3323 11.8771 12.8336 10.9725C13.3349 10.0679 13.5965 9.05016 13.5937 8.01596C13.5937 4.65598 10.86 1.92224 7.5 1.92224C5.88445 1.92422 4.33564 2.56687 3.19328 3.70924C2.05091 4.8516 1.40826 6.40041 1.40627 8.01596C1.40345 9.05016 1.66511 10.0679 2.16639 10.9725C2.66767 11.8771 3.39192 12.6385 4.27033 13.1844C4.3999 13.2654 4.49956 13.3863 4.55424 13.529C4.60892 13.6717 4.61563 13.8283 4.57336 13.9751C4.53109 14.122 4.44214 14.251 4.31997 14.3428C4.1978 14.4346 4.04906 14.4841 3.89626 14.4838Z" fill="#D9D9D9" style="fill:#D9D9D9;fill:color(display-p3 0.8510 0.8510 0.8510);fill-opacity:1;"/>
<path d="M9.61217 12.0978C9.45901 12.0989 9.30972 12.0498 9.18705 11.9581C9.06437 11.8664 8.97504 11.7371 8.93267 11.5899C8.8903 11.4427 8.89721 11.2858 8.95236 11.1429C9.0075 11 9.10785 10.879 9.23811 10.7985C9.7112 10.5045 10.1013 10.0944 10.3714 9.60729C10.6414 9.12014 10.7825 8.57205 10.7812 8.01505C10.7812 6.20568 9.30936 4.73381 7.49999 4.73381C5.69062 4.73381 4.21875 6.20568 4.21875 8.01505C4.21875 9.15223 4.79531 10.1929 5.76187 10.7985C5.91988 10.8976 6.03206 11.0554 6.07373 11.2371C6.11539 11.4189 6.08314 11.6098 5.98406 11.7678C5.88497 11.9259 5.72718 12.038 5.54539 12.0797C5.3636 12.1214 5.1727 12.0891 5.01469 11.99C4.33927 11.5701 3.78241 10.9844 3.39699 10.2887C3.01156 9.59305 2.81037 8.81037 2.81251 8.01505C2.81251 5.43037 4.91531 3.32756 7.49999 3.32756C10.0847 3.32756 12.1875 5.43037 12.1875 8.01505C12.1896 8.81037 11.9884 9.59305 11.603 10.2887C11.2176 10.9844 10.6607 11.5701 9.98529 11.99C9.87342 12.0601 9.74417 12.0975 9.61217 12.0978Z" fill="#D9D9D9" style="fill:#D9D9D9;fill:color(display-p3 0.8510 0.8510 0.8510);fill-opacity:1;"/>
<path d="M7.49997 9.89095C7.99725 9.89095 8.47416 9.69341 8.82579 9.34178C9.17742 8.99015 9.37496 8.51324 9.37496 8.01596C9.37496 7.51868 9.17742 7.04177 8.82579 6.69014C8.47416 6.33851 7.99725 6.14097 7.49997 6.14097C7.00269 6.14097 6.52578 6.33851 6.17415 6.69014C5.82252 7.04177 5.62498 7.51868 5.62498 8.01596C5.62498 8.51324 5.82252 8.99015 6.17415 9.34178C6.52578 9.69341 7.00269 9.89095 7.49997 9.89095Z" fill="#D9D9D9" style="fill:#D9D9D9;fill:color(display-p3 0.8510 0.8510 0.8510);fill-opacity:1;"/>
</svg>
