<svg width="15" height="15" viewBox="0 0 15 15" fill="none" xmlns="http://www.w3.org/2000/svg">
<path d="M12.4218 3.28222H5.85914C5.17551 3.28271 4.52003 3.55447 4.03663 4.03782C3.55324 4.52116 3.28145 5.17658 3.28095 5.86013V12.4221C3.28145 13.1056 3.55324 13.7611 4.03663 14.2444C4.52003 14.7277 5.17551 14.9995 5.85914 15H12.4218C13.1054 14.9995 13.7609 14.7277 14.2443 14.2444C14.7277 13.7611 14.9995 13.1056 15 12.4221V5.86013C14.9995 5.17658 14.7277 4.52116 14.2443 4.03782C13.7609 3.55447 13.1054 3.28271 12.4218 3.28222Z" fill="#D9D9D9" style="fill:#D9D9D9;fill:color(display-p3 0.8510 0.8510 0.8510);fill-opacity:1;"/>
<path d="M1.68716 11.0141C1.51885 11.0137 1.35627 10.9529 1.22897 10.8428C1.10166 10.7327 1.01807 10.5806 0.99339 10.4141L0.02774 3.92341C-0.0721885 3.24728 0.100202 2.55913 0.507089 2.00994C0.913976 1.46074 1.52213 1.09536 2.19811 0.993967L8.69046 0.0293587C9.26305 -0.057997 9.84835 0.050915 10.3512 0.338381C10.854 0.625847 11.2448 1.07496 11.4599 1.61267C11.5216 1.78378 11.5146 1.97213 11.4403 2.13817C11.366 2.30421 11.2303 2.435 11.0616 2.50308C10.8929 2.57115 10.7044 2.57121 10.5357 2.50324C10.3669 2.43526 10.2311 2.30455 10.1567 2.13856C10.0585 1.89424 9.88062 1.69028 9.65189 1.55977C9.42317 1.42925 9.15705 1.37984 8.89672 1.41956L2.40624 2.3851C2.09901 2.43118 1.82257 2.59717 1.63752 2.84669C1.45247 3.09621 1.3739 3.4089 1.41903 3.71624L2.38468 10.207C2.39951 10.307 2.39259 10.4091 2.36437 10.5062C2.33616 10.6033 2.28733 10.6932 2.22121 10.7697C2.15509 10.8462 2.07323 10.9076 1.98123 10.9496C1.88922 10.9916 1.78924 11.0133 1.6881 11.0131V11.0141H1.68716Z" fill="#D9D9D9" style="fill:#D9D9D9;fill:color(display-p3 0.8510 0.8510 0.8510);fill-opacity:1;"/>
</svg>
