<svg width="15" height="15" viewBox="0 0 15 15" fill="none" xmlns="http://www.w3.org/2000/svg">
<path fill-rule="evenodd" clip-rule="evenodd" d="M6.18975 2.62086C6.59494 2.62202 6.98359 2.78283 7.27068 3.06876L12.3315 8.12962C12.7858 8.58303 13.0354 9.18612 13.0354 9.82823C13.0354 10.4703 12.7858 11.0734 12.3315 11.5268L9.56052 14.2979C9.33767 14.521 9.0722 14.6977 8.78075 14.8183C8.48939 14.9387 8.17719 15.0006 7.86191 15C7.54663 15.0006 7.23443 14.9387 6.94307 14.8183C6.65162 14.6977 6.38615 14.521 6.1633 14.2979L1.10244 9.237C0.813291 8.94871 0.654541 8.56403 0.654541 8.15607V3.27608C0.654541 3.1023 0.723622 2.9357 0.846499 2.81282C0.969375 2.68994 1.13598 2.62086 1.30976 2.62086H6.18975ZM4.36743 5.24172C3.7655 5.24172 3.2754 5.73182 3.2754 6.33375C3.2754 6.93567 3.7655 7.42578 4.36743 7.42578C4.96935 7.42578 5.45945 6.93567 5.45945 6.33375C5.45945 5.73182 4.96935 5.24172 4.36743 5.24172Z" fill="#D9D9D9" style="fill:#D9D9D9;fill:color(display-p3 0.8510 0.8510 0.8510);fill-opacity:1;"/>
<path d="M7.50018 0C7.9029 0 8.29631 0.163118 8.58111 0.447901L13.642 5.50876C14.1407 6.0084 14.3948 6.69873 14.3373 7.40189C14.3243 7.56581 14.2499 7.71945 14.1291 7.83102C14.0083 7.94249 13.8498 8.00428 13.6855 8.00421C13.6671 8.00421 13.6492 8.0051 13.6309 8.00335C13.4578 7.98923 13.2971 7.90698 13.1847 7.77471C13.0722 7.64235 13.0171 7.4701 13.0311 7.29695C13.0437 7.13918 13.0217 6.98056 12.9671 6.83199C12.9125 6.68332 12.8264 6.54831 12.7146 6.43613L7.6546 1.37442C7.6133 1.3339 7.55803 1.3108 7.50018 1.31043H3.23786C3.1863 1.45609 3.0845 1.57865 2.95121 1.65681C2.81796 1.73487 2.66149 1.76397 2.50928 1.73786C2.35706 1.71173 2.21899 1.63237 2.11939 1.51433C2.01977 1.39622 1.96503 1.24654 1.96497 1.09203V0.655215C1.96497 0.481441 2.03405 0.314834 2.15693 0.191958C2.27981 0.0690809 2.44641 0 2.62019 0H7.50018Z" fill="#D9D9D9" style="fill:#D9D9D9;fill:color(display-p3 0.8510 0.8510 0.8510);fill-opacity:1;"/>
</svg>
