<svg width="15" height="15" viewBox="0 0 15 15" fill="none" xmlns="http://www.w3.org/2000/svg">
<path d="M14.8047 9.70803C14.3877 8.87145 13.7452 8.16809 12.9496 7.67732C12.1541 7.18656 11.2372 6.92793 10.3024 6.93064C10.0436 6.93064 9.79212 6.95889 9.53971 6.98805C9.17392 7.03689 8.81379 7.12143 8.46448 7.24046C9.81306 7.91526 10.9088 9.00594 11.59 10.3514C11.9636 11.0904 12.0273 11.9369 11.8114 12.7333C12.0018 12.7132 12.1731 12.6886 12.308 12.6576C12.9249 12.5137 13.3905 12.3943 13.8079 12.2458C14.047 12.1597 14.2651 12.0238 14.4478 11.847C14.6305 11.6703 14.7736 11.4568 14.8676 11.2207C14.9648 10.9783 15.0094 10.718 14.9984 10.457C14.9874 10.1961 14.9211 9.94049 14.8038 9.70712L14.8047 9.70803ZM10.3717 10.9692C9.89941 10.0271 9.17383 9.23539 8.27645 8.68295C7.37906 8.13051 6.34541 7.83924 5.29162 7.84186C4.23783 7.83924 3.20418 8.13051 2.30679 8.68295C1.4094 9.23539 0.683832 10.0271 0.211584 10.9692C0.0841393 11.2224 0.0124973 11.5 0.00149375 11.7832C-0.00950983 12.0665 0.0403809 12.3488 0.147799 12.6112C0.258234 12.8844 0.425885 13.1309 0.639481 13.3339C0.853077 13.537 1.10767 13.692 1.38614 13.7885C3.91559 14.6675 6.66765 14.6675 9.1971 13.7885C9.47518 13.6916 9.72936 13.5365 9.94262 13.3335C10.1559 13.1304 10.3233 12.8842 10.4336 12.6112C10.541 12.3489 10.5911 12.0667 10.5804 11.7835C10.5697 11.5002 10.4985 11.2226 10.3717 10.9692ZM10.3033 0.552124C9.77936 0.552124 9.29368 0.707942 8.87726 0.963994C9.50194 1.75538 9.84359 2.73317 9.84771 3.74138C9.84771 4.49769 9.64542 5.20024 9.31738 5.82807C9.62446 5.94744 9.95432 6.01943 10.3033 6.01943C11.8105 6.01943 13.037 4.79293 13.037 3.28578C13.037 1.77862 11.8105 0.552124 10.3033 0.552124ZM5.29162 6.93064C5.71044 6.93064 6.12516 6.84815 6.5121 6.68788C6.89904 6.5276 7.25062 6.29268 7.54677 5.99653C7.84292 5.70038 8.07784 5.3488 8.23811 4.96186C8.39839 4.57492 8.48088 4.1602 8.48088 3.74138C8.48088 3.32256 8.39839 2.90785 8.23811 2.52091C8.07784 2.13397 7.84292 1.78239 7.54677 1.48624C7.25062 1.19009 6.89904 0.955167 6.5121 0.794892C6.12516 0.634617 5.71044 0.552124 5.29162 0.552124C4.44578 0.552124 3.63457 0.888134 3.03647 1.48624C2.43837 2.08434 2.10236 2.89554 2.10236 3.74138C2.10236 4.58723 2.43837 5.39843 3.03647 5.99653C3.63457 6.59463 4.44578 6.93064 5.29162 6.93064Z" fill="#D9D9D9" style="fill:#D9D9D9;fill:color(display-p3 0.8510 0.8510 0.8510);fill-opacity:1;"/>
</svg>
