<svg width="13" height="15" viewBox="0 0 13 15" fill="none" xmlns="http://www.w3.org/2000/svg">
<path d="M6.50096 6.56282C6.93188 6.56282 7.35858 6.47794 7.7567 6.31304C8.15482 6.14813 8.51656 5.90642 8.82126 5.60172C9.12597 5.29701 9.36768 4.93527 9.53258 4.53715C9.69749 4.13903 9.78237 3.71233 9.78237 3.28141C9.78237 2.85049 9.69749 2.42379 9.53258 2.02567C9.36768 1.62755 9.12597 1.26581 8.82126 0.961103C8.51656 0.656396 8.15482 0.414689 7.7567 0.249782C7.35858 0.0848761 6.93188 -6.42122e-09 6.50096 0C5.63067 1.29682e-08 4.79603 0.345719 4.18065 0.961103C3.56527 1.57649 3.21955 2.41113 3.21955 3.28141C3.21955 4.15169 3.56527 4.98633 4.18065 5.60172C4.79603 6.2171 5.63067 6.56282 6.50096 6.56282ZM6.50096 7.50037C5.23076 7.50171 3.98823 7.87152 2.92402 8.56496C1.85981 9.2584 1.01963 10.2457 0.505352 11.4071C0.386269 11.6768 0.325388 11.9686 0.32668 12.2634C0.327973 12.5583 0.39141 12.8495 0.512852 13.1181C0.637718 13.393 0.819038 13.6384 1.04502 13.8386C1.271 14.0387 1.53658 14.189 1.82448 14.2798C4.86754 15.2401 8.1325 15.2401 11.1756 14.2798C11.4635 14.1891 11.7291 14.0388 11.9551 13.8387C12.1811 13.6386 12.3624 13.393 12.4872 13.1181C12.7328 12.5744 12.7356 11.9509 12.4947 11.4071C11.9804 10.2457 11.1402 9.2584 10.076 8.56496C9.01181 7.87152 7.76928 7.50171 6.49908 7.50037H6.50096Z" fill="#D9D9D9" style="fill:#D9D9D9;fill:color(display-p3 0.8510 0.8510 0.8510);fill-opacity:1;"/>
</svg>
