<svg width="36" height="22" viewBox="0 0 36 22" fill="none" xmlns="http://www.w3.org/2000/svg">
<path d="M31.251 0C33.5979 7.67483e-05 35.5009 1.90308 35.501 4.25V17.751C35.5008 20.0978 33.5978 21.9999 31.251 22H4.25C1.90314 21.9999 0.000178021 20.0978 0 17.751V4.25C8.37888e-05 1.90308 1.90308 8.39978e-05 4.25 0H31.251ZM4.25 1.75C2.86907 1.75008 1.75008 2.86907 1.75 4.25V17.751C1.75018 19.1318 2.86913 20.2509 4.25 20.251H31.251C32.6319 20.2509 33.7518 19.1318 33.752 17.751V4.25C33.7519 2.86906 32.6319 1.75008 31.251 1.75H4.25ZM12.416 6.97949C12.8364 6.97949 13.2275 7.0383 13.5889 7.15625C13.9503 7.27425 14.2729 7.44714 14.5557 7.67578C14.8383 7.90197 15.071 8.18032 15.2529 8.50977C15.4372 8.83668 15.5577 9.21059 15.6143 9.63086H14.2344C14.1951 9.40466 14.1223 9.20386 14.0166 9.0293C13.9109 8.85243 13.7793 8.70294 13.6221 8.58008C13.4646 8.45716 13.2856 8.36419 13.084 8.30273C12.8848 8.23884 12.6696 8.20703 12.4385 8.20703C12.028 8.20705 11.6638 8.3101 11.3467 8.5166C11.0296 8.72067 10.782 9.0212 10.6025 9.41699C10.4231 9.8103 10.333 10.2906 10.333 10.8584C10.333 11.4362 10.423 11.9235 10.6025 12.3193C10.7845 12.7125 11.0321 13.0103 11.3467 13.2119C11.6637 13.4109 12.0266 13.5107 12.4346 13.5107C12.6608 13.5107 12.8726 13.4809 13.0693 13.4219C13.2683 13.3604 13.4462 13.2703 13.6035 13.1523C13.7632 13.0344 13.8977 12.8897 14.0059 12.7178C14.1165 12.5457 14.1926 12.3483 14.2344 12.127L15.6143 12.1348C15.5626 12.4938 15.4504 12.8308 15.2783 13.1455C15.1087 13.4602 14.8856 13.7376 14.6104 13.9785C14.335 14.2169 14.0132 14.4039 13.6445 14.5391C13.2758 14.6718 12.866 14.7383 12.416 14.7383C11.7524 14.7382 11.1598 14.5847 10.6387 14.2773C10.1176 13.9701 9.70712 13.5263 9.40723 12.9463C9.10727 12.3661 8.95703 11.6698 8.95703 10.8584C8.95707 10.0448 9.10876 9.34919 9.41113 8.77148C9.71353 8.19129 10.1253 7.74775 10.6465 7.44043C11.1676 7.13317 11.7574 6.97956 12.416 6.97949ZM18.3115 8.9707H19.4287V10.0029H18.3115V12.9316C18.3116 13.1109 18.3385 13.2489 18.3926 13.3447C18.4491 13.4379 18.5226 13.5017 18.6133 13.5361C18.7042 13.5705 18.8054 13.5879 18.916 13.5879C18.9995 13.5879 19.0757 13.5817 19.1445 13.5693C19.2156 13.5571 19.2698 13.5459 19.3066 13.5361L19.5322 14.5801C19.461 14.6047 19.3583 14.6315 19.2256 14.6611C19.0953 14.6906 18.9352 14.7079 18.7461 14.7129C18.4119 14.7226 18.1106 14.6721 17.8428 14.5615C17.5749 14.4485 17.3625 14.2739 17.2051 14.0381C17.0502 13.802 16.9741 13.5065 16.9766 13.1523V10.0029H16.1719V8.9707H16.9766V7.61328H18.3115V8.9707ZM23.3359 8.90039C23.4293 8.90531 23.5069 8.91349 23.5684 8.92578V10.1543C23.5118 10.1346 23.4218 10.1173 23.2988 10.1025C23.1784 10.0853 23.0613 10.0771 22.9482 10.0771C22.705 10.0772 22.4861 10.1297 22.292 10.2354C22.1003 10.3386 21.9494 10.4826 21.8389 10.667C21.7283 10.8513 21.6729 11.0639 21.6729 11.3047V14.6348H20.3379V8.9707H21.6318V9.91504H21.6914C21.7947 9.58807 21.9709 9.33523 22.2217 9.1582C22.475 8.97873 22.7643 8.88965 23.0889 8.88965C23.1627 8.88965 23.245 8.89302 23.3359 8.90039ZM25.582 14.6348H24.2471V7.08203H25.582V14.6348Z" fill="#2E2E2E" style="fill:#2E2E2E;fill:color(display-p3 0.1800 0.1800 0.1800);fill-opacity:1;"/>
</svg>
