<svg width="25" height="22" viewBox="0 0 25 22" fill="none" xmlns="http://www.w3.org/2000/svg">
<path d="M20.4062 0C22.7201 0.000387669 24.5964 1.87655 24.5967 4.19043V17.8096C24.5965 20.1235 22.7201 21.9996 20.4062 22H4.69141C2.37743 21.9998 0.501201 20.1235 0.500977 17.8096V4.19043C0.50121 1.87646 2.37743 0.000233149 4.69141 0H20.4062ZM4.69141 1.57227C3.2453 1.5725 2.07348 2.74433 2.07324 4.19043V17.8096C2.07347 19.2557 3.2453 20.4285 4.69141 20.4287H20.4062C21.8522 20.4283 23.0252 19.2556 23.0254 17.8096V4.19043C23.0252 2.74442 21.8522 1.57265 20.4062 1.57227H4.69141ZM11.0137 10.5479H11.1064L14.0791 7.04785H15.7646L12.8174 10.4668L15.79 14.667H14.1309L11.8584 11.4004L11.0137 12.3975V14.667H9.63379V7.04785H11.0137V10.5479Z" fill="#2E2E2E" style="fill:#2E2E2E;fill:color(display-p3 0.1800 0.1800 0.1800);fill-opacity:1;"/>
</svg>
