<svg width="24" height="24" viewBox="0 0 24 24" fill="none" xmlns="http://www.w3.org/2000/svg">
<g filter="url(#filter0_d_19_1831)">
<path fill-rule="evenodd" clip-rule="evenodd" d="M9.75013 4.17338C9.83319 4.25641 9.8897 4.36225 9.91249 4.47746C9.93528 4.59267 9.92332 4.71205 9.87813 4.82045C9.51692 5.68732 9.33162 6.61734 9.33298 7.55645C9.33298 9.4423 10.0821 11.2509 11.4156 12.5844C12.7491 13.9179 14.5578 14.667 16.4436 14.667C17.3827 14.6684 18.3128 14.4831 19.1796 14.1219C19.2879 14.0768 19.4072 14.0649 19.5223 14.0876C19.6375 14.1104 19.7432 14.1668 19.8262 14.2497C19.9092 14.3326 19.9658 14.4383 19.9886 14.5534C20.0115 14.6685 19.9997 14.7878 19.9547 14.8962C19.3242 16.4078 18.2606 17.699 16.8977 18.6072C15.5347 19.5154 13.9335 20.0001 12.2957 20C7.71412 20 4 16.2867 4 11.7043C4 8.25329 6.10712 5.29528 9.10386 4.04539C9.21215 4.00037 9.33138 3.98851 9.44642 4.01129C9.56147 4.03407 9.66717 4.09049 9.75013 4.17338Z" fill="url(#paint0_linear_19_1831)" style=""/>
</g>
<defs>
<filter id="filter0_d_19_1831" x="0" y="0" width="24" height="24" filterUnits="userSpaceOnUse" color-interpolation-filters="sRGB">
<feFlood flood-opacity="0" result="BackgroundImageFix"/>
<feColorMatrix in="SourceAlpha" type="matrix" values="0 0 0 0 0 0 0 0 0 0 0 0 0 0 0 0 0 0 127 0" result="hardAlpha"/>
<feOffset/>
<feGaussianBlur stdDeviation="2"/>
<feComposite in2="hardAlpha" operator="out"/>
<feColorMatrix type="matrix" values="0 0 0 0 0 0 0 0 0 0 0 0 0 0 0 0 0 0 0.45 0"/>
<feBlend mode="normal" in2="BackgroundImageFix" result="effect1_dropShadow_19_1831"/>
<feBlend mode="normal" in="SourceGraphic" in2="effect1_dropShadow_19_1831" result="shape"/>
</filter>
<linearGradient id="paint0_linear_19_1831" x1="12" y1="4" x2="12" y2="20" gradientUnits="userSpaceOnUse">
<stop stop-color="#757575" style="stop-color:#757575;stop-color:color(display-p3 0.4600 0.4600 0.4600);stop-opacity:1;"/>
<stop offset="1" stop-color="#4F4F4F" style="stop-color:#4F4F4F;stop-color:color(display-p3 0.3100 0.3100 0.3100);stop-opacity:1;"/>
</linearGradient>
</defs>
</svg>
