<svg width="26" height="26" viewBox="0 0 26 26" fill="none" xmlns="http://www.w3.org/2000/svg">
<g filter="url(#filter0_d_19_1840)">
<path d="M22 13C22 13.1836 21.9271 13.3597 21.7972 13.4895C21.6674 13.6194 21.4913 13.6923 21.3077 13.6923L20.022 13.6923C19.8384 13.6923 19.6623 13.6194 19.5324 13.4895C19.4026 13.3597 19.3297 13.1836 19.3297 13C19.3297 12.8164 19.4026 12.6403 19.5324 12.5105C19.6623 12.3806 19.8384 12.3077 20.022 12.3077L21.3077 12.3077C21.4913 12.3077 21.6674 12.3806 21.7972 12.5105C21.9271 12.6403 22 12.8164 22 13Z" fill="url(#paint0_linear_19_1840)" style=""/>
<path d="M6.67033 13C6.67033 13.1836 6.59739 13.3597 6.46756 13.4895C6.33773 13.6194 6.16163 13.6923 5.97802 13.6923L4.69231 13.6923C4.5087 13.6923 4.3326 13.6194 4.20277 13.4895C4.07294 13.3597 4 13.1836 4 13C4 12.8164 4.07294 12.6403 4.20277 12.5105C4.3326 12.3806 4.5087 12.3077 4.69231 12.3077L5.97802 12.3077C6.16163 12.3077 6.33773 12.3806 6.46756 12.5105C6.59739 12.6403 6.67033 12.8164 6.67033 13Z" fill="url(#paint1_linear_19_1840)" style=""/>
<path d="M19.3544 19.3643C19.2246 19.4941 19.0485 19.567 18.8649 19.567C18.6813 19.567 18.5052 19.4941 18.3754 19.3642L17.4662 18.4551C17.3364 18.3253 17.2634 18.1492 17.2634 17.9656C17.2634 17.782 17.3364 17.6059 17.4662 17.476C17.596 17.3462 17.7721 17.2733 17.9557 17.2733C18.1394 17.2733 18.3155 17.3462 18.4453 17.476L19.3544 18.3852C19.4843 18.515 19.5572 18.6911 19.5572 18.8747C19.5572 19.0583 19.4843 19.2344 19.3544 19.3643Z" fill="url(#paint2_linear_19_1840)" style=""/>
<path d="M19.3544 6.59692C19.2246 6.46709 19.0485 6.39415 18.8649 6.39415C18.6813 6.39415 18.5052 6.46709 18.3754 6.59692L17.4662 7.50606C17.3364 7.63589 17.2634 7.81198 17.2634 7.9956C17.2634 8.17921 17.3364 8.3553 17.4662 8.48513C17.596 8.61496 17.7721 8.6879 17.9557 8.6879C18.1394 8.6879 18.3155 8.61496 18.4453 8.48513L19.3544 7.57599C19.4843 7.44616 19.5572 7.27007 19.5572 7.08646C19.5572 6.90285 19.4843 6.72675 19.3544 6.59692Z" fill="url(#paint3_linear_19_1840)" style=""/>
<path d="M8.55442 17.476C8.42459 17.3462 8.2485 17.2733 8.06489 17.2733C7.88127 17.2733 7.70518 17.3462 7.57535 17.476L6.66621 18.3852C6.53638 18.515 6.46344 18.6911 6.46344 18.8747C6.46344 19.0583 6.53638 19.2344 6.66621 19.3643C6.79605 19.4941 6.97214 19.567 7.15575 19.567C7.33936 19.567 7.51545 19.4941 7.64528 19.3643L8.55442 18.4551C8.68425 18.3253 8.75719 18.1492 8.75719 17.9656C8.75719 17.782 8.68425 17.6059 8.55442 17.476Z" fill="url(#paint4_linear_19_1840)" style=""/>
<path d="M8.55442 8.48513C8.42459 8.61496 8.2485 8.6879 8.06489 8.6879C7.88127 8.6879 7.70518 8.61496 7.57535 8.48513L6.66621 7.57599C6.53638 7.44616 6.46344 7.27007 6.46344 7.08646C6.46344 6.90285 6.53638 6.72675 6.66621 6.59692C6.79605 6.46709 6.97214 6.39415 7.15575 6.39415C7.33936 6.39415 7.51545 6.46709 7.64528 6.59692L8.55442 7.50606C8.68425 7.63589 8.75719 7.81198 8.75719 7.99559C8.75719 8.17921 8.68425 8.3553 8.55442 8.48513Z" fill="url(#paint5_linear_19_1840)" style=""/>
<path d="M13 22C12.8164 22 12.6403 21.9271 12.5105 21.7972C12.3806 21.6674 12.3077 21.4913 12.3077 21.3077V20.022C12.3077 19.8384 12.3806 19.6623 12.5105 19.5324C12.6403 19.4026 12.8164 19.3297 13 19.3297C13.1836 19.3297 13.3597 19.4026 13.4895 19.5324C13.6194 19.6623 13.6923 19.8384 13.6923 20.022V21.3077C13.6923 21.4913 13.6194 21.6674 13.4895 21.7972C13.3597 21.9271 13.1836 22 13 22Z" fill="url(#paint6_linear_19_1840)" style=""/>
<path d="M13 6.67033C12.8164 6.67033 12.6403 6.59739 12.5105 6.46756C12.3806 6.33772 12.3077 6.16163 12.3077 5.97802V4.69231C12.3077 4.5087 12.3806 4.3326 12.5105 4.20277C12.6403 4.07294 12.8164 4 13 4C13.1836 4 13.3597 4.07294 13.4895 4.20277C13.6194 4.3326 13.6923 4.5087 13.6923 4.69231V5.97802C13.6923 6.16163 13.6194 6.33772 13.4895 6.46756C13.3597 6.59739 13.1836 6.67033 13 6.67033Z" fill="url(#paint7_linear_19_1840)" style=""/>
<path d="M12.9011 8.02705C14.2462 8.02705 15.5363 8.56141 16.4874 9.51256C17.4386 10.4637 17.9729 11.7538 17.9729 13.0989C17.9729 14.444 17.4386 15.7341 16.4874 16.6852C15.5363 17.6364 14.2462 18.1707 12.9011 18.1707C11.556 18.1707 10.2659 17.6364 9.31476 16.6852C8.36361 15.7341 7.82926 14.444 7.82926 13.0989C7.82926 11.7538 8.36361 10.4637 9.31476 9.51256C10.2659 8.56141 11.556 8.02705 12.9011 8.02705Z" fill="url(#paint8_linear_19_1840)" style=""/>
</g>
<defs>
<filter id="filter0_d_19_1840" x="0" y="0" width="26" height="26" filterUnits="userSpaceOnUse" color-interpolation-filters="sRGB">
<feFlood flood-opacity="0" result="BackgroundImageFix"/>
<feColorMatrix in="SourceAlpha" type="matrix" values="0 0 0 0 0 0 0 0 0 0 0 0 0 0 0 0 0 0 127 0" result="hardAlpha"/>
<feOffset/>
<feGaussianBlur stdDeviation="2"/>
<feComposite in2="hardAlpha" operator="out"/>
<feColorMatrix type="matrix" values="0 0 0 0 0 0 0 0 0 0 0 0 0 0 0 0 0 0 0.45 0"/>
<feBlend mode="normal" in2="BackgroundImageFix" result="effect1_dropShadow_19_1840"/>
<feBlend mode="normal" in="SourceGraphic" in2="effect1_dropShadow_19_1840" result="shape"/>
</filter>
<linearGradient id="paint0_linear_19_1840" x1="22" y1="13" x2="4" y2="13" gradientUnits="userSpaceOnUse">
<stop stop-color="#757575" style="stop-color:#757575;stop-color:color(display-p3 0.4600 0.4600 0.4600);stop-opacity:1;"/>
<stop offset="1" stop-color="#4F4F4F" style="stop-color:#4F4F4F;stop-color:color(display-p3 0.3100 0.3100 0.3100);stop-opacity:1;"/>
</linearGradient>
<linearGradient id="paint1_linear_19_1840" x1="22" y1="13" x2="4" y2="13" gradientUnits="userSpaceOnUse">
<stop stop-color="#757575" style="stop-color:#757575;stop-color:color(display-p3 0.4600 0.4600 0.4600);stop-opacity:1;"/>
<stop offset="1" stop-color="#4F4F4F" style="stop-color:#4F4F4F;stop-color:color(display-p3 0.3100 0.3100 0.3100);stop-opacity:1;"/>
</linearGradient>
<linearGradient id="paint2_linear_19_1840" x1="22" y1="13" x2="4" y2="13" gradientUnits="userSpaceOnUse">
<stop stop-color="#757575" style="stop-color:#757575;stop-color:color(display-p3 0.4600 0.4600 0.4600);stop-opacity:1;"/>
<stop offset="1" stop-color="#4F4F4F" style="stop-color:#4F4F4F;stop-color:color(display-p3 0.3100 0.3100 0.3100);stop-opacity:1;"/>
</linearGradient>
<linearGradient id="paint3_linear_19_1840" x1="22" y1="13" x2="4" y2="13" gradientUnits="userSpaceOnUse">
<stop stop-color="#757575" style="stop-color:#757575;stop-color:color(display-p3 0.4600 0.4600 0.4600);stop-opacity:1;"/>
<stop offset="1" stop-color="#4F4F4F" style="stop-color:#4F4F4F;stop-color:color(display-p3 0.3100 0.3100 0.3100);stop-opacity:1;"/>
</linearGradient>
<linearGradient id="paint4_linear_19_1840" x1="22" y1="13" x2="4" y2="13" gradientUnits="userSpaceOnUse">
<stop stop-color="#757575" style="stop-color:#757575;stop-color:color(display-p3 0.4600 0.4600 0.4600);stop-opacity:1;"/>
<stop offset="1" stop-color="#4F4F4F" style="stop-color:#4F4F4F;stop-color:color(display-p3 0.3100 0.3100 0.3100);stop-opacity:1;"/>
</linearGradient>
<linearGradient id="paint5_linear_19_1840" x1="22" y1="13" x2="4" y2="13" gradientUnits="userSpaceOnUse">
<stop stop-color="#757575" style="stop-color:#757575;stop-color:color(display-p3 0.4600 0.4600 0.4600);stop-opacity:1;"/>
<stop offset="1" stop-color="#4F4F4F" style="stop-color:#4F4F4F;stop-color:color(display-p3 0.3100 0.3100 0.3100);stop-opacity:1;"/>
</linearGradient>
<linearGradient id="paint6_linear_19_1840" x1="22" y1="13" x2="4" y2="13" gradientUnits="userSpaceOnUse">
<stop stop-color="#757575" style="stop-color:#757575;stop-color:color(display-p3 0.4600 0.4600 0.4600);stop-opacity:1;"/>
<stop offset="1" stop-color="#4F4F4F" style="stop-color:#4F4F4F;stop-color:color(display-p3 0.3100 0.3100 0.3100);stop-opacity:1;"/>
</linearGradient>
<linearGradient id="paint7_linear_19_1840" x1="22" y1="13" x2="4" y2="13" gradientUnits="userSpaceOnUse">
<stop stop-color="#757575" style="stop-color:#757575;stop-color:color(display-p3 0.4600 0.4600 0.4600);stop-opacity:1;"/>
<stop offset="1" stop-color="#4F4F4F" style="stop-color:#4F4F4F;stop-color:color(display-p3 0.3100 0.3100 0.3100);stop-opacity:1;"/>
</linearGradient>
<linearGradient id="paint8_linear_19_1840" x1="22" y1="13" x2="4" y2="13" gradientUnits="userSpaceOnUse">
<stop stop-color="#757575" style="stop-color:#757575;stop-color:color(display-p3 0.4600 0.4600 0.4600);stop-opacity:1;"/>
<stop offset="1" stop-color="#4F4F4F" style="stop-color:#4F4F4F;stop-color:color(display-p3 0.3100 0.3100 0.3100);stop-opacity:1;"/>
</linearGradient>
</defs>
</svg>
