<svg width="28" height="28" viewBox="0 0 28 28" fill="none" xmlns="http://www.w3.org/2000/svg">
<rect width="28" height="28" rx="6.53333" fill="url(#paint0_linear_46_1825)" style=""/>
<path d="M13.4057 15.3373C13.7339 15.0091 14.2661 15.0091 14.5944 15.3373L17.0833 17.8262C17.4115 18.1545 17.4115 18.6867 17.0833 19.0149L14.5944 21.5038C14.2661 21.8321 13.7339 21.8321 13.4057 21.5038L10.9168 19.0149C10.5885 18.6867 10.5885 18.1545 10.9168 17.8262L13.4057 15.3373Z" fill="url(#paint1_linear_46_1825)" style=""/>
<path d="M8.98507 10.9168C9.31333 10.5885 9.84554 10.5885 10.1738 10.9168L12.6627 13.4057C12.9909 13.7339 12.9909 14.2661 12.6627 14.5944L10.1738 17.0833C9.84554 17.4115 9.31333 17.4115 8.98507 17.0833L6.49619 14.5944C6.16794 14.2661 6.16794 13.7339 6.49619 13.4057L8.98507 10.9168Z" fill="url(#paint2_linear_46_1825)" style=""/>
<path d="M17.8262 10.9168C18.1545 10.5885 18.6867 10.5885 19.015 10.9168L21.5038 13.4057C21.8321 13.7339 21.8321 14.2661 21.5038 14.5944L19.015 17.0833C18.6867 17.4115 18.1545 17.4115 17.8262 17.0833L15.3374 14.5944C15.0091 14.2661 15.0091 13.7339 15.3374 13.4057L17.8262 10.9168Z" fill="url(#paint3_linear_46_1825)" style=""/>
<path d="M13.4057 6.49619C13.7339 6.16794 14.2661 6.16794 14.5944 6.49619L17.0833 8.98507C17.4115 9.31333 17.4115 9.84554 17.0833 10.1738L14.5944 12.6627C14.2661 12.9909 13.7339 12.9909 13.4057 12.6627L10.9168 10.1738C10.5885 9.84554 10.5885 9.31333 10.9168 8.98507L13.4057 6.49619Z" fill="url(#paint4_linear_46_1825)" style=""/>
<defs>
<linearGradient id="paint0_linear_46_1825" x1="14" y1="0" x2="14" y2="28" gradientUnits="userSpaceOnUse">
<stop stop-color="#0074FA" style="stop-color:#0074FA;stop-color:color(display-p3 0.0000 0.4560 0.9800);stop-opacity:1;"/>
<stop offset="1" stop-color="#00397A" style="stop-color:#00397A;stop-color:color(display-p3 0.0000 0.2233 0.4800);stop-opacity:1;"/>
</linearGradient>
<linearGradient id="paint1_linear_46_1825" x1="14" y1="5.89571" x2="14" y2="22.1043" gradientUnits="userSpaceOnUse">
<stop stop-color="#FCFCFC" style="stop-color:#FCFCFC;stop-color:color(display-p3 0.9900 0.9900 0.9900);stop-opacity:1;"/>
<stop offset="1" stop-color="#AFAFAF" style="stop-color:#AFAFAF;stop-color:color(display-p3 0.6863 0.6863 0.6863);stop-opacity:1;"/>
</linearGradient>
<linearGradient id="paint2_linear_46_1825" x1="14" y1="5.89571" x2="14" y2="22.1043" gradientUnits="userSpaceOnUse">
<stop stop-color="#FCFCFC" style="stop-color:#FCFCFC;stop-color:color(display-p3 0.9900 0.9900 0.9900);stop-opacity:1;"/>
<stop offset="1" stop-color="#AFAFAF" style="stop-color:#AFAFAF;stop-color:color(display-p3 0.6863 0.6863 0.6863);stop-opacity:1;"/>
</linearGradient>
<linearGradient id="paint3_linear_46_1825" x1="14" y1="5.89571" x2="14" y2="22.1043" gradientUnits="userSpaceOnUse">
<stop stop-color="#FCFCFC" style="stop-color:#FCFCFC;stop-color:color(display-p3 0.9900 0.9900 0.9900);stop-opacity:1;"/>
<stop offset="1" stop-color="#AFAFAF" style="stop-color:#AFAFAF;stop-color:color(display-p3 0.6863 0.6863 0.6863);stop-opacity:1;"/>
</linearGradient>
<linearGradient id="paint4_linear_46_1825" x1="14" y1="5.89571" x2="14" y2="22.1043" gradientUnits="userSpaceOnUse">
<stop stop-color="#FCFCFC" style="stop-color:#FCFCFC;stop-color:color(display-p3 0.9900 0.9900 0.9900);stop-opacity:1;"/>
<stop offset="1" stop-color="#AFAFAF" style="stop-color:#AFAFAF;stop-color:color(display-p3 0.6863 0.6863 0.6863);stop-opacity:1;"/>
</linearGradient>
</defs>
</svg>
