<svg width="28" height="28" viewBox="0 0 28 28" fill="none" xmlns="http://www.w3.org/2000/svg">
<rect width="28" height="28" rx="6.53333" fill="url(#paint0_linear_46_1934)" style=""/>
<path fill-rule="evenodd" clip-rule="evenodd" d="M12.9039 7.86396V11.6195C12.9038 12.2147 12.6728 12.7854 12.2616 13.2062L11.4365 14.0727C12.7204 13.9801 13.0933 14.2418 14.2448 14.8306C15.5369 15.4922 16.1051 15.6609 17.5077 15.3064L17.7159 15.2533L15.7384 13.2062C15.3273 12.7854 15.0962 12.2147 15.0961 11.6195V7.86396C14.3661 7.81639 13.6339 7.81639 12.9039 7.86396ZM16.1922 7.9672C16.3325 7.9685 16.468 7.91466 16.5707 7.81675C16.6734 7.71885 16.7354 7.58435 16.7442 7.44097C16.7529 7.29759 16.7075 7.15625 16.6175 7.04607C16.5274 6.93589 16.3995 6.86528 16.2602 6.84877C15.5104 6.75302 14.7556 6.7053 14 6.70588C13.2445 6.7057 12.4897 6.75342 11.7399 6.84877C11.6005 6.86528 11.4726 6.93589 11.3826 7.04607C11.2925 7.15625 11.2472 7.29759 11.2559 7.44097C11.2646 7.58435 11.3267 7.71885 11.4294 7.81675C11.5321 7.91466 11.6675 7.9685 11.8078 7.9672V11.6195C11.8076 11.917 11.6919 12.2022 11.4863 12.4125L6.88787 17.1211C5.7041 18.3338 6.22803 20.4689 7.96277 20.7719C9.9255 21.1161 11.943 21.2941 14 21.2941C16.0577 21.2941 18.0745 21.1153 20.0373 20.7727C21.7713 20.4689 22.2967 18.3338 21.1114 17.1211L16.5137 12.4132C16.4118 12.309 16.331 12.1853 16.2758 12.0491C16.2206 11.9129 16.1922 11.7669 16.1922 11.6195V7.9672Z" fill="url(#paint1_linear_46_1934)" style=""/>
<defs>
<linearGradient id="paint0_linear_46_1934" x1="14" y1="0" x2="14" y2="28" gradientUnits="userSpaceOnUse">
<stop stop-color="#0074FA" style="stop-color:#0074FA;stop-color:color(display-p3 0.0000 0.4560 0.9800);stop-opacity:1;"/>
<stop offset="1" stop-color="#00397A" style="stop-color:#00397A;stop-color:color(display-p3 0.0000 0.2233 0.4800);stop-opacity:1;"/>
</linearGradient>
<linearGradient id="paint1_linear_46_1934" x1="14" y1="6.37243" x2="14" y2="21.6276" gradientUnits="userSpaceOnUse">
<stop stop-color="#FCFCFC" style="stop-color:#FCFCFC;stop-color:color(display-p3 0.9900 0.9900 0.9900);stop-opacity:1;"/>
<stop offset="1" stop-color="#AFAFAF" style="stop-color:#AFAFAF;stop-color:color(display-p3 0.6863 0.6863 0.6863);stop-opacity:1;"/>
</linearGradient>
</defs>
</svg>
