<svg width="28" height="28" viewBox="0 0 28 28" fill="none" xmlns="http://www.w3.org/2000/svg">
<rect width="28" height="28" rx="6.53333" fill="url(#paint0_linear_46_1940)" style=""/>
<path fill-rule="evenodd" clip-rule="evenodd" d="M8.76804 11.6174C8.76804 10.1939 9.31926 8.82866 10.3005 7.82208C11.2816 6.81549 12.6124 6.25 14 6.25C15.3876 6.25 16.7184 6.81549 17.6996 7.82208C18.6808 8.82866 19.232 10.1939 19.232 11.6174V12.2138C19.232 13.9019 19.8521 15.4398 20.8737 16.6031C20.9373 16.6755 20.9827 16.7627 21.0059 16.8572C21.0291 16.9517 21.0293 17.0506 21.0066 17.1453C20.9839 17.2399 20.9389 17.3273 20.8756 17.4C20.8123 17.4727 20.7326 17.5283 20.6435 17.5621C19.4467 18.0153 18.1941 18.3493 16.8989 18.5505C16.9281 18.9593 16.8748 19.3699 16.7423 19.7567C16.6098 20.1434 16.4011 20.498 16.129 20.7982C15.857 21.0985 15.5275 21.338 15.1612 21.5017C14.7949 21.6655 14.3996 21.75 14 21.75C13.6004 21.75 13.2052 21.6655 12.8388 21.5017C12.4725 21.338 12.1431 21.0985 11.871 20.7982C11.599 20.498 11.3902 20.1434 11.2577 19.7567C11.1253 19.3699 11.072 18.9593 11.1011 18.5505C9.82347 18.3519 8.56882 18.0204 7.35656 17.5613C7.26753 17.5276 7.1879 17.472 7.12462 17.3994C7.06134 17.3269 7.01635 17.2395 6.99356 17.145C6.97078 17.0505 6.9709 16.9517 6.99391 16.8572C7.01692 16.7628 7.06213 16.6755 7.12558 16.6031C8.185 15.3998 8.77042 13.8353 8.76804 12.2138V11.6174ZM12.2576 18.6944C12.2477 18.9355 12.2854 19.1762 12.3685 19.4019C12.4516 19.6276 12.5783 19.8338 12.7411 20.008C12.9039 20.1822 13.0993 20.3208 13.3157 20.4155C13.532 20.5102 13.7648 20.559 14 20.559C14.2352 20.559 14.468 20.5102 14.6844 20.4155C14.9007 20.3208 15.0962 20.1822 15.2589 20.008C15.4217 19.8338 15.5485 19.6276 15.6316 19.4019C15.7147 19.1762 15.7524 18.9355 15.7425 18.6944C14.5832 18.8015 13.4169 18.8015 12.2576 18.6944Z" fill="url(#paint1_linear_46_1940)" style=""/>
<defs>
<linearGradient id="paint0_linear_46_1940" x1="14" y1="0" x2="14" y2="28" gradientUnits="userSpaceOnUse">
<stop stop-color="#0074FA" style="stop-color:#0074FA;stop-color:color(display-p3 0.0000 0.4560 0.9800);stop-opacity:1;"/>
<stop offset="1" stop-color="#00397A" style="stop-color:#00397A;stop-color:color(display-p3 0.0000 0.2233 0.4800);stop-opacity:1;"/>
</linearGradient>
<linearGradient id="paint1_linear_46_1940" x1="14" y1="5.89571" x2="14" y2="22.1043" gradientUnits="userSpaceOnUse">
<stop stop-color="#FCFCFC" style="stop-color:#FCFCFC;stop-color:color(display-p3 0.9900 0.9900 0.9900);stop-opacity:1;"/>
<stop offset="1" stop-color="#AFAFAF" style="stop-color:#AFAFAF;stop-color:color(display-p3 0.6863 0.6863 0.6863);stop-opacity:1;"/>
</linearGradient>
</defs>
</svg>
