<svg width="28" height="28" viewBox="0 0 28 28" fill="none" xmlns="http://www.w3.org/2000/svg">
<rect width="28" height="28" rx="6.53333" fill="url(#paint0_linear_46_2008)" style=""/>
<path d="M21.75 10.8516C21.7495 10.1452 21.4686 9.46785 20.9691 8.96835C20.4696 8.46885 19.7923 8.18801 19.0859 8.1875H8.91406C8.20767 8.18801 7.53035 8.46885 7.03085 8.96835C6.53136 9.46785 6.25051 10.1452 6.25 10.8516V11.5781H21.75V10.8516ZM6.25 17.1484C6.25051 17.8548 6.53136 18.5321 7.03085 19.0316C7.53035 19.5311 8.20767 19.812 8.91406 19.8125H19.0859C19.7923 19.812 20.4696 19.5311 20.9691 19.0316C21.4686 18.5321 21.7495 17.8548 21.75 17.1484V13.0312H6.25V17.1484ZM17.6328 15.4531H18.6016C18.7943 15.4531 18.9791 15.5297 19.1153 15.6659C19.2516 15.8022 19.3281 15.987 19.3281 16.1797C19.3281 16.3724 19.2516 16.5572 19.1153 16.6934C18.9791 16.8297 18.7943 16.9062 18.6016 16.9062H17.6328C17.4401 16.9062 17.2553 16.8297 17.1191 16.6934C16.9828 16.5572 16.9062 16.3724 16.9062 16.1797C16.9062 15.987 16.9828 15.8022 17.1191 15.6659C17.2553 15.5297 17.4401 15.4531 17.6328 15.4531ZM9.39844 15.4531H12.3047C12.4974 15.4531 12.6822 15.5297 12.8184 15.6659C12.9547 15.8022 13.0312 15.987 13.0312 16.1797C13.0312 16.3724 12.9547 16.5572 12.8184 16.6934C12.6822 16.8297 12.4974 16.9062 12.3047 16.9062H9.39844C9.20574 16.9062 9.02094 16.8297 8.88468 16.6934C8.74842 16.5572 8.67188 16.3724 8.67188 16.1797C8.67188 15.987 8.74842 15.8022 8.88468 15.6659C9.02094 15.5297 9.20574 15.4531 9.39844 15.4531Z" fill="url(#paint1_linear_46_2008)" style=""/>
<defs>
<linearGradient id="paint0_linear_46_2008" x1="14" y1="0" x2="14" y2="28" gradientUnits="userSpaceOnUse">
<stop stop-color="#0074FA" style="stop-color:#0074FA;stop-color:color(display-p3 0.0000 0.4560 0.9800);stop-opacity:1;"/>
<stop offset="1" stop-color="#00397A" style="stop-color:#00397A;stop-color:color(display-p3 0.0000 0.2233 0.4800);stop-opacity:1;"/>
</linearGradient>
<linearGradient id="paint1_linear_46_2008" x1="14" y1="7.92179" x2="14" y2="20.0782" gradientUnits="userSpaceOnUse">
<stop stop-color="#FCFCFC" style="stop-color:#FCFCFC;stop-color:color(display-p3 0.9900 0.9900 0.9900);stop-opacity:1;"/>
<stop offset="1" stop-color="#AFAFAF" style="stop-color:#AFAFAF;stop-color:color(display-p3 0.6863 0.6863 0.6863);stop-opacity:1;"/>
</linearGradient>
</defs>
</svg>
