<svg width="28" height="28" viewBox="0 0 28 28" fill="none" xmlns="http://www.w3.org/2000/svg">
<rect width="28" height="28" rx="6.53333" fill="url(#paint0_linear_46_2029)" style=""/>
<path d="M6.80646 6.76666C6.65888 6.76666 6.51734 6.82528 6.41298 6.92963C6.30863 7.03398 6.25 7.1755 6.25 7.32307C6.25 7.47064 6.30863 7.61217 6.41298 7.71651C6.51734 7.82086 6.65888 7.87948 6.80646 7.87948H7.8348C7.96094 7.87948 8.07074 7.96406 8.10339 8.08573L10.0013 15.2018C9.40519 15.3571 8.87744 15.7058 8.5007 16.1931C8.12396 16.6804 7.91951 17.2789 7.91939 17.8949C7.91939 18.202 8.16868 18.4513 8.47585 18.4513H20.1615C20.3091 18.4513 20.4507 18.3927 20.555 18.2883C20.6594 18.184 20.718 18.0424 20.718 17.8949C20.718 17.7473 20.6594 17.6058 20.555 17.5014C20.4507 17.3971 20.3091 17.3385 20.1615 17.3385H9.12728C9.24238 17.0129 9.45561 16.7311 9.73758 16.5318C10.0195 16.3325 10.3564 16.2255 10.7017 16.2256H19.0249C19.1291 16.2256 19.2313 16.1964 19.3197 16.1411C19.4081 16.0859 19.4792 16.007 19.525 15.9133C20.372 14.1752 21.1056 12.384 21.7211 10.551C21.7454 10.4785 21.7546 10.4017 21.7479 10.3255C21.7412 10.2494 21.7189 10.1754 21.6823 10.1082C21.6458 10.041 21.5958 9.98208 21.5354 9.93509C21.4751 9.8881 21.4057 9.85406 21.3316 9.83508C17.4184 8.83736 13.3891 8.36902 9.35135 8.44257L9.17922 7.79936C9.10024 7.50316 8.92563 7.24134 8.68251 7.05459C8.43939 6.86783 8.14138 6.76662 7.8348 6.76666H6.80646ZM7.91939 20.1205C7.91939 19.8254 8.03664 19.5423 8.24535 19.3336C8.45407 19.1249 8.73714 19.0077 9.03231 19.0077C9.32748 19.0077 9.61055 19.1249 9.81927 19.3336C10.028 19.5423 10.1452 19.8254 10.1452 20.1205C10.1452 20.4156 10.028 20.6987 9.81927 20.9074C9.61055 21.1161 9.32748 21.2333 9.03231 21.2333C8.73714 21.2333 8.45407 21.1161 8.24535 20.9074C8.03664 20.6987 7.91939 20.4156 7.91939 20.1205ZM17.3792 20.1205C17.3792 19.8254 17.4965 19.5423 17.7052 19.3336C17.9139 19.1249 18.197 19.0077 18.4922 19.0077C18.7873 19.0077 19.0704 19.1249 19.2791 19.3336C19.4878 19.5423 19.6051 19.8254 19.6051 20.1205C19.6051 20.4156 19.4878 20.6987 19.2791 20.9074C19.0704 21.1161 18.7873 21.2333 18.4922 21.2333C18.197 21.2333 17.9139 21.1161 17.7052 20.9074C17.4965 20.6987 17.3792 20.4156 17.3792 20.1205Z" fill="url(#paint1_linear_46_2029)" style=""/>
<defs>
<linearGradient id="paint0_linear_46_2029" x1="14" y1="0" x2="14" y2="28" gradientUnits="userSpaceOnUse">
<stop stop-color="#0074FA" style="stop-color:#0074FA;stop-color:color(display-p3 0.0000 0.4560 0.9800);stop-opacity:1;"/>
<stop offset="1" stop-color="#00397A" style="stop-color:#00397A;stop-color:color(display-p3 0.0000 0.2233 0.4800);stop-opacity:1;"/>
</linearGradient>
<linearGradient id="paint1_linear_46_2029" x1="14" y1="6.436" x2="14" y2="21.564" gradientUnits="userSpaceOnUse">
<stop stop-color="#FCFCFC" style="stop-color:#FCFCFC;stop-color:color(display-p3 0.9900 0.9900 0.9900);stop-opacity:1;"/>
<stop offset="1" stop-color="#AFAFAF" style="stop-color:#AFAFAF;stop-color:color(display-p3 0.6863 0.6863 0.6863);stop-opacity:1;"/>
</linearGradient>
</defs>
</svg>
