<svg width="28" height="28" viewBox="0 0 28 28" fill="none" xmlns="http://www.w3.org/2000/svg">
<rect width="28" height="28" rx="6.53333" fill="url(#paint0_linear_46_1851)" style=""/>
<path d="M19.9417 6.80356H19.425C18.9454 6.80356 18.4854 6.99311 18.1463 7.3305C17.8072 7.6679 17.6167 8.12551 17.6167 8.60267V19.3973C17.6167 20.3904 18.4268 21.1964 19.425 21.1964H19.9417C20.4213 21.1964 20.8812 21.0069 21.2204 20.6695C21.5595 20.3321 21.75 19.8745 21.75 19.3973V8.60267C21.75 8.12551 21.5595 7.6679 21.2204 7.3305C20.8812 6.99311 20.4213 6.80356 19.9417 6.80356ZM14.2583 11.9439H13.7417C13.2621 11.9439 12.8021 12.1334 12.463 12.4708C12.1239 12.8082 11.9333 13.2658 11.9333 13.743V19.3973C11.9333 20.3904 12.7435 21.1964 13.7417 21.1964H14.2583C14.7379 21.1964 15.1979 21.0069 15.537 20.6695C15.8761 20.3321 16.0667 19.8745 16.0667 19.3973V13.743C16.0667 13.2658 15.8761 12.8082 15.537 12.4708C15.1979 12.1334 14.7379 11.9439 14.2583 11.9439ZM8.575 16.0561H8.05833C7.57873 16.0561 7.11878 16.2457 6.77965 16.5831C6.44052 16.9205 6.25 17.3781 6.25 17.8552V19.3973C6.25 20.3904 7.06013 21.1964 8.05833 21.1964H8.575C9.0546 21.1964 9.51456 21.0069 9.85368 20.6695C10.1928 20.3321 10.3833 19.8745 10.3833 19.3973V17.8552C10.3833 17.3781 10.1928 16.9205 9.85368 16.5831C9.51456 16.2457 9.0546 16.0561 8.575 16.0561Z" fill="url(#paint1_linear_46_1851)" style=""/>
<defs>
<linearGradient id="paint0_linear_46_1851" x1="14" y1="0" x2="14" y2="28" gradientUnits="userSpaceOnUse">
<stop stop-color="#0074FA" style="stop-color:#0074FA;stop-color:color(display-p3 0.0000 0.4560 0.9800);stop-opacity:1;"/>
<stop offset="1" stop-color="#00397A" style="stop-color:#00397A;stop-color:color(display-p3 0.0000 0.2233 0.4800);stop-opacity:1;"/>
</linearGradient>
<linearGradient id="paint1_linear_46_1851" x1="14" y1="6.47458" x2="14" y2="21.5254" gradientUnits="userSpaceOnUse">
<stop stop-color="#FCFCFC" style="stop-color:#FCFCFC;stop-color:color(display-p3 0.9900 0.9900 0.9900);stop-opacity:1;"/>
<stop offset="1" stop-color="#AFAFAF" style="stop-color:#AFAFAF;stop-color:color(display-p3 0.6863 0.6863 0.6863);stop-opacity:1;"/>
</linearGradient>
</defs>
</svg>
