<svg width="28" height="28" viewBox="0 0 28 28" fill="none" xmlns="http://www.w3.org/2000/svg">
<rect width="28" height="28" rx="6.53333" fill="url(#paint0_linear_47_5565)" style=""/>
<path d="M14.2349 17.5235C14.2365 16.1583 15.3434 15.0513 16.7087 15.0497H20.5727C20.7668 15.0497 20.939 14.9229 20.9954 14.7366C21.1841 14.0963 21.2803 13.4316 21.2803 12.7639V10.8741C21.2796 10.0882 20.9672 9.33432 20.4122 8.77852C19.8564 8.22351 19.1025 7.91116 18.3166 7.91038H14.548V6.78311C14.548 6.54122 14.3515 6.34473 14.1096 6.34473H13.4207C13.1788 6.34473 12.9823 6.54122 12.9823 6.78311V7.91038H9.21537C8.42862 7.91038 7.67477 8.22273 7.11815 8.77852C6.56235 9.3351 6.25 10.089 6.25 10.8757V12.6402C6.25235 14.5824 7.02422 16.4447 8.39812 17.8179C9.77121 19.1917 11.6336 19.9636 13.5757 19.966H13.7996C14.0407 19.9644 14.2357 19.7679 14.2349 19.526L14.2349 17.5235ZM16.2702 11.9812C16.7767 11.9812 17.2339 12.2865 17.4272 12.7546C17.6214 13.2227 17.5141 13.7613 17.1556 14.1191C16.7978 14.4776 16.2592 14.5848 15.7911 14.3907C15.323 14.1974 15.0177 13.7402 15.0177 13.2337C15.0177 12.5417 15.5782 11.9812 16.2702 11.9812ZM11.2601 14.4862C10.7536 14.4862 10.2965 14.1809 10.1031 13.7128C9.90897 13.2446 10.0162 12.7061 10.3748 12.3483C10.7325 11.9898 11.2711 11.8825 11.7392 12.0767C12.2073 12.27 12.5127 12.7272 12.5127 13.2337C12.5127 13.5656 12.3804 13.8842 12.1455 14.119C11.9107 14.3539 11.592 14.4862 11.2601 14.4862Z" fill="url(#paint1_linear_47_5565)" style=""/>
<path d="M16.0119 21.6553C16.0424 21.6553 16.0722 21.649 16.0996 21.6365L17.9533 20.7879H20.8419C21.083 20.7879 21.314 20.6924 21.4838 20.5217C21.6545 20.3519 21.75 20.1209 21.75 19.8798V17.5313C21.75 17.0295 21.3437 16.6232 20.8419 16.6232H16.7086C16.21 16.6232 15.8045 17.0248 15.8005 17.5235V21.4375C15.799 21.4947 15.8201 21.5503 15.86 21.591C15.9 21.6317 15.9548 21.6553 16.0119 21.6553Z" fill="url(#paint2_linear_47_5565)" style=""/>
<defs>
<linearGradient id="paint0_linear_47_5565" x1="14" y1="0" x2="14" y2="28" gradientUnits="userSpaceOnUse">
<stop stop-color="#0074FA" style="stop-color:#0074FA;stop-color:color(display-p3 0.0000 0.4560 0.9800);stop-opacity:1;"/>
<stop offset="1" stop-color="#00397A" style="stop-color:#00397A;stop-color:color(display-p3 0.0000 0.2233 0.4800);stop-opacity:1;"/>
</linearGradient>
<linearGradient id="paint1_linear_47_5565" x1="14" y1="5.99477" x2="14" y2="22.0052" gradientUnits="userSpaceOnUse">
<stop stop-color="#FCFCFC" style="stop-color:#FCFCFC;stop-color:color(display-p3 0.9900 0.9900 0.9900);stop-opacity:1;"/>
<stop offset="1" stop-color="#AFAFAF" style="stop-color:#AFAFAF;stop-color:color(display-p3 0.6863 0.6863 0.6863);stop-opacity:1;"/>
</linearGradient>
<linearGradient id="paint2_linear_47_5565" x1="14" y1="5.99477" x2="14" y2="22.0052" gradientUnits="userSpaceOnUse">
<stop stop-color="#FCFCFC" style="stop-color:#FCFCFC;stop-color:color(display-p3 0.9900 0.9900 0.9900);stop-opacity:1;"/>
<stop offset="1" stop-color="#AFAFAF" style="stop-color:#AFAFAF;stop-color:color(display-p3 0.6863 0.6863 0.6863);stop-opacity:1;"/>
</linearGradient>
</defs>
</svg>
