<svg width="28" height="28" viewBox="0 0 28 28" fill="none" xmlns="http://www.w3.org/2000/svg">
<rect width="28" height="28" rx="6.53333" fill="url(#paint0_linear_46_2010)" style=""/>
<path fill-rule="evenodd" clip-rule="evenodd" d="M11.2998 7.48126C11.6352 7.09434 12.05 6.78412 12.5159 6.57167C12.9818 6.35922 13.4879 6.24951 14 6.25C15.0786 6.25 16.0452 6.72692 16.7002 7.48126C17.211 7.44478 17.7238 7.51868 18.2035 7.69794C18.6833 7.8772 19.1189 8.15762 19.4806 8.52015C19.843 8.88187 20.1234 9.31731 20.3026 9.79692C20.4819 10.2765 20.5558 10.7891 20.5195 11.2998C20.9063 11.6353 21.2164 12.0501 21.4287 12.516C21.641 12.9819 21.7506 13.488 21.75 14C21.7505 14.5121 21.6408 15.0182 21.4283 15.4841C21.2159 15.95 20.9057 16.3648 20.5187 16.7002C20.5551 17.2109 20.4811 17.7235 20.3018 18.2031C20.1226 18.6827 19.8422 19.1181 19.4798 19.4798C19.1181 19.8422 18.6827 20.1226 18.2031 20.3018C17.7235 20.4811 17.2109 20.555 16.7002 20.5187C16.3648 20.9057 15.95 21.2159 15.4841 21.4283C15.0182 21.6408 14.5121 21.7505 14 21.75C13.4879 21.7505 12.9818 21.6408 12.5159 21.4283C12.05 21.2159 11.6352 20.9057 11.2998 20.5187C10.789 20.5553 10.2763 20.4815 9.79656 20.3024C9.3168 20.1233 8.88121 19.843 8.51936 19.4806C8.15687 19.1188 7.87648 18.6833 7.69722 18.2035C7.51797 17.7237 7.44404 17.211 7.48046 16.7002C7.09369 16.3647 6.78362 15.9499 6.57131 15.484C6.359 15.0181 6.24942 14.512 6.25 14C6.25 12.9214 6.72693 11.9548 7.48126 11.2998C7.4449 10.7891 7.51886 10.2765 7.69811 9.79689C7.87737 9.31727 8.15773 8.88184 8.52016 8.52015C8.88184 8.15773 9.31728 7.87737 9.7969 7.69811C10.2765 7.51886 10.7891 7.4449 11.2998 7.48126ZM16.8695 12.5581C16.9172 12.4946 16.9517 12.4221 16.971 12.345C16.9903 12.268 16.994 12.1878 16.9818 12.1093C16.9697 12.0308 16.942 11.9555 16.9004 11.8878C16.8587 11.8201 16.804 11.7615 16.7393 11.7153C16.6747 11.6691 16.6015 11.6362 16.524 11.6187C16.4465 11.6012 16.3662 11.5994 16.288 11.6134C16.2098 11.6273 16.1352 11.6568 16.0685 11.7C16.0018 11.7432 15.9444 11.7993 15.8997 11.865L13.3275 15.4657L12.0367 14.1749C11.9237 14.0696 11.7742 14.0122 11.6197 14.015C11.4653 14.0177 11.3179 14.0803 11.2087 14.1895C11.0995 14.2987 11.0369 14.4461 11.0342 14.6005C11.0315 14.755 11.0888 14.9044 11.1941 15.0174L12.9826 16.8059C13.0438 16.867 13.1175 16.9141 13.1988 16.9439C13.28 16.9737 13.3667 16.9854 13.4529 16.9783C13.5392 16.9712 13.6228 16.9454 13.6981 16.9028C13.7733 16.8601 13.8384 16.8015 13.8887 16.7312L16.8695 12.5581Z" fill="url(#paint1_linear_46_2010)" style=""/>
<defs>
<linearGradient id="paint0_linear_46_2010" x1="14" y1="0" x2="14" y2="28" gradientUnits="userSpaceOnUse">
<stop stop-color="#0074FA" style="stop-color:#0074FA;stop-color:color(display-p3 0.0000 0.4560 0.9800);stop-opacity:1;"/>
<stop offset="1" stop-color="#00397A" style="stop-color:#00397A;stop-color:color(display-p3 0.0000 0.2233 0.4800);stop-opacity:1;"/>
</linearGradient>
<linearGradient id="paint1_linear_46_2010" x1="14" y1="5.89571" x2="14" y2="22.1043" gradientUnits="userSpaceOnUse">
<stop stop-color="#FCFCFC" style="stop-color:#FCFCFC;stop-color:color(display-p3 0.9900 0.9900 0.9900);stop-opacity:1;"/>
<stop offset="1" stop-color="#AFAFAF" style="stop-color:#AFAFAF;stop-color:color(display-p3 0.6863 0.6863 0.6863);stop-opacity:1;"/>
</linearGradient>
</defs>
</svg>
