<svg width="28" height="28" viewBox="0 0 28 28" fill="none" xmlns="http://www.w3.org/2000/svg">
<rect width="28" height="28" rx="6.53333" fill="url(#paint0_linear_46_1831)" style=""/>
<path d="M17.6042 7.65909H17.3399C17.2828 7.26872 17.0839 6.91147 16.7795 6.65272C16.475 6.39396 16.0855 6.251 15.682 6.25H12.3183C11.4735 6.25 10.7786 6.86436 10.6604 7.65909H10.3961C9.69533 7.65959 9.02338 7.93192 8.52784 8.41628C8.0323 8.90064 7.75368 9.55743 7.75317 10.2424V19.1667C7.75368 19.8517 8.0323 20.5084 8.52784 20.9928C9.02338 21.4772 9.69533 21.7495 10.3961 21.75H17.6042C18.305 21.7495 18.9769 21.4772 19.4724 20.9928C19.968 20.5084 20.2466 19.8517 20.2471 19.1667V10.2424C20.2466 9.55743 19.968 8.90064 19.4724 8.41628C18.9769 7.93192 18.305 7.65959 17.6042 7.65909ZM12.078 7.89394C12.078 7.83165 12.1033 7.77192 12.1484 7.72788C12.1934 7.68383 12.2545 7.65909 12.3183 7.65909H15.682C15.7457 7.65909 15.8069 7.68383 15.8519 7.72788C15.897 7.77192 15.9223 7.83165 15.9223 7.89394V8.83333C15.9223 8.89562 15.897 8.95535 15.8519 8.9994C15.8069 9.04344 15.7457 9.06818 15.682 9.06818H12.3183C12.2545 9.06818 12.1934 9.04344 12.1484 8.9994C12.1033 8.95535 12.078 8.89562 12.078 8.83333V7.89394ZM16.6431 17.5227H11.3572C11.166 17.5227 10.9827 17.4485 10.8475 17.3164C10.7123 17.1842 10.6364 17.005 10.6364 16.8182C10.6364 16.6313 10.7123 16.4521 10.8475 16.32C10.9827 16.1879 11.166 16.1136 11.3572 16.1136H16.6431C16.8343 16.1136 17.0176 16.1879 17.1528 16.32C17.288 16.4521 17.3639 16.6313 17.3639 16.8182C17.3639 17.005 17.288 17.1842 17.1528 17.3164C17.0176 17.4485 16.8343 17.5227 16.6431 17.5227ZM16.6431 14.7045H11.3572C11.166 14.7045 10.9827 14.6303 10.8475 14.4982C10.7123 14.3661 10.6364 14.1869 10.6364 14C10.6364 13.8131 10.7123 13.6339 10.8475 13.5018C10.9827 13.3697 11.166 13.2955 11.3572 13.2955H16.6431C16.8343 13.2955 17.0176 13.3697 17.1528 13.5018C17.288 13.6339 17.3639 13.8131 17.3639 14C17.3639 14.1869 17.288 14.3661 17.1528 14.4982C17.0176 14.6303 16.8343 14.7045 16.6431 14.7045Z" fill="url(#paint1_linear_46_1831)" style=""/>
<defs>
<linearGradient id="paint0_linear_46_1831" x1="14" y1="0" x2="14" y2="28" gradientUnits="userSpaceOnUse">
<stop stop-color="#0074FA" style="stop-color:#0074FA;stop-color:color(display-p3 0.0000 0.4560 0.9800);stop-opacity:1;"/>
<stop offset="1" stop-color="#00397A" style="stop-color:#00397A;stop-color:color(display-p3 0.0000 0.2233 0.4800);stop-opacity:1;"/>
</linearGradient>
<linearGradient id="paint1_linear_46_1831" x1="14.0001" y1="5.89571" x2="14.0001" y2="22.1043" gradientUnits="userSpaceOnUse">
<stop stop-color="#FCFCFC" style="stop-color:#FCFCFC;stop-color:color(display-p3 0.9900 0.9900 0.9900);stop-opacity:1;"/>
<stop offset="1" stop-color="#AFAFAF" style="stop-color:#AFAFAF;stop-color:color(display-p3 0.6863 0.6863 0.6863);stop-opacity:1;"/>
</linearGradient>
</defs>
</svg>
