<svg width="28" height="28" viewBox="0 0 28 28" fill="none" xmlns="http://www.w3.org/2000/svg">
<rect width="28" height="28" rx="6.53333" fill="url(#paint0_linear_46_1855)" style=""/>
<path d="M14 6.25C9.72684 6.25 6.25 9.72684 6.25 14C6.25 18.2732 9.72684 21.75 14 21.75C18.2732 21.75 21.75 18.2732 21.75 14C21.75 9.72684 18.2732 6.25 14 6.25ZM17.7462 16.5933C17.6365 16.7517 17.4685 16.86 17.279 16.8945C17.0896 16.929 16.8942 16.8869 16.7358 16.7774L13.5873 14.5977C13.4907 14.5309 13.4117 14.4416 13.3572 14.3374C13.3027 14.2333 13.2743 14.1175 13.2744 14V9.88281C13.2744 9.69012 13.351 9.50531 13.4872 9.36906C13.6235 9.2328 13.8083 9.15625 14.001 9.15625C14.1937 9.15625 14.3785 9.2328 14.5147 9.36906C14.651 9.50531 14.7275 9.69012 14.7275 9.88281V13.6193L17.5631 15.582C17.6416 15.6362 17.7086 15.7053 17.7603 15.7855C17.8121 15.8656 17.8475 15.9552 17.8646 16.049C17.8817 16.1429 17.8801 16.2392 17.86 16.3324C17.8398 16.4256 17.8015 16.514 17.7471 16.5924L17.7462 16.5933Z" fill="url(#paint1_linear_46_1855)" style=""/>
<defs>
<linearGradient id="paint0_linear_46_1855" x1="14" y1="0" x2="14" y2="28" gradientUnits="userSpaceOnUse">
<stop stop-color="#0074FA" style="stop-color:#0074FA;stop-color:color(display-p3 0.0000 0.4560 0.9800);stop-opacity:1;"/>
<stop offset="1" stop-color="#00397A" style="stop-color:#00397A;stop-color:color(display-p3 0.0000 0.2233 0.4800);stop-opacity:1;"/>
</linearGradient>
<linearGradient id="paint1_linear_46_1855" x1="14" y1="5.89571" x2="14" y2="22.1043" gradientUnits="userSpaceOnUse">
<stop stop-color="#FCFCFC" style="stop-color:#FCFCFC;stop-color:color(display-p3 0.9900 0.9900 0.9900);stop-opacity:1;"/>
<stop offset="1" stop-color="#AFAFAF" style="stop-color:#AFAFAF;stop-color:color(display-p3 0.6863 0.6863 0.6863);stop-opacity:1;"/>
</linearGradient>
</defs>
</svg>
