<svg width="28" height="28" viewBox="0 0 28 28" fill="none" xmlns="http://www.w3.org/2000/svg">
<rect width="28" height="28" rx="6.53333" fill="url(#paint0_linear_46_2041)" style=""/>
<path fill-rule="evenodd" clip-rule="evenodd" d="M12.8934 7.79999C12.2811 7.79993 11.6754 7.92922 11.1146 8.17969C10.5538 8.43016 10.0502 8.79636 9.63544 9.25515C9.22071 9.71394 8.90394 10.2554 8.70514 10.8452C8.50633 11.435 8.42983 12.0604 8.48045 12.6818C7.68234 13.0627 7.0356 13.7092 6.64697 14.5148C6.25834 15.3204 6.15105 16.2369 6.34281 17.113C6.53458 17.989 7.01392 18.7723 7.70174 19.3335C8.38955 19.8948 9.24472 20.2004 10.1261 20.2H18.4281C19.1625 20.2002 19.8763 19.9525 20.4578 19.4957C21.0392 19.0388 21.4556 18.3985 21.6417 17.675C21.8277 16.9515 21.773 16.1856 21.4861 15.4971C21.1992 14.8086 20.6963 14.2364 20.0561 13.87C20.1217 13.4412 20.0892 13.0028 19.9611 12.5889C19.833 12.175 19.6128 11.7968 19.3176 11.4838C19.0224 11.1708 18.6602 10.9315 18.2592 10.7845C17.8583 10.6374 17.4294 10.5867 17.0061 10.6362C16.6775 9.79896 16.1101 9.08122 15.377 8.57566C14.6439 8.07009 13.7788 7.79991 12.8934 7.79999ZM14.3915 11.9108C14.2877 11.8052 14.147 11.7459 14.0004 11.7459C13.8537 11.7459 13.713 11.8052 13.6093 11.9108L11.3954 14.1653C11.341 14.2169 11.2974 14.2791 11.2671 14.3483C11.2369 14.4174 11.2206 14.4921 11.2193 14.5677C11.218 14.6434 11.2317 14.7186 11.2595 14.7888C11.2873 14.859 11.3288 14.9227 11.3813 14.9762C11.4339 15.0298 11.4965 15.072 11.5654 15.1003C11.6343 15.1286 11.7081 15.1426 11.7825 15.1412C11.8568 15.1399 11.9301 15.1233 11.998 15.0925C12.0658 15.0617 12.1269 15.0173 12.1776 14.9619L13.4469 13.6693V17.3818C13.4469 17.5313 13.5052 17.6747 13.609 17.7804C13.7128 17.8861 13.8536 17.9454 14.0004 17.9454C14.1472 17.9454 14.2879 17.8861 14.3917 17.7804C14.4955 17.6747 14.5538 17.5313 14.5538 17.3818V13.6693L15.8231 14.9619C15.8738 15.0173 15.9349 15.0617 16.0028 15.0925C16.0707 15.1233 16.144 15.1399 16.2183 15.1412C16.2926 15.1426 16.3664 15.1286 16.4353 15.1003C16.5043 15.072 16.5669 15.0298 16.6194 14.9762C16.672 14.9227 16.7134 14.859 16.7412 14.7888C16.7691 14.7186 16.7827 14.6434 16.7814 14.5677C16.7801 14.4921 16.7639 14.4174 16.7336 14.3483C16.7034 14.2791 16.6597 14.2169 16.6054 14.1653L14.3915 11.9108Z" fill="url(#paint1_linear_46_2041)" style=""/>
<defs>
<linearGradient id="paint0_linear_46_2041" x1="14" y1="0" x2="14" y2="28" gradientUnits="userSpaceOnUse">
<stop stop-color="#0074FA" style="stop-color:#0074FA;stop-color:color(display-p3 0.0000 0.4560 0.9800);stop-opacity:1;"/>
<stop offset="1" stop-color="#00397A" style="stop-color:#00397A;stop-color:color(display-p3 0.0000 0.2233 0.4800);stop-opacity:1;"/>
</linearGradient>
<linearGradient id="paint1_linear_46_2041" x1="14" y1="7.51656" x2="14" y2="20.4834" gradientUnits="userSpaceOnUse">
<stop stop-color="#FCFCFC" style="stop-color:#FCFCFC;stop-color:color(display-p3 0.9900 0.9900 0.9900);stop-opacity:1;"/>
<stop offset="1" stop-color="#AFAFAF" style="stop-color:#AFAFAF;stop-color:color(display-p3 0.6863 0.6863 0.6863);stop-opacity:1;"/>
</linearGradient>
</defs>
</svg>
