<svg width="28" height="28" viewBox="0 0 28 28" fill="none" xmlns="http://www.w3.org/2000/svg">
<rect width="28" height="28" rx="6.53333" fill="url(#paint0_linear_46_2045)" style=""/>
<path fill-rule="evenodd" clip-rule="evenodd" d="M6.25 9.47917C6.25 8.87967 6.50124 8.30472 6.94844 7.88081C7.39564 7.4569 8.00218 7.21875 8.63462 7.21875H19.3654C19.9978 7.21875 20.6044 7.4569 21.0516 7.88081C21.4988 8.30472 21.75 8.87967 21.75 9.47917V18.5208C21.75 19.1203 21.4988 19.6953 21.0516 20.1192C20.6044 20.5431 19.9978 20.7812 19.3654 20.7812H8.63462C8.00218 20.7812 7.39564 20.5431 6.94844 20.1192C6.50124 19.6953 6.25 19.1203 6.25 18.5208V9.47917ZM9.40564 10.21C9.51742 10.1042 9.66894 10.0448 9.82692 10.0448C9.9849 10.0448 10.1364 10.1042 10.2482 10.21L12.0367 11.9053C12.1483 12.0113 12.211 12.1549 12.211 12.3047C12.211 12.4544 12.1483 12.5981 12.0367 12.704L10.2482 14.3993C10.1352 14.4992 9.98572 14.5535 9.83128 14.5509C9.67683 14.5483 9.52947 14.489 9.42025 14.3855C9.31102 14.282 9.24846 14.1423 9.24573 13.9959C9.24301 13.8495 9.30034 13.7078 9.40564 13.6007L10.7728 12.3047L9.40564 11.0087C9.294 10.9028 9.23129 10.7591 9.23129 10.6094C9.23129 10.4596 9.294 10.316 9.40564 10.21ZM12.8077 13.4349C12.6496 13.4349 12.4979 13.4944 12.3861 13.6004C12.2743 13.7064 12.2115 13.8501 12.2115 14C12.2115 14.1499 12.2743 14.2936 12.3861 14.3996C12.4979 14.5056 12.6496 14.5651 12.8077 14.5651H15.1923C15.3504 14.5651 15.5021 14.5056 15.6139 14.3996C15.7257 14.2936 15.7885 14.1499 15.7885 14C15.7885 13.8501 15.7257 13.7064 15.6139 13.6004C15.5021 13.4944 15.3504 13.4349 15.1923 13.4349H12.8077Z" fill="url(#paint1_linear_46_2045)" style=""/>
<defs>
<linearGradient id="paint0_linear_46_2045" x1="14" y1="0" x2="14" y2="28" gradientUnits="userSpaceOnUse">
<stop stop-color="#0074FA" style="stop-color:#0074FA;stop-color:color(display-p3 0.0000 0.4560 0.9800);stop-opacity:1;"/>
<stop offset="1" stop-color="#00397A" style="stop-color:#00397A;stop-color:color(display-p3 0.0000 0.2233 0.4800);stop-opacity:1;"/>
</linearGradient>
<linearGradient id="paint1_linear_46_2045" x1="14" y1="6.90875" x2="14" y2="21.0912" gradientUnits="userSpaceOnUse">
<stop stop-color="#FCFCFC" style="stop-color:#FCFCFC;stop-color:color(display-p3 0.9900 0.9900 0.9900);stop-opacity:1;"/>
<stop offset="1" stop-color="#AFAFAF" style="stop-color:#AFAFAF;stop-color:color(display-p3 0.6863 0.6863 0.6863);stop-opacity:1;"/>
</linearGradient>
</defs>
</svg>
