<svg width="28" height="28" viewBox="0 0 28 28" fill="none" xmlns="http://www.w3.org/2000/svg">
<rect width="28" height="28" rx="6.53333" fill="url(#paint0_linear_47_5578)" style=""/>
<path fill-rule="evenodd" clip-rule="evenodd" d="M6.25 8.83333C6.25 8.14819 6.52217 7.49111 7.00664 7.00664C7.49111 6.52217 8.14819 6.25 8.83333 6.25H19.1667C19.8518 6.25 20.5089 6.52217 20.9934 7.00664C21.4778 7.49111 21.75 8.14819 21.75 8.83333V19.1667C21.75 19.8518 21.4778 20.5089 20.9934 20.9934C20.5089 21.4778 19.8518 21.75 19.1667 21.75H8.83333C8.14819 21.75 7.49111 21.4778 7.00664 20.9934C6.52217 20.5089 6.25 19.8518 6.25 19.1667V8.83333ZM18.5208 14C18.5207 14.1712 18.4525 14.3354 18.3314 14.4564L16.3939 16.3939C16.3348 16.4573 16.2635 16.5082 16.1842 16.5435C16.105 16.5788 16.0195 16.5978 15.9328 16.5993C15.8461 16.6009 15.7599 16.5849 15.6795 16.5524C15.5991 16.52 15.526 16.4716 15.4647 16.4103C15.4034 16.349 15.355 16.2759 15.3226 16.1955C15.2901 16.1151 15.2741 16.0289 15.2757 15.9422C15.2772 15.8555 15.2962 15.77 15.3315 15.6908C15.3668 15.6115 15.4177 15.5402 15.4811 15.4811L16.9622 14L15.4811 12.5189C15.4177 12.4598 15.3668 12.3885 15.3315 12.3092C15.2962 12.23 15.2772 12.1445 15.2757 12.0578C15.2741 11.9711 15.2901 11.8849 15.3226 11.8045C15.355 11.7241 15.4034 11.651 15.4647 11.5897C15.526 11.5284 15.5991 11.48 15.6795 11.4476C15.7599 11.4151 15.8461 11.3991 15.9328 11.4007C16.0195 11.4022 16.105 11.4212 16.1842 11.4565C16.2635 11.4918 16.3348 11.5427 16.3939 11.6061L18.3314 13.5436C18.4528 13.6642 18.5208 13.8286 18.5208 14ZM9.66861 13.5436C9.54767 13.6647 9.47973 13.8289 9.47973 14C9.47973 14.1711 9.54767 14.3353 9.66861 14.4564L11.6061 16.3939C11.6652 16.4573 11.7365 16.5082 11.8158 16.5435C11.895 16.5788 11.9805 16.5978 12.0672 16.5993C12.1539 16.6009 12.2401 16.5849 12.3205 16.5524C12.4009 16.52 12.474 16.4716 12.5353 16.4103C12.5966 16.349 12.645 16.2759 12.6774 16.1955C12.7099 16.1151 12.7259 16.0289 12.7243 15.9422C12.7228 15.8555 12.7038 15.77 12.6685 15.6908C12.6332 15.6115 12.5823 15.5402 12.5189 15.4811L11.0378 14L12.5189 12.5189C12.5823 12.4598 12.6332 12.3885 12.6685 12.3092C12.7038 12.23 12.7228 12.1445 12.7243 12.0578C12.7259 11.9711 12.7099 11.8849 12.6774 11.8045C12.645 11.7241 12.5966 11.651 12.5353 11.5897C12.474 11.5284 12.4009 11.48 12.3205 11.4476C12.2401 11.4151 12.1539 11.3991 12.0672 11.4007C11.9805 11.4022 11.895 11.4212 11.8158 11.4565C11.7365 11.4918 11.6652 11.5427 11.6061 11.6061L9.66861 13.5436Z" fill="url(#paint1_linear_47_5578)" style=""/>
<defs>
<linearGradient id="paint0_linear_47_5578" x1="14" y1="0" x2="14" y2="28" gradientUnits="userSpaceOnUse">
<stop stop-color="#0074FA" style="stop-color:#0074FA;stop-color:color(display-p3 0.0000 0.4560 0.9800);stop-opacity:1;"/>
<stop offset="1" stop-color="#00397A" style="stop-color:#00397A;stop-color:color(display-p3 0.0000 0.2233 0.4800);stop-opacity:1;"/>
</linearGradient>
<linearGradient id="paint1_linear_47_5578" x1="14" y1="5.89571" x2="14" y2="22.1043" gradientUnits="userSpaceOnUse">
<stop stop-color="#FCFCFC" style="stop-color:#FCFCFC;stop-color:color(display-p3 0.9900 0.9900 0.9900);stop-opacity:1;"/>
<stop offset="1" stop-color="#AFAFAF" style="stop-color:#AFAFAF;stop-color:color(display-p3 0.6863 0.6863 0.6863);stop-opacity:1;"/>
</linearGradient>
</defs>
</svg>
