<svg width="28" height="28" viewBox="0 0 28 28" fill="none" xmlns="http://www.w3.org/2000/svg">
<rect width="28" height="28" rx="6.53333" fill="url(#paint0_linear_46_2004)" style=""/>
<path d="M21.2987 13.0234C21.1595 12.9122 20.9971 12.8338 20.8234 12.794C20.6498 12.7542 20.4694 12.754 20.2956 12.7935C20.0356 12.8522 19.7657 12.8521 19.5057 12.793C19.2457 12.734 19.0022 12.6175 18.793 12.4522C18.5839 12.2869 18.4143 12.0769 18.2968 11.8375C18.1793 11.5982 18.1168 11.3357 18.1138 11.0691C18.1124 10.7558 17.9873 10.4557 17.7658 10.2342C17.5443 10.0126 17.2442 9.88754 16.931 9.88608C16.6644 9.88317 16.4018 9.82068 16.1624 9.70316C15.9231 9.58565 15.7131 9.41611 15.5478 9.20693C15.3825 8.99776 15.266 8.75426 15.207 8.49426C15.1479 8.23427 15.1477 7.96435 15.2065 7.70429C15.2455 7.53014 15.245 7.34946 15.2049 7.17555C15.1648 7.00164 15.0863 6.83894 14.975 6.69941C14.8637 6.55988 14.7226 6.44709 14.562 6.36934C14.4013 6.29159 14.2253 6.25086 14.0468 6.25015C14.0306 6.25007 14.0148 6.25 13.9986 6.25C12.4638 6.25027 10.9637 6.70624 9.68836 7.56011C8.41302 8.41397 7.41993 9.62727 6.83497 11.0462C6.25002 12.4651 6.09954 14.0258 6.40261 15.5304C6.70568 17.0349 7.44865 18.4156 8.53735 19.4974C9.62604 20.5792 11.0114 21.3134 12.5179 21.607C14.0243 21.9005 15.584 21.7401 16.9992 21.1461C18.4144 20.5522 19.6214 19.5514 20.4671 18.2707C21.3129 16.9899 21.7593 15.4869 21.7499 13.9522C21.7492 13.7734 21.7083 13.5971 21.6302 13.4363C21.5521 13.2755 21.4388 13.1344 21.2987 13.0234ZM10.0891 11.877C10.2141 11.7519 10.3735 11.6668 10.547 11.6323C10.7204 11.5978 10.9002 11.6155 11.0636 11.6832C11.227 11.7508 11.3667 11.8655 11.4649 12.0125C11.5632 12.1596 11.6156 12.3325 11.6156 12.5093C11.6156 12.6862 11.5632 12.8591 11.4649 13.0061C11.3667 13.1532 11.227 13.2678 11.0636 13.3355C10.9002 13.4032 10.7204 13.4209 10.547 13.3864C10.3735 13.3519 10.2141 13.2667 10.0891 13.1416C9.92139 12.9739 9.82719 12.7465 9.82719 12.5093C9.82719 12.2722 9.92139 12.0447 10.0891 11.877ZM11.9499 17.3147C11.8248 17.4398 11.6655 17.525 11.492 17.5595C11.3186 17.594 11.1388 17.5763 10.9754 17.5086C10.812 17.4409 10.6723 17.3263 10.574 17.1792C10.4758 17.0322 10.4233 16.8593 10.4233 16.6824C10.4233 16.5055 10.4758 16.3326 10.574 16.1856C10.6723 16.0385 10.812 15.9239 10.9754 15.8562C11.1388 15.7885 11.3186 15.7708 11.492 15.8053C11.6655 15.8398 11.8248 15.925 11.9499 16.0501C12.1176 16.2178 12.2118 16.4452 12.2118 16.6824C12.2118 16.9196 12.1176 17.147 11.9499 17.3147ZM13.9641 14.334C13.839 14.2089 13.7539 14.0496 13.7194 13.8761C13.6848 13.7026 13.7026 13.5228 13.7702 13.3594C13.8379 13.196 13.9525 13.0564 14.0996 12.9581C14.2467 12.8598 14.4195 12.8074 14.5964 12.8074C14.7733 12.8074 14.9462 12.8598 15.0932 12.9581C15.2403 13.0564 15.3549 13.196 15.4226 13.3594C15.4903 13.5228 15.508 13.7026 15.4735 13.8761C15.439 14.0496 15.3538 14.2089 15.2287 14.334C15.061 14.5017 14.8336 14.5959 14.5964 14.5959C14.3592 14.5959 14.1318 14.5017 13.9641 14.334ZM16.7191 17.9109C16.5941 18.0359 16.4347 18.1211 16.2612 18.1556C16.0878 18.1901 15.908 18.1724 15.7446 18.1047C15.5812 18.037 15.4415 17.9224 15.3433 17.7754C15.245 17.6283 15.1926 17.4554 15.1926 17.2786C15.1926 17.1017 15.245 16.9288 15.3433 16.7817C15.4415 16.6347 15.5812 16.5201 15.7446 16.4524C15.908 16.3847 16.0878 16.367 16.2612 16.4015C16.4347 16.436 16.5941 16.5212 16.7191 16.6462C16.8868 16.8139 16.981 17.0414 16.981 17.2786C16.981 17.5157 16.8868 17.7432 16.7191 17.9109Z" fill="url(#paint1_linear_46_2004)" style=""/>
<defs>
<linearGradient id="paint0_linear_46_2004" x1="14" y1="0" x2="14" y2="28" gradientUnits="userSpaceOnUse">
<stop stop-color="#0074FA" style="stop-color:#0074FA;stop-color:color(display-p3 0.0000 0.4560 0.9800);stop-opacity:1;"/>
<stop offset="1" stop-color="#00397A" style="stop-color:#00397A;stop-color:color(display-p3 0.0000 0.2233 0.4800);stop-opacity:1;"/>
</linearGradient>
<linearGradient id="paint1_linear_46_2004" x1="14" y1="5.89571" x2="14" y2="22.1043" gradientUnits="userSpaceOnUse">
<stop stop-color="#FCFCFC" style="stop-color:#FCFCFC;stop-color:color(display-p3 0.9900 0.9900 0.9900);stop-opacity:1;"/>
<stop offset="1" stop-color="#AFAFAF" style="stop-color:#AFAFAF;stop-color:color(display-p3 0.6863 0.6863 0.6863);stop-opacity:1;"/>
</linearGradient>
</defs>
</svg>
