<svg width="28" height="28" viewBox="0 0 28 28" fill="none" xmlns="http://www.w3.org/2000/svg">
<rect width="28" height="28" rx="6.53333" fill="url(#paint0_linear_46_1927)" style=""/>
<path d="M17.5769 10.4231H10.4231V17.5769H17.5769V10.4231Z" fill="url(#paint1_linear_46_1927)" style=""/>
<path fill-rule="evenodd" clip-rule="evenodd" d="M11.0192 6.25C11.1773 6.25 11.329 6.31281 11.4408 6.42461C11.5526 6.53641 11.6154 6.68804 11.6154 6.84615V7.44231H13.4038V6.84615C13.4038 6.68804 13.4667 6.53641 13.5785 6.42461C13.6903 6.31281 13.8419 6.25 14 6.25C14.1581 6.25 14.3097 6.31281 14.4215 6.42461C14.5333 6.53641 14.5962 6.68804 14.5962 6.84615V7.44231H16.3846V6.84615C16.3846 6.68804 16.4474 6.53641 16.5592 6.42461C16.671 6.31281 16.8227 6.25 16.9808 6.25C17.1389 6.25 17.2905 6.31281 17.4023 6.42461C17.5141 6.53641 17.5769 6.68804 17.5769 6.84615V7.44231H18.1731C18.8055 7.44231 19.4121 7.69354 19.8593 8.14075C20.3065 8.58795 20.5577 9.19448 20.5577 9.82692V10.4231H21.1538C21.312 10.4231 21.4636 10.4859 21.5754 10.5977C21.6872 10.7095 21.75 10.8611 21.75 11.0192C21.75 11.1773 21.6872 11.329 21.5754 11.4408C21.4636 11.5526 21.312 11.6154 21.1538 11.6154H20.5577V13.4038H21.1538C21.312 13.4038 21.4636 13.4667 21.5754 13.5785C21.6872 13.6903 21.75 13.8419 21.75 14C21.75 14.1581 21.6872 14.3097 21.5754 14.4215C21.4636 14.5333 21.312 14.5962 21.1538 14.5962H20.5577V16.3846H21.1538C21.312 16.3846 21.4636 16.4474 21.5754 16.5592C21.6872 16.671 21.75 16.8227 21.75 16.9808C21.75 17.1389 21.6872 17.2905 21.5754 17.4023C21.4636 17.5141 21.312 17.5769 21.1538 17.5769H20.5577V18.1731C20.5577 18.8055 20.3065 19.4121 19.8593 19.8593C19.4121 20.3065 18.8055 20.5577 18.1731 20.5577H17.5769V21.1538C17.5769 21.312 17.5141 21.4636 17.4023 21.5754C17.2905 21.6872 17.1389 21.75 16.9808 21.75C16.8227 21.75 16.671 21.6872 16.5592 21.5754C16.4474 21.4636 16.3846 21.312 16.3846 21.1538V20.5577H14.5962V21.1538C14.5962 21.312 14.5333 21.4636 14.4215 21.5754C14.3097 21.6872 14.1581 21.75 14 21.75C13.8419 21.75 13.6903 21.6872 13.5785 21.5754C13.4667 21.4636 13.4038 21.312 13.4038 21.1538V20.5577H11.6154V21.1538C11.6154 21.312 11.5526 21.4636 11.4408 21.5754C11.329 21.6872 11.1773 21.75 11.0192 21.75C10.8611 21.75 10.7095 21.6872 10.5977 21.5754C10.4859 21.4636 10.4231 21.312 10.4231 21.1538V20.5577H9.82692C9.19448 20.5577 8.58795 20.3065 8.14075 19.8593C7.69354 19.4121 7.44231 18.8055 7.44231 18.1731V17.5769H6.84615C6.68804 17.5769 6.53641 17.5141 6.42461 17.4023C6.31281 17.2905 6.25 17.1389 6.25 16.9808C6.25 16.8227 6.31281 16.671 6.42461 16.5592C6.53641 16.4474 6.68804 16.3846 6.84615 16.3846H7.44231V14.5962H6.84615C6.68804 14.5962 6.53641 14.5333 6.42461 14.4215C6.31281 14.3097 6.25 14.1581 6.25 14C6.25 13.8419 6.31281 13.6903 6.42461 13.5785C6.53641 13.4667 6.68804 13.4038 6.84615 13.4038H7.44231V11.6154H6.84615C6.68804 11.6154 6.53641 11.5526 6.42461 11.4408C6.31281 11.329 6.25 11.1773 6.25 11.0192C6.25 10.8611 6.31281 10.7095 6.42461 10.5977C6.53641 10.4859 6.68804 10.4231 6.84615 10.4231H7.44231V9.82692C7.44231 9.19448 7.69354 8.58795 8.14075 8.14075C8.58795 7.69354 9.19448 7.44231 9.82692 7.44231H10.4231V6.84615C10.4231 6.68804 10.4859 6.53641 10.5977 6.42461C10.7095 6.31281 10.8611 6.25 11.0192 6.25ZM9.23077 9.82692C9.23077 9.66881 9.29358 9.51718 9.40538 9.40538C9.51718 9.29358 9.66881 9.23077 9.82692 9.23077H18.1731C18.3312 9.23077 18.4828 9.29358 18.5946 9.40538C18.7064 9.51718 18.7692 9.66881 18.7692 9.82692V18.1731C18.7692 18.3312 18.7064 18.4828 18.5946 18.5946C18.4828 18.7064 18.3312 18.7692 18.1731 18.7692H9.82692C9.66881 18.7692 9.51718 18.7064 9.40538 18.5946C9.29358 18.4828 9.23077 18.3312 9.23077 18.1731V9.82692Z" fill="url(#paint2_linear_46_1927)" style=""/>
<defs>
<linearGradient id="paint0_linear_46_1927" x1="14" y1="0" x2="14" y2="28" gradientUnits="userSpaceOnUse">
<stop stop-color="#0074FA" style="stop-color:#0074FA;stop-color:color(display-p3 0.0000 0.4560 0.9800);stop-opacity:1;"/>
<stop offset="1" stop-color="#00397A" style="stop-color:#00397A;stop-color:color(display-p3 0.0000 0.2233 0.4800);stop-opacity:1;"/>
</linearGradient>
<linearGradient id="paint1_linear_46_1927" x1="14" y1="5.89571" x2="14" y2="22.1043" gradientUnits="userSpaceOnUse">
<stop stop-color="#FCFCFC" style="stop-color:#FCFCFC;stop-color:color(display-p3 0.9900 0.9900 0.9900);stop-opacity:1;"/>
<stop offset="1" stop-color="#AFAFAF" style="stop-color:#AFAFAF;stop-color:color(display-p3 0.6863 0.6863 0.6863);stop-opacity:1;"/>
</linearGradient>
<linearGradient id="paint2_linear_46_1927" x1="14" y1="5.89571" x2="14" y2="22.1043" gradientUnits="userSpaceOnUse">
<stop stop-color="#FCFCFC" style="stop-color:#FCFCFC;stop-color:color(display-p3 0.9900 0.9900 0.9900);stop-opacity:1;"/>
<stop offset="1" stop-color="#AFAFAF" style="stop-color:#AFAFAF;stop-color:color(display-p3 0.6863 0.6863 0.6863);stop-opacity:1;"/>
</linearGradient>
</defs>
</svg>
