<svg width="28" height="28" viewBox="0 0 28 28" fill="none" xmlns="http://www.w3.org/2000/svg">
<rect width="28" height="28" rx="6.53333" fill="url(#paint0_linear_46_1938)" style=""/>
<path fill-rule="evenodd" clip-rule="evenodd" d="M20.4584 15.8795C20.4584 19.1214 17.567 21.75 14.0001 21.75C10.4332 21.75 7.54175 19.1214 7.54175 15.8795C7.54175 14.2888 8.2646 13.0258 9.36845 11.7877C10.2849 10.7604 12.5472 8.04076 13.2587 6.54009C13.2882 6.46931 13.3362 6.40653 13.3985 6.35749C13.4608 6.30846 13.5352 6.27472 13.6151 6.25938C13.695 6.24403 13.7778 6.24756 13.8558 6.26965C13.9338 6.29173 14.0047 6.33167 14.0619 6.38581C14.6704 7.01157 15.4201 8.37904 15.6651 9.93146C15.7145 10.2477 15.7351 10.5055 15.7516 10.7105C15.7866 11.1504 15.8031 11.3459 16.0471 11.3459C16.4312 11.3459 16.6835 10.8025 16.7381 10.241C16.7741 9.88163 17.1561 9.76185 17.4197 9.88163C18.6894 10.4604 19.9837 13.2146 20.2968 14.5657C20.3946 14.9893 20.4584 15.4291 20.4584 15.8795ZM14.0001 18.5091C14.9927 18.5091 15.7969 17.7999 15.7969 16.9241C15.7969 15.5288 14.692 14.5303 14.1422 14.2275C14.1051 14.2073 14.0866 14.1968 14.0361 14.1987C13.9924 14.202 13.951 14.2181 13.9177 14.2447C13.8817 14.2773 13.8714 14.3147 13.8528 14.3904C13.755 14.7727 13.4482 15.0458 13.1248 15.3324C12.68 15.7281 12.2043 16.1507 12.2043 16.9241C12.2043 17.7999 13.0074 18.5091 14.0001 18.5091Z" fill="url(#paint1_linear_46_1938)" style=""/>
<defs>
<linearGradient id="paint0_linear_46_1938" x1="14" y1="0" x2="14" y2="28" gradientUnits="userSpaceOnUse">
<stop stop-color="#0074FA" style="stop-color:#0074FA;stop-color:color(display-p3 0.0000 0.4560 0.9800);stop-opacity:1;"/>
<stop offset="1" stop-color="#00397A" style="stop-color:#00397A;stop-color:color(display-p3 0.0000 0.2233 0.4800);stop-opacity:1;"/>
</linearGradient>
<linearGradient id="paint1_linear_46_1938" x1="14.0001" y1="5.89571" x2="14.0001" y2="22.1043" gradientUnits="userSpaceOnUse">
<stop stop-color="#FCFCFC" style="stop-color:#FCFCFC;stop-color:color(display-p3 0.9900 0.9900 0.9900);stop-opacity:1;"/>
<stop offset="1" stop-color="#AFAFAF" style="stop-color:#AFAFAF;stop-color:color(display-p3 0.6863 0.6863 0.6863);stop-opacity:1;"/>
</linearGradient>
</defs>
</svg>
