<svg width="28" height="28" viewBox="0 0 28 28" fill="none" xmlns="http://www.w3.org/2000/svg">
<rect width="28" height="28" rx="6.53333" fill="url(#paint0_linear_47_5570)" style=""/>
<path d="M9.71967 15.8505C9.53562 15.8505 9.35912 15.7774 9.22898 15.6472C9.09884 15.5171 9.02573 15.3406 9.02573 15.1566V12.8434C9.02573 12.6594 9.09884 12.4829 9.22898 12.3528C9.35912 12.2226 9.53562 12.1495 9.71967 12.1495C9.90371 12.1495 10.0802 12.2226 10.2104 12.3528C10.3405 12.4829 10.4136 12.6594 10.4136 12.8434V15.1566C10.4136 15.3406 10.3405 15.5171 10.2104 15.6472C10.0802 15.7774 9.90371 15.8505 9.71967 15.8505ZM17.5842 12.6121C17.4002 12.6121 17.2237 12.539 17.0936 12.4089C16.9634 12.2787 16.8903 12.1022 16.8903 11.9182V10.0677C16.8903 10.0064 16.8659 9.94753 16.8226 9.90415C16.7792 9.86077 16.7203 9.8364 16.659 9.8364H14.8085C14.6245 9.8364 14.448 9.76329 14.3178 9.63315C14.1877 9.50302 14.1146 9.32651 14.1146 9.14247C14.1146 8.95843 14.1877 8.78192 14.3178 8.65178C14.448 8.52165 14.6245 8.44854 14.8085 8.44854H16.659C17.5519 8.44854 18.2782 9.17485 18.2782 10.0677V11.9182C18.2782 12.1022 18.2051 12.2787 18.0749 12.4089C17.9448 12.539 17.7683 12.6121 17.5842 12.6121ZM16.659 19.5515H14.8085C14.6245 19.5515 14.448 19.4784 14.3178 19.3482C14.1877 19.2181 14.1146 19.0416 14.1146 18.8575C14.1146 18.6735 14.1877 18.497 14.3178 18.3669C14.448 18.2367 14.6245 18.1636 14.8085 18.1636H16.659C16.7203 18.1636 16.7792 18.1392 16.8226 18.0959C16.8659 18.0525 16.8903 17.9936 16.8903 17.9323V16.0818C16.8903 15.8978 16.9634 15.7213 17.0936 15.5911C17.2237 15.461 17.4002 15.3879 17.5842 15.3879C17.7683 15.3879 17.9448 15.461 18.0749 15.5911C18.2051 15.7213 18.2782 15.8978 18.2782 16.0818V17.9323C18.2782 18.8252 17.5519 19.5515 16.659 19.5515ZM11.5702 7.06067H7.86918C7.43975 7.06067 7.0279 7.23126 6.72425 7.53492C6.42059 7.83857 6.25 8.25041 6.25 8.67985V9.60509C6.25 10.4989 6.97539 11.2243 7.86918 11.2243H11.5702C11.9996 11.2243 12.4114 11.0537 12.7151 10.75C13.0187 10.4464 13.1893 10.0345 13.1893 9.60509V8.67985C13.1893 8.25041 13.0187 7.83857 12.7151 7.53492C12.4114 7.23126 11.9996 7.06067 11.5702 7.06067ZM11.5702 16.7757H7.86918C7.43975 16.7757 7.0279 16.9463 6.72425 17.25C6.42059 17.5536 6.25 17.9655 6.25 18.3949V19.3202C6.25 20.2139 6.97539 20.9393 7.86918 20.9393H11.5702C11.9996 20.9393 12.4114 20.7687 12.7151 20.4651C13.0187 20.1614 13.1893 19.7496 13.1893 19.3202V18.3949C13.1893 17.9655 13.0187 17.5536 12.7151 17.25C12.4114 16.9463 11.9996 16.7757 11.5702 16.7757Z" fill="url(#paint1_linear_47_5570)" style=""/>
<path d="M21.4111 13.4051L17.9414 11.3233C17.8338 11.2583 17.7104 11.224 17.5847 11.224C17.459 11.224 17.3357 11.2583 17.228 11.3233L13.7584 13.4051C13.6552 13.4664 13.5698 13.5535 13.5104 13.6578C13.4511 13.7621 13.4199 13.88 13.4199 14C13.4199 14.12 13.4511 14.2379 13.5104 14.3422C13.5698 14.4465 13.6552 14.5336 13.7584 14.5949L17.228 16.6767C17.336 16.7413 17.4594 16.7754 17.5852 16.7754C17.7109 16.7754 17.8344 16.7413 17.9423 16.6767L21.412 14.5949C21.5151 14.5335 21.6005 14.4464 21.6597 14.342C21.719 14.2377 21.7501 14.1197 21.75 13.9997C21.7499 13.8797 21.7186 13.7618 21.6592 13.6576C21.5998 13.5533 21.5143 13.4663 21.4111 13.4051Z" fill="url(#paint2_linear_47_5570)" style=""/>
<defs>
<linearGradient id="paint0_linear_47_5570" x1="14" y1="0" x2="14" y2="28" gradientUnits="userSpaceOnUse">
<stop stop-color="#0074FA" style="stop-color:#0074FA;stop-color:color(display-p3 0.0000 0.4560 0.9800);stop-opacity:1;"/>
<stop offset="1" stop-color="#00397A" style="stop-color:#00397A;stop-color:color(display-p3 0.0000 0.2233 0.4800);stop-opacity:1;"/>
</linearGradient>
<linearGradient id="paint1_linear_47_5570" x1="14" y1="6.74344" x2="14" y2="21.2566" gradientUnits="userSpaceOnUse">
<stop stop-color="#FCFCFC" style="stop-color:#FCFCFC;stop-color:color(display-p3 0.9900 0.9900 0.9900);stop-opacity:1;"/>
<stop offset="1" stop-color="#AFAFAF" style="stop-color:#AFAFAF;stop-color:color(display-p3 0.6863 0.6863 0.6863);stop-opacity:1;"/>
</linearGradient>
<linearGradient id="paint2_linear_47_5570" x1="14" y1="6.74344" x2="14" y2="21.2566" gradientUnits="userSpaceOnUse">
<stop stop-color="#FCFCFC" style="stop-color:#FCFCFC;stop-color:color(display-p3 0.9900 0.9900 0.9900);stop-opacity:1;"/>
<stop offset="1" stop-color="#AFAFAF" style="stop-color:#AFAFAF;stop-color:color(display-p3 0.6863 0.6863 0.6863);stop-opacity:1;"/>
</linearGradient>
</defs>
</svg>
