<svg width="28" height="28" viewBox="0 0 28 28" fill="none" xmlns="http://www.w3.org/2000/svg">
<rect width="28" height="28" rx="6.53333" fill="url(#paint0_linear_46_1833)" style=""/>
<path d="M20.0326 11.7107C20.3241 11.7107 20.6042 11.7542 20.8674 11.8344V11.7107C20.8674 11.1036 20.6262 10.5213 20.1969 10.092C19.7676 9.66266 19.1853 9.42147 18.5782 9.42147H15.6181C15.4664 9.42134 15.3209 9.36095 15.2137 9.25359L13.5952 7.63584C13.4358 7.47627 13.2466 7.34966 13.0382 7.26324C12.8299 7.17683 12.6066 7.1323 12.3811 7.1322H9.42108C8.81393 7.1322 8.23165 7.37339 7.80233 7.80271C7.373 8.23203 7.13181 8.81432 7.13181 9.42147V11.8344C7.40246 11.7522 7.68379 11.7105 7.96663 11.7107H20.0326ZM7.96663 12.8554C7.72068 12.8554 7.47761 12.9083 7.25388 13.0105C7.03014 13.1126 6.83096 13.2616 6.66982 13.4474C6.50868 13.6332 6.38934 13.8515 6.31989 14.0875C6.25043 14.3234 6.23247 14.5715 6.26723 14.815L6.9212 19.3935C6.97961 19.8026 7.18362 20.177 7.49579 20.4478C7.80796 20.7186 8.20733 20.8677 8.6206 20.8678H19.3794C19.7927 20.8677 20.192 20.7186 20.5042 20.4478C20.8164 20.177 21.0204 19.8026 21.0788 19.3935L21.7328 14.815C21.7675 14.5715 21.7496 14.3234 21.6801 14.0875C21.6107 13.8515 21.4913 13.6332 21.3302 13.4474C21.169 13.2616 20.9699 13.1126 20.7461 13.0105C20.5224 12.9083 20.2793 12.8554 20.0334 12.8554H7.96663Z" fill="url(#paint1_linear_46_1833)" style=""/>
<defs>
<linearGradient id="paint0_linear_46_1833" x1="14" y1="0" x2="14" y2="28" gradientUnits="userSpaceOnUse">
<stop stop-color="#0074FA" style="stop-color:#0074FA;stop-color:color(display-p3 0.0000 0.4560 0.9800);stop-opacity:1;"/>
<stop offset="1" stop-color="#00397A" style="stop-color:#00397A;stop-color:color(display-p3 0.0000 0.2233 0.4800);stop-opacity:1;"/>
</linearGradient>
<linearGradient id="paint1_linear_46_1833" x1="14" y1="6.81825" x2="14" y2="21.1818" gradientUnits="userSpaceOnUse">
<stop stop-color="#FCFCFC" style="stop-color:#FCFCFC;stop-color:color(display-p3 0.9900 0.9900 0.9900);stop-opacity:1;"/>
<stop offset="1" stop-color="#AFAFAF" style="stop-color:#AFAFAF;stop-color:color(display-p3 0.6863 0.6863 0.6863);stop-opacity:1;"/>
</linearGradient>
</defs>
</svg>
