<svg width="28" height="28" viewBox="0 0 28 28" fill="none" xmlns="http://www.w3.org/2000/svg">
<rect width="28" height="28" rx="6.53333" fill="url(#paint0_linear_46_2035)" style=""/>
<path fill-rule="evenodd" clip-rule="evenodd" d="M19.5357 20.6429C20.123 20.6429 20.6862 20.4096 21.1015 19.9943C21.5167 19.5791 21.75 19.0158 21.75 18.4286V11.7857C21.75 11.1985 21.5167 10.6352 21.1015 10.22C20.6862 9.80472 20.123 9.57143 19.5357 9.57143H15.5655C15.4187 9.5713 15.278 9.5129 15.1743 9.40905L13.6088 7.84429C13.4547 7.68995 13.2716 7.56748 13.0701 7.4839C12.8686 7.40031 12.6526 7.35724 12.4345 7.35715H8.46429C7.87702 7.35715 7.31381 7.59044 6.89855 8.0057C6.48329 8.42096 6.25 8.98417 6.25 9.57143V18.4286C6.25 19.0158 6.48329 19.5791 6.89855 19.9943C7.31381 20.4096 7.87702 20.6429 8.46429 20.6429H19.5357ZM14.5536 12.8929C14.5536 12.746 14.4952 12.6052 14.3914 12.5014C14.2876 12.3976 14.1468 12.3393 14 12.3393C13.8532 12.3393 13.7124 12.3976 13.6086 12.5014C13.5048 12.6052 13.4464 12.746 13.4464 12.8929V15.9855L12.1769 14.716C12.072 14.6182 11.9332 14.5649 11.7898 14.5675C11.6463 14.57 11.5095 14.6281 11.4081 14.7295C11.3067 14.8309 11.2486 14.9678 11.246 15.1112C11.2435 15.2546 11.2967 15.3934 11.3945 15.4983L13.6088 17.7126C13.7126 17.8163 13.8533 17.8745 14 17.8745C14.1467 17.8745 14.2874 17.8163 14.3912 17.7126L16.6055 15.4983C16.6599 15.4477 16.7035 15.3865 16.7337 15.3186C16.764 15.2507 16.7803 15.1774 16.7816 15.1031C16.7829 15.0288 16.7692 14.9549 16.7414 14.886C16.7135 14.8171 16.6721 14.7545 16.6195 14.7019C16.567 14.6493 16.5043 14.6079 16.4354 14.5801C16.3665 14.5522 16.2927 14.5385 16.2183 14.5399C16.144 14.5412 16.0707 14.5574 16.0028 14.5877C15.9349 14.6179 15.8738 14.6616 15.8231 14.716L14.5536 15.9855V12.8929Z" fill="url(#paint1_linear_46_2035)" style=""/>
<defs>
<linearGradient id="paint0_linear_46_2035" x1="14" y1="0" x2="14" y2="28" gradientUnits="userSpaceOnUse">
<stop stop-color="#0074FA" style="stop-color:#0074FA;stop-color:color(display-p3 0.0000 0.4560 0.9800);stop-opacity:1;"/>
<stop offset="1" stop-color="#00397A" style="stop-color:#00397A;stop-color:color(display-p3 0.0000 0.2233 0.4800);stop-opacity:1;"/>
</linearGradient>
<linearGradient id="paint1_linear_46_2035" x1="14" y1="7.05347" x2="14" y2="20.9465" gradientUnits="userSpaceOnUse">
<stop stop-color="#FCFCFC" style="stop-color:#FCFCFC;stop-color:color(display-p3 0.9900 0.9900 0.9900);stop-opacity:1;"/>
<stop offset="1" stop-color="#AFAFAF" style="stop-color:#AFAFAF;stop-color:color(display-p3 0.6863 0.6863 0.6863);stop-opacity:1;"/>
</linearGradient>
</defs>
</svg>
