<svg width="28" height="28" viewBox="0 0 28 28" fill="none" xmlns="http://www.w3.org/2000/svg">
<rect width="28" height="28" rx="6.53333" fill="url(#paint0_linear_46_2006)" style=""/>
<path d="M18.7054 6.25H9.29464C8.48733 6.25059 7.71326 6.57155 7.1424 7.1424C6.57155 7.71326 6.25059 8.48733 6.25 9.29464V18.7054C6.25059 19.5127 6.57155 20.2867 7.1424 20.8576C7.71326 21.4285 8.48733 21.7494 9.29464 21.75H18.7054C19.5127 21.7494 20.2867 21.4285 20.8576 20.8576C21.4285 20.2867 21.7494 19.5127 21.75 18.7054V9.29464C21.7494 8.48733 21.4285 7.71326 20.8576 7.1424C20.2867 6.57155 19.5127 6.25059 18.7054 6.25ZM15.9375 17.3214C16.1577 17.3214 16.3689 17.4089 16.5247 17.5646C16.6804 17.7204 16.7679 17.9316 16.7679 18.1518C16.7679 18.372 16.6804 18.5832 16.5247 18.7389C16.3689 18.8947 16.1577 18.9821 15.9375 18.9821C15.212 18.9823 14.5158 18.6962 14 18.1861C13.4842 18.6962 12.788 18.9823 12.0625 18.9821C11.8423 18.9821 11.6311 18.8947 11.4753 18.7389C11.3196 18.5832 11.2321 18.372 11.2321 18.1518C11.2321 17.9316 11.3196 17.7204 11.4753 17.5646C11.6311 17.4089 11.8423 17.3214 12.0625 17.3214C12.6725 17.3214 13.1696 16.8243 13.1696 16.2143V11.7857C13.1696 11.1757 12.6725 10.6786 12.0625 10.6786C11.8423 10.6786 11.6311 10.5911 11.4753 10.4354C11.3196 10.2796 11.2321 10.0684 11.2321 9.84821C11.2321 9.62799 11.3196 9.41679 11.4753 9.26106C11.6311 9.10534 11.8423 9.01786 12.0625 9.01786C12.8165 9.01786 13.5007 9.32232 14 9.81389C14.5158 9.30376 15.212 9.01771 15.9375 9.01786C16.1577 9.01786 16.3689 9.10534 16.5247 9.26106C16.6804 9.41679 16.7679 9.62799 16.7679 9.84821C16.7679 10.0684 16.6804 10.2796 16.5247 10.4354C16.3689 10.5911 16.1577 10.6786 15.9375 10.6786C15.3275 10.6786 14.8304 11.1757 14.8304 11.7857V16.2143C14.8304 16.8243 15.3275 17.3214 15.9375 17.3214Z" fill="url(#paint1_linear_46_2006)" style=""/>
<defs>
<linearGradient id="paint0_linear_46_2006" x1="14" y1="0" x2="14" y2="28" gradientUnits="userSpaceOnUse">
<stop stop-color="#0074FA" style="stop-color:#0074FA;stop-color:color(display-p3 0.0000 0.4560 0.9800);stop-opacity:1;"/>
<stop offset="1" stop-color="#00397A" style="stop-color:#00397A;stop-color:color(display-p3 0.0000 0.2233 0.4800);stop-opacity:1;"/>
</linearGradient>
<linearGradient id="paint1_linear_46_2006" x1="14" y1="5.89571" x2="14" y2="22.1043" gradientUnits="userSpaceOnUse">
<stop stop-color="#FCFCFC" style="stop-color:#FCFCFC;stop-color:color(display-p3 0.9900 0.9900 0.9900);stop-opacity:1;"/>
<stop offset="1" stop-color="#AFAFAF" style="stop-color:#AFAFAF;stop-color:color(display-p3 0.6863 0.6863 0.6863);stop-opacity:1;"/>
</linearGradient>
</defs>
</svg>
