<svg width="28" height="28" viewBox="0 0 28 28" fill="none" xmlns="http://www.w3.org/2000/svg">
<rect width="28" height="28" rx="6.53333" fill="url(#paint0_linear_46_1823)" style=""/>
<path fill-rule="evenodd" clip-rule="evenodd" d="M13.2663 6.25C12.5374 6.25 11.9158 6.777 11.7958 7.49556L11.6543 8.34767C11.6384 8.44305 11.5629 8.55433 11.4182 8.62428C11.1458 8.75521 10.8838 8.90667 10.6344 9.07736C10.5025 9.16877 10.369 9.17751 10.2768 9.14333L9.46837 8.83969C9.1379 8.71588 8.77421 8.71336 8.44205 8.83257C8.10988 8.95178 7.8308 9.18499 7.65447 9.49069L6.9216 10.7601C6.74521 11.0656 6.68291 11.4238 6.74579 11.7709C6.80867 12.1181 6.99264 12.4316 7.26499 12.6559L7.93268 13.2059C8.00819 13.2679 8.06781 13.3879 8.05509 13.5477C8.03244 13.8491 8.03244 14.1517 8.05509 14.4531C8.06701 14.6121 8.00819 14.7329 7.93347 14.7949L7.26499 15.3449C6.99264 15.5692 6.80867 15.8827 6.74579 16.2299C6.68291 16.577 6.74521 16.9352 6.9216 17.2407L7.65447 18.5101C7.83092 18.8157 8.11006 19.0487 8.44221 19.1678C8.77436 19.2868 9.13799 19.2842 9.46837 19.1603L10.2783 18.8567C10.3698 18.8225 10.5033 18.832 10.636 18.9218C10.884 19.0919 11.1456 19.2438 11.419 19.3749C11.5637 19.4449 11.6392 19.5562 11.6551 19.6531L11.7966 20.5044C11.9166 21.223 12.5382 21.75 13.2671 21.75H14.7328C15.4609 21.75 16.0833 21.223 16.2033 20.5044L16.3448 19.6523C16.3607 19.5569 16.4354 19.4457 16.5809 19.3749C16.8543 19.2438 17.1158 19.0919 17.3638 18.9218C17.4966 18.8312 17.6301 18.8225 17.7215 18.8567L18.5323 19.1603C18.8626 19.2837 19.2259 19.286 19.5577 19.1668C19.8895 19.0476 20.1683 18.8146 20.3446 18.5093L21.0783 17.2399C21.2547 16.9344 21.317 16.5762 21.2541 16.2291C21.1912 15.8819 21.0072 15.5684 20.7349 15.3441L20.0672 14.7941C19.9917 14.7321 19.9321 14.6121 19.9448 14.4523C19.9674 14.1509 19.9674 13.8483 19.9448 13.5469C19.9321 13.3879 19.9917 13.2671 20.0664 13.2051L20.7341 12.6551C21.2969 12.1925 21.4423 11.3912 21.0783 10.7593L20.3454 9.4899C20.1689 9.18434 19.8898 8.95129 19.5577 8.83223C19.2255 8.71317 18.8619 8.71581 18.5315 8.83969L17.7207 9.14333C17.6301 9.17751 17.4966 9.16797 17.3638 9.07736C17.1147 8.9067 16.853 8.75523 16.5809 8.62428C16.4354 8.55513 16.3607 8.44385 16.3448 8.34767L16.2025 7.49556C16.1446 7.14746 15.9649 6.83122 15.6957 6.60314C15.4264 6.37505 15.0849 6.24991 14.732 6.25H13.2671H13.2663ZM13.9991 16.9808C14.7897 16.9808 15.5479 16.6667 16.1069 16.1077C16.6659 15.5487 16.9799 14.7905 16.9799 14C16.9799 13.2095 16.6659 12.4513 16.1069 11.8923C15.5479 11.3333 14.7897 11.0192 13.9991 11.0192C13.2086 11.0192 12.4504 11.3333 11.8914 11.8923C11.3324 12.4513 11.0184 13.2095 11.0184 14C11.0184 14.7905 11.3324 15.5487 11.8914 16.1077C12.4504 16.6667 13.2086 16.9808 13.9991 16.9808Z" fill="url(#paint1_linear_46_1823)" style=""/>
<defs>
<linearGradient id="paint0_linear_46_1823" x1="14" y1="0" x2="14" y2="28" gradientUnits="userSpaceOnUse">
<stop stop-color="#0074FA" style="stop-color:#0074FA;stop-color:color(display-p3 0.0000 0.4560 0.9800);stop-opacity:1;"/>
<stop offset="1" stop-color="#00397A" style="stop-color:#00397A;stop-color:color(display-p3 0.0000 0.2233 0.4800);stop-opacity:1;"/>
</linearGradient>
<linearGradient id="paint1_linear_46_1823" x1="13.9999" y1="5.89571" x2="13.9999" y2="22.1043" gradientUnits="userSpaceOnUse">
<stop stop-color="#FCFCFC" style="stop-color:#FCFCFC;stop-color:color(display-p3 0.9900 0.9900 0.9900);stop-opacity:1;"/>
<stop offset="1" stop-color="#AFAFAF" style="stop-color:#AFAFAF;stop-color:color(display-p3 0.6863 0.6863 0.6863);stop-opacity:1;"/>
</linearGradient>
</defs>
</svg>
