<svg width="28" height="28" viewBox="0 0 28 28" fill="none" xmlns="http://www.w3.org/2000/svg">
<rect width="28" height="28" rx="6.53333" fill="url(#paint0_linear_46_1853)" style=""/>
<path d="M21.7262 14.5993C21.8339 13.2269 21.5747 11.8505 20.9751 10.612C19.9827 11.5575 18.8096 12.2917 17.5265 12.7702C17.6297 14.0401 17.5726 15.318 17.3565 16.5735C18.9178 16.1792 20.3972 15.5108 21.7262 14.5993ZM16.0935 16.8293C16.3474 15.6123 16.4362 14.3665 16.3574 13.1257C15.6008 13.3066 14.8116 13.4023 14.0001 13.4023C13.1886 13.4023 12.3994 13.3066 11.6427 13.1257C11.5658 14.3665 11.6546 15.6121 11.9066 16.8293C13.2942 17.0426 14.706 17.0426 16.0935 16.8293ZM12.2293 18.0798C13.4057 18.2194 14.5944 18.2194 15.7709 18.0798C15.3665 19.385 14.7697 20.6221 14.0001 21.75C13.2305 20.6221 12.6336 19.385 12.2293 18.0798ZM10.6437 16.5743C10.4264 15.3184 10.3693 14.0398 10.4736 12.7694C9.19027 12.291 8.01687 11.5568 7.02425 10.6112C6.42484 11.85 6.16584 13.2267 6.27397 14.5993C7.60297 15.5108 9.08237 16.18 10.6437 16.5743ZM21.4361 16.1933C21.0348 17.5569 20.2687 18.7843 19.2209 19.7421C18.1732 20.6999 16.8837 21.3516 15.4927 21.6265C16.1893 20.4519 16.721 19.1866 17.0727 17.8662C18.6063 17.5439 20.079 16.9795 21.4361 16.1941V16.1933ZM6.56407 16.1933C7.9009 16.9672 9.36966 17.5387 10.9274 17.8662C11.2791 19.1866 11.8108 20.4519 12.5075 21.6265C11.1165 21.3517 9.82718 20.7001 8.77941 19.7424C7.73164 18.7848 6.96548 17.5576 6.56407 16.1941V16.1933ZM15.4927 6.37274C17.462 6.76088 19.2044 7.89965 20.3536 9.54957C19.5053 10.409 18.4926 11.0878 17.3763 11.5452C17.0756 9.71839 16.4367 7.96405 15.4927 6.37274ZM14.0001 6.25C15.16 7.94928 15.9221 9.88938 16.2295 11.9254C15.5165 12.1087 14.7694 12.2068 14.0001 12.2068C13.2307 12.2068 12.4836 12.1095 11.7707 11.9254C12.078 9.88937 12.8401 7.94926 14.0001 6.25ZM12.5075 6.37274C11.5635 7.96404 10.9246 9.71838 10.6238 11.5452C9.50752 11.0879 8.49485 10.409 7.64657 9.54957C8.79586 7.89989 10.5383 6.7606 12.5075 6.37274Z" fill="url(#paint1_linear_46_1853)" style=""/>
<defs>
<linearGradient id="paint0_linear_46_1853" x1="14" y1="0" x2="14" y2="28" gradientUnits="userSpaceOnUse">
<stop stop-color="#0074FA" style="stop-color:#0074FA;stop-color:color(display-p3 0.0000 0.4560 0.9800);stop-opacity:1;"/>
<stop offset="1" stop-color="#00397A" style="stop-color:#00397A;stop-color:color(display-p3 0.0000 0.2233 0.4800);stop-opacity:1;"/>
</linearGradient>
<linearGradient id="paint1_linear_46_1853" x1="14" y1="5.89571" x2="14" y2="22.1043" gradientUnits="userSpaceOnUse">
<stop stop-color="#FCFCFC" style="stop-color:#FCFCFC;stop-color:color(display-p3 0.9900 0.9900 0.9900);stop-opacity:1;"/>
<stop offset="1" stop-color="#AFAFAF" style="stop-color:#AFAFAF;stop-color:color(display-p3 0.6863 0.6863 0.6863);stop-opacity:1;"/>
</linearGradient>
</defs>
</svg>
