<svg width="28" height="28" viewBox="0 0 28 28" fill="none" xmlns="http://www.w3.org/2000/svg">
<rect width="28" height="28" rx="6.53333" fill="url(#paint0_linear_46_1808)" style=""/>
<path d="M13.6093 7.96331C13.713 7.85856 13.8536 7.79973 14.0002 7.79973C14.1467 7.79973 14.2873 7.85856 14.391 7.96331L20.7993 14.4441C20.8503 14.4975 20.9114 14.5401 20.9789 14.5694C21.0464 14.5987 21.1189 14.6141 21.1924 14.6147C21.2658 14.6153 21.3386 14.6011 21.4066 14.5729C21.4746 14.5448 21.5363 14.5032 21.5882 14.4507C21.6401 14.3981 21.6811 14.3357 21.7089 14.2669C21.7367 14.1982 21.7506 14.1245 21.75 14.0502C21.7493 13.976 21.734 13.9026 21.705 13.8343C21.676 13.7661 21.6338 13.7044 21.581 13.6528L15.1734 7.17204C15.0194 7.01622 14.8364 6.89262 14.6351 6.80829C14.4338 6.72396 14.2181 6.68056 14.0002 6.68056C13.7823 6.68056 13.5665 6.72396 13.3652 6.80829C13.1639 6.89262 12.981 7.01622 12.8269 7.17204L6.41866 13.6528C6.36586 13.7045 6.32375 13.7662 6.2948 13.8345C6.26584 13.9027 6.25062 13.9761 6.25002 14.0504C6.24942 14.1247 6.26344 14.1983 6.29128 14.267C6.31913 14.3358 6.36022 14.3982 6.41218 14.4507C6.46413 14.5032 6.5259 14.5447 6.59388 14.5728C6.66187 14.6009 6.7347 14.615 6.80814 14.6143C6.88157 14.6136 6.95414 14.5982 7.0216 14.5688C7.08907 14.5395 7.15008 14.4968 7.20107 14.4434L13.6093 7.96331Z" fill="url(#paint1_linear_46_1808)" style=""/>
<path d="M14.0002 9.14984L20.0169 15.2346C20.039 15.257 20.0611 15.2779 20.084 15.2988V19.9211C20.084 20.693 19.4645 21.3194 18.7013 21.3194H16.2125C16.0658 21.3194 15.9251 21.2605 15.8214 21.1556C15.7177 21.0507 15.6594 20.9085 15.6594 20.7601V17.4041C15.6594 17.2558 15.6011 17.1135 15.4974 17.0086C15.3937 16.9037 15.253 16.8448 15.1063 16.8448H12.894C12.7474 16.8448 12.6067 16.9037 12.503 17.0086C12.3992 17.1135 12.341 17.2558 12.341 17.4041V20.7601C12.341 20.9085 12.2827 21.0507 12.179 21.1556C12.0752 21.2605 11.9346 21.3194 11.7879 21.3194H9.29906C8.93235 21.3194 8.58066 21.1721 8.32136 20.9099C8.06205 20.6476 7.91638 20.292 7.91638 19.9211V15.2988C7.93932 15.278 7.9617 15.2566 7.98348 15.2346L14.0002 9.14984Z" fill="url(#paint2_linear_46_1808)" style=""/>
<defs>
<linearGradient id="paint0_linear_46_1808" x1="14" y1="0" x2="14" y2="28" gradientUnits="userSpaceOnUse">
<stop stop-color="#0074FA" style="stop-color:#0074FA;stop-color:color(display-p3 0.0000 0.4560 0.9800);stop-opacity:1;"/>
<stop offset="1" stop-color="#00397A" style="stop-color:#00397A;stop-color:color(display-p3 0.0000 0.2233 0.4800);stop-opacity:1;"/>
</linearGradient>
<linearGradient id="paint1_linear_46_1808" x1="14" y1="6.34595" x2="14" y2="21.654" gradientUnits="userSpaceOnUse">
<stop stop-color="#FCFCFC" style="stop-color:#FCFCFC;stop-color:color(display-p3 0.9900 0.9900 0.9900);stop-opacity:1;"/>
<stop offset="1" stop-color="#AFAFAF" style="stop-color:#AFAFAF;stop-color:color(display-p3 0.6863 0.6863 0.6863);stop-opacity:1;"/>
</linearGradient>
<linearGradient id="paint2_linear_46_1808" x1="14" y1="6.34595" x2="14" y2="21.654" gradientUnits="userSpaceOnUse">
<stop stop-color="#FCFCFC" style="stop-color:#FCFCFC;stop-color:color(display-p3 0.9900 0.9900 0.9900);stop-opacity:1;"/>
<stop offset="1" stop-color="#AFAFAF" style="stop-color:#AFAFAF;stop-color:color(display-p3 0.6863 0.6863 0.6863);stop-opacity:1;"/>
</linearGradient>
</defs>
</svg>
