<svg width="28" height="28" viewBox="0 0 28 28" fill="none" xmlns="http://www.w3.org/2000/svg">
<rect width="28" height="28" rx="6.53333" fill="url(#paint0_linear_46_2002)" style=""/>
<path fill-rule="evenodd" clip-rule="evenodd" d="M6.25 9.42045C6.25 8.96499 6.42497 8.52818 6.73641 8.20612C7.04786 7.88406 7.47027 7.70313 7.91071 7.70312H20.0893C20.5297 7.70312 20.9521 7.88406 21.2636 8.20612C21.575 8.52818 21.75 8.96499 21.75 9.42045V18.5795C21.75 19.035 21.575 19.4718 21.2636 19.7939C20.9521 20.1159 20.5297 20.2969 20.0893 20.2969H7.91071C7.47027 20.2969 7.04786 20.1159 6.73641 19.7939C6.42497 19.4718 6.25 19.035 6.25 18.5795V9.42045ZM7.35714 17.0988V18.5795C7.35714 18.8955 7.60514 19.152 7.91071 19.152H20.0893C20.2361 19.152 20.3769 19.0917 20.4807 18.9843C20.5845 18.877 20.6429 18.7314 20.6429 18.5795V17.0988L18.6574 15.0464C18.4498 14.832 18.1684 14.7116 17.875 14.7116C17.5816 14.7116 17.3002 14.832 17.0926 15.0464L16.4431 15.7173L17.159 16.4577C17.2134 16.5101 17.2571 16.5733 17.2873 16.6435C17.3176 16.7137 17.3338 16.7895 17.3351 16.8664C17.3365 16.9433 17.3228 17.0196 17.2949 17.0909C17.2671 17.1622 17.2257 17.2269 17.1731 17.2813C17.1205 17.3356 17.0579 17.3785 16.989 17.4073C16.9201 17.4361 16.8462 17.4502 16.7719 17.4488C16.6976 17.4475 16.6243 17.4307 16.5564 17.3994C16.4885 17.3681 16.4273 17.323 16.3767 17.2667L12.5681 13.3291C12.3605 13.1147 12.0791 12.9943 11.7857 12.9943C11.4923 12.9943 11.2109 13.1147 11.0033 13.3291L7.35714 17.0996V17.0988ZM14.8304 11.1378C14.8304 10.9101 14.9178 10.6916 15.0736 10.5306C15.2293 10.3696 15.4405 10.2791 15.6607 10.2791C15.8809 10.2791 16.0921 10.3696 16.2479 10.5306C16.4036 10.6916 16.4911 10.9101 16.4911 11.1378C16.4911 11.3655 16.4036 11.5839 16.2479 11.745C16.0921 11.906 15.8809 11.9964 15.6607 11.9964C15.4405 11.9964 15.2293 11.906 15.0736 11.745C14.9178 11.5839 14.8304 11.3655 14.8304 11.1378Z" fill="url(#paint1_linear_46_2002)" style=""/>
<defs>
<linearGradient id="paint0_linear_46_2002" x1="14" y1="0" x2="14" y2="28" gradientUnits="userSpaceOnUse">
<stop stop-color="#0074FA" style="stop-color:#0074FA;stop-color:color(display-p3 0.0000 0.4560 0.9800);stop-opacity:1;"/>
<stop offset="1" stop-color="#00397A" style="stop-color:#00397A;stop-color:color(display-p3 0.0000 0.2233 0.4800);stop-opacity:1;"/>
</linearGradient>
<linearGradient id="paint1_linear_46_2002" x1="14" y1="7.41527" x2="14" y2="20.5847" gradientUnits="userSpaceOnUse">
<stop stop-color="#FCFCFC" style="stop-color:#FCFCFC;stop-color:color(display-p3 0.9900 0.9900 0.9900);stop-opacity:1;"/>
<stop offset="1" stop-color="#AFAFAF" style="stop-color:#AFAFAF;stop-color:color(display-p3 0.6863 0.6863 0.6863);stop-opacity:1;"/>
</linearGradient>
</defs>
</svg>
