<svg width="28" height="28" viewBox="0 0 28 28" fill="none" xmlns="http://www.w3.org/2000/svg">
<rect width="28" height="28" rx="6.53333" fill="url(#paint0_linear_47_5568)" style=""/>
<path d="M10.7882 15.3435H8.11881C7.62324 15.3435 7.14796 15.5404 6.79753 15.8908C6.44711 16.2412 6.25024 16.7165 6.25024 17.2121V19.8814C6.25024 20.9139 7.08736 21.75 8.11881 21.75H10.7882C11.2838 21.75 11.759 21.5531 12.1095 21.2027C12.4599 20.8523 12.6568 20.377 12.6568 19.8814V17.2121C12.6568 16.7165 12.4599 16.2412 12.1095 15.8908C11.759 15.5404 11.2838 15.3435 10.7882 15.3435ZM19.3302 15.3435H16.6608C16.1653 15.3435 15.69 15.5404 15.3396 15.8908C14.9891 16.2412 14.7923 16.7165 14.7923 17.2121V19.8814C14.7923 20.9139 15.6294 21.75 16.6608 21.75H19.3302C19.8258 21.75 20.3011 21.5531 20.6515 21.2027C21.0019 20.8523 21.1988 20.377 21.1988 19.8814V17.2121C21.1988 16.7165 21.0019 16.2412 20.6515 15.8908C20.3011 15.5404 19.8258 15.3435 19.3302 15.3435ZM21.2041 8.68499L19.3153 6.79506C18.9643 6.44597 18.4895 6.25 17.9944 6.25C17.4994 6.25 17.0246 6.44597 16.6736 6.79506L14.7848 8.68499C14.4358 9.03574 14.2398 9.51043 14.2398 10.0053C14.2398 10.5001 14.4358 10.9748 14.7848 11.3255L16.6736 13.2155C17.0377 13.5785 17.5161 13.76 17.9944 13.76C18.4728 13.76 18.9512 13.5785 19.3153 13.2155L21.2041 11.3255C21.5535 10.9747 21.7496 10.4998 21.7496 10.0047C21.7496 9.50964 21.5535 9.03472 21.2041 8.68392V8.68499ZM10.7882 6.80147H8.11881C7.62324 6.80147 7.14796 6.99834 6.79753 7.34876C6.44711 7.69918 6.25024 8.17446 6.25024 8.67004V11.3394C6.25024 12.3719 7.08736 13.208 8.11881 13.208H10.7882C11.2838 13.208 11.759 13.0111 12.1095 12.6607C12.4599 12.3103 12.6568 11.835 12.6568 11.3394V8.67004C12.6568 8.17446 12.4599 7.69918 12.1095 7.34876C11.759 6.99834 11.2838 6.80147 10.7882 6.80147Z" fill="url(#paint1_linear_47_5568)" style=""/>
<defs>
<linearGradient id="paint0_linear_47_5568" x1="14" y1="0" x2="14" y2="28" gradientUnits="userSpaceOnUse">
<stop stop-color="#0074FA" style="stop-color:#0074FA;stop-color:color(display-p3 0.0000 0.4560 0.9800);stop-opacity:1;"/>
<stop offset="1" stop-color="#00397A" style="stop-color:#00397A;stop-color:color(display-p3 0.0000 0.2233 0.4800);stop-opacity:1;"/>
</linearGradient>
<linearGradient id="paint1_linear_47_5568" x1="13.9999" y1="5.89571" x2="13.9999" y2="22.1043" gradientUnits="userSpaceOnUse">
<stop stop-color="#FCFCFC" style="stop-color:#FCFCFC;stop-color:color(display-p3 0.9900 0.9900 0.9900);stop-opacity:1;"/>
<stop offset="1" stop-color="#AFAFAF" style="stop-color:#AFAFAF;stop-color:color(display-p3 0.6863 0.6863 0.6863);stop-opacity:1;"/>
</linearGradient>
</defs>
</svg>
