<svg width="28" height="28" viewBox="0 0 28 28" fill="none" xmlns="http://www.w3.org/2000/svg">
<rect width="28" height="28" rx="6.53333" fill="url(#paint0_linear_46_1998)" style=""/>
<path fill-rule="evenodd" clip-rule="evenodd" d="M6.25 8.83333C6.25 8.14819 6.52217 7.49111 7.00664 7.00664C7.49111 6.52217 8.14819 6.25 8.83333 6.25H10.7708C11.456 6.25 12.1131 6.52217 12.5975 7.00664C13.082 7.49111 13.3542 8.14819 13.3542 8.83333V10.7708C13.3542 11.456 13.082 12.1131 12.5975 12.5975C12.1131 13.082 11.456 13.3542 10.7708 13.3542H8.83333C8.14819 13.3542 7.49111 13.082 7.00664 12.5975C6.52217 12.1131 6.25 11.456 6.25 10.7708V8.83333ZM14.6458 8.83333C14.6458 8.14819 14.918 7.49111 15.4025 7.00664C15.8869 6.52217 16.544 6.25 17.2292 6.25H19.1667C19.8518 6.25 20.5089 6.52217 20.9934 7.00664C21.4778 7.49111 21.75 8.14819 21.75 8.83333V10.7708C21.75 11.456 21.4778 12.1131 20.9934 12.5975C20.5089 13.082 19.8518 13.3542 19.1667 13.3542H17.2292C16.544 13.3542 15.8869 13.082 15.4025 12.5975C14.918 12.1131 14.6458 11.456 14.6458 10.7708V8.83333ZM6.25 17.2292C6.25 16.544 6.52217 15.8869 7.00664 15.4025C7.49111 14.918 8.14819 14.6458 8.83333 14.6458H10.7708C11.456 14.6458 12.1131 14.918 12.5975 15.4025C13.082 15.8869 13.3542 16.544 13.3542 17.2292V19.1667C13.3542 19.8518 13.082 20.5089 12.5975 20.9934C12.1131 21.4778 11.456 21.75 10.7708 21.75H8.83333C8.14819 21.75 7.49111 21.4778 7.00664 20.9934C6.52217 20.5089 6.25 19.8518 6.25 19.1667V17.2292ZM14.6458 17.2292C14.6458 16.544 14.918 15.8869 15.4025 15.4025C15.8869 14.918 16.544 14.6458 17.2292 14.6458H19.1667C19.8518 14.6458 20.5089 14.918 20.9934 15.4025C21.4778 15.8869 21.75 16.544 21.75 17.2292V19.1667C21.75 19.8518 21.4778 20.5089 20.9934 20.9934C20.5089 21.4778 19.8518 21.75 19.1667 21.75H17.2292C16.544 21.75 15.8869 21.4778 15.4025 20.9934C14.918 20.5089 14.6458 19.8518 14.6458 19.1667V17.2292Z" fill="url(#paint1_linear_46_1998)" style=""/>
<defs>
<linearGradient id="paint0_linear_46_1998" x1="14" y1="0" x2="14" y2="28" gradientUnits="userSpaceOnUse">
<stop stop-color="#0074FA" style="stop-color:#0074FA;stop-color:color(display-p3 0.0000 0.4560 0.9800);stop-opacity:1;"/>
<stop offset="1" stop-color="#00397A" style="stop-color:#00397A;stop-color:color(display-p3 0.0000 0.2233 0.4800);stop-opacity:1;"/>
</linearGradient>
<linearGradient id="paint1_linear_46_1998" x1="14" y1="5.89571" x2="14" y2="22.1043" gradientUnits="userSpaceOnUse">
<stop stop-color="#FCFCFC" style="stop-color:#FCFCFC;stop-color:color(display-p3 0.9900 0.9900 0.9900);stop-opacity:1;"/>
<stop offset="1" stop-color="#AFAFAF" style="stop-color:#AFAFAF;stop-color:color(display-p3 0.6863 0.6863 0.6863);stop-opacity:1;"/>
</linearGradient>
</defs>
</svg>
