<svg width="28" height="28" viewBox="0 0 28 28" fill="none" xmlns="http://www.w3.org/2000/svg">
<rect width="28" height="28" rx="6.53333" fill="url(#paint0_linear_46_1971)" style=""/>
<path fill-rule="evenodd" clip-rule="evenodd" d="M16.7729 6.24631C16.046 6.24623 15.3279 6.40513 14.6689 6.71187C14.0099 7.01861 13.426 7.46577 12.958 8.02201C12.4901 8.57824 12.1495 9.23009 11.9601 9.93185C11.7706 10.6336 11.737 11.3683 11.8615 12.0845C11.9109 12.3725 11.8378 12.6139 11.6983 12.7535L6.89836 17.5527C6.48314 17.9682 6.24993 18.5315 6.25 19.1189V21.1999C6.25 21.5056 6.49812 21.7537 6.80384 21.7537H9.57301C9.7199 21.7537 9.86077 21.6953 9.96463 21.5915C10.0685 21.4876 10.1268 21.3467 10.1268 21.1999V20.0922H11.2345C11.3814 20.0922 11.5223 20.0338 11.6261 19.93C11.73 19.8261 11.7884 19.6852 11.7884 19.5384V18.4307H12.896C13.0429 18.4306 13.1836 18.3721 13.2874 18.2682L15.2502 16.3054C15.3905 16.1659 15.632 16.0928 15.9192 16.143C16.5993 16.2601 17.2962 16.2348 17.966 16.0686C18.6357 15.9024 19.2637 15.599 19.81 15.1775C20.3564 14.756 20.8093 14.2256 21.1401 13.62C21.4709 13.0144 21.6723 12.3467 21.7316 11.6592C21.7909 10.9717 21.7068 10.2793 21.4846 9.62602C21.2624 8.9727 20.907 8.37263 20.4409 7.8638C19.9748 7.35498 19.4081 6.94848 18.7767 6.67005C18.1453 6.39162 17.4629 6.24733 16.7729 6.24631ZM16.7729 8.46165C16.626 8.46165 16.4851 8.52 16.3813 8.62386C16.2774 8.72773 16.219 8.8686 16.219 9.01548C16.219 9.16237 16.2774 9.30324 16.3813 9.4071C16.4851 9.51097 16.626 9.56932 16.7729 9.56932C17.2135 9.56932 17.6361 9.74437 17.9477 10.056C18.2593 10.3676 18.4344 10.7902 18.4344 11.2308C18.4344 11.3777 18.4927 11.5186 18.5966 11.6224C18.7005 11.7263 18.8413 11.7847 18.9882 11.7847C19.1351 11.7847 19.276 11.7263 19.3798 11.6224C19.4837 11.5186 19.542 11.3777 19.542 11.2308C19.542 10.4964 19.2503 9.79204 18.731 9.27272C18.2117 8.7534 17.5073 8.46165 16.7729 8.46165Z" fill="url(#paint1_linear_46_1971)" style=""/>
<defs>
<linearGradient id="paint0_linear_46_1971" x1="14" y1="0" x2="14" y2="28" gradientUnits="userSpaceOnUse">
<stop stop-color="#0074FA" style="stop-color:#0074FA;stop-color:color(display-p3 0.0000 0.4560 0.9800);stop-opacity:1;"/>
<stop offset="1" stop-color="#00397A" style="stop-color:#00397A;stop-color:color(display-p3 0.0000 0.2233 0.4800);stop-opacity:1;"/>
</linearGradient>
<linearGradient id="paint1_linear_46_1971" x1="14" y1="5.89185" x2="14" y2="22.1082" gradientUnits="userSpaceOnUse">
<stop stop-color="#FCFCFC" style="stop-color:#FCFCFC;stop-color:color(display-p3 0.9900 0.9900 0.9900);stop-opacity:1;"/>
<stop offset="1" stop-color="#AFAFAF" style="stop-color:#AFAFAF;stop-color:color(display-p3 0.6863 0.6863 0.6863);stop-opacity:1;"/>
</linearGradient>
</defs>
</svg>
