<svg width="28" height="28" viewBox="0 0 28 28" fill="none" xmlns="http://www.w3.org/2000/svg">
<rect width="28" height="28" rx="6.53333" fill="url(#paint0_linear_46_2043)" style=""/>
<path d="M14.0977 11.3203C14.2802 10.9383 14.7212 10.7633 15.1113 10.9033L15.1885 10.9355L15.4004 11.0439C15.8863 11.3128 16.3114 11.6817 16.6475 12.126C17.0314 12.6337 17.2879 13.2262 17.3955 13.8535C17.5031 14.4811 17.4586 15.1256 17.2656 15.7324C17.0726 16.339 16.7364 16.8899 16.2861 17.3398L16.2871 17.3408L13.125 20.502C12.3788 21.248 11.3667 21.667 10.3115 21.667C9.25639 21.6669 8.24417 21.248 7.49805 20.502C6.75202 19.7558 6.33311 18.7436 6.33301 17.6885C6.33304 16.6332 6.75188 15.6202 7.49805 14.874L8.73242 13.6396C9.05166 13.3207 9.56932 13.3209 9.88867 13.6396C10.2081 13.959 10.2081 14.4775 9.88867 14.7969L8.6543 16.0312C8.21506 16.4707 7.96781 17.0672 7.96777 17.6885C7.96788 18.3096 8.21526 18.9054 8.6543 19.3447C9.09368 19.7841 9.69015 20.0311 10.3115 20.0312C10.933 20.0312 11.5293 19.7842 11.9688 19.3447L15.1299 16.1836C15.3951 15.9185 15.5934 15.5937 15.707 15.2363C15.8207 14.879 15.8466 14.4995 15.7832 14.1299C15.7198 13.7604 15.5689 13.4113 15.3428 13.1123C15.1166 12.8133 14.8217 12.5727 14.4834 12.4111C14.076 12.2164 13.9031 11.7278 14.0977 11.3203ZM17.6885 6.33301C18.7436 6.33311 19.7558 6.75202 20.502 7.49805C21.2481 8.2442 21.6669 9.25634 21.667 10.3115C21.667 11.3667 21.248 12.3788 20.502 13.125L19.2676 14.3594C18.9482 14.6787 18.4307 14.6787 18.1113 14.3594C17.7921 14.04 17.7921 13.5225 18.1113 13.2031L19.3447 11.9688C19.7842 11.5293 20.0312 10.9331 20.0312 10.3115C20.0312 9.69011 19.7841 9.09371 19.3447 8.6543C18.9054 8.21526 18.3096 7.96788 17.6885 7.96777C17.0672 7.96784 16.4706 8.21505 16.0312 8.6543L12.8701 11.8164H12.8691C12.6041 12.0814 12.4066 12.4065 12.293 12.7637C12.1794 13.1209 12.1525 13.5006 12.2158 13.8701C12.2792 14.2396 12.4311 14.5887 12.6572 14.8877C12.8834 15.1866 13.1784 15.4273 13.5166 15.5889C13.9238 15.7835 14.0966 16.2713 13.9023 16.6787C13.7077 17.0863 13.2191 17.2591 12.8115 17.0645C12.237 16.7901 11.7366 16.3818 11.3525 15.874C10.9686 15.3663 10.7121 14.7738 10.6045 14.1465C10.4969 13.5189 10.5414 12.8743 10.7344 12.2676C10.9274 11.661 11.2627 11.1092 11.7129 10.6592L14.874 7.49805C15.6202 6.75187 16.6332 6.33307 17.6885 6.33301Z" fill="url(#paint1_linear_46_2043)" style=""/>
<defs>
<linearGradient id="paint0_linear_46_2043" x1="14" y1="0" x2="14" y2="28" gradientUnits="userSpaceOnUse">
<stop stop-color="#0074FA" style="stop-color:#0074FA;stop-color:color(display-p3 0.0000 0.4560 0.9800);stop-opacity:1;"/>
<stop offset="1" stop-color="#00397A" style="stop-color:#00397A;stop-color:color(display-p3 0.0000 0.2233 0.4800);stop-opacity:1;"/>
</linearGradient>
<linearGradient id="paint1_linear_46_2043" x1="14" y1="5.98252" x2="14" y2="22.0175" gradientUnits="userSpaceOnUse">
<stop stop-color="#FCFCFC" style="stop-color:#FCFCFC;stop-color:color(display-p3 0.9900 0.9900 0.9900);stop-opacity:1;"/>
<stop offset="1" stop-color="#AFAFAF" style="stop-color:#AFAFAF;stop-color:color(display-p3 0.6863 0.6863 0.6863);stop-opacity:1;"/>
</linearGradient>
</defs>
</svg>
