<svg width="28" height="28" viewBox="0 0 28 28" fill="none" xmlns="http://www.w3.org/2000/svg">
<rect width="28" height="28" rx="6.53333" fill="url(#paint0_linear_46_2033)" style=""/>
<path fill-rule="evenodd" clip-rule="evenodd" d="M10.9485 6.51291C11.1555 6.40931 11.3839 6.35538 11.6154 6.35538C11.8469 6.35538 12.0752 6.40931 12.2823 6.51291L16.2511 8.4985C16.3353 8.53983 16.4339 8.53983 16.5182 8.4985L19.5935 6.96042C19.8207 6.84691 20.0732 6.79334 20.3269 6.80481C20.5806 6.81627 20.8272 6.89239 21.0433 7.02593C21.2593 7.15948 21.4376 7.34602 21.5613 7.56785C21.685 7.78968 21.75 8.03944 21.75 8.29342V18.2174C21.75 18.7818 21.4313 19.2984 20.9257 19.5504L17.0507 21.4875C16.8439 21.5908 16.6158 21.6446 16.3846 21.6446C16.1534 21.6446 15.9254 21.5908 15.7185 21.4875L11.7489 19.5027C11.7075 19.4819 11.6617 19.4711 11.6154 19.4711C11.569 19.4711 11.5233 19.4819 11.4818 19.5027L8.40728 21.0408C8.18005 21.1545 7.92751 21.2082 7.67367 21.1968C7.41983 21.1854 7.17312 21.1094 6.95696 20.9758C6.7408 20.8422 6.56238 20.6556 6.43865 20.4337C6.31491 20.2118 6.24997 19.9619 6.25 19.7078V9.78381C6.25 9.21945 6.56874 8.70278 7.07349 8.45081L10.9485 6.5137V6.51291ZM11.6154 9.23137C11.7735 9.23137 11.9251 9.29418 12.0369 9.40598C12.1487 9.51778 12.2115 9.66942 12.2115 9.82753V16.3852C12.2115 16.5433 12.1487 16.695 12.0369 16.8068C11.9251 16.9186 11.7735 16.9814 11.6154 16.9814C11.4573 16.9814 11.3056 16.9186 11.1938 16.8068C11.082 16.695 11.0192 16.5433 11.0192 16.3852V9.82753C11.0192 9.66942 11.082 9.51778 11.1938 9.40598C11.3056 9.29418 11.4573 9.23137 11.6154 9.23137ZM16.9808 11.616C16.9808 11.4579 16.918 11.3062 16.8062 11.1944C16.6944 11.0826 16.5427 11.0198 16.3846 11.0198C16.2265 11.0198 16.0749 11.0826 15.9631 11.1944C15.8513 11.3062 15.7885 11.4579 15.7885 11.616V18.1737C15.7885 18.3318 15.8513 18.4834 15.9631 18.5952C16.0749 18.707 16.2265 18.7698 16.3846 18.7698C16.5427 18.7698 16.6944 18.707 16.8062 18.5952C16.918 18.4834 16.9808 18.3318 16.9808 18.1737V11.616Z" fill="url(#paint1_linear_46_2033)" style=""/>
<defs>
<linearGradient id="paint0_linear_46_2033" x1="14" y1="0" x2="14" y2="28" gradientUnits="userSpaceOnUse">
<stop stop-color="#0074FA" style="stop-color:#0074FA;stop-color:color(display-p3 0.0000 0.4560 0.9800);stop-opacity:1;"/>
<stop offset="1" stop-color="#00397A" style="stop-color:#00397A;stop-color:color(display-p3 0.0000 0.2233 0.4800);stop-opacity:1;"/>
</linearGradient>
<linearGradient id="paint1_linear_46_2033" x1="14" y1="6.00591" x2="14" y2="21.9941" gradientUnits="userSpaceOnUse">
<stop stop-color="#FCFCFC" style="stop-color:#FCFCFC;stop-color:color(display-p3 0.9900 0.9900 0.9900);stop-opacity:1;"/>
<stop offset="1" stop-color="#AFAFAF" style="stop-color:#AFAFAF;stop-color:color(display-p3 0.6863 0.6863 0.6863);stop-opacity:1;"/>
</linearGradient>
</defs>
</svg>
