<svg width="28" height="28" viewBox="0 0 28 28" fill="none" xmlns="http://www.w3.org/2000/svg">
<rect width="28" height="28" rx="6.53333" fill="url(#paint0_linear_46_1818)" style=""/>
<path d="M17.8813 8.05162C15.7005 8.92453 13.3724 9.37094 11.0234 9.36662H10.4275C9.38084 9.36511 8.37187 9.75711 7.60077 10.4648C6.82967 11.1726 6.35281 12.1443 6.26479 13.1873C6.17677 14.2302 6.48402 15.2681 7.1256 16.0951C7.76717 16.922 8.69617 17.4776 9.72827 17.6515C9.99129 18.728 10.358 19.7764 10.8232 20.7821C11.1919 21.5798 12.1533 21.8309 12.8747 21.4146L13.3968 21.1134C14.096 20.7098 14.3224 19.8477 14.0102 19.1525C13.8225 18.7355 13.6559 18.3093 13.5112 17.8756C15.0352 18.0806 16.4987 18.4715 17.8813 19.0245C18.472 17.2557 18.7723 15.4029 18.7704 13.5381C18.7704 11.62 18.4581 9.77582 17.8813 8.05162ZM18.977 7.57091C19.6314 9.49223 19.9643 11.5084 19.9622 13.5381C19.9644 15.7041 19.5852 17.8537 18.8419 19.8882C18.815 19.9617 18.8028 20.0398 18.8061 20.118C18.8093 20.1963 18.828 20.2731 18.8609 20.3441C18.8938 20.4151 18.9405 20.4789 18.9981 20.5319C19.0557 20.5849 19.1232 20.6261 19.1967 20.653C19.2702 20.6799 19.3483 20.6921 19.4265 20.6888C19.5047 20.6856 19.5815 20.6669 19.6525 20.634C19.7235 20.601 19.7874 20.5544 19.8404 20.4968C19.8934 20.4392 19.9345 20.3717 19.9614 20.2982C20.5639 18.6534 20.942 16.9349 21.0857 15.1892C21.5126 14.7456 21.7507 14.1537 21.75 13.5381C21.75 12.8969 21.4965 12.3144 21.0857 11.887C20.9411 10.1414 20.563 8.42302 19.9614 6.77794C19.9345 6.70443 19.8934 6.63694 19.8404 6.57933C19.7874 6.52172 19.7235 6.47511 19.6525 6.44216C19.5091 6.37563 19.3451 6.3688 19.1967 6.42317C19.0482 6.47754 18.9274 6.58865 18.8609 6.73207C18.7944 6.8755 18.7875 7.03947 18.8419 7.18793C18.8888 7.31506 18.9341 7.44219 18.977 7.57091Z" fill="url(#paint1_linear_46_1818)" style=""/>
<defs>
<linearGradient id="paint0_linear_46_1818" x1="14" y1="0" x2="14" y2="28" gradientUnits="userSpaceOnUse">
<stop stop-color="#0074FA" style="stop-color:#0074FA;stop-color:color(display-p3 0.0000 0.4560 0.9800);stop-opacity:1;"/>
<stop offset="1" stop-color="#00397A" style="stop-color:#00397A;stop-color:color(display-p3 0.0000 0.2233 0.4800);stop-opacity:1;"/>
</linearGradient>
<linearGradient id="paint1_linear_46_1818" x1="14" y1="6.03878" x2="14" y2="21.9612" gradientUnits="userSpaceOnUse">
<stop stop-color="#FCFCFC" style="stop-color:#FCFCFC;stop-color:color(display-p3 0.9900 0.9900 0.9900);stop-opacity:1;"/>
<stop offset="1" stop-color="#AFAFAF" style="stop-color:#AFAFAF;stop-color:color(display-p3 0.6863 0.6863 0.6863);stop-opacity:1;"/>
</linearGradient>
</defs>
</svg>
