<svg width="28" height="28" viewBox="0 0 28 28" fill="none" xmlns="http://www.w3.org/2000/svg">
<rect width="28" height="28" rx="6.53333" fill="url(#paint0_linear_47_5580)" style=""/>
<path fill-rule="evenodd" clip-rule="evenodd" d="M8.70377 21.4259C8.56182 21.412 8.42048 21.3923 8.2801 21.3671C8.177 21.3486 8.08059 21.3033 8.00057 21.2357C7.92055 21.1681 7.85976 21.0806 7.8243 20.9821C7.78884 20.8835 7.77997 20.7774 7.79859 20.6743C7.81721 20.5712 7.86266 20.4749 7.93036 20.3949C8.25646 20.0105 8.47915 19.5493 8.57738 19.0548C8.59567 18.9634 8.5599 18.8028 8.37549 18.6232C7.06395 17.3474 6.25 15.617 6.25 13.7013C6.25 9.70313 9.76969 6.54749 14 6.54749C18.2303 6.54749 21.75 9.70313 21.75 13.7013C21.75 17.6995 18.2303 20.8552 14 20.8552C13.3379 20.8552 12.694 20.7781 12.0788 20.6334C11.0732 21.2654 9.88559 21.5443 8.70377 21.4259Z" fill="url(#paint1_linear_47_5580)" style=""/>
<defs>
<linearGradient id="paint0_linear_47_5580" x1="14" y1="0" x2="14" y2="28" gradientUnits="userSpaceOnUse">
<stop stop-color="#0074FA" style="stop-color:#0074FA;stop-color:color(display-p3 0.0000 0.4560 0.9800);stop-opacity:1;"/>
<stop offset="1" stop-color="#00397A" style="stop-color:#00397A;stop-color:color(display-p3 0.0000 0.2233 0.4800);stop-opacity:1;"/>
</linearGradient>
<linearGradient id="paint1_linear_47_5580" x1="14" y1="6.2068" x2="14" y2="21.7932" gradientUnits="userSpaceOnUse">
<stop stop-color="#FCFCFC" style="stop-color:#FCFCFC;stop-color:color(display-p3 0.9900 0.9900 0.9900);stop-opacity:1;"/>
<stop offset="1" stop-color="#AFAFAF" style="stop-color:#AFAFAF;stop-color:color(display-p3 0.6863 0.6863 0.6863);stop-opacity:1;"/>
</linearGradient>
</defs>
</svg>
