<svg width="28" height="28" viewBox="0 0 28 28" fill="none" xmlns="http://www.w3.org/2000/svg">
<rect width="28" height="28" rx="6.53333" fill="url(#paint0_linear_46_1942)" style=""/>
<path fill-rule="evenodd" clip-rule="evenodd" d="M6.25 8.63462C6.25 8.00218 6.50124 7.39564 6.94844 6.94844C7.39564 6.50124 8.00218 6.25 8.63462 6.25H19.3654C19.9978 6.25 20.6044 6.50124 21.0516 6.94844C21.4988 7.39564 21.75 8.00218 21.75 8.63462V16.3846C21.75 17.0171 21.4988 17.6236 21.0516 18.0708C20.6044 18.518 19.9978 18.7692 19.3654 18.7692H16.9808V18.9735C16.9808 19.4481 17.1692 19.9035 17.5046 20.2382L17.9982 20.7326C18.0815 20.8159 18.1382 20.9221 18.1611 21.0377C18.1841 21.1533 18.1723 21.273 18.1272 21.3819C18.0821 21.4908 18.0058 21.5838 17.9079 21.6494C17.8099 21.7149 17.6948 21.7499 17.5769 21.75H10.4231C10.3052 21.7499 10.1901 21.7149 10.0921 21.6494C9.99421 21.5838 9.91788 21.4908 9.8728 21.3819C9.82772 21.273 9.81591 21.1533 9.83887 21.0377C9.86183 20.9221 9.91853 20.8159 10.0018 20.7326L10.4954 20.2382C10.8306 19.9029 11.019 19.4484 11.0192 18.9743V18.7692H8.63462C8.00218 18.7692 7.39564 18.518 6.94844 18.0708C6.50124 17.6236 6.25 17.0171 6.25 16.3846V8.63462ZM7.44231 8.63462V14.5962C7.44231 14.9124 7.56793 15.2156 7.79153 15.4392C8.01513 15.6628 8.3184 15.7885 8.63462 15.7885H19.3654C19.6816 15.7885 19.9849 15.6628 20.2085 15.4392C20.4321 15.2156 20.5577 14.9124 20.5577 14.5962V8.63462C20.5577 8.3184 20.4321 8.01513 20.2085 7.79153C19.9849 7.56793 19.6816 7.44231 19.3654 7.44231H8.63462C8.3184 7.44231 8.01513 7.56793 7.79153 7.79153C7.56793 8.01513 7.44231 8.3184 7.44231 8.63462Z" fill="url(#paint1_linear_46_1942)" style=""/>
<defs>
<linearGradient id="paint0_linear_46_1942" x1="14" y1="0" x2="14" y2="28" gradientUnits="userSpaceOnUse">
<stop stop-color="#0074FA" style="stop-color:#0074FA;stop-color:color(display-p3 0.0000 0.4560 0.9800);stop-opacity:1;"/>
<stop offset="1" stop-color="#00397A" style="stop-color:#00397A;stop-color:color(display-p3 0.0000 0.2233 0.4800);stop-opacity:1;"/>
</linearGradient>
<linearGradient id="paint1_linear_46_1942" x1="14" y1="5.89571" x2="14" y2="22.1043" gradientUnits="userSpaceOnUse">
<stop stop-color="#FCFCFC" style="stop-color:#FCFCFC;stop-color:color(display-p3 0.9900 0.9900 0.9900);stop-opacity:1;"/>
<stop offset="1" stop-color="#AFAFAF" style="stop-color:#AFAFAF;stop-color:color(display-p3 0.6863 0.6863 0.6863);stop-opacity:1;"/>
</linearGradient>
</defs>
</svg>
