<svg width="28" height="28" viewBox="0 0 28 28" fill="none" xmlns="http://www.w3.org/2000/svg">
<rect width="28" height="28" rx="6.53333" fill="url(#paint0_linear_47_5572)" style=""/>
<path fill-rule="evenodd" clip-rule="evenodd" d="M6.25 7.74038C6.25 6.9169 6.91769 6.25 7.74039 6.25H11.9135C12.737 6.25 13.4038 6.91769 13.4038 7.74038V18.1731C13.4038 19.1217 13.027 20.0315 12.3562 20.7023C11.6854 21.3731 10.7756 21.75 9.82692 21.75C8.87826 21.75 7.96846 21.3731 7.29766 20.7023C6.62685 20.0315 6.25 19.1217 6.25 18.1731V7.74038ZM9.82692 19.0673C10.0641 19.0673 10.2915 18.9731 10.4592 18.8054C10.6269 18.6377 10.7212 18.4102 10.7212 18.1731C10.7212 17.9359 10.6269 17.7085 10.4592 17.5408C10.2915 17.3731 10.0641 17.2788 9.82692 17.2788C9.58976 17.2788 9.36231 17.3731 9.19461 17.5408C9.02691 17.7085 8.93269 17.9359 8.93269 18.1731C8.93269 18.4102 9.02691 18.6377 9.19461 18.8054C9.36231 18.9731 9.58976 19.0673 9.82692 19.0673Z" fill="url(#paint1_linear_47_5572)" style=""/>
<path d="M12.9818 21.7499H20.2596C21.0831 21.7499 21.75 21.0822 21.75 20.2595V16.0864C21.75 15.263 21.0823 14.5961 20.2596 14.5961H20.1483L13.1996 21.5456C13.128 21.6164 13.0565 21.6847 12.9818 21.7499ZM14.5866 18.4711L19.7326 13.3251C20.012 13.0456 20.1689 12.6666 20.1689 12.2715C20.1689 11.8763 20.012 11.4973 19.7326 11.2179L16.782 8.2665C16.5026 7.98716 16.1236 7.83023 15.7284 7.83023C15.3333 7.83023 14.9543 7.98716 14.6748 8.2665L14.5954 8.34519V18.173C14.5954 18.2731 14.5922 18.3725 14.5866 18.4711Z" fill="url(#paint2_linear_47_5572)" style=""/>
<defs>
<linearGradient id="paint0_linear_47_5572" x1="14" y1="0" x2="14" y2="28" gradientUnits="userSpaceOnUse">
<stop stop-color="#0074FA" style="stop-color:#0074FA;stop-color:color(display-p3 0.0000 0.4560 0.9800);stop-opacity:1;"/>
<stop offset="1" stop-color="#00397A" style="stop-color:#00397A;stop-color:color(display-p3 0.0000 0.2233 0.4800);stop-opacity:1;"/>
</linearGradient>
<linearGradient id="paint1_linear_47_5572" x1="14" y1="5.89571" x2="14" y2="22.1043" gradientUnits="userSpaceOnUse">
<stop stop-color="#FCFCFC" style="stop-color:#FCFCFC;stop-color:color(display-p3 0.9900 0.9900 0.9900);stop-opacity:1;"/>
<stop offset="1" stop-color="#AFAFAF" style="stop-color:#AFAFAF;stop-color:color(display-p3 0.6863 0.6863 0.6863);stop-opacity:1;"/>
</linearGradient>
<linearGradient id="paint2_linear_47_5572" x1="14" y1="5.89571" x2="14" y2="22.1043" gradientUnits="userSpaceOnUse">
<stop stop-color="#FCFCFC" style="stop-color:#FCFCFC;stop-color:color(display-p3 0.9900 0.9900 0.9900);stop-opacity:1;"/>
<stop offset="1" stop-color="#AFAFAF" style="stop-color:#AFAFAF;stop-color:color(display-p3 0.6863 0.6863 0.6863);stop-opacity:1;"/>
</linearGradient>
</defs>
</svg>
