<svg width="28" height="28" viewBox="0 0 28 28" fill="none" xmlns="http://www.w3.org/2000/svg">
<rect width="28" height="28" rx="6.53333" fill="url(#paint0_linear_46_1827)" style=""/>
<path d="M20.487 10.5387L16.573 6.74697C16.411 6.58901 16.2182 6.46374 16.0059 6.37844C15.7936 6.29313 15.5659 6.24948 15.336 6.25H9.75C9.02082 6.25052 8.32165 6.53136 7.80604 7.03086C7.29043 7.53035 7.00053 8.20767 7 8.91407V19.0859C7.00053 19.7923 7.29043 20.4696 7.80604 20.9691C8.32165 21.4686 9.02082 21.7495 9.75 21.75H18.25C18.9792 21.7495 19.6783 21.4686 20.194 20.9691C20.7096 20.4696 20.9995 19.7923 21 19.0859V11.737C21 11.2846 20.818 10.8583 20.487 10.5387ZM10.75 11.0938H12.75C12.9489 11.0938 13.1397 11.1703 13.2803 11.3066C13.421 11.4428 13.5 11.6276 13.5 11.8203C13.5 12.013 13.421 12.1978 13.2803 12.3341C13.1397 12.4703 12.9489 12.5469 12.75 12.5469H10.75C10.5511 12.5469 10.3603 12.4703 10.2197 12.3341C10.079 12.1978 10 12.013 10 11.8203C10 11.6276 10.079 11.4428 10.2197 11.3066C10.3603 11.1703 10.5511 11.0938 10.75 11.0938ZM17.25 18.3594H10.75C10.5511 18.3594 10.3603 18.2828 10.2197 18.1466C10.079 18.0103 10 17.8255 10 17.6328C10 17.4401 10.079 17.2553 10.2197 17.1191C10.3603 16.9828 10.5511 16.9063 10.75 16.9063H17.25C17.4489 16.9063 17.6397 16.9828 17.7803 17.1191C17.921 17.2553 18 17.4401 18 17.6328C18 17.8255 17.921 18.0103 17.7803 18.1466C17.6397 18.2828 17.4489 18.3594 17.25 18.3594ZM17.25 15.4531H10.75C10.5511 15.4531 10.3603 15.3766 10.2197 15.2403C10.079 15.1041 10 14.9193 10 14.7266C10 14.5339 10.079 14.3491 10.2197 14.2128C10.3603 14.0766 10.5511 14 10.75 14H17.25C17.4489 14 17.6397 14.0766 17.7803 14.2128C17.921 14.3491 18 14.5339 18 14.7266C18 14.9193 17.921 15.1041 17.7803 15.2403C17.6397 15.3766 17.4489 15.4531 17.25 15.4531ZM19.432 11.5781H16.5C15.95 11.5781 15.5 11.1422 15.5 10.6094V7.77966L15.513 7.77482L19.435 11.5733L19.432 11.5781Z" fill="url(#paint1_linear_46_1827)" style=""/>
<defs>
<linearGradient id="paint0_linear_46_1827" x1="14" y1="0" x2="14" y2="28" gradientUnits="userSpaceOnUse">
<stop stop-color="#0074FA" style="stop-color:#0074FA;stop-color:color(display-p3 0.0000 0.4560 0.9800);stop-opacity:1;"/>
<stop offset="1" stop-color="#00397A" style="stop-color:#00397A;stop-color:color(display-p3 0.0000 0.2233 0.4800);stop-opacity:1;"/>
</linearGradient>
<linearGradient id="paint1_linear_46_1827" x1="14" y1="5.89571" x2="14" y2="22.1043" gradientUnits="userSpaceOnUse">
<stop stop-color="#FCFCFC" style="stop-color:#FCFCFC;stop-color:color(display-p3 0.9900 0.9900 0.9900);stop-opacity:1;"/>
<stop offset="1" stop-color="#AFAFAF" style="stop-color:#AFAFAF;stop-color:color(display-p3 0.6863 0.6863 0.6863);stop-opacity:1;"/>
</linearGradient>
</defs>
</svg>
