<svg width="28" height="28" viewBox="0 0 28 28" fill="none" xmlns="http://www.w3.org/2000/svg">
<rect width="28" height="28" rx="6.53333" fill="url(#paint0_linear_46_1936)" style=""/>
<path fill-rule="evenodd" clip-rule="evenodd" d="M6.25 15.1923C6.25 13.453 6.9409 11.7851 8.17072 10.5552C9.40054 9.32543 11.0685 8.63452 12.8078 8.63452C12.9659 8.63452 13.1175 8.69733 13.2293 8.80913C13.3411 8.92094 13.4039 9.07257 13.4039 9.23068V14.5961H18.7693C18.9275 14.5961 19.0791 14.6589 19.1909 14.7707C19.3027 14.8825 19.3655 15.0342 19.3655 15.1923C19.3655 16.9315 18.6746 18.5995 17.4448 19.8293C16.215 21.0591 14.547 21.75 12.8078 21.75C11.0685 21.75 9.40054 21.0591 8.17072 19.8293C6.9409 18.5995 6.25 16.9315 6.25 15.1923Z" fill="url(#paint1_linear_46_1936)" style=""/>
<path fill-rule="evenodd" clip-rule="evenodd" d="M14.5961 6.84616C14.5961 6.68805 14.6589 6.53641 14.7707 6.42461C14.8825 6.31281 15.0341 6.25 15.1922 6.25C16.9315 6.25 18.5995 6.9409 19.8293 8.17072C21.0591 9.40053 21.75 11.0685 21.75 12.8077C21.75 12.9658 21.6872 13.1175 21.5754 13.2293C21.4636 13.3411 21.312 13.4039 21.1538 13.4039H15.1922C15.0341 13.4039 14.8825 13.3411 14.7707 13.2293C14.6589 13.1175 14.5961 12.9658 14.5961 12.8077V6.84616Z" fill="url(#paint2_linear_46_1936)" style=""/>
<defs>
<linearGradient id="paint0_linear_46_1936" x1="14" y1="0" x2="14" y2="28" gradientUnits="userSpaceOnUse">
<stop stop-color="#0074FA" style="stop-color:#0074FA;stop-color:color(display-p3 0.0000 0.4560 0.9800);stop-opacity:1;"/>
<stop offset="1" stop-color="#00397A" style="stop-color:#00397A;stop-color:color(display-p3 0.0000 0.2233 0.4800);stop-opacity:1;"/>
</linearGradient>
<linearGradient id="paint1_linear_46_1936" x1="14" y1="5.89571" x2="14" y2="22.1043" gradientUnits="userSpaceOnUse">
<stop stop-color="#FCFCFC" style="stop-color:#FCFCFC;stop-color:color(display-p3 0.9900 0.9900 0.9900);stop-opacity:1;"/>
<stop offset="1" stop-color="#AFAFAF" style="stop-color:#AFAFAF;stop-color:color(display-p3 0.6863 0.6863 0.6863);stop-opacity:1;"/>
</linearGradient>
<linearGradient id="paint2_linear_46_1936" x1="14" y1="5.89571" x2="14" y2="22.1043" gradientUnits="userSpaceOnUse">
<stop stop-color="#FCFCFC" style="stop-color:#FCFCFC;stop-color:color(display-p3 0.9900 0.9900 0.9900);stop-opacity:1;"/>
<stop offset="1" stop-color="#AFAFAF" style="stop-color:#AFAFAF;stop-color:color(display-p3 0.6863 0.6863 0.6863);stop-opacity:1;"/>
</linearGradient>
</defs>
</svg>
