<svg width="28" height="28" viewBox="0 0 28 28" fill="none" xmlns="http://www.w3.org/2000/svg">
<rect width="28" height="28" rx="6.53333" fill="url(#paint0_linear_46_2051)" style=""/>
<path fill-rule="evenodd" clip-rule="evenodd" d="M14 6.25C12.5821 6.25 11.1834 6.33193 9.80756 6.49136C8.70263 6.61979 7.91064 7.56899 7.91064 8.654V21.1966C7.91067 21.287 7.93287 21.3761 7.9753 21.4561C8.01774 21.536 8.07912 21.6043 8.15407 21.655C8.22902 21.7057 8.31526 21.7372 8.40523 21.7468C8.4952 21.7565 8.58616 21.7439 8.67015 21.7103L11.2321 20.6858L13.7948 21.7103C13.9265 21.7628 14.0734 21.7628 14.2052 21.7103L16.7679 20.6858L19.3298 21.7103C19.4138 21.7439 19.5048 21.7565 19.5947 21.7468C19.6847 21.7372 19.7709 21.7057 19.8459 21.655C19.9208 21.6043 19.9822 21.536 20.0247 21.4561C20.0671 21.3761 20.0893 21.287 20.0893 21.1966V8.654C20.0893 7.56899 19.2973 6.61979 18.1924 6.49136C16.8007 6.3302 15.4009 6.24961 14 6.25ZM13.284 11.0698C13.3384 11.0191 13.382 10.958 13.4123 10.8901C13.4425 10.8222 13.4588 10.7489 13.4601 10.6746C13.4614 10.6002 13.4478 10.5264 13.4199 10.4575C13.3921 10.3885 13.3506 10.3259 13.2981 10.2734C13.2455 10.2208 13.1829 10.1794 13.114 10.1515C13.045 10.1237 12.9712 10.11 12.8969 10.1113C12.8225 10.1126 12.7492 10.1289 12.6813 10.1591C12.6134 10.1894 12.5523 10.233 12.5016 10.2874L10.8409 11.9481C10.7372 12.0519 10.679 12.1926 10.679 12.3393C10.679 12.486 10.7372 12.6267 10.8409 12.7305L12.5016 14.3913C12.5523 14.4456 12.6134 14.4893 12.6813 14.5195C12.7492 14.5498 12.8225 14.5661 12.8969 14.5674C12.9712 14.5687 13.045 14.555 13.114 14.5272C13.1829 14.4993 13.2455 14.4579 13.2981 14.4053C13.3506 14.3527 13.3921 14.2901 13.4199 14.2212C13.4478 14.1523 13.4614 14.0784 13.4601 14.0041C13.4588 13.9298 13.4425 13.8565 13.4123 13.7886C13.382 13.7207 13.3384 13.6596 13.284 13.6089L12.5681 12.8929H14.8303C15.1974 12.8929 15.5494 13.0387 15.8089 13.2983C16.0685 13.5578 16.2143 13.9098 16.2143 14.2769C16.2143 14.6439 16.0685 14.9959 15.8089 15.2554C15.5494 15.515 15.1974 15.6608 14.8303 15.6608H14C13.8532 15.6608 13.7124 15.7191 13.6085 15.8229C13.5047 15.9267 13.4464 16.0676 13.4464 16.2144C13.4464 16.3612 13.5047 16.502 13.6085 16.6058C13.7124 16.7096 13.8532 16.7679 14 16.7679H14.8303C15.1575 16.7679 15.4814 16.7035 15.7836 16.5783C16.0859 16.4531 16.3605 16.2696 16.5918 16.0383C16.8231 15.807 17.0066 15.5324 17.1318 15.2302C17.257 14.9279 17.3214 14.604 17.3214 14.2769C17.3214 13.9497 17.257 13.6258 17.1318 13.3236C17.0066 13.0213 16.8231 12.7467 16.5918 12.5154C16.3605 12.2841 16.0859 12.1006 15.7836 11.9754C15.4814 11.8502 15.1575 11.7858 14.8303 11.7858H12.5688L13.2848 11.0698H13.284Z" fill="url(#paint1_linear_46_2051)" style=""/>
<defs>
<linearGradient id="paint0_linear_46_2051" x1="14" y1="0" x2="14" y2="28" gradientUnits="userSpaceOnUse">
<stop stop-color="#0074FA" style="stop-color:#0074FA;stop-color:color(display-p3 0.0000 0.4560 0.9800);stop-opacity:1;"/>
<stop offset="1" stop-color="#00397A" style="stop-color:#00397A;stop-color:color(display-p3 0.0000 0.2233 0.4800);stop-opacity:1;"/>
</linearGradient>
<linearGradient id="paint1_linear_46_2051" x1="14" y1="5.89571" x2="14" y2="22.1043" gradientUnits="userSpaceOnUse">
<stop stop-color="#FCFCFC" style="stop-color:#FCFCFC;stop-color:color(display-p3 0.9900 0.9900 0.9900);stop-opacity:1;"/>
<stop offset="1" stop-color="#AFAFAF" style="stop-color:#AFAFAF;stop-color:color(display-p3 0.6863 0.6863 0.6863);stop-opacity:1;"/>
</linearGradient>
</defs>
</svg>
