<svg width="28" height="28" viewBox="0 0 28 28" fill="none" xmlns="http://www.w3.org/2000/svg">
<rect width="28" height="28" rx="6.53333" fill="url(#paint0_linear_46_1996)" style=""/>
<path d="M17.4884 6.26581C17.57 6.25275 17.6708 6.25121 17.7725 6.30292C17.8761 6.35562 17.933 6.43952 17.9688 6.51581C18.001 6.58427 18.0275 6.67093 18.0528 6.75311L19.3389 10.9357C19.3618 11.0099 19.3863 11.0895 19.3975 11.1584C19.4099 11.235 19.4124 11.3348 19.3575 11.4338C19.3036 11.5304 19.2203 11.582 19.1514 11.6135C19.0875 11.6426 19.0059 11.6673 18.9278 11.6916H18.9268L14.629 13.0285C14.5426 13.0554 14.4549 13.0829 14.38 13.0959C14.2985 13.11 14.1971 13.114 14.0948 13.0637C13.991 13.0124 13.9335 12.9284 13.8966 12.8527C13.8634 12.7847 13.8361 12.6983 13.8097 12.6164L13.5098 11.6896C13.4857 11.615 13.4587 11.5343 13.4464 11.465C13.4329 11.3884 13.4296 11.2886 13.4835 11.1887C13.5365 11.0906 13.6205 11.0382 13.6895 11.006C13.7536 10.9763 13.8356 10.951 13.9141 10.926L14.794 10.6457C14.2501 10.5476 13.6906 10.536 13.1407 10.6203C12.1167 10.7775 11.1869 11.2485 10.4962 11.9562H10.4952C9.80501 12.6639 9.39116 13.5693 9.31551 14.5295C9.23997 15.4899 9.50705 16.4563 10.0782 17.2766C10.6496 18.0971 11.4935 18.7259 12.4796 19.0607C13.4658 19.3956 14.5364 19.4169 15.5216 19.1223C16.5063 18.8277 17.3491 18.2343 17.92 17.4396C18.4205 16.7426 18.6888 15.9229 18.6973 15.0822C18.6982 14.9966 18.6984 14.9084 18.7081 14.8371C18.7184 14.7618 18.7441 14.6628 18.8263 14.5822L18.8878 14.5334C18.9505 14.4934 19.0173 14.4761 19.0723 14.467C19.1424 14.4554 19.229 14.4516 19.3155 14.4474L20.5694 14.3869C20.6579 14.3826 20.7489 14.3786 20.8243 14.3849C20.8861 14.3902 20.9569 14.4034 21.0245 14.4416L21.0909 14.4894L21.1466 14.549C21.1935 14.6113 21.2157 14.6799 21.2266 14.7433C21.2392 14.8162 21.2401 14.9035 21.2413 14.9816C21.2625 16.3519 20.8415 17.691 20.0304 18.8205C19.1424 20.0568 17.8382 20.972 16.3243 21.425C14.8103 21.8777 13.1688 21.8443 11.6573 21.3312C10.1458 20.818 8.84491 19.8526 7.96102 18.5832C7.07706 17.3135 6.65934 15.8102 6.77742 14.3098C6.89569 12.8093 7.5438 11.3994 8.61531 10.301C9.6867 9.20299 11.1219 8.47871 12.6934 8.23749C13.8907 8.05385 15.1178 8.1586 16.2628 8.53339L15.9102 7.35467C15.8878 7.27965 15.8634 7.19864 15.8526 7.12909C15.8407 7.05208 15.8395 6.95252 15.8956 6.8537L15.9415 6.78925C15.9918 6.73269 16.0532 6.69807 16.1055 6.67499C16.1701 6.6466 16.2521 6.62321 16.3311 6.59979L17.2384 6.33026C17.3251 6.30454 17.4132 6.2779 17.4884 6.26581ZM16.255 21.1926C16.0754 21.2463 15.8938 21.2926 15.711 21.3322C15.8005 21.3128 15.8898 21.2925 15.9786 21.2697L16.255 21.1935C16.3433 21.1671 16.4309 21.1372 16.5177 21.1076C16.4308 21.1373 16.3434 21.1661 16.255 21.1926ZM11.7354 21.1027C11.8243 21.1329 11.9141 21.1603 12.004 21.1867C11.9141 21.16 11.8244 21.132 11.7354 21.1017V21.1027ZM14.712 19.5334C14.8216 19.5206 14.9305 19.5031 15.0391 19.4836C14.9305 19.5031 14.8216 19.5205 14.712 19.5334ZM15.0684 19.4787C15.1709 19.4597 15.2729 19.4386 15.3741 19.4133L15.3956 19.4074C15.2874 19.4352 15.1781 19.4583 15.0684 19.4787ZM8.87313 19.3078C8.88742 19.3225 8.90265 19.3362 8.91707 19.3508C8.83676 19.2698 8.75785 19.1875 8.68172 19.1027L8.87313 19.3078ZM18.9386 15.0842C18.9341 15.5298 18.861 15.9694 18.7227 16.3898C18.6536 16.6 18.5681 16.8052 18.4669 17.0041C18.3657 17.203 18.2486 17.396 18.1163 17.5803H18.1173C18.6466 16.8431 18.9306 15.9753 18.9395 15.0842H18.9386ZM9.06356 14.7092C9.06056 14.8053 9.06109 14.9014 9.06453 14.9973C9.06105 14.9014 9.06045 14.8053 9.06356 14.7092ZM7.04989 14.0363C7.03721 14.1336 7.02636 14.2312 7.01864 14.3293L7.01961 14.3283C7.02732 14.2305 7.03748 14.1332 7.04989 14.0363ZM13.6964 11.3039C13.6786 11.337 13.676 11.3742 13.6847 11.423C13.6933 11.472 13.7131 11.5333 13.7393 11.6144L14.0391 12.5422H14.0401L13.7403 11.6144C13.6877 11.4516 13.6615 11.3703 13.6973 11.3039H13.6964ZM15.6612 10.6232L13.9874 11.1564H13.9884L15.6622 10.6232C15.5628 10.5881 15.4625 10.5557 15.3614 10.5265L15.6612 10.6232ZM16.1055 6.97284C16.0964 6.98904 16.0911 7.00635 16.0889 7.02557C16.0866 7.04526 16.088 7.06706 16.0919 7.09198C16.0995 7.14113 16.1173 7.20288 16.1417 7.28436L16.6329 8.92401L16.1427 7.28436C16.0936 7.12052 16.0691 7.03855 16.1065 6.97284C16.1159 6.95652 16.1278 6.94228 16.1436 6.92987L16.1055 6.97284ZM12.7296 8.47577C12.6346 8.49034 12.5402 8.50641 12.4464 8.5246C12.5403 8.50638 12.6355 8.49036 12.7305 8.47577C12.8258 8.46116 12.9211 8.44756 13.0167 8.43671C12.9209 8.44756 12.825 8.46113 12.7296 8.47577Z" fill="url(#paint1_linear_46_1996)" style=""/>
<defs>
<linearGradient id="paint0_linear_46_1996" x1="14" y1="0" x2="14" y2="28" gradientUnits="userSpaceOnUse">
<stop stop-color="#0074FA" style="stop-color:#0074FA;stop-color:color(display-p3 0.0000 0.4560 0.9800);stop-opacity:1;"/>
<stop offset="1" stop-color="#00397A" style="stop-color:#00397A;stop-color:color(display-p3 0.0000 0.2233 0.4800);stop-opacity:1;"/>
</linearGradient>
<linearGradient id="paint1_linear_46_1996" x1="13.9999" y1="5.89571" x2="13.9999" y2="22.1043" gradientUnits="userSpaceOnUse">
<stop stop-color="#FCFCFC" style="stop-color:#FCFCFC;stop-color:color(display-p3 0.9900 0.9900 0.9900);stop-opacity:1;"/>
<stop offset="1" stop-color="#AFAFAF" style="stop-color:#AFAFAF;stop-color:color(display-p3 0.6863 0.6863 0.6863);stop-opacity:1;"/>
</linearGradient>
</defs>
</svg>
