<svg width="28" height="28" viewBox="0 0 28 28" fill="none" xmlns="http://www.w3.org/2000/svg">
<rect width="28" height="28" rx="6.53333" fill="url(#paint0_linear_46_2049)" style=""/>
<path fill-rule="evenodd" clip-rule="evenodd" d="M12.0182 10.7406C14.1439 8.00888 17.4654 6.25 21.1964 6.25C21.3432 6.25 21.484 6.30832 21.5879 6.41214C21.6917 6.51595 21.75 6.65676 21.75 6.80357C21.75 10.5354 19.9911 13.8561 17.2594 15.9825C17.373 16.6942 17.3309 17.4221 17.1359 18.1159C16.9409 18.8098 16.5976 19.453 16.1299 20.0013C15.6621 20.5496 15.081 20.9899 14.4266 21.2918C13.7721 21.5937 13.06 21.75 12.3393 21.75C12.1925 21.75 12.0517 21.6917 11.9479 21.5879C11.844 21.484 11.7857 21.3432 11.7857 21.1964V18.1474C11.0682 17.5808 10.4197 16.932 9.85338 16.2143H6.80357C6.65676 16.2143 6.51595 16.156 6.41214 16.0521C6.30832 15.9483 6.25 15.8075 6.25 15.6607C6.24994 14.9399 6.40628 14.2277 6.70823 13.5732C7.01017 12.9187 7.45054 12.3376 7.99892 11.8698C8.54731 11.402 9.19067 11.0588 9.88458 10.8639C10.5785 10.6689 11.3065 10.6268 12.0182 10.7406ZM16.2143 10.125C15.7738 10.125 15.3514 10.3 15.04 10.6114C14.7285 10.9229 14.5536 11.3453 14.5536 11.7857C14.5536 12.2262 14.7285 12.6486 15.04 12.96C15.3514 13.2715 15.7738 13.4464 16.2143 13.4464C16.6547 13.4464 17.0771 13.2715 17.3886 12.96C17.7 12.6486 17.875 12.2262 17.875 11.7857C17.875 11.3453 17.7 10.9229 17.3886 10.6114C17.0771 10.3 16.6547 10.125 16.2143 10.125Z" fill="url(#paint1_linear_46_2049)" style=""/>
<path d="M9.02525 17.8691C9.08355 17.8256 9.13272 17.7711 9.16995 17.7086C9.20718 17.6462 9.23174 17.577 9.24222 17.505C9.25271 17.433 9.24892 17.3597 9.23107 17.2892C9.21321 17.2187 9.18165 17.1524 9.13818 17.0941C9.09471 17.0358 9.04018 16.9866 8.9777 16.9494C8.91523 16.9122 8.84603 16.8876 8.77407 16.8771C8.7021 16.8667 8.62878 16.8704 8.55827 16.8883C8.48777 16.9061 8.42148 16.9377 8.36318 16.9812C7.79698 17.4024 7.35672 17.9703 7.09003 18.6237C6.82333 19.277 6.74036 19.9908 6.85008 20.6879C6.86793 20.804 6.92224 20.9114 7.00517 20.9946C7.0881 21.0778 7.19535 21.1325 7.31139 21.1507C8.00855 21.2603 8.72241 21.1772 9.37575 20.9104C10.0291 20.6436 10.597 20.2032 11.0181 19.6368C11.063 19.5787 11.0958 19.5122 11.1148 19.4412C11.1337 19.3703 11.1383 19.2962 11.1283 19.2235C11.1183 19.1507 11.094 19.0806 11.0567 19.0174C11.0193 18.9541 10.9698 18.8989 10.9109 18.855C10.8521 18.8111 10.7851 18.7793 10.7138 18.7615C10.6425 18.7438 10.5684 18.7403 10.4958 18.7515C10.4232 18.7626 10.3536 18.7881 10.2909 18.8265C10.2283 18.8648 10.1739 18.9152 10.1309 18.9748C9.87352 19.3209 9.53865 19.6021 9.15312 19.7956C8.76759 19.9891 8.34211 20.0897 7.91073 20.0893C7.91073 19.1814 8.34768 18.3747 9.02525 17.8691Z" fill="url(#paint2_linear_46_2049)" style=""/>
<defs>
<linearGradient id="paint0_linear_46_2049" x1="14" y1="0" x2="14" y2="28" gradientUnits="userSpaceOnUse">
<stop stop-color="#0074FA" style="stop-color:#0074FA;stop-color:color(display-p3 0.0000 0.4560 0.9800);stop-opacity:1;"/>
<stop offset="1" stop-color="#00397A" style="stop-color:#00397A;stop-color:color(display-p3 0.0000 0.2233 0.4800);stop-opacity:1;"/>
</linearGradient>
<linearGradient id="paint1_linear_46_2049" x1="14" y1="5.89571" x2="14" y2="22.1043" gradientUnits="userSpaceOnUse">
<stop stop-color="#FCFCFC" style="stop-color:#FCFCFC;stop-color:color(display-p3 0.9900 0.9900 0.9900);stop-opacity:1;"/>
<stop offset="1" stop-color="#AFAFAF" style="stop-color:#AFAFAF;stop-color:color(display-p3 0.6863 0.6863 0.6863);stop-opacity:1;"/>
</linearGradient>
<linearGradient id="paint2_linear_46_2049" x1="14" y1="5.89571" x2="14" y2="22.1043" gradientUnits="userSpaceOnUse">
<stop stop-color="#FCFCFC" style="stop-color:#FCFCFC;stop-color:color(display-p3 0.9900 0.9900 0.9900);stop-opacity:1;"/>
<stop offset="1" stop-color="#AFAFAF" style="stop-color:#AFAFAF;stop-color:color(display-p3 0.6863 0.6863 0.6863);stop-opacity:1;"/>
</linearGradient>
</defs>
</svg>
