<svg width="28" height="28" viewBox="0 0 28 28" fill="none" xmlns="http://www.w3.org/2000/svg">
<rect width="28" height="28" rx="6.53333" fill="url(#paint0_linear_46_1829)" style=""/>
<path d="M14 6.25C18.2804 6.25011 21.75 9.71977 21.75 14C21.7499 18.2802 18.2804 21.7499 14 21.75C9.71951 21.75 6.25008 18.2802 6.25 14C6.25 9.7197 9.71946 6.25 14 6.25ZM13.1055 9.82715C12.5918 9.82726 12.0854 9.94795 11.627 10.1797C11.1684 10.4115 10.7705 10.7484 10.4658 11.1621C10.1613 11.5758 9.9583 12.055 9.87305 12.5615C9.78782 13.068 9.82227 13.5876 9.97461 14.0781C10.1271 14.5688 10.3926 15.0176 10.75 15.3867C11.1074 15.7558 11.5468 16.0359 12.0322 16.2041C12.5177 16.3723 13.0367 16.4233 13.5459 16.3545C14.0549 16.2856 14.5406 16.0986 14.9639 15.8076L16.5596 17.4014C16.6142 17.4599 16.6798 17.5075 16.7529 17.54C16.826 17.5726 16.9053 17.5904 16.9854 17.5918C17.0653 17.5932 17.1446 17.5778 17.2188 17.5479C17.2929 17.5179 17.3604 17.4736 17.417 17.417C17.4735 17.3604 17.5179 17.2929 17.5479 17.2188C17.5778 17.1447 17.5931 17.0652 17.5918 16.9854C17.5904 16.9053 17.5726 16.826 17.54 16.7529C17.5075 16.6799 17.4608 16.6141 17.4023 16.5596L15.8076 14.9639C16.1462 14.4716 16.3435 13.8962 16.3789 13.2998C16.4143 12.7033 16.286 12.108 16.0078 11.5791C15.7297 11.0504 15.3122 10.6076 14.8008 10.2988C14.2893 9.98999 13.703 9.82707 13.1055 9.82715ZM13.1055 11.0195C13.3795 11.0195 13.6511 11.0729 13.9043 11.1777C14.1573 11.2826 14.3874 11.4362 14.5811 11.6299C14.7748 11.8236 14.9283 12.0545 15.0332 12.3076C15.1379 12.5606 15.1924 12.8316 15.1924 13.1055C15.1924 13.6588 14.9724 14.1898 14.5811 14.5811C14.1897 14.9723 13.6589 15.1924 13.1055 15.1924C12.5521 15.1924 12.0212 14.9723 11.6299 14.5811C11.2386 14.1898 11.0186 13.6588 11.0186 13.1055C11.0186 12.8317 11.073 12.5606 11.1777 12.3076C11.2826 12.0545 11.4361 11.8236 11.6299 11.6299C11.8236 11.4362 12.0536 11.2826 12.3066 11.1777C12.5598 11.0729 12.8315 11.0195 13.1055 11.0195Z" fill="url(#paint1_linear_46_1829)" style=""/>
<defs>
<linearGradient id="paint0_linear_46_1829" x1="14" y1="0" x2="14" y2="28" gradientUnits="userSpaceOnUse">
<stop stop-color="#0074FA" style="stop-color:#0074FA;stop-color:color(display-p3 0.0000 0.4560 0.9800);stop-opacity:1;"/>
<stop offset="1" stop-color="#00397A" style="stop-color:#00397A;stop-color:color(display-p3 0.0000 0.2233 0.4800);stop-opacity:1;"/>
</linearGradient>
<linearGradient id="paint1_linear_46_1829" x1="14" y1="5.89571" x2="14" y2="22.1043" gradientUnits="userSpaceOnUse">
<stop stop-color="#FCFCFC" style="stop-color:#FCFCFC;stop-color:color(display-p3 0.9900 0.9900 0.9900);stop-opacity:1;"/>
<stop offset="1" stop-color="#AFAFAF" style="stop-color:#AFAFAF;stop-color:color(display-p3 0.6863 0.6863 0.6863);stop-opacity:1;"/>
</linearGradient>
</defs>
</svg>
