<svg width="28" height="28" viewBox="0 0 28 28" fill="none" xmlns="http://www.w3.org/2000/svg">
<rect width="28" height="28" rx="6.53333" fill="url(#paint0_linear_46_1965)" style=""/>
<path d="M14.5205 6.33112L19.6492 7.96833C20.3604 8.19539 20.8381 8.84833 20.8381 9.59286V15.9468C20.8381 19.3635 16.0074 21.1897 14.5254 21.6673C14.1834 21.7776 13.8153 21.7776 13.4733 21.6673C11.9923 21.1897 7.16163 19.3644 7.16163 15.9468V9.59286C7.16077 9.23127 7.27548 8.87881 7.48909 8.58668C7.70271 8.29455 8.00411 8.07795 8.34952 7.96833L13.4792 6.33112C13.8178 6.22296 14.1819 6.22296 14.5205 6.33112Z" fill="url(#paint1_linear_46_1965)" style=""/>
<defs>
<linearGradient id="paint0_linear_46_1965" x1="14" y1="0" x2="14" y2="28" gradientUnits="userSpaceOnUse">
<stop stop-color="#0074FA" style="stop-color:#0074FA;stop-color:color(display-p3 0.0000 0.4560 0.9800);stop-opacity:1;"/>
<stop offset="1" stop-color="#00397A" style="stop-color:#00397A;stop-color:color(display-p3 0.0000 0.2233 0.4800);stop-opacity:1;"/>
</linearGradient>
<linearGradient id="paint1_linear_46_1965" x1="13.9999" y1="5.89571" x2="13.9999" y2="22.1043" gradientUnits="userSpaceOnUse">
<stop stop-color="#FCFCFC" style="stop-color:#FCFCFC;stop-color:color(display-p3 0.9900 0.9900 0.9900);stop-opacity:1;"/>
<stop offset="1" stop-color="#AFAFAF" style="stop-color:#AFAFAF;stop-color:color(display-p3 0.6863 0.6863 0.6863);stop-opacity:1;"/>
</linearGradient>
</defs>
</svg>
