<svg width="28" height="28" viewBox="0 0 28 28" fill="none" xmlns="http://www.w3.org/2000/svg">
<rect width="28" height="28" rx="6.53333" fill="url(#paint0_linear_46_2037)" style=""/>
<path d="M10.2761 21.2166C10.1401 21.2166 10.0068 21.1783 9.89155 21.1061C8.7746 20.4118 7.85371 19.4434 7.21636 18.293C6.57901 17.1426 6.24637 15.8483 6.25003 14.5332C6.25003 10.26 9.72686 6.7832 14 6.7832C18.2731 6.7832 21.75 10.26 21.75 14.5332C21.7536 15.8483 21.421 17.1426 20.7836 18.293C20.1463 19.4434 19.2254 20.4118 18.1085 21.1061C17.945 21.2084 17.7477 21.2415 17.5599 21.1983C17.372 21.1551 17.209 21.039 17.1068 20.8756C17.0045 20.7122 16.9714 20.5148 17.0146 20.327C17.0578 20.1391 17.1739 19.9761 17.3373 19.8739C18.245 19.3098 18.9934 18.523 19.5114 17.5883C20.0294 16.6535 20.2998 15.6018 20.2969 14.5332C20.2969 11.0612 17.472 8.23632 14 8.23632C12.3306 8.23837 10.7302 8.90245 9.54972 10.0829C8.36928 11.2633 7.7052 12.8638 7.70315 14.5332C7.70023 15.6018 7.97061 16.6535 8.4886 17.5883C9.00659 18.523 9.75498 19.3098 10.6627 19.8739C10.7966 19.9576 10.8995 20.0826 10.956 20.23C11.0125 20.3774 11.0195 20.5393 10.9758 20.691C10.9321 20.8427 10.8402 20.9761 10.714 21.0709C10.5877 21.1657 10.434 21.2169 10.2761 21.2166Z" fill="url(#paint1_linear_46_2037)" style=""/>
<path d="M16.1826 18.7511C16.0243 18.7522 15.87 18.7015 15.7433 18.6067C15.6165 18.512 15.5242 18.3784 15.4804 18.2263C15.4366 18.0742 15.4438 17.912 15.5008 17.7643C15.5577 17.6167 15.6614 17.4917 15.796 17.4084C16.2849 17.1046 16.688 16.6809 16.9671 16.1775C17.2462 15.6742 17.3919 15.1078 17.3906 14.5322C17.3906 12.6625 15.8697 11.1416 14 11.1416C12.1303 11.1416 10.6094 12.6625 10.6094 14.5322C10.6094 15.7073 11.2052 16.7826 12.2039 17.4084C12.3672 17.5108 12.4831 17.6739 12.5262 17.8617C12.5692 18.0496 12.5359 18.2468 12.4335 18.4101C12.3311 18.5734 12.1681 18.6893 11.9802 18.7324C11.7924 18.7754 11.5951 18.7421 11.4318 18.6397C10.7339 18.2058 10.1585 17.6006 9.76022 16.8817C9.36195 16.1628 9.15405 15.3541 9.15626 14.5322C9.15626 11.8614 11.3292 9.6885 14 9.6885C16.6708 9.6885 18.8437 11.8614 18.8437 14.5322C18.8459 15.3541 18.638 16.1628 18.2398 16.8817C17.8415 17.6006 17.2661 18.2058 16.5681 18.6397C16.4525 18.7121 16.319 18.7507 16.1826 18.7511Z" fill="url(#paint2_linear_46_2037)" style=""/>
<path d="M14 16.4707C14.5138 16.4707 15.0066 16.2665 15.37 15.9032C15.7333 15.5398 15.9375 15.047 15.9375 14.5332C15.9375 14.0193 15.7333 13.5265 15.37 13.1632C15.0066 12.7998 14.5138 12.5957 14 12.5957C13.4861 12.5957 12.9933 12.7998 12.63 13.1632C12.2666 13.5265 12.0625 14.0193 12.0625 14.5332C12.0625 15.047 12.2666 15.5398 12.63 15.9032C12.9933 16.2665 13.4861 16.4707 14 16.4707Z" fill="url(#paint3_linear_46_2037)" style=""/>
<defs>
<linearGradient id="paint0_linear_46_2037" x1="14" y1="0" x2="14" y2="28" gradientUnits="userSpaceOnUse">
<stop stop-color="#0074FA" style="stop-color:#0074FA;stop-color:color(display-p3 0.0000 0.4560 0.9800);stop-opacity:1;"/>
<stop offset="1" stop-color="#00397A" style="stop-color:#00397A;stop-color:color(display-p3 0.0000 0.2233 0.4800);stop-opacity:1;"/>
</linearGradient>
<linearGradient id="paint1_linear_46_2037" x1="14" y1="6.45329" x2="14" y2="21.5467" gradientUnits="userSpaceOnUse">
<stop stop-color="#FCFCFC" style="stop-color:#FCFCFC;stop-color:color(display-p3 0.9900 0.9900 0.9900);stop-opacity:1;"/>
<stop offset="1" stop-color="#AFAFAF" style="stop-color:#AFAFAF;stop-color:color(display-p3 0.6863 0.6863 0.6863);stop-opacity:1;"/>
</linearGradient>
<linearGradient id="paint2_linear_46_2037" x1="14" y1="6.45329" x2="14" y2="21.5467" gradientUnits="userSpaceOnUse">
<stop stop-color="#FCFCFC" style="stop-color:#FCFCFC;stop-color:color(display-p3 0.9900 0.9900 0.9900);stop-opacity:1;"/>
<stop offset="1" stop-color="#AFAFAF" style="stop-color:#AFAFAF;stop-color:color(display-p3 0.6863 0.6863 0.6863);stop-opacity:1;"/>
</linearGradient>
<linearGradient id="paint3_linear_46_2037" x1="14" y1="6.45329" x2="14" y2="21.5467" gradientUnits="userSpaceOnUse">
<stop stop-color="#FCFCFC" style="stop-color:#FCFCFC;stop-color:color(display-p3 0.9900 0.9900 0.9900);stop-opacity:1;"/>
<stop offset="1" stop-color="#AFAFAF" style="stop-color:#AFAFAF;stop-color:color(display-p3 0.6863 0.6863 0.6863);stop-opacity:1;"/>
</linearGradient>
</defs>
</svg>
