<svg width="28" height="28" viewBox="0 0 28 28" fill="none" xmlns="http://www.w3.org/2000/svg">
<rect width="28" height="28" rx="6.53333" fill="url(#paint0_linear_46_2031)" style=""/>
<path fill-rule="evenodd" clip-rule="evenodd" d="M11.785 8.46447C11.9053 8.46449 12.0223 8.50369 12.1183 8.57615C12.2143 8.6486 12.2841 8.75036 12.3172 8.86602L12.9172 10.9668C13.0464 11.4192 13.2888 11.8313 13.6214 12.164C13.9541 12.4967 14.3661 12.7391 14.8184 12.8683L16.9189 13.4684C17.0345 13.5015 17.1362 13.5714 17.2085 13.6674C17.2809 13.7634 17.32 13.8804 17.32 14.0006C17.32 14.1209 17.2809 14.2378 17.2085 14.3339C17.1362 14.4299 17.0345 14.4997 16.9189 14.5328L14.8184 15.133C14.3661 15.2622 13.9541 15.5046 13.6214 15.8373C13.2888 16.17 13.0464 16.582 12.9172 17.0344L12.3172 19.1352C12.284 19.2508 12.2142 19.3525 12.1182 19.4249C12.0222 19.4972 11.9052 19.5364 11.785 19.5364C11.6648 19.5364 11.5478 19.4972 11.4518 19.4249C11.3558 19.3525 11.286 19.2508 11.2529 19.1352L10.6528 17.0344C10.5236 16.582 10.2813 16.17 9.94861 15.8373C9.61594 15.5046 9.20398 15.2622 8.75161 15.133L6.6511 14.5328C6.53553 14.4997 6.43387 14.4299 6.36151 14.3339C6.28914 14.2378 6.25 14.1209 6.25 14.0006C6.25 13.8804 6.28914 13.7634 6.36151 13.6674C6.43387 13.5714 6.53553 13.5015 6.6511 13.4684L8.75161 12.8683C9.20398 12.7391 9.61594 12.4967 9.94861 12.164C10.2813 11.8313 10.5236 11.4192 10.6528 10.9668L11.2529 8.86602C11.2859 8.75036 11.3557 8.6486 11.4517 8.57615C11.5477 8.50369 11.6647 8.46449 11.785 8.46447ZM18.4275 6.25C18.551 6.24993 18.671 6.29116 18.7683 6.36714C18.8657 6.44311 18.9349 6.54946 18.9648 6.66927L19.1552 7.434C19.3294 8.12787 19.8711 8.66967 20.5649 8.84388L21.3295 9.03432C21.4496 9.06405 21.5562 9.13313 21.6324 9.23052C21.7086 9.32792 21.75 9.44803 21.75 9.5717C21.75 9.69537 21.7086 9.81548 21.6324 9.91287C21.5562 10.0103 21.4496 10.0793 21.3295 10.1091L20.5649 10.2995C19.8711 10.4737 19.3294 11.0155 19.1552 11.7094L18.9648 12.4741C18.9351 12.5942 18.866 12.7008 18.7686 12.777C18.6713 12.8532 18.5512 12.8946 18.4275 12.8946C18.3039 12.8946 18.1838 12.8532 18.0864 12.777C17.989 12.7008 17.9199 12.5942 17.8902 12.4741L17.6998 11.7094C17.6146 11.3687 17.4385 11.0575 17.1902 10.8092C16.9419 10.5609 16.6308 10.3847 16.2901 10.2995L15.5255 10.1091C15.4055 10.0793 15.2988 10.0103 15.2226 9.91287C15.1464 9.81548 15.105 9.69537 15.105 9.5717C15.105 9.44803 15.1464 9.32792 15.2226 9.23052C15.2988 9.13313 15.4055 9.06405 15.5255 9.03432L16.2901 8.84388C16.6308 8.7587 16.9419 8.58253 17.1902 8.3342C17.4385 8.08587 17.6146 7.77471 17.6998 7.434L17.8902 6.66927C17.9202 6.54946 17.9893 6.44311 18.0867 6.36714C18.1841 6.29116 18.304 6.24993 18.4275 6.25ZM17.3204 16.2151C17.4367 16.215 17.55 16.2516 17.6443 16.3195C17.7387 16.3875 17.8092 16.4835 17.8459 16.5938L18.1367 17.467C18.2474 17.797 18.5057 18.0568 18.8364 18.1668L19.7095 18.4583C19.8195 18.4953 19.915 18.5658 19.9827 18.66C20.0505 18.7541 20.0869 18.8672 20.0869 18.9832C20.0869 19.0992 20.0505 19.2122 19.9827 19.3064C19.915 19.4006 19.8195 19.4711 19.7095 19.508L18.8364 19.7996C18.5065 19.9103 18.2467 20.1687 18.1367 20.4993L17.8452 21.3726C17.8083 21.4825 17.7378 21.5781 17.6436 21.6458C17.5495 21.7136 17.4364 21.75 17.3204 21.75C17.2045 21.75 17.0914 21.7136 16.9973 21.6458C16.9031 21.5781 16.8326 21.4825 16.7957 21.3726L16.5041 20.4993C16.4498 20.3364 16.3583 20.1884 16.2368 20.0669C16.1154 19.9455 15.9674 19.8539 15.8045 19.7996L14.9313 19.508C14.8214 19.4711 14.7258 19.4006 14.6581 19.3064C14.5904 19.2122 14.554 19.0992 14.554 18.9832C14.554 18.8672 14.5904 18.7541 14.6581 18.66C14.7258 18.5658 14.8214 18.4953 14.9313 18.4583L15.8045 18.1668C16.1344 18.0561 16.3942 17.7977 16.5041 17.467L16.7957 16.5938C16.8324 16.4836 16.9028 16.3877 16.997 16.3198C17.0911 16.2518 17.2043 16.2152 17.3204 16.2151Z" fill="url(#paint1_linear_46_2031)" style=""/>
<defs>
<linearGradient id="paint0_linear_46_2031" x1="14" y1="0" x2="14" y2="28" gradientUnits="userSpaceOnUse">
<stop stop-color="#0074FA" style="stop-color:#0074FA;stop-color:color(display-p3 0.0000 0.4560 0.9800);stop-opacity:1;"/>
<stop offset="1" stop-color="#00397A" style="stop-color:#00397A;stop-color:color(display-p3 0.0000 0.2233 0.4800);stop-opacity:1;"/>
</linearGradient>
<linearGradient id="paint1_linear_46_2031" x1="14" y1="5.89571" x2="14" y2="22.1043" gradientUnits="userSpaceOnUse">
<stop stop-color="#FCFCFC" style="stop-color:#FCFCFC;stop-color:color(display-p3 0.9900 0.9900 0.9900);stop-opacity:1;"/>
<stop offset="1" stop-color="#AFAFAF" style="stop-color:#AFAFAF;stop-color:color(display-p3 0.6863 0.6863 0.6863);stop-opacity:1;"/>
</linearGradient>
</defs>
</svg>
