<svg width="28" height="28" viewBox="0 0 28 28" fill="none" xmlns="http://www.w3.org/2000/svg">
<rect width="28" height="28" rx="6.53333" fill="url(#paint0_linear_46_1861)" style=""/>
<path fill-rule="evenodd" clip-rule="evenodd" d="M14 7.46219C18.3961 7.46219 21.9119 11.1148 21.7442 15.5077L21.6762 17.2918C21.607 19.1042 20.1176 20.5378 18.3039 20.5378H9.69613C7.88239 20.5378 6.39301 19.1042 6.32384 17.2918L6.25576 15.5077C6.08809 11.1148 9.60393 7.46219 14 7.46219ZM9.36973 16.1977C8.92956 16.1977 8.57274 16.5545 8.57274 16.9947C8.57274 17.4349 8.92956 17.7917 9.36973 17.7917C9.8099 17.7917 10.1667 17.4349 10.1667 16.9947C10.1667 16.5545 9.8099 16.1977 9.36973 16.1977ZM18.7344 16.1977C18.2942 16.1977 17.9374 16.5545 17.9374 16.9947C17.9374 17.4349 18.2942 17.7917 18.7344 17.7917C19.1745 17.7917 19.5314 17.4349 19.5314 16.9947C19.5314 16.5545 19.1745 16.1977 18.7344 16.1977ZM17.6547 11.2697C17.827 10.9589 17.4098 10.6607 17.1715 10.9244L12.8616 15.6957C12.5967 15.989 12.633 16.4448 12.9412 16.6923L13.4858 17.1299C13.8181 17.3968 14.3107 17.3001 14.5175 16.9273L17.6547 11.2697ZM9.49426 13.2588C9.05409 13.2588 8.69727 13.6156 8.69727 14.0558C8.69727 14.496 9.05409 14.8528 9.49426 14.8528C9.93443 14.8528 10.2913 14.496 10.2913 14.0558C10.2913 13.6156 9.93443 13.2588 9.49426 13.2588ZM18.6098 13.2588C18.1697 13.2588 17.8128 13.6156 17.8128 14.0558C17.8128 14.496 18.1697 14.8528 18.6098 14.8528C19.05 14.8528 19.4068 14.496 19.4068 14.0558C19.4068 13.6156 19.05 13.2588 18.6098 13.2588ZM11.2626 10.9675C10.8224 10.9675 10.4656 11.3243 10.4656 11.7644C10.4656 12.2046 10.8224 12.5614 11.2626 12.5614C11.7027 12.5614 12.0596 12.2046 12.0596 11.7644C12.0596 11.3243 11.7027 10.9675 11.2626 10.9675ZM14.052 10.0708C13.6119 10.0708 13.2551 10.4277 13.2551 10.8678C13.2551 11.308 13.6119 11.6648 14.052 11.6648C14.4922 11.6648 14.849 11.308 14.849 10.8678C14.849 10.4277 14.4922 10.0708 14.052 10.0708Z" fill="url(#paint1_linear_46_1861)" style=""/>
<defs>
<linearGradient id="paint0_linear_46_1861" x1="14" y1="0" x2="14" y2="28" gradientUnits="userSpaceOnUse">
<stop stop-color="#0074FA" style="stop-color:#0074FA;stop-color:color(display-p3 0.0000 0.4560 0.9800);stop-opacity:1;"/>
<stop offset="1" stop-color="#00397A" style="stop-color:#00397A;stop-color:color(display-p3 0.0000 0.2233 0.4800);stop-opacity:1;"/>
</linearGradient>
<linearGradient id="paint1_linear_46_1861" x1="14" y1="7.16332" x2="14" y2="20.8367" gradientUnits="userSpaceOnUse">
<stop stop-color="#FCFCFC" style="stop-color:#FCFCFC;stop-color:color(display-p3 0.9900 0.9900 0.9900);stop-opacity:1;"/>
<stop offset="1" stop-color="#AFAFAF" style="stop-color:#AFAFAF;stop-color:color(display-p3 0.6863 0.6863 0.6863);stop-opacity:1;"/>
</linearGradient>
</defs>
</svg>
