<svg width="28" height="28" viewBox="0 0 28 28" fill="none" xmlns="http://www.w3.org/2000/svg">
<rect width="28" height="28" rx="6.53333" fill="url(#paint0_linear_46_1960)" style=""/>
<path d="M8.88579 8.07206C9.19258 7.98757 9.50907 7.94495 9.82692 7.94531H18.1731C18.499 7.94531 18.8137 7.98971 19.1134 8.07206C18.9152 7.67001 18.6108 7.33193 18.2341 7.09567C17.8574 6.85942 17.4235 6.73432 16.9808 6.73438H11.0192C10.5764 6.73417 10.1423 6.8592 9.76544 7.09546C9.38863 7.33173 9.08404 7.66989 8.88579 8.07206ZM6.25 14C6.25 13.3577 6.50124 12.7417 6.94844 12.2875C7.39564 11.8333 8.00218 11.5781 8.63462 11.5781H19.3654C19.9978 11.5781 20.6044 11.8333 21.0516 12.2875C21.4988 12.7417 21.75 13.3577 21.75 14V18.8437C21.75 19.4861 21.4988 20.1021 21.0516 20.5563C20.6044 21.0105 19.9978 21.2656 19.3654 21.2656H8.63462C8.00218 21.2656 7.39564 21.0105 6.94844 20.5563C6.50124 20.1021 6.25 19.4861 6.25 18.8437V14ZM8.63462 10.3672C8.30872 10.3672 7.99395 10.4116 7.69349 10.4939C7.89173 10.0918 8.19632 9.7536 8.57313 9.51734C8.94994 9.28107 9.38409 9.15604 9.82692 9.15625H18.1731C18.6158 9.15619 19.0498 9.28129 19.4264 9.51755C19.8031 9.7538 20.1075 10.0919 20.3057 10.4939C19.9992 10.4095 19.683 10.3669 19.3654 10.3672H8.63462Z" fill="url(#paint1_linear_46_1960)" style=""/>
<defs>
<linearGradient id="paint0_linear_46_1960" x1="14" y1="0" x2="14" y2="28" gradientUnits="userSpaceOnUse">
<stop stop-color="#0074FA" style="stop-color:#0074FA;stop-color:color(display-p3 0.0000 0.4560 0.9800);stop-opacity:1;"/>
<stop offset="1" stop-color="#00397A" style="stop-color:#00397A;stop-color:color(display-p3 0.0000 0.2233 0.4800);stop-opacity:1;"/>
</linearGradient>
<linearGradient id="paint1_linear_46_1960" x1="14" y1="6.40223" x2="14" y2="21.5978" gradientUnits="userSpaceOnUse">
<stop stop-color="#FCFCFC" style="stop-color:#FCFCFC;stop-color:color(display-p3 0.9900 0.9900 0.9900);stop-opacity:1;"/>
<stop offset="1" stop-color="#AFAFAF" style="stop-color:#AFAFAF;stop-color:color(display-p3 0.6863 0.6863 0.6863);stop-opacity:1;"/>
</linearGradient>
</defs>
</svg>
