<svg width="28" height="28" viewBox="0 0 28 28" fill="none" xmlns="http://www.w3.org/2000/svg">
<rect width="28" height="28" rx="6.53333" fill="url(#paint0_linear_46_1821)" style=""/>
<path fill-rule="evenodd" clip-rule="evenodd" d="M12.646 8.95822C13.0647 8.95942 13.4663 9.12559 13.7629 9.42106L18.9925 14.6506C19.4619 15.1191 19.7198 15.7423 19.7198 16.4058C19.7198 17.0694 19.4619 17.6925 18.9925 18.1611L16.1291 21.0245C15.8988 21.2551 15.6245 21.4377 15.3233 21.5622C15.0223 21.6867 14.6997 21.7506 14.3739 21.75C14.0481 21.7506 13.7255 21.6867 13.4244 21.5622C13.1233 21.4377 12.8489 21.2551 12.6187 21.0245L7.3891 15.7949C7.09031 15.497 6.92627 15.0995 6.92627 14.6779V9.63528C6.92627 9.45571 6.99765 9.28355 7.12463 9.15658C7.2516 9.02961 7.42376 8.95822 7.60333 8.95822H12.646ZM10.7629 11.6664C10.1409 11.6664 9.63449 12.1729 9.63449 12.7949C9.63449 13.4169 10.1409 13.9233 10.7629 13.9233C11.3849 13.9233 11.8913 13.4169 11.8913 12.7949C11.8913 12.1729 11.3849 11.6664 10.7629 11.6664Z" fill="url(#paint1_linear_46_1821)" style=""/>
<path d="M14.0001 6.25C14.4162 6.25 14.8228 6.41855 15.1171 6.71283L20.3466 11.9424C20.862 12.4587 21.1246 13.172 21.0651 13.8986C21.0517 14.068 20.9748 14.2268 20.85 14.3421C20.7252 14.4572 20.5614 14.5211 20.3916 14.521C20.3726 14.521 20.3541 14.5219 20.3352 14.5201C20.1564 14.5055 19.9903 14.4205 19.8741 14.2839C19.7578 14.1471 19.7009 13.9691 19.7154 13.7902C19.7284 13.6272 19.7056 13.4632 19.6493 13.3097C19.5929 13.1561 19.5038 13.0166 19.3883 12.9007L14.1597 7.67023C14.117 7.62836 14.0599 7.60449 14.0001 7.60411H9.5957C9.54242 7.75462 9.43723 7.88128 9.29949 7.96203C9.1618 8.0427 9.00012 8.07277 8.84283 8.04579C8.68554 8.01878 8.54287 7.93678 8.43995 7.81481C8.33701 7.69276 8.28045 7.53809 8.28038 7.37843V6.92706C8.28038 6.74749 8.35177 6.57533 8.47874 6.44836C8.60571 6.32138 8.77787 6.25 8.95744 6.25H14.0001Z" fill="url(#paint2_linear_46_1821)" style=""/>
<defs>
<linearGradient id="paint0_linear_46_1821" x1="14" y1="0" x2="14" y2="28" gradientUnits="userSpaceOnUse">
<stop stop-color="#0074FA" style="stop-color:#0074FA;stop-color:color(display-p3 0.0000 0.4560 0.9800);stop-opacity:1;"/>
<stop offset="1" stop-color="#00397A" style="stop-color:#00397A;stop-color:color(display-p3 0.0000 0.2233 0.4800);stop-opacity:1;"/>
</linearGradient>
<linearGradient id="paint1_linear_46_1821" x1="13.9998" y1="5.89571" x2="13.9998" y2="22.1043" gradientUnits="userSpaceOnUse">
<stop stop-color="#FCFCFC" style="stop-color:#FCFCFC;stop-color:color(display-p3 0.9900 0.9900 0.9900);stop-opacity:1;"/>
<stop offset="1" stop-color="#AFAFAF" style="stop-color:#AFAFAF;stop-color:color(display-p3 0.6863 0.6863 0.6863);stop-opacity:1;"/>
</linearGradient>
<linearGradient id="paint2_linear_46_1821" x1="13.9998" y1="5.89571" x2="13.9998" y2="22.1043" gradientUnits="userSpaceOnUse">
<stop stop-color="#FCFCFC" style="stop-color:#FCFCFC;stop-color:color(display-p3 0.9900 0.9900 0.9900);stop-opacity:1;"/>
<stop offset="1" stop-color="#AFAFAF" style="stop-color:#AFAFAF;stop-color:color(display-p3 0.6863 0.6863 0.6863);stop-opacity:1;"/>
</linearGradient>
</defs>
</svg>
