<svg width="28" height="28" viewBox="0 0 28 28" fill="none" xmlns="http://www.w3.org/2000/svg">
<rect width="28" height="28" rx="6.53333" fill="url(#paint0_linear_46_2053)" style=""/>
<path d="M14.001 13.0316C14.4462 13.0316 14.8872 12.9439 15.2986 12.7735C15.7099 12.6031 16.0837 12.3533 16.3986 12.0384C16.7135 11.7236 16.9632 11.3498 17.1336 10.9384C17.304 10.527 17.3917 10.0861 17.3917 9.64079C17.3917 9.19551 17.304 8.75458 17.1336 8.34319C16.9632 7.9318 16.7135 7.558 16.3986 7.24314C16.0837 6.92828 15.7099 6.67851 15.2986 6.50811C14.8872 6.33771 14.4462 6.25 14.001 6.25C13.1017 6.25 12.2392 6.60724 11.6033 7.24314C10.9674 7.87904 10.6102 8.7415 10.6102 9.64079C10.6102 10.5401 10.9674 11.4025 11.6033 12.0384C12.2392 12.6743 13.1017 13.0316 14.001 13.0316ZM14.001 14.0004C12.6884 14.0018 11.4045 14.3839 10.3048 15.1005C9.20511 15.817 8.33692 16.8372 7.8055 18.0374C7.68245 18.3161 7.61953 18.6176 7.62087 18.9222C7.62221 19.2269 7.68776 19.5278 7.81325 19.8054C7.94228 20.0894 8.12964 20.343 8.36315 20.5498C8.59666 20.7567 8.8711 20.912 9.1686 21.0058C12.3131 21.9981 15.6869 21.9981 18.8314 21.0058C19.1289 20.9121 19.4034 20.7568 19.6369 20.55C19.8705 20.3432 20.0578 20.0895 20.1867 19.8054C20.4406 19.2435 20.4435 18.5993 20.1945 18.0374C19.6631 16.8372 18.7949 15.817 17.6952 15.1005C16.5955 14.3839 15.3116 14.0018 13.999 14.0004H14.001Z" fill="url(#paint1_linear_46_2053)" style=""/>
<defs>
<linearGradient id="paint0_linear_46_2053" x1="14" y1="0" x2="14" y2="28" gradientUnits="userSpaceOnUse">
<stop stop-color="#0074FA" style="stop-color:#0074FA;stop-color:color(display-p3 0.0000 0.4560 0.9800);stop-opacity:1;"/>
<stop offset="1" stop-color="#00397A" style="stop-color:#00397A;stop-color:color(display-p3 0.0000 0.2233 0.4800);stop-opacity:1;"/>
</linearGradient>
<linearGradient id="paint1_linear_46_2053" x1="14" y1="5.89571" x2="14" y2="22.1043" gradientUnits="userSpaceOnUse">
<stop stop-color="#FCFCFC" style="stop-color:#FCFCFC;stop-color:color(display-p3 0.9900 0.9900 0.9900);stop-opacity:1;"/>
<stop offset="1" stop-color="#AFAFAF" style="stop-color:#AFAFAF;stop-color:color(display-p3 0.6863 0.6863 0.6863);stop-opacity:1;"/>
</linearGradient>
</defs>
</svg>
