<svg width="28" height="28" viewBox="0 0 28 28" fill="none" xmlns="http://www.w3.org/2000/svg">
<rect width="28" height="28" rx="6.53333" fill="url(#paint0_linear_46_1857)" style=""/>
<path d="M21.5482 16.2817C21.1173 15.4172 20.4533 14.6904 19.6313 14.1833C18.8092 13.6762 17.8617 13.4089 16.8958 13.4117C16.6284 13.4117 16.3685 13.4409 16.1077 13.471C15.7297 13.5215 15.3576 13.6089 14.9966 13.7319C16.3902 14.4292 17.5225 15.5562 18.2263 16.9465C18.6123 17.7101 18.6782 18.5848 18.4551 19.4078C18.6519 19.3871 18.8289 19.3616 18.9683 19.3296C19.6057 19.1809 20.0869 19.0575 20.5181 18.904C20.7652 18.8151 20.9906 18.6746 21.1794 18.492C21.3682 18.3094 21.5161 18.0888 21.6132 17.8447C21.7136 17.5943 21.7597 17.3253 21.7483 17.0557C21.7369 16.786 21.6684 16.5219 21.5473 16.2808L21.5482 16.2817ZM16.9674 17.5849C16.4794 16.6114 15.7296 15.7933 14.8023 15.2224C13.875 14.6516 12.8069 14.3506 11.718 14.3533C10.6291 14.3506 9.56098 14.6516 8.63368 15.2224C7.70638 15.7933 6.95663 16.6114 6.46864 17.5849C6.33694 17.8465 6.26291 18.1334 6.25154 18.4261C6.24017 18.7188 6.29173 19.0105 6.40273 19.2816C6.51684 19.564 6.69008 19.8186 6.9108 20.0284C7.13151 20.2383 7.39459 20.3984 7.68235 20.4981C10.2961 21.4065 13.1399 21.4065 15.7537 20.4981C16.041 20.3981 16.3037 20.2378 16.524 20.028C16.7444 19.8182 16.9174 19.5637 17.0314 19.2816C17.1424 19.0106 17.1941 18.719 17.1831 18.4263C17.172 18.1336 17.0985 17.8467 16.9674 17.5849ZM16.8968 6.82059C16.3553 6.82059 15.8535 6.9816 15.4232 7.24619C16.0687 8.06395 16.4217 9.07433 16.426 10.1162C16.426 10.8977 16.2169 11.6236 15.878 12.2724C16.1953 12.3957 16.5361 12.4701 16.8968 12.4701C18.4542 12.4701 19.7215 11.2028 19.7215 9.64536C19.7215 8.08797 18.4542 6.82059 16.8968 6.82059ZM11.718 13.4117C12.1508 13.4117 12.5793 13.3265 12.9792 13.1609C13.379 12.9952 13.7423 12.7525 14.0483 12.4465C14.3543 12.1405 14.5971 11.7772 14.7627 11.3773C14.9283 10.9775 15.0136 10.5489 15.0136 10.1162C15.0136 9.68338 14.9283 9.25483 14.7627 8.855C14.5971 8.45516 14.3543 8.09186 14.0483 7.78584C13.7423 7.47982 13.379 7.23707 12.9792 7.07145C12.5793 6.90583 12.1508 6.82059 11.718 6.82059C10.844 6.82059 10.0057 7.1678 9.38769 7.78584C8.76965 8.40388 8.42244 9.24212 8.42244 10.1162C8.42244 10.9902 8.76965 11.8284 9.38769 12.4465C10.0057 13.0645 10.844 13.4117 11.718 13.4117Z" fill="url(#paint1_linear_46_1857)" style=""/>
<defs>
<linearGradient id="paint0_linear_46_1857" x1="14" y1="0" x2="14" y2="28" gradientUnits="userSpaceOnUse">
<stop stop-color="#0074FA" style="stop-color:#0074FA;stop-color:color(display-p3 0.0000 0.4560 0.9800);stop-opacity:1;"/>
<stop offset="1" stop-color="#00397A" style="stop-color:#00397A;stop-color:color(display-p3 0.0000 0.2233 0.4800);stop-opacity:1;"/>
</linearGradient>
<linearGradient id="paint1_linear_46_1857" x1="14" y1="6.49239" x2="14" y2="21.5076" gradientUnits="userSpaceOnUse">
<stop stop-color="#FCFCFC" style="stop-color:#FCFCFC;stop-color:color(display-p3 0.9900 0.9900 0.9900);stop-opacity:1;"/>
<stop offset="1" stop-color="#AFAFAF" style="stop-color:#AFAFAF;stop-color:color(display-p3 0.6863 0.6863 0.6863);stop-opacity:1;"/>
</linearGradient>
</defs>
</svg>
