<svg width="28" height="28" viewBox="0 0 28 28" fill="none" xmlns="http://www.w3.org/2000/svg">
<rect width="28" height="28" rx="6.53333" fill="url(#paint0_linear_46_1932)" style=""/>
<path fill-rule="evenodd" clip-rule="evenodd" d="M13.9976 10.1266C13.9974 9.52129 14.139 8.92433 14.4111 8.38359C14.6832 7.84286 15.0782 7.37337 15.5644 7.01276C16.0506 6.65215 16.6145 6.41044 17.211 6.307C17.8074 6.20356 18.4198 6.24127 18.999 6.41711C19.0906 6.44484 19.1734 6.49582 19.2394 6.56508C19.3054 6.63434 19.3523 6.71951 19.3756 6.8123C19.3988 6.90508 19.3977 7.00232 19.3722 7.09452C19.3467 7.18672 19.2977 7.27074 19.2301 7.3384L16.7792 9.78852C16.8257 10.1392 16.9829 10.478 17.2524 10.7475C17.5219 11.0169 17.8607 11.1741 18.2121 11.2199L20.6615 8.76979C20.7292 8.70216 20.8132 8.65322 20.9054 8.62773C20.9976 8.60224 21.0949 8.60107 21.1876 8.62434C21.2804 8.64761 21.3656 8.69453 21.4349 8.76051C21.5041 8.82649 21.5551 8.9093 21.5828 9.00085C21.7668 9.60681 21.7995 10.2486 21.678 10.8701C21.5566 11.4917 21.2846 12.0739 20.886 12.5661C20.4875 13.0582 19.9743 13.4451 19.3916 13.693C18.8089 13.9409 18.1742 14.0423 17.5433 13.9882C16.7917 13.9247 16.1628 14.062 15.8387 14.4562L10.5604 20.8676C10.3442 21.1287 10.076 21.3419 9.7727 21.4934C9.46945 21.6449 9.1379 21.7313 8.79929 21.7473C8.46067 21.7633 8.12246 21.7083 7.8063 21.586C7.49015 21.4637 7.20301 21.2768 6.96329 21.0371C6.72356 20.7974 6.53653 20.5103 6.41416 20.1942C6.29179 19.8781 6.23679 19.5399 6.25267 19.2013C6.26856 18.8627 6.35498 18.5311 6.5064 18.2278C6.65783 17.9246 6.87092 17.6562 7.13203 17.4401L13.5428 12.1611C13.9363 11.8363 14.0743 11.2081 14.0108 10.4566C14.0018 10.3468 13.9974 10.2367 13.9976 10.1266ZM8.1781 19.262C8.1781 19.1151 8.23643 18.9743 8.34026 18.8705C8.4441 18.7667 8.58493 18.7083 8.73177 18.7083H8.73767C8.88452 18.7083 9.02535 18.7667 9.12918 18.8705C9.23301 18.9743 9.29135 19.1151 9.29135 19.262V19.2679C9.29135 19.4147 9.23301 19.5556 9.12918 19.6594C9.02535 19.7632 8.88452 19.8215 8.73767 19.8215H8.73177C8.58493 19.8215 8.4441 19.7632 8.34026 19.6594C8.23643 19.5556 8.1781 19.4147 8.1781 19.2679V19.262Z" fill="url(#paint1_linear_46_1932)" style=""/>
<defs>
<linearGradient id="paint0_linear_46_1932" x1="14" y1="0" x2="14" y2="28" gradientUnits="userSpaceOnUse">
<stop stop-color="#0074FA" style="stop-color:#0074FA;stop-color:color(display-p3 0.0000 0.4560 0.9800);stop-opacity:1;"/>
<stop offset="1" stop-color="#00397A" style="stop-color:#00397A;stop-color:color(display-p3 0.0000 0.2233 0.4800);stop-opacity:1;"/>
</linearGradient>
<linearGradient id="paint1_linear_46_1932" x1="14" y1="5.89571" x2="14" y2="22.1043" gradientUnits="userSpaceOnUse">
<stop stop-color="#FCFCFC" style="stop-color:#FCFCFC;stop-color:color(display-p3 0.9900 0.9900 0.9900);stop-opacity:1;"/>
<stop offset="1" stop-color="#AFAFAF" style="stop-color:#AFAFAF;stop-color:color(display-p3 0.6863 0.6863 0.6863);stop-opacity:1;"/>
</linearGradient>
</defs>
</svg>
