<svg width="28" height="28" viewBox="0 0 28 28" fill="none" xmlns="http://www.w3.org/2000/svg">
<rect width="28" height="28" rx="6" fill="url(#paint0_linear_15_5305)" style=""/>
<path fill-rule="evenodd" clip-rule="evenodd" d="M8.34616 7.5C7.60236 7.5 7 8.10667 7 8.85417V18.3333C7 18.908 7.22692 19.4591 7.63085 19.8654C8.03478 20.2717 8.58262 20.5 9.15386 20.5H19.9232C19.3519 20.5 18.8041 20.2717 18.4002 19.8654C17.9962 19.4591 17.7693 18.908 17.7693 18.3333V8.85417C17.7693 8.10594 17.1662 7.5 16.4231 7.5H8.34616ZM14 12.375C13.8572 12.375 13.7203 12.4321 13.6193 12.5337C13.5183 12.6352 13.4616 12.773 13.4616 12.9167C13.4616 13.0603 13.5183 13.1981 13.6193 13.2997C13.7203 13.4013 13.8572 13.4583 14 13.4583H15.077C15.2198 13.4583 15.3567 13.4013 15.4577 13.2997C15.5587 13.1981 15.6154 13.0603 15.6154 12.9167C15.6154 12.773 15.5587 12.6352 15.4577 12.5337C15.3567 12.4321 15.2198 12.375 15.077 12.375H14ZM13.4616 10.75C13.4616 10.6063 13.5183 10.4686 13.6193 10.367C13.7203 10.2654 13.8572 10.2083 14 10.2083H15.077C15.2198 10.2083 15.3567 10.2654 15.4577 10.367C15.5587 10.4686 15.6154 10.6063 15.6154 10.75C15.6154 10.8937 15.5587 11.0314 15.4577 11.133C15.3567 11.2346 15.2198 11.2917 15.077 11.2917H14C13.8572 11.2917 13.7203 11.2346 13.6193 11.133C13.5183 11.0314 13.4616 10.8937 13.4616 10.75ZM9.69233 14.5417C9.54952 14.5417 9.41255 14.5987 9.31157 14.7003C9.21059 14.8019 9.15386 14.9397 9.15386 15.0833C9.15386 15.227 9.21059 15.3648 9.31157 15.4663C9.41255 15.5679 9.54952 15.625 9.69233 15.625H15.077C15.2198 15.625 15.3567 15.5679 15.4577 15.4663C15.5587 15.3648 15.6154 15.227 15.6154 15.0833C15.6154 14.9397 15.5587 14.8019 15.4577 14.7003C15.3567 14.5987 15.2198 14.5417 15.077 14.5417H9.69233ZM9.15386 17.25C9.15386 17.1063 9.21059 16.9686 9.31157 16.867C9.41255 16.7654 9.54952 16.7083 9.69233 16.7083H15.077C15.2198 16.7083 15.3567 16.7654 15.4577 16.867C15.5587 16.9686 15.6154 17.1063 15.6154 17.25C15.6154 17.3937 15.5587 17.5314 15.4577 17.633C15.3567 17.7346 15.2198 17.7917 15.077 17.7917H9.69233C9.54952 17.7917 9.41255 17.7346 9.31157 17.633C9.21059 17.5314 9.15386 17.3937 9.15386 17.25ZM9.69233 10.2083C9.54952 10.2083 9.41255 10.2654 9.31157 10.367C9.21059 10.4686 9.15386 10.6063 9.15386 10.75V12.9167C9.15386 13.2157 9.39509 13.4583 9.69233 13.4583H11.8462C11.989 13.4583 12.126 13.4013 12.2269 13.2997C12.3279 13.1981 12.3847 13.0603 12.3847 12.9167V10.75C12.3847 10.6063 12.3279 10.4686 12.2269 10.367C12.126 10.2654 11.989 10.2083 11.8462 10.2083H9.69233Z" fill="url(#paint1_linear_15_5305)" style=""/>
<path d="M18.8461 10.2082H20.1923C20.6382 10.2082 21 10.5722 21 11.0207V18.3332C21 18.6205 20.8865 18.8961 20.6846 19.0992C20.4826 19.3024 20.2087 19.4165 19.9231 19.4165C19.6375 19.4165 19.3635 19.3024 19.1616 19.0992C18.9596 18.8961 18.8461 18.6205 18.8461 18.3332V10.2082Z" fill="url(#paint2_linear_15_5305)" style=""/>
<defs>
<linearGradient id="paint0_linear_15_5305" x1="14" y1="0" x2="14" y2="28" gradientUnits="userSpaceOnUse">
<stop stop-color="#F5785C" style="stop-color:#F5785C;stop-color:color(display-p3 0.9608 0.4706 0.3608);stop-opacity:1;"/>
<stop offset="1" stop-color="#F25533" style="stop-color:#F25533;stop-color:color(display-p3 0.9490 0.3333 0.2000);stop-opacity:1;"/>
</linearGradient>
<linearGradient id="paint1_linear_15_5305" x1="14" y1="7.20286" x2="14" y2="20.7971" gradientUnits="userSpaceOnUse">
<stop stop-color="white" style="stop-color:white;stop-opacity:1;"/>
<stop offset="1" stop-color="#AFAFAF" style="stop-color:#AFAFAF;stop-color:color(display-p3 0.6863 0.6863 0.6863);stop-opacity:1;"/>
</linearGradient>
<linearGradient id="paint2_linear_15_5305" x1="14" y1="7.20286" x2="14" y2="20.7971" gradientUnits="userSpaceOnUse">
<stop stop-color="white" style="stop-color:white;stop-opacity:1;"/>
<stop offset="1" stop-color="#AFAFAF" style="stop-color:#AFAFAF;stop-color:color(display-p3 0.6863 0.6863 0.6863);stop-opacity:1;"/>
</linearGradient>
</defs>
</svg>
