<svg width="28" height="28" viewBox="0 0 28 28" fill="none" xmlns="http://www.w3.org/2000/svg">
<rect width="28" height="28" rx="6" fill="url(#paint0_linear_12_9037)" style=""/>
<path fill-rule="evenodd" clip-rule="evenodd" d="M8.1064 7.49361C10.0535 7.16408 12.0249 6.99884 13.9996 6.99964C16.0079 6.99964 17.9773 7.16908 19.8936 7.49361C20.204 7.54722 20.4855 7.70901 20.688 7.95031C20.8905 8.1916 21.0011 8.49681 21 8.81184V9.56142C20.9999 10.1326 20.7729 10.6804 20.3689 11.0843L15.9303 15.5229C15.8303 15.6229 15.751 15.7417 15.6969 15.8724C15.6429 16.0031 15.615 16.1432 15.6151 16.2847V18.3862C15.6152 18.7863 15.5039 19.1785 15.2937 19.5189C15.0834 19.8592 14.7825 20.1343 14.4247 20.3133L13.1632 20.9437C13.0811 20.9847 12.9899 21.004 12.8982 20.9998C12.8065 20.9957 12.7175 20.9681 12.6394 20.9199C12.5614 20.8716 12.497 20.8042 12.4523 20.7241C12.4076 20.6439 12.3842 20.5537 12.3842 20.4619V16.2847C12.3839 15.9991 12.2703 15.7254 12.0683 15.5236L7.63109 11.0836C7.22711 10.6797 7.0001 10.1319 6.99998 9.5607V8.81184C6.99998 8.1678 7.45877 7.60346 8.1064 7.49361Z" fill="url(#paint1_linear_12_9037)" style=""/>
<defs>
<linearGradient id="paint0_linear_12_9037" x1="14" y1="0" x2="14" y2="28" gradientUnits="userSpaceOnUse">
<stop stop-color="#F5785C" style="stop-color:#F5785C;stop-color:color(display-p3 0.9608 0.4706 0.3608);stop-opacity:1;"/>
<stop offset="1" stop-color="#F25533" style="stop-color:#F25533;stop-color:color(display-p3 0.9490 0.3333 0.2000);stop-opacity:1;"/>
</linearGradient>
<linearGradient id="paint1_linear_12_9037" x1="14" y1="6.67962" x2="14" y2="21.3204" gradientUnits="userSpaceOnUse">
<stop stop-color="white" style="stop-color:white;stop-opacity:1;"/>
<stop offset="1" stop-color="#AFAFAF" style="stop-color:#AFAFAF;stop-color:color(display-p3 0.6863 0.6863 0.6863);stop-opacity:1;"/>
</linearGradient>
</defs>
</svg>
