<svg width="28" height="28" viewBox="0 0 28 28" fill="none" xmlns="http://www.w3.org/2000/svg">
<rect width="28" height="28" rx="6" fill="url(#paint0_linear_15_5310)" style=""/>
<path d="M14 6.5C18.1424 6.5 21.5 9.85781 21.5 14C21.4999 18.1421 18.1424 21.5 14 21.5C9.85774 21.4999 6.50011 18.142 6.5 14C6.5 9.85789 9.85767 6.50013 14 6.5ZM13.1348 9.96191C12.6375 9.96202 12.1469 10.0784 11.7031 10.3027C11.2595 10.5271 10.8748 10.8527 10.5801 11.2529C10.2853 11.6533 10.0884 12.1181 10.0059 12.6084C9.92346 13.0986 9.95796 13.6015 10.1055 14.0762C10.253 14.5509 10.5096 14.9846 10.8555 15.3418C11.2014 15.699 11.6268 15.97 12.0967 16.1328C12.5664 16.2955 13.0679 16.3449 13.5605 16.2783C14.0533 16.2117 14.5239 16.0307 14.9336 15.749L16.4775 17.292C16.5302 17.3485 16.5935 17.3943 16.6641 17.4258C16.7348 17.4573 16.8122 17.4742 16.8896 17.4756C16.9669 17.4769 17.0436 17.4625 17.1152 17.4336C17.1871 17.4046 17.2528 17.3614 17.3076 17.3066C17.3622 17.252 17.4056 17.1869 17.4346 17.1152C17.4636 17.0434 17.4779 16.9661 17.4766 16.8887C17.4752 16.8113 17.4582 16.7348 17.4268 16.6641C17.3952 16.5933 17.3496 16.5294 17.293 16.4766L15.75 14.9326C16.0776 14.4563 16.2685 13.8994 16.3027 13.3223C16.337 12.745 16.2125 12.169 15.9434 11.6572C15.6742 11.1456 15.2703 10.7168 14.7754 10.418C14.2804 10.1191 13.713 9.96184 13.1348 9.96191ZM13.1348 11.1152C13.3998 11.1152 13.6624 11.1672 13.9072 11.2686C14.1522 11.37 14.375 11.5195 14.5625 11.707C14.7498 11.8944 14.8985 12.1166 15 12.3613C15.1015 12.6063 15.1543 12.8696 15.1543 13.1348C15.1542 13.6701 14.9411 14.1839 14.5625 14.5625C14.1838 14.941 13.6702 15.1533 13.1348 15.1533C12.5993 15.1533 12.0857 14.941 11.707 14.5625C11.3284 14.1839 11.1153 13.6701 11.1152 13.1348C11.1152 12.8696 11.1681 12.6063 11.2695 12.3613C11.371 12.1166 11.5197 11.8944 11.707 11.707C11.8945 11.5195 12.1173 11.37 12.3623 11.2686C12.6072 11.1672 12.8697 11.1152 13.1348 11.1152Z" fill="url(#paint1_linear_15_5310)" style=""/>
<defs>
<linearGradient id="paint0_linear_15_5310" x1="14" y1="0" x2="14" y2="28" gradientUnits="userSpaceOnUse">
<stop stop-color="#F5785C" style="stop-color:#F5785C;stop-color:color(display-p3 0.9608 0.4706 0.3608);stop-opacity:1;"/>
<stop offset="1" stop-color="#F25533" style="stop-color:#F25533;stop-color:color(display-p3 0.9490 0.3333 0.2000);stop-opacity:1;"/>
</linearGradient>
<linearGradient id="paint1_linear_15_5310" x1="14" y1="6.15714" x2="14" y2="21.8429" gradientUnits="userSpaceOnUse">
<stop stop-color="white" style="stop-color:white;stop-opacity:1;"/>
<stop offset="1" stop-color="#AFAFAF" style="stop-color:#AFAFAF;stop-color:color(display-p3 0.6863 0.6863 0.6863);stop-opacity:1;"/>
</linearGradient>
</defs>
</svg>
