<svg width="28" height="28" viewBox="0 0 28 28" fill="none" xmlns="http://www.w3.org/2000/svg">
<rect width="28" height="28" rx="6" fill="url(#paint0_linear_15_8737)" style=""/>
<path fill-rule="evenodd" clip-rule="evenodd" d="M10.7692 9.15371C10.7692 8.58251 10.9962 8.03471 11.4001 7.63081C11.804 7.22691 12.3518 7 12.9231 7H15.0769C15.6482 7 16.196 7.22691 16.5999 7.63081C17.0038 8.03471 17.2308 8.58251 17.2308 9.15371V9.30088C17.9006 9.3619 18.564 9.44231 19.2224 9.54066C20.2663 9.69716 21 10.6053 21 11.6348V13.8122C21 14.6816 20.473 15.5007 19.6101 15.7879C17.8007 16.3884 15.9064 16.6936 14 16.6917C12.04 16.6917 10.1539 16.3744 8.38995 15.7879C7.52697 15.5007 7 14.6816 7 13.8122V11.6348C7 10.6053 7.73374 9.69644 8.77764 9.54066C9.43908 9.44175 10.1032 9.36179 10.7692 9.30088V9.15371ZM16.1538 9.15371V9.21832C14.7193 9.1312 13.2807 9.1312 11.8462 9.21832V9.15371C11.8462 8.86811 11.9596 8.59421 12.1616 8.39226C12.3635 8.19031 12.6375 8.07685 12.9231 8.07685H15.0769C15.3625 8.07685 15.6365 8.19031 15.8384 8.39226C16.0404 8.59421 16.1538 8.86811 16.1538 9.15371ZM14 15.0764C14.1428 15.0764 14.2798 15.0197 14.3807 14.9187C14.4817 14.8177 14.5385 14.6808 14.5385 14.538C14.5385 14.3952 14.4817 14.2582 14.3807 14.1573C14.2798 14.0563 14.1428 13.9996 14 13.9996C13.8572 13.9996 13.7202 14.0563 13.6193 14.1573C13.5183 14.2582 13.4615 14.3952 13.4615 14.538C13.4615 14.6808 13.5183 14.8177 13.6193 14.9187C13.7202 15.0197 13.8572 15.0764 14 15.0764Z" fill="#7B7B7F" style="fill:#7B7B7F;fill:color(display-p3 0.4824 0.4824 0.4980);fill-opacity:1;"/>
<path fill-rule="evenodd" clip-rule="evenodd" d="M10.7692 9.15371C10.7692 8.58251 10.9962 8.03471 11.4001 7.63081C11.804 7.22691 12.3518 7 12.9231 7H15.0769C15.6482 7 16.196 7.22691 16.5999 7.63081C17.0038 8.03471 17.2308 8.58251 17.2308 9.15371V9.30088C17.9006 9.3619 18.564 9.44231 19.2224 9.54066C20.2663 9.69716 21 10.6053 21 11.6348V13.8122C21 14.6816 20.473 15.5007 19.6101 15.7879C17.8007 16.3884 15.9064 16.6936 14 16.6917C12.04 16.6917 10.1539 16.3744 8.38995 15.7879C7.52697 15.5007 7 14.6816 7 13.8122V11.6348C7 10.6053 7.73374 9.69644 8.77764 9.54066C9.43908 9.44175 10.1032 9.36179 10.7692 9.30088V9.15371ZM16.1538 9.15371V9.21832C14.7193 9.1312 13.2807 9.1312 11.8462 9.21832V9.15371C11.8462 8.86811 11.9596 8.59421 12.1616 8.39226C12.3635 8.19031 12.6375 8.07685 12.9231 8.07685H15.0769C15.3625 8.07685 15.6365 8.19031 15.8384 8.39226C16.0404 8.59421 16.1538 8.86811 16.1538 9.15371ZM14 15.0764C14.1428 15.0764 14.2798 15.0197 14.3807 14.9187C14.4817 14.8177 14.5385 14.6808 14.5385 14.538C14.5385 14.3952 14.4817 14.2582 14.3807 14.1573C14.2798 14.0563 14.1428 13.9996 14 13.9996C13.8572 13.9996 13.7202 14.0563 13.6193 14.1573C13.5183 14.2582 13.4615 14.3952 13.4615 14.538C13.4615 14.6808 13.5183 14.8177 13.6193 14.9187C13.7202 15.0197 13.8572 15.0764 14 15.0764Z" fill="url(#paint1_linear_15_8737)" style=""/>
<path d="M7.53845 18.595V16.5878C7.70201 16.6773 7.87335 16.7517 8.05035 16.8103C9.9692 17.4474 11.9781 17.7712 14 17.7694C16.0763 17.7694 18.0779 17.4335 19.9496 16.811C20.1306 16.7507 20.3014 16.6754 20.4615 16.5878V18.595C20.4615 19.6374 19.7098 20.5535 18.6501 20.6935C17.1281 20.8959 15.5759 21 14 21C12.4449 21.0003 10.8914 20.8979 9.34984 20.6935C8.29014 20.5535 7.53845 19.6374 7.53845 18.595Z" fill="#7B7B7F" style="fill:#7B7B7F;fill:color(display-p3 0.4824 0.4824 0.4980);fill-opacity:1;"/>
<path d="M7.53845 18.595V16.5878C7.70201 16.6773 7.87335 16.7517 8.05035 16.8103C9.9692 17.4474 11.9781 17.7712 14 17.7694C16.0763 17.7694 18.0779 17.4335 19.9496 16.811C20.1306 16.7507 20.3014 16.6754 20.4615 16.5878V18.595C20.4615 19.6374 19.7098 20.5535 18.6501 20.6935C17.1281 20.8959 15.5759 21 14 21C12.4449 21.0003 10.8914 20.8979 9.34984 20.6935C8.29014 20.5535 7.53845 19.6374 7.53845 18.595Z" fill="url(#paint2_linear_15_8737)" style=""/>
<defs>
<linearGradient id="paint0_linear_15_8737" x1="14" y1="0" x2="14" y2="28" gradientUnits="userSpaceOnUse">
<stop stop-color="#F5785C" style="stop-color:#F5785C;stop-color:color(display-p3 0.9608 0.4706 0.3608);stop-opacity:1;"/>
<stop offset="1" stop-color="#F25533" style="stop-color:#F25533;stop-color:color(display-p3 0.9490 0.3333 0.2000);stop-opacity:1;"/>
</linearGradient>
<linearGradient id="paint1_linear_15_8737" x1="14" y1="6.68" x2="14" y2="21.32" gradientUnits="userSpaceOnUse">
<stop stop-color="white" style="stop-color:white;stop-opacity:1;"/>
<stop offset="1" stop-color="#AFAFAF" style="stop-color:#AFAFAF;stop-color:color(display-p3 0.6863 0.6863 0.6863);stop-opacity:1;"/>
</linearGradient>
<linearGradient id="paint2_linear_15_8737" x1="14" y1="6.68" x2="14" y2="21.32" gradientUnits="userSpaceOnUse">
<stop stop-color="white" style="stop-color:white;stop-opacity:1;"/>
<stop offset="1" stop-color="#AFAFAF" style="stop-color:#AFAFAF;stop-color:color(display-p3 0.6863 0.6863 0.6863);stop-opacity:1;"/>
</linearGradient>
</defs>
</svg>
