<svg width="28" height="28" viewBox="0 0 28 28" fill="none" xmlns="http://www.w3.org/2000/svg">
<rect width="28" height="28" rx="6" fill="url(#paint0_linear_15_8742)" style=""/>
<path d="M19.25 14.5909H20.4167C20.5714 14.5909 20.7198 14.5287 20.8291 14.4178C20.9385 14.307 21 14.1567 21 14C21 13.8433 20.9385 13.693 20.8291 13.5822C20.7198 13.4713 20.5714 13.4091 20.4167 13.4091H19.25C19.0953 13.4091 18.9469 13.4713 18.8375 13.5822C18.7281 13.693 18.6667 13.8433 18.6667 14C18.6667 14.1567 18.7281 14.307 18.8375 14.4178C18.9469 14.5287 19.0953 14.5909 19.25 14.5909ZM14 9.27273C14 9.11601 14.0615 8.96571 14.1709 8.85489C14.2803 8.74407 14.4286 8.68182 14.5833 8.68182H20.4167C20.5714 8.68182 20.7198 8.74407 20.8291 8.85489C20.9385 8.96571 21 9.11601 21 9.27273C21 9.42945 20.9385 9.57975 20.8291 9.69056C20.7198 9.80138 20.5714 9.86364 20.4167 9.86364H14.5833C14.4286 9.86364 14.2803 9.80138 14.1709 9.69056C14.0615 9.57975 14 9.42945 14 9.27273ZM14 18.7273C14 18.5706 14.0615 18.4203 14.1709 18.3094C14.2803 18.1986 14.4286 18.1364 14.5833 18.1364H20.4167C20.5714 18.1364 20.7198 18.1986 20.8291 18.3094C20.9385 18.4203 21 18.5706 21 18.7273C21 18.884 20.9385 19.0343 20.8291 19.1451C20.7198 19.2559 20.5714 19.3182 20.4167 19.3182H14.5833C14.4286 19.3182 14.2803 19.2559 14.1709 19.1451C14.0615 19.0343 14 18.884 14 18.7273ZM7.58333 9.86364H8.75C8.90471 9.86364 9.05308 9.80138 9.16248 9.69056C9.27188 9.57975 9.33333 9.42945 9.33333 9.27273C9.33333 9.11601 9.27188 8.96571 9.16248 8.85489C9.05308 8.74407 8.90471 8.68182 8.75 8.68182H7.58333C7.42862 8.68182 7.28025 8.74407 7.17085 8.85489C7.06146 8.96571 7 9.11601 7 9.27273C7 9.42945 7.06146 9.57975 7.17085 9.69056C7.28025 9.80138 7.42862 9.86364 7.58333 9.86364ZM8.75 19.3182H7.58333C7.42862 19.3182 7.28025 19.2559 7.17085 19.1451C7.06146 19.0343 7 18.884 7 18.7273C7 18.5706 7.06146 18.4203 7.17085 18.3094C7.28025 18.1986 7.42862 18.1364 7.58333 18.1364H8.75C8.90471 18.1364 9.05308 18.1986 9.16248 18.3094C9.27188 18.4203 9.33333 18.5706 9.33333 18.7273C9.33333 18.884 9.27188 19.0343 9.16248 19.1451C9.05308 19.2559 8.90471 19.3182 8.75 19.3182ZM7 14C7 13.8433 7.06146 13.693 7.17085 13.5822C7.28025 13.4713 7.42862 13.4091 7.58333 13.4091H13.4167C13.5714 13.4091 13.7197 13.4713 13.8291 13.5822C13.9385 13.693 14 13.8433 14 14C14 14.1567 13.9385 14.307 13.8291 14.4178C13.7197 14.5287 13.5714 14.5909 13.4167 14.5909H7.58333C7.42862 14.5909 7.28025 14.5287 7.17085 14.4178C7.06146 14.307 7 14.1567 7 14ZM11.6667 7.5C11.2025 7.5 10.7574 7.68677 10.4292 8.01922C10.101 8.35167 9.91667 8.80257 9.91667 9.27273C9.91667 9.74288 10.101 10.1938 10.4292 10.5262C10.7574 10.8587 11.2025 11.0455 11.6667 11.0455C12.1308 11.0455 12.5759 10.8587 12.9041 10.5262C13.2323 10.1938 13.4167 9.74288 13.4167 9.27273C13.4167 8.80257 13.2323 8.35167 12.9041 8.01922C12.5759 7.68677 12.1308 7.5 11.6667 7.5ZM14.5833 14C14.5833 13.5298 14.7677 13.0789 15.0959 12.7465C15.4241 12.414 15.8692 12.2273 16.3333 12.2273C16.7975 12.2273 17.2426 12.414 17.5708 12.7465C17.899 13.0789 18.0833 13.5298 18.0833 14C18.0833 14.4702 17.899 14.9211 17.5708 15.2535C17.2426 15.586 16.7975 15.7727 16.3333 15.7727C15.8692 15.7727 15.4241 15.586 15.0959 15.2535C14.7677 14.9211 14.5833 14.4702 14.5833 14ZM11.6667 16.9545C11.2025 16.9545 10.7574 17.1413 10.4292 17.4738C10.101 17.8062 9.91667 18.2571 9.91667 18.7273C9.91667 19.1974 10.101 19.6483 10.4292 19.9808C10.7574 20.3132 11.2025 20.5 11.6667 20.5C12.1308 20.5 12.5759 20.3132 12.9041 19.9808C13.2323 19.6483 13.4167 19.1974 13.4167 18.7273C13.4167 18.2571 13.2323 17.8062 12.9041 17.4738C12.5759 17.1413 12.1308 16.9545 11.6667 16.9545Z" fill="#7B7B7F" style="fill:#7B7B7F;fill:color(display-p3 0.4824 0.4824 0.4980);fill-opacity:1;"/>
<path d="M19.25 14.5909H20.4167C20.5714 14.5909 20.7198 14.5287 20.8291 14.4178C20.9385 14.307 21 14.1567 21 14C21 13.8433 20.9385 13.693 20.8291 13.5822C20.7198 13.4713 20.5714 13.4091 20.4167 13.4091H19.25C19.0953 13.4091 18.9469 13.4713 18.8375 13.5822C18.7281 13.693 18.6667 13.8433 18.6667 14C18.6667 14.1567 18.7281 14.307 18.8375 14.4178C18.9469 14.5287 19.0953 14.5909 19.25 14.5909ZM14 9.27273C14 9.11601 14.0615 8.96571 14.1709 8.85489C14.2803 8.74407 14.4286 8.68182 14.5833 8.68182H20.4167C20.5714 8.68182 20.7198 8.74407 20.8291 8.85489C20.9385 8.96571 21 9.11601 21 9.27273C21 9.42945 20.9385 9.57975 20.8291 9.69056C20.7198 9.80138 20.5714 9.86364 20.4167 9.86364H14.5833C14.4286 9.86364 14.2803 9.80138 14.1709 9.69056C14.0615 9.57975 14 9.42945 14 9.27273ZM14 18.7273C14 18.5706 14.0615 18.4203 14.1709 18.3094C14.2803 18.1986 14.4286 18.1364 14.5833 18.1364H20.4167C20.5714 18.1364 20.7198 18.1986 20.8291 18.3094C20.9385 18.4203 21 18.5706 21 18.7273C21 18.884 20.9385 19.0343 20.8291 19.1451C20.7198 19.2559 20.5714 19.3182 20.4167 19.3182H14.5833C14.4286 19.3182 14.2803 19.2559 14.1709 19.1451C14.0615 19.0343 14 18.884 14 18.7273ZM7.58333 9.86364H8.75C8.90471 9.86364 9.05308 9.80138 9.16248 9.69056C9.27188 9.57975 9.33333 9.42945 9.33333 9.27273C9.33333 9.11601 9.27188 8.96571 9.16248 8.85489C9.05308 8.74407 8.90471 8.68182 8.75 8.68182H7.58333C7.42862 8.68182 7.28025 8.74407 7.17085 8.85489C7.06146 8.96571 7 9.11601 7 9.27273C7 9.42945 7.06146 9.57975 7.17085 9.69056C7.28025 9.80138 7.42862 9.86364 7.58333 9.86364ZM8.75 19.3182H7.58333C7.42862 19.3182 7.28025 19.2559 7.17085 19.1451C7.06146 19.0343 7 18.884 7 18.7273C7 18.5706 7.06146 18.4203 7.17085 18.3094C7.28025 18.1986 7.42862 18.1364 7.58333 18.1364H8.75C8.90471 18.1364 9.05308 18.1986 9.16248 18.3094C9.27188 18.4203 9.33333 18.5706 9.33333 18.7273C9.33333 18.884 9.27188 19.0343 9.16248 19.1451C9.05308 19.2559 8.90471 19.3182 8.75 19.3182ZM7 14C7 13.8433 7.06146 13.693 7.17085 13.5822C7.28025 13.4713 7.42862 13.4091 7.58333 13.4091H13.4167C13.5714 13.4091 13.7197 13.4713 13.8291 13.5822C13.9385 13.693 14 13.8433 14 14C14 14.1567 13.9385 14.307 13.8291 14.4178C13.7197 14.5287 13.5714 14.5909 13.4167 14.5909H7.58333C7.42862 14.5909 7.28025 14.5287 7.17085 14.4178C7.06146 14.307 7 14.1567 7 14ZM11.6667 7.5C11.2025 7.5 10.7574 7.68677 10.4292 8.01922C10.101 8.35167 9.91667 8.80257 9.91667 9.27273C9.91667 9.74288 10.101 10.1938 10.4292 10.5262C10.7574 10.8587 11.2025 11.0455 11.6667 11.0455C12.1308 11.0455 12.5759 10.8587 12.9041 10.5262C13.2323 10.1938 13.4167 9.74288 13.4167 9.27273C13.4167 8.80257 13.2323 8.35167 12.9041 8.01922C12.5759 7.68677 12.1308 7.5 11.6667 7.5ZM14.5833 14C14.5833 13.5298 14.7677 13.0789 15.0959 12.7465C15.4241 12.414 15.8692 12.2273 16.3333 12.2273C16.7975 12.2273 17.2426 12.414 17.5708 12.7465C17.899 13.0789 18.0833 13.5298 18.0833 14C18.0833 14.4702 17.899 14.9211 17.5708 15.2535C17.2426 15.586 16.7975 15.7727 16.3333 15.7727C15.8692 15.7727 15.4241 15.586 15.0959 15.2535C14.7677 14.9211 14.5833 14.4702 14.5833 14ZM11.6667 16.9545C11.2025 16.9545 10.7574 17.1413 10.4292 17.4738C10.101 17.8062 9.91667 18.2571 9.91667 18.7273C9.91667 19.1974 10.101 19.6483 10.4292 19.9808C10.7574 20.3132 11.2025 20.5 11.6667 20.5C12.1308 20.5 12.5759 20.3132 12.9041 19.9808C13.2323 19.6483 13.4167 19.1974 13.4167 18.7273C13.4167 18.2571 13.2323 17.8062 12.9041 17.4738C12.5759 17.1413 12.1308 16.9545 11.6667 16.9545Z" fill="url(#paint1_linear_15_8742)" style=""/>
<defs>
<linearGradient id="paint0_linear_15_8742" x1="14" y1="0" x2="14" y2="28" gradientUnits="userSpaceOnUse">
<stop stop-color="#F5785C" style="stop-color:#F5785C;stop-color:color(display-p3 0.9608 0.4706 0.3608);stop-opacity:1;"/>
<stop offset="1" stop-color="#F25533" style="stop-color:#F25533;stop-color:color(display-p3 0.9490 0.3333 0.2000);stop-opacity:1;"/>
</linearGradient>
<linearGradient id="paint1_linear_15_8742" x1="14" y1="7.20286" x2="14" y2="20.7971" gradientUnits="userSpaceOnUse">
<stop stop-color="white" style="stop-color:white;stop-opacity:1;"/>
<stop offset="1" stop-color="#AFAFAF" style="stop-color:#AFAFAF;stop-color:color(display-p3 0.6863 0.6863 0.6863);stop-opacity:1;"/>
</linearGradient>
</defs>
</svg>
