<svg width="14" height="13" viewBox="0 0 14 13" fill="none" xmlns="http://www.w3.org/2000/svg">
<path fill-rule="evenodd" clip-rule="evenodd" d="M5.17198 0.140874C5.23947 0.208336 5.28538 0.29433 5.3039 0.387936C5.32241 0.481543 5.31269 0.57854 5.27598 0.666614C4.9825 1.37095 4.83194 2.12659 4.83304 2.88961C4.83304 4.42187 5.44173 5.89136 6.5252 6.97483C7.60867 8.05829 9.07818 8.66698 10.6104 8.66698C11.3735 8.66808 12.1291 8.51752 12.8334 8.22405C12.9215 8.18739 13.0184 8.17769 13.1119 8.19618C13.2054 8.21466 13.2914 8.2605 13.3588 8.32788C13.4263 8.39526 13.4722 8.48115 13.4908 8.57466C13.5093 8.66817 13.4997 8.76509 13.4632 8.85314C12.9509 10.0813 12.0867 11.1304 10.9793 11.8684C9.87198 12.6063 8.57101 13 7.24029 13C3.51772 13 0.5 9.98293 0.5 6.25974C0.5 3.4558 2.21203 1.05241 4.64688 0.036881C4.73488 0.000303609 4.83174 -0.00933951 4.92522 0.00917279C5.01869 0.0276851 5.10457 0.0735201 5.17198 0.140874Z" fill="#C2C2C7" style="fill:#C2C2C7;fill:color(display-p3 0.7592 0.7592 0.7792);fill-opacity:1;"/>
</svg>
