<svg width="16" height="16" viewBox="0 0 16 16" fill="none" xmlns="http://www.w3.org/2000/svg">
<path d="M8 0C8.16321 0 8.31974 0.0648349 8.43514 0.180242C8.55055 0.295649 8.61539 0.452174 8.61539 0.615385V2.46154C8.61539 2.62475 8.55055 2.78127 8.43514 2.89668C8.31974 3.01209 8.16321 3.07692 8 3.07692C7.83679 3.07692 7.68026 3.01209 7.56486 2.89668C7.44945 2.78127 7.38462 2.62475 7.38462 2.46154V0.615385C7.38462 0.452174 7.44945 0.295649 7.56486 0.180242C7.68026 0.0648349 7.83679 0 8 0ZM4.30769 8C4.30769 7.02074 4.6967 6.08159 5.38914 5.38914C6.08159 4.6967 7.02074 4.30769 8 4.30769C8.97926 4.30769 9.91841 4.6967 10.6109 5.38914C11.3033 6.08159 11.6923 7.02074 11.6923 8C11.6923 8.97926 11.3033 9.91841 10.6109 10.6109C9.91841 11.3033 8.97926 11.6923 8 11.6923C7.02074 11.6923 6.08159 11.3033 5.38914 10.6109C4.6967 9.91841 4.30769 8.97926 4.30769 8ZM13.6566 3.21313C13.7653 3.09647 13.8245 2.94218 13.8217 2.78275C13.8189 2.62332 13.7543 2.47121 13.6415 2.35846C13.5288 2.24572 13.3767 2.18113 13.2172 2.17832C13.0578 2.17551 12.9035 2.23468 12.7869 2.34338L11.4814 3.648C11.4226 3.70474 11.3757 3.77262 11.3434 3.84769C11.3111 3.92275 11.2941 4.00349 11.2934 4.0852C11.2926 4.16691 11.3082 4.24795 11.3391 4.3236C11.37 4.39924 11.4156 4.46797 11.4734 4.52578C11.5311 4.58358 11.5998 4.62931 11.6755 4.66029C11.7511 4.69126 11.8321 4.70687 11.9138 4.7062C11.9955 4.70553 12.0763 4.68859 12.1514 4.65638C12.2265 4.62416 12.2944 4.57731 12.3512 4.51856L13.6566 3.21313ZM16 8C16 8.16321 15.9352 8.31974 15.8198 8.43514C15.7044 8.55055 15.5478 8.61539 15.3846 8.61539H13.5385C13.3753 8.61539 13.2187 8.55055 13.1033 8.43514C12.9879 8.31974 12.9231 8.16321 12.9231 8C12.9231 7.83679 12.9879 7.68026 13.1033 7.56486C13.2187 7.44945 13.3753 7.38462 13.5385 7.38462H15.3846C15.5478 7.38462 15.7044 7.44945 15.8198 7.56486C15.9352 7.68026 16 7.83679 16 8ZM12.7869 13.6566C12.9035 13.7653 13.0578 13.8245 13.2172 13.8217C13.3767 13.8189 13.5288 13.7543 13.6415 13.6415C13.7543 13.5288 13.8189 13.3767 13.8217 13.2172C13.8245 13.0578 13.7653 12.9035 13.6566 12.7869L12.352 11.4814C12.2953 11.4226 12.2274 11.3757 12.1523 11.3434C12.0773 11.3111 11.9965 11.2941 11.9148 11.2934C11.8331 11.2926 11.752 11.3082 11.6764 11.3391C11.6008 11.37 11.532 11.4156 11.4742 11.4734C11.4164 11.5311 11.3707 11.5998 11.3397 11.6755C11.3087 11.7511 11.2931 11.8321 11.2938 11.9138C11.2945 11.9955 11.3114 12.0763 11.3436 12.1514C11.3758 12.2265 11.4227 12.2944 11.4814 12.3512L12.7869 13.6566ZM8 12.9231C8.16321 12.9231 8.31974 12.9879 8.43514 13.1033C8.55055 13.2187 8.61539 13.3753 8.61539 13.5385V15.3846C8.61539 15.5478 8.55055 15.7044 8.43514 15.8198C8.31974 15.9352 8.16321 16 8 16C7.83679 16 7.68026 15.9352 7.56486 15.8198C7.44945 15.7044 7.38462 15.5478 7.38462 15.3846V13.5385C7.38462 13.3753 7.44945 13.2187 7.56486 13.1033C7.68026 12.9879 7.83679 12.9231 8 12.9231ZM4.51938 12.3512C4.63143 12.2351 4.69338 12.0796 4.69191 11.9182C4.69043 11.7569 4.62564 11.6026 4.51148 11.4885C4.39733 11.3745 4.24296 11.3098 4.0816 11.3085C3.92025 11.3072 3.76483 11.3693 3.64882 11.4814L2.34338 12.7861C2.23123 12.9021 2.16913 13.0575 2.17046 13.2188C2.17178 13.3802 2.23643 13.5346 2.35047 13.6487C2.46452 13.7629 2.61883 13.8277 2.78018 13.8291C2.94154 13.8306 3.09701 13.7687 3.21313 13.6566L4.51856 12.352L4.51938 12.3512ZM3.07692 8C3.07692 8.16321 3.01209 8.31974 2.89668 8.43514C2.78127 8.55055 2.62475 8.61539 2.46154 8.61539H0.615385C0.452174 8.61539 0.295649 8.55055 0.180242 8.43514C0.0648349 8.31974 0 8.16321 0 8C0 7.83679 0.0648349 7.68026 0.180242 7.56486C0.295649 7.44945 0.452174 7.38462 0.615385 7.38462H2.46154C2.62475 7.38462 2.78127 7.44945 2.89668 7.56486C3.01209 7.68026 3.07692 7.83679 3.07692 8ZM3.64882 4.51856C3.76548 4.62727 3.91977 4.68644 4.0792 4.68363C4.23862 4.68082 4.39074 4.61623 4.50348 4.50348C4.61623 4.39074 4.68082 4.23862 4.68363 4.0792C4.68644 3.91977 4.62727 3.76548 4.51856 3.64882L3.21395 2.34338C3.09794 2.23123 2.94252 2.16913 2.78117 2.17046C2.61981 2.17178 2.46544 2.23643 2.35128 2.35047C2.23713 2.46452 2.17234 2.61883 2.17086 2.78018C2.16939 2.94154 2.23134 3.09701 2.34338 3.21313L3.64882 4.51856Z" fill="#C2C2C7" style="fill:#C2C2C7;fill:color(display-p3 0.7592 0.7592 0.7792);fill-opacity:1;"/>
</svg>
