<svg width="83" height="80" viewBox="0 0 83 80" fill="none" xmlns="http://www.w3.org/2000/svg">
<path d="M39.3773 5.99186C47.1947 5.99187 54.9012 6.4758 62.4668 7.41153C59.6511 9.68408 56.2257 11.2399 52.4606 11.7944L49.9823 12.1592L52.4606 12.5241C61.5029 13.8557 68.604 20.9363 69.9396 29.9524L70.0448 30.6717L49.613 51.0461C49.0829 51.575 48.6623 52.2034 48.3756 52.8943C48.089 53.5851 47.9421 54.3253 47.9424 55.0728V66.1824C47.943 68.297 47.352 70.37 46.2373 72.1691C45.1228 73.968 43.5278 75.4218 41.6312 76.3679L34.9419 79.7011C34.5068 79.9175 34.0229 80.0191 33.5371 79.9971C33.0513 79.9749 32.5787 79.8305 32.1651 79.5755C31.7514 79.3203 31.4096 78.9631 31.1728 78.5395C30.9362 78.116 30.8121 77.639 30.8121 77.1543V55.0728C30.8107 53.5636 30.209 52.1161 29.138 51.0496L5.61357 27.5794C3.47184 25.4447 2.26787 22.549 2.26723 19.5295V15.5716C2.26723 12.1672 4.69976 9.18302 8.13324 8.60233C18.456 6.86043 28.9077 5.98764 39.3773 5.99186Z" fill="white" fill-opacity="0.13" style="fill:white;fill-opacity:0.13;"/>
<path d="M10.2146 61.7771C10.8417 66.0107 14.1766 69.336 18.4225 69.9613L19.5857 70.1334L18.4225 70.3037C14.1766 70.929 10.8417 74.2542 10.2146 78.4879L10.0437 79.6477L9.87113 78.4879C9.244 74.2542 5.90913 70.929 1.66319 70.3037L0.5 70.1334L1.66319 69.9613C5.90913 69.336 9.244 66.0107 9.87113 61.7771L10.0437 60.6173L10.2146 61.7771Z" fill="white" fill-opacity="0.13" style="fill:white;fill-opacity:0.13;"/>
<path d="M76.4907 19.5329C76.4901 22.5524 75.2861 25.4481 73.1444 27.5829L70.6541 30.0643L70.6713 29.9524C71.337 25.4587 73.4343 21.4449 76.4907 18.3851V19.5329Z" fill="white" fill-opacity="0.13" style="fill:white;fill-opacity:0.13;"/>
<path d="M70.5246 1.48334C71.326 6.89299 75.587 11.1417 81.0124 11.9407L82.5 12.1592L81.0124 12.3778C75.587 13.1768 71.326 17.4255 70.5246 22.8352L70.3054 24.3185L70.0863 22.8352C69.2849 17.4255 65.0239 13.1768 59.5985 12.3778L58.1126 12.1592L59.5985 11.9407C65.0239 11.1417 69.2849 6.89299 70.0863 1.48334L70.3054 0L70.5246 1.48334Z" fill="white" fill-opacity="0.13" style="fill:white;fill-opacity:0.13;"/>
</svg>
