<svg width="94" height="80" viewBox="0 0 94 80" fill="none" xmlns="http://www.w3.org/2000/svg">
<path d="M11.1382 59.4081C11.8572 64.2861 15.6784 68.1158 20.5453 68.8366L21.8807 69.0349L20.5453 69.2331C15.6784 69.9539 11.8572 73.7836 11.1382 78.6616L10.9404 80L10.7425 78.6616C10.0235 73.7835 6.20244 69.9537 1.3354 69.2331L0 69.0349L1.3354 68.8366C6.20245 68.116 10.0235 64.2862 10.7425 59.4081L10.9404 58.0697L11.1382 59.4081Z" fill="white" fill-opacity="0.13" style="fill:white;fill-opacity:0.13;"/>
<path d="M24.6148 70.6846C24.6148 73.1363 22.6295 75.1262 20.1833 75.1262H16.0327C18.322 72.6534 21.275 70.8089 24.6148 69.8657V70.6846Z" fill="white" fill-opacity="0.13" style="fill:white;fill-opacity:0.13;"/>
<path d="M46.7725 21.8272C49.2187 21.8272 51.204 23.817 51.204 26.2688V70.6846C51.204 73.1363 49.2187 75.1262 46.7725 75.1262H37.9094C36.7341 75.1262 35.6068 74.6584 34.7757 73.8254C33.9446 72.9925 33.4779 71.8626 33.4779 70.6846V26.2688C33.4779 23.817 35.4632 21.8272 37.9094 21.8272H46.7725Z" fill="white" fill-opacity="0.13" style="fill:white;fill-opacity:0.13;"/>
<path d="M60.2531 14.6156C68.1701 15.7877 74.7258 21.0007 77.7932 28.1128V70.6846C77.7932 73.1363 75.8079 75.1262 73.3617 75.1262H64.4986C63.3233 75.1262 62.196 74.6584 61.3649 73.8254C60.5338 72.9925 60.0671 71.8626 60.0671 70.6846V14.5878L60.2531 14.6156Z" fill="white" fill-opacity="0.13" style="fill:white;fill-opacity:0.13;"/>
<path d="M20.1833 39.5935C22.6295 39.5935 24.6148 41.5833 24.6148 44.0351V68.2021C17.6372 66.2312 12.3493 60.3221 11.2688 52.9896L10.9404 50.7609L10.6119 52.9896C10.1309 56.2537 8.81483 59.2354 6.88866 61.7142V44.0351C6.88866 41.5833 8.87399 39.5935 11.3202 39.5935H20.1833Z" fill="white" fill-opacity="0.13" style="fill:white;fill-opacity:0.13;"/>
<path d="M80.0743 1.73301C81.0062 8.05676 85.9615 13.0232 92.2709 13.9573L94 14.2131L92.2709 14.4688C85.9615 15.4029 81.0062 20.3693 80.0743 26.6931L79.8191 28.4261L79.5639 26.6931C78.632 20.3693 73.6767 15.4029 67.3673 14.4688L65.6382 14.2131L67.3673 13.9573C73.6767 13.0232 78.632 8.05676 79.5639 1.73301L79.8191 0L80.0743 1.73301Z" fill="white" fill-opacity="0.13" style="fill:white;fill-opacity:0.13;"/>
<path d="M73.3617 4.06087C74.0945 4.06087 74.7844 4.2425 75.3935 4.55857C71.8853 9.45269 66.4921 12.8869 60.2531 13.8105L60.0671 13.8363V8.50245C60.0671 6.0507 62.0524 4.06087 64.4986 4.06087H73.3617Z" fill="white" fill-opacity="0.13" style="fill:white;fill-opacity:0.13;"/>
</svg>
