<svg width="95" height="80" viewBox="0 0 95 80" fill="none" xmlns="http://www.w3.org/2000/svg">
<path d="M6.80225 67.43C7.24148 70.4077 9.57642 72.7468 12.5495 73.1867L13.3652 73.3065L12.5495 73.4263C9.57643 73.8661 7.24149 76.2053 6.80225 79.183L6.68106 80L6.56142 79.183C6.12219 76.2053 3.78724 73.8661 0.814157 73.4263L0 73.3065L0.814157 73.1867C3.78724 72.7468 6.12219 70.4077 6.56142 67.43L6.68106 66.613L6.80225 67.43Z" fill="white" fill-opacity="0.13" style="fill:white;fill-opacity:0.13;"/>
<path d="M83.1745 65.9936C83.1743 71.9262 78.9023 77.1397 72.881 77.9364C64.2325 79.0886 55.4127 79.681 46.4582 79.681C37.6219 79.6827 28.795 79.1 20.0354 77.9364C17.3242 77.5776 14.9689 76.3217 13.1974 74.5095C14.2098 74.0217 15.3059 73.6781 16.4603 73.5072L17.8198 73.3065L16.4603 73.1057C14.1912 72.7699 12.1467 71.769 10.525 70.3076C10.0168 68.956 9.74198 67.4979 9.74192 65.9936V54.569C10.6712 55.0783 11.6448 55.5025 12.6505 55.8358C23.5539 59.4616 34.9696 61.3038 46.4582 61.2937C58.2563 61.2936 69.6306 59.3814 80.2659 55.8389C81.2937 55.4957 82.265 55.0674 83.1745 54.569V65.9936Z" fill="white" fill-opacity="0.13" style="fill:white;fill-opacity:0.13;"/>
<path fill-rule="evenodd" clip-rule="evenodd" d="M52.5768 0C55.8226 0 58.936 1.29164 61.2311 3.59031C63.5262 5.88895 64.8154 9.00643 64.8156 12.2572V13.096C66.321 13.2334 67.8208 13.3915 69.3152 13.5629C68.348 13.8633 67.3499 14.0963 66.3243 14.2476L63.9595 14.5962L66.3243 14.9448C74.9557 16.2184 81.7348 22.9888 83.0098 31.6094L83.3579 33.9734L83.7075 31.6094C84.0767 29.1126 84.9102 26.7724 86.1142 24.6746C86.1925 25.2338 86.2338 25.8029 86.2338 26.3788V38.7713C86.2338 43.7192 83.2395 48.3808 78.3362 50.0154C68.055 53.4334 57.2909 55.1712 46.4582 55.1604C35.321 55.1604 24.6037 53.3536 14.5802 50.0154C9.67694 48.3808 6.68261 43.7192 6.68261 38.7713V26.3788C6.68266 20.5196 10.8519 15.3476 16.7834 14.4609C20.5419 13.8979 24.3164 13.4427 28.1008 13.096V12.2572C28.101 9.00643 29.3903 5.88895 31.6853 3.59031C33.9805 1.29164 37.0938 0 40.3396 0H52.5768ZM46.4582 39.8374C45.647 39.8374 44.8692 40.1609 44.2954 40.7353C43.7218 41.3099 43.3991 42.0892 43.3989 42.9017C43.3989 43.7144 43.7216 44.4949 44.2954 45.0695C44.8692 45.6439 45.647 45.9675 46.4582 45.9675C47.2695 45.9675 48.0473 45.6439 48.621 45.0695C49.1948 44.4949 49.5175 43.7144 49.5175 42.9017C49.5173 42.0892 49.1946 41.3099 48.621 40.7353C48.0473 40.1609 47.2695 39.8374 46.4582 39.8374ZM40.3396 6.12859C38.7167 6.12859 37.1601 6.77516 36.0125 7.92452C34.865 9.07376 34.2196 10.6319 34.2195 12.2572V12.626C42.371 12.1302 50.5454 12.1302 58.697 12.626V12.2572C58.6968 10.6319 58.0514 9.07376 56.904 7.92452C55.7564 6.77516 54.1997 6.12859 52.5768 6.12859H40.3396Z" fill="white" fill-opacity="0.13" style="fill:white;fill-opacity:0.13;"/>
<path d="M83.5676 4.38868C84.3327 9.5611 88.4009 13.6237 93.5799 14.3877L95 14.5962L93.5799 14.8048C88.4009 15.5688 84.3327 19.6315 83.5676 24.8038L83.3594 26.2231L83.1497 24.8038C82.3845 19.6315 78.3163 15.5688 73.1374 14.8048L71.7204 14.5962L73.1374 14.3877C78.3164 13.6237 82.3846 9.56107 83.1497 4.38868L83.3594 2.96936L83.5676 4.38868Z" fill="white" fill-opacity="0.13" style="fill:white;fill-opacity:0.13;"/>
</svg>
