<svg width="81" height="80" viewBox="0 0 81 80" fill="none" xmlns="http://www.w3.org/2000/svg">
<path d="M8.83612 63.5765C9.40652 67.467 12.438 70.5215 16.2989 71.0964L17.3583 71.2545L16.2989 71.4126C12.438 71.9875 9.40653 75.042 8.83612 78.9325L8.67917 80L8.52222 78.9325C7.95178 75.0419 4.9205 71.9874 1.05939 71.4126L0 71.2545L1.05939 71.0964C4.92051 70.5216 7.95179 67.4671 8.52222 63.5765L8.67917 62.509L8.83612 63.5765Z" fill="white" fill-opacity="0.13" style="fill:white;fill-opacity:0.13;"/>
<path fill-rule="evenodd" clip-rule="evenodd" d="M36.1135 0.0395366C44.0868 0.43845 51.6516 3.80857 57.3233 9.52358C57.5465 9.74846 57.765 9.97767 57.9809 10.2084C56.3433 10.9839 54.5766 11.5338 52.7185 11.8104L50.4647 12.1457L52.7185 12.4809C56.8362 13.0938 60.5122 15.0309 63.3077 17.8532C65.5655 22.3552 66.7744 27.3683 66.7747 32.507C66.7745 39.8395 64.3045 46.9083 59.8486 52.609L79.8829 72.7964L80.1466 73.0874C81.367 74.5955 81.2779 76.8199 79.8829 78.2256C78.4879 79.6312 76.2803 79.7211 74.7837 78.4913L74.4949 78.2256L54.4606 58.0382C49.219 62.198 42.8148 64.6421 36.1135 64.9777L34.5111 65.0172C25.9557 65.0167 17.7517 61.5893 11.702 55.4936C5.65202 49.3973 2.25081 41.1284 2.25062 32.507C2.25115 23.886 5.65219 15.6196 11.702 9.52358C17.7518 3.42756 25.9555 0.000529431 34.5111 0L36.1135 0.0395366ZM34.5111 7.67959C27.9766 7.68012 21.7106 10.2968 17.09 14.9528C12.4694 19.6087 9.87249 25.9226 9.87197 32.507C9.87215 39.0918 12.4692 45.4083 17.09 50.0644C21.7105 54.72 27.9769 57.3387 34.5111 57.3392L35.7353 57.3091C41.8234 57.004 47.6026 54.4303 51.9353 50.0644C56.5573 45.4072 59.1547 39.0904 59.1549 32.507C59.1544 25.9229 56.5556 19.6086 51.9353 14.9528C47.6035 10.5879 41.8249 8.01446 35.7353 7.70964L34.5111 7.67959Z" fill="white" fill-opacity="0.13" style="fill:white;fill-opacity:0.13;"/>
<path d="M69.1461 2.33424C69.8749 7.30584 73.7499 11.2105 78.6838 11.9448L80.0367 12.1457L78.6838 12.3465C73.7499 13.0808 69.8749 16.9855 69.1461 21.9571L68.9468 23.3203L68.7475 21.9571C68.0188 16.9855 64.1437 13.0808 59.2098 12.3465L57.8585 12.1457L59.2098 11.9448C64.1437 11.2105 68.0188 7.30584 68.7475 2.33424L68.9468 0.97102L69.1461 2.33424Z" fill="white" fill-opacity="0.13" style="fill:white;fill-opacity:0.13;"/>
</svg>
