<svg width="15" height="13" viewBox="0 0 15 13" fill="none" xmlns="http://www.w3.org/2000/svg">
<path d="M6.96154 1.26969C5.83659 0.549134 4.52824 0.167096 3.19231 0.169075C2.39753 0.168263 1.60844 0.303015 0.858974 0.567537C0.754004 0.604649 0.663119 0.673388 0.598832 0.764291C0.534544 0.855193 0.500016 0.963789 0.5 1.07513V11.3059C0.500012 11.392 0.520689 11.4769 0.560294 11.5534C0.5999 11.6299 0.657278 11.6958 0.727612 11.7455C0.797946 11.7952 0.879183 11.8273 0.964504 11.8392C1.04982 11.851 1.13674 11.8422 1.21795 11.8135C1.85214 11.5898 2.51983 11.4759 3.19231 11.4768C4.62462 11.4768 5.93703 11.9844 6.96154 12.8308V1.26969ZM8.03846 12.8308C9.09844 11.9536 10.4318 11.4746 11.8077 11.4768C12.5012 11.4768 13.1646 11.5959 13.7821 11.8142C13.8633 11.8429 13.9503 11.8517 14.0357 11.8399C14.1211 11.828 14.2023 11.7958 14.2727 11.746C14.343 11.6962 14.4004 11.6302 14.44 11.5536C14.4795 11.4771 14.5001 11.3921 14.5 11.3059V1.07513C14.5 0.963789 14.4655 0.855193 14.4012 0.764291C14.3369 0.673388 14.246 0.604649 14.141 0.567537C13.3916 0.303015 12.6025 0.168263 11.8077 0.169075C10.4718 0.167096 9.16341 0.549134 8.03846 1.26969V12.8308Z" fill="#FCFCFC" style="fill:#FCFCFC;fill:color(display-p3 0.9900 0.9900 0.9900);fill-opacity:1;"/>
</svg>
