<svg width="15" height="13" viewBox="0 0 15 13" fill="none" xmlns="http://www.w3.org/2000/svg">
<path d="M7.3875 6.33781C7.42182 6.3572 7.46058 6.36739 7.5 6.36739C7.53942 6.36739 7.57818 6.3572 7.6125 6.33781L14.9034 2.3225C14.7584 1.7745 14.4365 1.28968 13.9879 0.943219C13.5392 0.596755 12.9887 0.408009 12.4219 0.40625H2.57812C2.01317 0.407908 1.46447 0.595429 1.01666 0.93988C0.56886 1.28433 0.246848 1.76657 0.100313 2.31219L7.3875 6.33781Z" fill="#FCFCFC" style="fill:#FCFCFC;fill:color(display-p3 0.9900 0.9900 0.9900);fill-opacity:1;"/>
<path d="M8.29219 7.56875C8.04972 7.70306 7.77706 7.77345 7.49988 7.77328C7.2227 7.77312 6.95012 7.70241 6.70781 7.56781L0 3.86375V10.0156C0.000496629 10.6992 0.272279 11.3547 0.755664 11.8381C1.23905 12.3215 1.89452 12.5933 2.57812 12.5938H12.4219C13.1055 12.5933 13.761 12.3215 14.2443 11.8381C14.7277 11.3547 14.9995 10.6992 15 10.0156V3.875L8.29219 7.56875Z" fill="#FCFCFC" style="fill:#FCFCFC;fill:color(display-p3 0.9900 0.9900 0.9900);fill-opacity:1;"/>
</svg>
