<svg width="15" height="15" viewBox="0 0 15 15" fill="none" xmlns="http://www.w3.org/2000/svg">
<path d="M8.6725 7.72466C8.48601 7.72466 8.30715 7.79875 8.17528 7.93062C8.04341 8.06249 7.96933 8.24135 7.96933 8.42784V9.83419C7.96933 9.89636 7.94463 9.95598 7.90068 9.99993C7.85672 10.0439 7.7971 10.0686 7.73494 10.0686H6.56298V5.15479C6.56298 4.63163 6.31077 4.13565 5.88699 3.82813L2.86521 1.63047H7.73494C7.7971 1.63047 7.85672 1.65517 7.90068 1.69912C7.94463 1.74308 7.96933 1.8027 7.96933 1.86487V3.74C7.96933 3.92649 8.04341 4.10535 8.17528 4.23722C8.30715 4.36909 8.48601 4.44318 8.6725 4.44318C8.859 4.44318 9.03785 4.36909 9.16972 4.23722C9.30159 4.10535 9.37568 3.92649 9.37568 3.74V1.86487C9.37568 0.960112 8.63969 0.224121 7.73494 0.224121H1.64074C0.735991 0.224121 0 0.960112 0 1.86487V10.2945C0 10.8177 0.252206 11.3137 0.675986 11.6212L4.7019 14.5502C4.87657 14.678 5.08326 14.7548 5.299 14.7722C5.51474 14.7896 5.73107 14.7468 5.92393 14.6485C6.1168 14.5503 6.27864 14.4005 6.39145 14.2158C6.50427 14.0311 6.56365 13.8187 6.56298 13.6023V11.4759H7.73494C8.63969 11.4759 9.37568 10.7399 9.37568 9.83513V8.42878C9.37568 8.24228 9.30159 8.06343 9.16972 7.93156C9.03785 7.79969 8.859 7.7256 8.6725 7.7256V7.72466Z" fill="#FCFCFC" style="fill:#FCFCFC;fill:color(display-p3 0.9900 0.9900 0.9900);fill-opacity:1;"/>
<path d="M12.2165 3.0087C12.1512 2.94338 12.0737 2.89157 11.9883 2.85622C11.903 2.82087 11.8115 2.80268 11.7191 2.80268C11.6268 2.80268 11.5353 2.82087 11.45 2.85622C11.3646 2.89157 11.2871 2.94338 11.2218 3.0087C11.1564 3.07401 11.1046 3.15156 11.0693 3.2369C11.0339 3.32224 11.0157 3.41371 11.0157 3.50608C11.0157 3.59845 11.0339 3.68992 11.0693 3.77526C11.1046 3.8606 11.1564 3.93814 11.2218 4.00346L12.6 5.38168H8.6725C8.48601 5.38168 8.30715 5.45577 8.17528 5.58764C8.04341 5.71951 7.96933 5.89837 7.96933 6.08486C7.96933 6.27135 8.04341 6.45021 8.17528 6.58208C8.30715 6.71395 8.48601 6.78803 8.6725 6.78803H12.6L11.2218 8.16626C11.0936 8.29882 11.0226 8.47641 11.0242 8.66078C11.0257 8.84515 11.0995 9.02155 11.2298 9.15199C11.3602 9.28243 11.5365 9.35646 11.7209 9.35815C11.9052 9.35984 12.0829 9.28905 12.2156 9.16102L14.7939 6.58271C14.8592 6.5174 14.9111 6.43987 14.9464 6.35453C14.9818 6.26918 15 6.17771 15 6.08533C15 5.99295 14.9818 5.90147 14.9464 5.81613C14.9111 5.73079 14.8592 5.65325 14.7939 5.58795L12.2156 3.00964L12.2165 3.0087Z" fill="#FCFCFC" style="fill:#FCFCFC;fill:color(display-p3 0.9900 0.9900 0.9900);fill-opacity:1;"/>
</svg>
