<svg width="15" height="15" viewBox="0 0 15 15" fill="none" xmlns="http://www.w3.org/2000/svg">
<path fill-rule="evenodd" clip-rule="evenodd" d="M2.54546 14.4468C2.41267 14.4338 2.28045 14.4154 2.14913 14.3918C2.05268 14.3745 1.96249 14.3321 1.88763 14.2689C1.81278 14.2057 1.7559 14.1239 1.72273 14.0317C1.68956 13.9395 1.68127 13.8401 1.69868 13.7437C1.7161 13.6473 1.75862 13.5572 1.82195 13.4824C2.12701 13.1228 2.33534 12.6913 2.42723 12.2287C2.44433 12.1432 2.41087 11.993 2.23836 11.8249C1.01144 10.6315 0.25 9.01268 0.25 7.22063C0.25 3.48037 3.54262 0.52832 7.5 0.52832C11.4574 0.52832 14.75 3.48037 14.75 7.22063C14.75 10.9609 11.4574 13.9129 7.5 13.9129C6.88059 13.9129 6.27828 13.8408 5.70274 13.7055C4.76199 14.2967 3.65104 14.5576 2.54546 14.4468Z" fill="#FCFCFC" style="fill:#FCFCFC;fill:color(display-p3 0.9900 0.9900 0.9900);fill-opacity:1;"/>
</svg>
