<svg width="13" height="15" viewBox="0 0 13 15" fill="none" xmlns="http://www.w3.org/2000/svg">
<path d="M6.50089 6.56282C6.91971 6.56282 7.33442 6.47794 7.72136 6.31304C8.1083 6.14813 8.45988 5.90642 8.75603 5.60172C9.05218 5.29701 9.2871 4.93527 9.44737 4.53715C9.60765 4.13903 9.69014 3.71233 9.69014 3.28141C9.69014 2.85049 9.60765 2.42379 9.44737 2.02567C9.2871 1.62755 9.05218 1.26581 8.75603 0.961103C8.45988 0.656396 8.1083 0.414689 7.72136 0.249782C7.33442 0.0848761 6.91971 -6.42122e-09 6.50089 0C5.65505 1.29682e-08 4.84385 0.345719 4.24575 0.961103C3.64765 1.57649 3.31164 2.41113 3.31164 3.28141C3.31164 4.15169 3.64765 4.98633 4.24575 5.60172C4.84385 6.2171 5.65505 6.56282 6.50089 6.56282ZM6.50089 7.50037C5.26637 7.50171 4.05873 7.87152 3.02441 8.56496C1.99009 9.2584 1.17351 10.2457 0.673673 11.4071C0.557935 11.6768 0.498764 11.9686 0.50002 12.2634C0.501276 12.5583 0.562931 12.8495 0.680963 13.1181C0.802322 13.393 0.978549 13.6384 1.19818 13.8386C1.41782 14.0387 1.67593 14.189 1.95575 14.2798C4.91335 15.2401 8.08661 15.2401 11.0442 14.2798C11.3241 14.1891 11.5822 14.0388 11.8019 13.8387C12.0215 13.6386 12.1977 13.393 12.319 13.1181C12.5577 12.5744 12.5605 11.9509 12.3263 11.4071C11.8264 10.2457 11.0099 9.2584 9.97554 8.56496C8.94122 7.87152 7.73359 7.50171 6.49907 7.50037H6.50089Z" fill="#FCFCFC" style="fill:#FCFCFC;fill:color(display-p3 0.9900 0.9900 0.9900);fill-opacity:1;"/>
</svg>
