<svg width="17" height="18" viewBox="0 0 17 18" fill="none" xmlns="http://www.w3.org/2000/svg">
<path d="M7.84813 10.4667C8.20816 10.1067 8.79187 10.1067 9.1519 10.4667L11.8816 13.1965C12.2417 13.5565 12.2417 14.1402 11.8816 14.5002L9.1519 17.23C8.79187 17.59 8.20816 17.59 7.84813 17.23L5.11839 14.5002C4.75837 14.1402 4.75837 13.5565 5.11839 13.1965L7.84813 10.4667Z" fill="#FAFAFA" style="fill:#FAFAFA;fill:color(display-p3 0.9800 0.9800 0.9800);fill-opacity:1;"/>
<path d="M2.99976 5.61839C3.35978 5.25837 3.94349 5.25837 4.30352 5.61839L7.03326 8.34813C7.39328 8.70816 7.39328 9.29187 7.03326 9.6519L4.30352 12.3816C3.9435 12.7417 3.35978 12.7417 2.99976 12.3816L0.270018 9.6519C-0.0900059 9.29187 -0.0900059 8.70816 0.270018 8.34813L2.99976 5.61839Z" fill="#FAFAFA" style="fill:#FAFAFA;fill:color(display-p3 0.9800 0.9800 0.9800);fill-opacity:1;"/>
<path d="M12.6965 5.61839C13.0565 5.25837 13.6402 5.25837 14.0003 5.61839L16.73 8.34813C17.09 8.70816 17.09 9.29187 16.73 9.6519L14.0003 12.3816C13.6402 12.7417 13.0565 12.7417 12.6965 12.3816L9.96677 9.6519C9.60675 9.29187 9.60675 8.70816 9.96677 8.34813L12.6965 5.61839Z" fill="#FAFAFA" style="fill:#FAFAFA;fill:color(display-p3 0.9800 0.9800 0.9800);fill-opacity:1;"/>
<path d="M7.84813 0.770018C8.20816 0.409994 8.79187 0.409994 9.1519 0.770018L11.8816 3.49976C12.2417 3.85978 12.2417 4.44349 11.8816 4.80352L9.1519 7.53326C8.79187 7.89328 8.20816 7.89328 7.84813 7.53326L5.11839 4.80352C4.75837 4.44349 4.75837 3.85978 5.11839 3.49976L7.84813 0.770018Z" fill="#FAFAFA" style="fill:#FAFAFA;fill:color(display-p3 0.9800 0.9800 0.9800);fill-opacity:1;"/>
</svg>
