<svg width="10" height="13" viewBox="0 0 10 13" fill="none" xmlns="http://www.w3.org/2000/svg">
<path d="M4.20001 11.2999V3.63109L1.56564 6.26546C1.25322 6.57788 0.746809 6.57788 0.434385 6.26546C0.121969 5.95304 0.121969 5.44663 0.434385 5.13421L4.43438 1.13421L4.49532 1.07953C4.80954 0.823245 5.27275 0.841317 5.56564 1.13421L9.56567 5.13421L9.62031 5.19515C9.87663 5.50937 9.85855 5.97257 9.56567 6.26546C9.27271 6.55835 8.80951 6.57643 8.49535 6.32015L8.43439 6.26546L5.80001 3.63109V11.2999C5.80001 11.7417 5.44184 12.0999 5.00001 12.0999C4.55819 12.0999 4.20002 11.7417 4.20001 11.2999Z" fill="white" style="fill:white;fill-opacity:1;"/>
</svg>
