<svg width="15" height="10" viewBox="0 0 15 10" fill="none" xmlns="http://www.w3.org/2000/svg">
<path d="M0.293728 6.05125C-0.0979094 5.6426 -0.0979094 4.9799 0.293728 4.57161C0.685366 4.16296 1.32046 4.16296 1.7121 4.57161L3.63526 6.57833L8.2088 0.405751C8.54614 -0.0504218 9.17423 -0.134492 9.61141 0.217506C10.0486 0.569505 10.1292 1.22489 9.79182 1.68106L4.56916 8.7298C4.53203 8.78865 4.48859 8.84458 4.4392 8.89648C4.04756 9.30513 3.41247 9.30513 3.02083 8.89648L0.293728 6.05125Z" fill="white" style="fill:white;fill-opacity:1;"/>
<path d="M13.2084 0.442603C13.5457 -0.0135397 14.1738 -0.0978342 14.611 0.254084C15.0482 0.606082 15.129 1.26148 14.7917 1.71765L9.56934 8.76674C9.53227 8.82547 9.48801 8.88051 9.43873 8.93233C9.04709 9.34098 8.41187 9.34098 8.02023 8.93233L6.70916 7.56429L7.94577 5.89564L8.63548 6.61533L13.2084 0.442603Z" fill="white" style="fill:white;fill-opacity:1;"/>
</svg>
