<svg width="18" height="18" viewBox="0 0 18 18" fill="none" xmlns="http://www.w3.org/2000/svg">
<path d="M8.34812 10.4667C8.70814 10.1067 9.29186 10.1067 9.65188 10.4667L12.3816 13.1965C12.7416 13.5565 12.7416 14.1402 12.3816 14.5002L9.65188 17.23C9.29186 17.59 8.70814 17.59 8.34812 17.23L5.61839 14.5002C5.25836 14.1402 5.25836 13.5565 5.61839 13.1965L8.34812 10.4667Z" fill="#FCFCFC" style="fill:#FCFCFC;fill:color(display-p3 0.9900 0.9900 0.9900);fill-opacity:1;"/>
<path d="M3.49975 5.61839C3.85977 5.25836 4.44349 5.25836 4.80351 5.61839L7.53325 8.34812C7.89327 8.70814 7.89327 9.29186 7.53325 9.65188L4.80351 12.3816C4.44349 12.7416 3.85977 12.7416 3.49975 12.3816L0.770017 9.65188C0.409994 9.29186 0.409994 8.70814 0.770017 8.34812L3.49975 5.61839Z" fill="#FCFCFC" style="fill:#FCFCFC;fill:color(display-p3 0.9900 0.9900 0.9900);fill-opacity:1;"/>
<path d="M13.1965 5.61839C13.5565 5.25836 14.1402 5.25836 14.5002 5.61839L17.23 8.34812C17.59 8.70814 17.59 9.29186 17.23 9.65188L14.5002 12.3816C14.1402 12.7416 13.5565 12.7416 13.1965 12.3816L10.4668 9.65188C10.1067 9.29186 10.1067 8.70814 10.4668 8.34812L13.1965 5.61839Z" fill="#FCFCFC" style="fill:#FCFCFC;fill:color(display-p3 0.9900 0.9900 0.9900);fill-opacity:1;"/>
<path d="M8.34812 0.770017C8.70814 0.409994 9.29186 0.409994 9.65188 0.770017L12.3816 3.49975C12.7416 3.85977 12.7416 4.44349 12.3816 4.80351L9.65188 7.53324C9.29186 7.89327 8.70814 7.89327 8.34812 7.53324L5.61839 4.80351C5.25836 4.44349 5.25836 3.85977 5.61839 3.49975L8.34812 0.770017Z" fill="#FCFCFC" style="fill:#FCFCFC;fill:color(display-p3 0.9900 0.9900 0.9900);fill-opacity:1;"/>
</svg>
