<svg width="18" height="16" viewBox="0 0 18 16" fill="none" xmlns="http://www.w3.org/2000/svg">
<path d="M3.39087 1.49839C3.72734 1.40573 4.07446 1.35898 4.42308 1.35938H13.5769C13.9344 1.35938 14.2796 1.40807 14.6083 1.49839C14.3909 1.05743 14.057 0.686632 13.6439 0.427513C13.2307 0.168394 12.7548 0.0311848 12.2692 0.0312503H5.73077C5.24508 0.0310204 4.76892 0.168152 4.35564 0.42728C3.94237 0.686408 3.6083 1.0573 3.39087 1.49839ZM0.5 8C0.5 7.29552 0.775549 6.61989 1.26603 6.12175C1.75651 5.6236 2.42174 5.34375 3.11538 5.34375H14.8846C15.5783 5.34375 16.2435 5.6236 16.734 6.12175C17.2245 6.61989 17.5 7.29552 17.5 8V13.3125C17.5 14.017 17.2245 14.6926 16.734 15.1908C16.2435 15.6889 15.5783 15.9688 14.8846 15.9688H3.11538C2.42174 15.9688 1.75651 15.6889 1.26603 15.1908C0.775549 14.6926 0.5 14.017 0.5 13.3125V8ZM3.11538 4.01563C2.75795 4.01563 2.41272 4.06432 2.08318 4.15464C2.30061 3.71355 2.63467 3.34266 3.04795 3.08353C3.46123 2.8244 3.93739 2.68727 4.42308 2.6875H13.5769C14.0625 2.68743 14.5384 2.82464 14.9515 3.08376C15.3647 3.34288 15.6986 3.71368 15.9159 4.15464C15.5798 4.06205 15.2329 4.01531 14.8846 4.01563H3.11538Z" fill="#FCFCFC" style="fill:#FCFCFC;fill:color(display-p3 0.9900 0.9900 0.9900);fill-opacity:1;"/>
</svg>
