<svg width="18" height="16" viewBox="0 0 18 16" fill="none" xmlns="http://www.w3.org/2000/svg">
<path d="M15.5167 0.107178H14.95C14.424 0.107178 13.9195 0.315069 13.5476 0.685119C13.1756 1.05517 12.9667 1.55706 12.9667 2.08039V13.9197C12.9667 15.0089 13.8552 15.8929 14.95 15.8929H15.5167C16.0427 15.8929 16.5471 15.685 16.9191 15.3149C17.291 14.9449 17.5 14.443 17.5 13.9197V2.08039C17.5 1.55706 17.291 1.05517 16.9191 0.685119C16.5471 0.315069 16.0427 0.107178 15.5167 0.107178ZM9.28333 5.74493H8.71667C8.19065 5.74493 7.68618 5.95282 7.31424 6.32287C6.94229 6.69292 6.73333 7.19482 6.73333 7.71815V13.9197C6.73333 15.0089 7.62187 15.8929 8.71667 15.8929H9.28333C9.80935 15.8929 10.3138 15.685 10.6858 15.3149C11.0577 14.9449 11.2667 14.443 11.2667 13.9197V7.71815C11.2667 7.19482 11.0577 6.69292 10.6858 6.32287C10.3138 5.95282 9.80935 5.74493 9.28333 5.74493ZM3.05 10.2551H2.48333C1.95732 10.2551 1.45285 10.463 1.0809 10.8331C0.708958 11.2031 0.5 11.705 0.5 12.2284V13.9197C0.5 15.0089 1.38853 15.8929 2.48333 15.8929H3.05C3.57601 15.8929 4.08048 15.685 4.45243 15.3149C4.82438 14.9449 5.03333 14.443 5.03333 13.9197V12.2284C5.03333 11.705 4.82438 11.2031 4.45243 10.8331C4.08048 10.463 3.57601 10.2551 3.05 10.2551Z" fill="#FCFCFC" style="fill:#FCFCFC;fill:color(display-p3 0.9900 0.9900 0.9900);fill-opacity:1;"/>
</svg>
