<svg width="18" height="18" viewBox="0 0 18 18" fill="none" xmlns="http://www.w3.org/2000/svg">
<path d="M17.4739 9.65734C17.5921 8.15207 17.3077 6.64243 16.6501 5.28409C15.5617 6.32115 14.2751 7.12638 12.8678 7.65122C12.981 9.044 12.9183 10.4455 12.6813 11.8226C14.3937 11.3901 16.0163 10.657 17.4739 9.65734ZM11.2961 12.1031C11.5746 10.7684 11.6719 9.40199 11.5856 8.04108C10.7557 8.23951 9.8901 8.3444 9.00009 8.3444C8.11009 8.3444 7.24449 8.23951 6.41463 8.04108C6.33029 9.40199 6.42761 10.7681 6.70403 12.1031C8.22585 12.3371 9.77433 12.3371 11.2961 12.1031ZM7.05794 13.4746C8.34821 13.6277 9.65197 13.6277 10.9422 13.4746C10.4988 14.9061 9.84416 16.2629 9.00009 17.5C8.156 16.2629 7.50137 14.9061 7.05794 13.4746ZM5.3189 11.8234C5.08061 10.4459 5.01793 9.04368 5.13236 7.65035C3.72481 7.12563 2.43786 6.32039 1.34918 5.28322C0.691756 6.6419 0.407694 8.15186 0.526293 9.65734C1.9839 10.657 3.60647 11.3909 5.3189 11.8234ZM17.1557 11.4056C16.7156 12.9012 15.8753 14.2473 14.7262 15.2978C13.577 16.3483 12.1628 17.0631 10.6371 17.3645C11.4012 16.0763 11.9844 14.6885 12.3701 13.2404C14.052 12.8869 15.6673 12.2679 17.1557 11.4065V11.4056ZM0.844464 11.4056C2.31066 12.2544 3.92157 12.8811 5.6301 13.2404C6.01583 14.6885 6.59898 16.0763 7.36304 17.3645C5.83747 17.0631 4.42335 16.3485 3.27419 15.2981C2.12503 14.2478 1.28472 12.9019 0.844464 11.4065V11.4056ZM10.6371 0.634615C12.797 1.06032 14.708 2.30929 15.9685 4.11888C15.0381 5.06152 13.9274 5.80601 12.7031 6.30769C12.3732 4.30404 11.6725 2.37993 10.6371 0.634615ZM9.00009 0.5C10.2723 2.36372 11.1081 4.49157 11.4452 6.72465C10.6633 6.9257 9.8439 7.03322 9.00009 7.03322C8.15629 7.03322 7.33689 6.92657 6.55497 6.72465C6.89205 4.49157 7.72789 2.36371 9.00009 0.5ZM7.36304 0.634615C6.32766 2.37992 5.62697 4.30403 5.29711 6.30769C4.07277 5.80603 2.9621 5.06154 2.03172 4.11888C3.29223 2.30956 5.20331 1.06002 7.36304 0.634615Z" fill="#FCFCFC" style="fill:#FCFCFC;fill:color(display-p3 0.9900 0.9900 0.9900);fill-opacity:1;"/>
</svg>
