<svg width="18" height="16" viewBox="0 0 18 16" fill="none" xmlns="http://www.w3.org/2000/svg">
<path d="M8.57154 1.40202C8.68528 1.28754 8.83945 1.22323 9.0002 1.22323C9.16095 1.22323 9.31512 1.28754 9.42886 1.40202L16.4573 8.48541C16.5133 8.54377 16.5802 8.59031 16.6542 8.62232C16.7283 8.65432 16.8079 8.67115 16.8884 8.67181C16.969 8.67248 17.0488 8.65698 17.1234 8.6262C17.1979 8.59543 17.2656 8.55 17.3225 8.49258C17.3795 8.43515 17.4245 8.36687 17.4549 8.29172C17.4854 8.21658 17.5007 8.13607 17.5 8.0549C17.4992 7.97372 17.4825 7.89351 17.4506 7.81894C17.4188 7.74437 17.3726 7.67694 17.3146 7.62057L10.287 0.53718C10.118 0.366873 9.9174 0.231778 9.69661 0.139609C9.47582 0.0474391 9.23918 0 9.0002 0C8.76122 0 8.52458 0.0474391 8.30379 0.139609C8.083 0.231778 7.88239 0.366873 7.71341 0.53718L0.684978 7.62057C0.627069 7.67699 0.580889 7.74447 0.549134 7.81907C0.517378 7.89367 0.500682 7.9739 0.50002 8.05507C0.499359 8.13625 0.514744 8.21674 0.54528 8.29186C0.575815 8.36697 0.620889 8.43521 0.67787 8.49258C0.734852 8.54995 0.8026 8.59532 0.877163 8.62602C0.951725 8.65672 1.03161 8.67215 1.11215 8.67141C1.19269 8.67067 1.27228 8.65376 1.34628 8.62169C1.42027 8.58962 1.48718 8.54301 1.54311 8.4846L8.57154 1.40202Z" fill="#FCFCFC" style="fill:#FCFCFC;fill:color(display-p3 0.9900 0.9900 0.9900);fill-opacity:1;"/>
<path d="M9.0002 2.69888L15.5992 9.34944C15.6234 9.37389 15.6477 9.39672 15.6728 9.41954V14.4716C15.6728 15.3153 14.9934 16 14.1563 16H11.4266C11.2657 16 11.1114 15.9356 10.9977 15.8209C10.8839 15.7063 10.82 15.5508 10.82 15.3887V11.7206C10.82 11.5585 10.7561 11.403 10.6423 11.2883C10.5286 11.1737 10.3743 11.1093 10.2134 11.1093H7.78701C7.62613 11.1093 7.47184 11.1737 7.35808 11.2883C7.24432 11.403 7.18041 11.5585 7.18041 11.7206V15.3887C7.18041 15.5508 7.1165 15.7063 7.00274 15.8209C6.88898 15.9356 6.73469 16 6.57381 16H3.84413C3.44193 16 3.05621 15.839 2.77181 15.5524C2.48741 15.2657 2.32764 14.877 2.32764 14.4716V9.41954C2.3528 9.39685 2.37735 9.37348 2.40124 9.34944L9.0002 2.69888Z" fill="#FCFCFC" style="fill:#FCFCFC;fill:color(display-p3 0.9900 0.9900 0.9900);fill-opacity:1;"/>
</svg>
