<svg width="18" height="18" viewBox="0 0 18 18" fill="none" xmlns="http://www.w3.org/2000/svg">
<path fill-rule="evenodd" clip-rule="evenodd" d="M0.5 3.33333C0.5 2.58189 0.798511 1.86122 1.32986 1.32986C1.86122 0.798511 2.58189 0.5 3.33333 0.5H5.45833C6.20978 0.5 6.93045 0.798511 7.4618 1.32986C7.99316 1.86122 8.29167 2.58189 8.29167 3.33333V5.45833C8.29167 6.20978 7.99316 6.93045 7.4618 7.4618C6.93045 7.99316 6.20978 8.29167 5.45833 8.29167H3.33333C2.58189 8.29167 1.86122 7.99316 1.32986 7.4618C0.798511 6.93045 0.5 6.20978 0.5 5.45833V3.33333ZM9.70833 3.33333C9.70833 2.58189 10.0068 1.86122 10.5382 1.32986C11.0695 0.798511 11.7902 0.5 12.5417 0.5H14.6667C15.4181 0.5 16.1388 0.798511 16.6701 1.32986C17.2015 1.86122 17.5 2.58189 17.5 3.33333V5.45833C17.5 6.20978 17.2015 6.93045 16.6701 7.4618C16.1388 7.99316 15.4181 8.29167 14.6667 8.29167H12.5417C11.7902 8.29167 11.0695 7.99316 10.5382 7.4618C10.0068 6.93045 9.70833 6.20978 9.70833 5.45833V3.33333ZM0.5 12.5417C0.5 11.7902 0.798511 11.0695 1.32986 10.5382C1.86122 10.0068 2.58189 9.70833 3.33333 9.70833H5.45833C6.20978 9.70833 6.93045 10.0068 7.4618 10.5382C7.99316 11.0695 8.29167 11.7902 8.29167 12.5417V14.6667C8.29167 15.4181 7.99316 16.1388 7.4618 16.6701C6.93045 17.2015 6.20978 17.5 5.45833 17.5H3.33333C2.58189 17.5 1.86122 17.2015 1.32986 16.6701C0.798511 16.1388 0.5 15.4181 0.5 14.6667V12.5417ZM9.70833 12.5417C9.70833 11.7902 10.0068 11.0695 10.5382 10.5382C11.0695 10.0068 11.7902 9.70833 12.5417 9.70833H14.6667C15.4181 9.70833 16.1388 10.0068 16.6701 10.5382C17.2015 11.0695 17.5 11.7902 17.5 12.5417V14.6667C17.5 15.4181 17.2015 16.1388 16.6701 16.6701C16.1388 17.2015 15.4181 17.5 14.6667 17.5H12.5417C11.7902 17.5 11.0695 17.2015 10.5382 16.6701C10.0068 16.1388 9.70833 15.4181 9.70833 14.6667V12.5417Z" fill="#FCFCFC" style="fill:#FCFCFC;fill:color(display-p3 0.9900 0.9900 0.9900);fill-opacity:1;"/>
</svg>
