<svg width="18" height="18" viewBox="0 0 18 18" fill="none" xmlns="http://www.w3.org/2000/svg">
<path d="M15.0714 17.0277C15.7155 17.0277 16.3332 16.7458 16.7887 16.244C17.2441 15.7421 17.5 15.0615 17.5 14.3518V10.3379C17.5 9.62821 17.2441 8.94758 16.7887 8.44574C16.3332 7.94391 15.7155 7.66198 15.0714 7.66198H2.92857C2.28447 7.66198 1.66676 7.94391 1.21131 8.44574C0.755867 8.94758 0.5 9.62821 0.5 10.3379V14.3518C0.5 15.0615 0.755867 15.7421 1.21131 16.244C1.66676 16.7458 2.28447 17.0277 2.92857 17.0277H15.0714ZM0.5 7.34622V3.64809C0.5 2.93839 0.755867 2.25776 1.21131 1.75593C1.66676 1.2541 2.28447 0.972168 2.92857 0.972168H7.283C7.76579 0.9724 8.22875 1.18382 8.57014 1.55998L10.288 3.45186C10.4013 3.57763 10.5559 3.64809 10.717 3.64809H15.0714C15.7155 3.64809 16.3332 3.93002 16.7887 4.43185C17.2441 4.93369 17.5 5.61432 17.5 6.32402V7.34622C16.8328 6.68673 15.9677 6.32261 15.0714 6.32402H2.92857C2.03226 6.32261 1.16718 6.68673 0.5 7.34622Z" fill="#FCFCFC" style="fill:#FCFCFC;fill:color(display-p3 0.9900 0.9900 0.9900);fill-opacity:1;"/>
</svg>
