<svg width="16" height="18" viewBox="0 0 16 18" fill="none" xmlns="http://www.w3.org/2000/svg">
<path fill-rule="evenodd" clip-rule="evenodd" d="M2.26172 6.38683C2.26172 4.82554 2.86629 3.32821 3.94243 2.22421C5.01857 1.12022 6.47814 0.5 8.00003 0.5C9.52193 0.5 10.9815 1.12022 12.0576 2.22421C13.1338 3.32821 13.7383 4.82554 13.7383 6.38683V7.04092C13.7383 8.89243 14.4184 10.5791 15.5389 11.855C15.6087 11.9344 15.6585 12.0301 15.6839 12.1337C15.7093 12.2374 15.7095 12.3459 15.6846 12.4496C15.6597 12.5534 15.6104 12.6494 15.541 12.7291C15.4715 12.8088 15.3841 12.8698 15.2864 12.9068C13.9738 13.4039 12.6 13.7702 11.1795 13.9909C11.2115 14.4393 11.153 14.8896 11.0077 15.3138C10.8624 15.7379 10.6334 16.1268 10.3351 16.4561C10.0367 16.7854 9.67535 17.0481 9.27359 17.2277C8.87183 17.4073 8.43828 17.5 8.00003 17.5C7.56178 17.5 7.12824 17.4073 6.72648 17.2277C6.32472 17.0481 5.96337 16.7854 5.665 16.4561C5.36663 16.1268 5.13765 15.7379 4.99236 15.3138C4.84707 14.8896 4.7886 14.4393 4.82058 13.9909C3.41929 13.773 2.04323 13.4095 0.713648 12.9059C0.615998 12.869 0.528659 12.808 0.45926 12.7284C0.38986 12.6488 0.340511 12.553 0.315521 12.4494C0.290532 12.3457 0.290662 12.2373 0.315902 12.1337C0.341141 12.0301 0.390721 11.9344 0.460313 11.855C1.62226 10.5352 2.26434 8.81934 2.26172 7.04092V6.38683ZM6.08896 14.1487C6.07809 14.4131 6.11946 14.6771 6.2106 14.9247C6.30174 15.1723 6.44075 15.3984 6.61928 15.5894C6.79782 15.7805 7.01217 15.9325 7.24946 16.0363C7.48674 16.1402 7.74205 16.1937 8.00003 16.1937C8.25801 16.1937 8.51332 16.1402 8.75061 16.0363C8.98789 15.9325 9.20225 15.7805 9.38078 15.5894C9.55931 15.3984 9.69833 15.1723 9.78946 14.9247C9.8806 14.6771 9.92198 14.4131 9.9111 14.1487C8.63963 14.2662 7.36043 14.2662 6.08896 14.1487Z" fill="#FCFCFC" style="fill:#FCFCFC;fill:color(display-p3 0.9900 0.9900 0.9900);fill-opacity:1;"/>
</svg>
