<svg width="16" height="18" viewBox="0 0 16 18" fill="none" xmlns="http://www.w3.org/2000/svg">
<path fill-rule="evenodd" clip-rule="evenodd" d="M10.3154 0.576787C10.445 0.642759 10.5468 0.746523 10.6044 0.871528C10.662 0.996533 10.6722 1.13558 10.6332 1.26648L9.75491 7.17823H15.3047C15.4341 7.17824 15.5607 7.21282 15.6689 7.27772C15.7771 7.34262 15.8623 7.43501 15.9138 7.54354C15.9653 7.65206 15.9811 7.772 15.9591 7.88859C15.9371 8.00518 15.8783 8.11336 15.7899 8.19982L6.49301 17.3067C6.39175 17.4061 6.25695 17.4715 6.11018 17.4926C5.96341 17.5137 5.81313 17.4892 5.6834 17.423C5.55366 17.3568 5.45196 17.2527 5.39456 17.1274C5.33715 17.0022 5.32736 16.8629 5.36676 16.7319L6.24509 10.821H0.695274C0.56586 10.821 0.439268 10.7864 0.33106 10.7215C0.222852 10.6566 0.137745 10.5642 0.0861987 10.4557C0.0346528 10.3471 0.0189154 10.2272 0.0409211 10.1106C0.0629268 9.99401 0.121717 9.88584 0.210063 9.79938L9.50699 0.692545C9.60825 0.5935 9.74286 0.528293 9.88936 0.507314C10.0359 0.486335 10.1858 0.510792 10.3154 0.576787Z" fill="#FCFCFC" style="fill:#FCFCFC;fill:color(display-p3 0.9900 0.9900 0.9900);fill-opacity:1;"/>
</svg>
