<svg width="18" height="18" viewBox="0 0 18 18" fill="none" xmlns="http://www.w3.org/2000/svg">
<path fill-rule="evenodd" clip-rule="evenodd" d="M6.82643 5.42514C9.15786 2.4291 12.8007 0.5 16.8929 0.5C17.0539 0.5 17.2083 0.563967 17.3222 0.677828C17.436 0.791689 17.5 0.946119 17.5 1.10714C17.5 5.2001 15.5709 8.84214 12.5749 11.1744C12.6995 11.955 12.6532 12.7533 12.4393 13.5142C12.2255 14.2752 11.849 14.9807 11.336 15.5821C10.823 16.1835 10.1856 16.6664 9.46785 16.9975C8.75009 17.3286 7.96903 17.5 7.17857 17.5C7.01755 17.5 6.86312 17.436 6.74926 17.3222C6.6354 17.2083 6.57143 17.0539 6.57143 16.8929V13.5487C5.78451 12.9273 5.07321 12.2157 4.4521 11.4286H1.10714C0.946119 11.4286 0.791689 11.3646 0.677828 11.2507C0.563967 11.1369 0.5 10.9825 0.5 10.8214C0.499936 10.0309 0.671405 9.24975 1.00257 8.53192C1.33374 7.8141 1.81672 7.17667 2.41817 6.66364C3.01963 6.15061 3.72525 5.7742 4.48632 5.56038C5.24739 5.34655 6.04579 5.30041 6.82643 5.42514ZM11.4286 4.75C10.9455 4.75 10.4822 4.9419 10.1406 5.28348C9.79904 5.62507 9.60714 6.08836 9.60714 6.57143C9.60714 7.0545 9.79904 7.51779 10.1406 7.85937C10.4822 8.20096 10.9455 8.39286 11.4286 8.39286C11.9116 8.39286 12.3749 8.20096 12.7165 7.85937C13.0581 7.51779 13.25 7.0545 13.25 6.57143C13.25 6.08836 13.0581 5.62507 12.7165 5.28348C12.3749 4.9419 11.9116 4.75 11.4286 4.75Z" fill="#FCFCFC" style="fill:#FCFCFC;fill:color(display-p3 0.9900 0.9900 0.9900);fill-opacity:1;"/>
<path d="M3.54382 13.2435C3.60777 13.1959 3.66169 13.1361 3.70253 13.0675C3.74336 12.999 3.77029 12.9231 3.78179 12.8442C3.79329 12.7653 3.78914 12.6848 3.76956 12.6075C3.74998 12.5302 3.71536 12.4575 3.66768 12.3935C3.62 12.3296 3.56019 12.2757 3.49167 12.2348C3.42315 12.194 3.34726 12.1671 3.26833 12.1556C3.1894 12.1441 3.10898 12.1482 3.03166 12.1678C2.95433 12.1874 2.88162 12.222 2.81768 12.2697C2.19669 12.7316 1.71382 13.3546 1.42132 14.0711C1.12882 14.7877 1.03781 15.5706 1.15816 16.3351C1.17773 16.4625 1.2373 16.5803 1.32825 16.6715C1.41921 16.7628 1.53683 16.8227 1.66411 16.8427C2.42873 16.9629 3.21168 16.8718 3.92824 16.5792C4.64481 16.2865 5.2677 15.8035 5.72954 15.1824C5.77875 15.1186 5.81478 15.0456 5.83553 14.9678C5.85628 14.89 5.86134 14.8088 5.8504 14.729C5.83946 14.6492 5.81274 14.5723 5.77182 14.5029C5.73089 14.4336 5.67656 14.373 5.612 14.3248C5.54744 14.2767 5.47393 14.2418 5.39577 14.2223C5.31761 14.2028 5.23635 14.1991 5.15672 14.2113C5.0771 14.2235 5.00071 14.2515 4.93199 14.2935C4.86328 14.3356 4.80362 14.3909 4.75649 14.4562C4.47418 14.8359 4.10691 15.1442 3.68407 15.3564C3.26123 15.5687 2.79457 15.679 2.32144 15.6786C2.32144 14.6829 2.80068 13.7981 3.54382 13.2435Z" fill="#FCFCFC" style="fill:#FCFCFC;fill:color(display-p3 0.9900 0.9900 0.9900);fill-opacity:1;"/>
</svg>
