<svg width="18" height="18" viewBox="0 0 18 18" fill="none" xmlns="http://www.w3.org/2000/svg">
<path fill-rule="evenodd" clip-rule="evenodd" d="M9.42474 0.673494C9.31002 0.562095 9.15797 0.5 8.99989 0.5C8.84181 0.5 8.68975 0.562095 8.57503 0.673494C6.82726 2.37361 4.4995 3.3059 2.08941 3.27105C1.95812 3.2693 1.82969 3.31047 1.72279 3.38857C1.61589 3.46667 1.53608 3.57765 1.49495 3.70538C1.14747 4.79008 0.970975 5.92457 0.972112 7.06617C0.972112 12.0774 4.31825 16.2866 8.84592 17.48C8.94691 17.5067 9.05286 17.5067 9.15386 17.48C13.6815 16.2866 17.0277 12.0774 17.0277 7.06617C17.0277 5.8939 16.8441 4.7638 16.5048 3.70538C16.4638 3.57749 16.3841 3.46633 16.2772 3.38807C16.1703 3.3098 16.0418 3.26851 15.9104 3.2702L15.7926 3.27105C13.3258 3.27105 11.0855 2.28431 9.42474 0.673494Z" fill="#FCFCFC" style="fill:#FCFCFC;fill:color(display-p3 0.9900 0.9900 0.9900);fill-opacity:1;"/>
</svg>
