<svg width="14" height="18" viewBox="0 0 14 18" fill="none" xmlns="http://www.w3.org/2000/svg">
<path d="M7.00114 7.93786C7.48952 7.93786 7.97311 7.84167 8.42431 7.65478C8.87551 7.46788 9.28549 7.19395 9.63082 6.84861C9.97615 6.50328 10.2501 6.09331 10.437 5.64211C10.6239 5.1909 10.7201 4.70731 10.7201 4.21893C10.7201 3.73055 10.6239 3.24696 10.437 2.79576C10.2501 2.34456 9.97615 1.93458 9.63082 1.58925C9.28549 1.24392 8.87551 0.969981 8.42431 0.783087C7.97311 0.596193 7.48952 0.5 7.00114 0.5C6.01482 0.5 5.06889 0.891815 4.37146 1.58925C3.67402 2.28668 3.28221 3.23261 3.28221 4.21893C3.28221 5.20525 3.67402 6.15118 4.37146 6.84861C5.06889 7.54605 6.01482 7.93786 7.00114 7.93786ZM7.00114 9.00041C5.56158 9.00194 4.15338 9.42106 2.94728 10.207C1.74118 10.9929 0.788972 12.1118 0.206119 13.4281C0.0711581 13.7337 0.00215923 14.0644 0.00362391 14.3986C0.0050886 14.7327 0.0769838 15.0628 0.214619 15.3672C0.356133 15.6787 0.561629 15.9569 0.81774 16.1837C1.07385 16.4105 1.37484 16.5809 1.70113 16.6837C5.14993 17.7721 8.85022 17.7721 12.299 16.6837C12.6254 16.581 12.9264 16.4107 13.1825 16.1839C13.4387 15.957 13.6441 15.6788 13.7855 15.3672C14.0639 14.7509 14.0671 14.0443 13.794 13.4281C13.2112 12.1118 12.259 10.9929 11.0529 10.207C9.84677 9.42106 8.43857 9.00194 6.99901 9.00041H7.00114Z" fill="#FCFCFC" style="fill:#FCFCFC;fill:color(display-p3 0.9900 0.9900 0.9900);fill-opacity:1;"/>
</svg>
