<svg width="8" height="12" viewBox="0 0 8 12" fill="none" xmlns="http://www.w3.org/2000/svg">
<path fill-rule="evenodd" clip-rule="evenodd" d="M1.76581 1.07091C1.97975 0.856969 2.08672 0.75 2.21964 0.75C2.35257 0.75 2.45954 0.856969 2.67347 1.07091L6.66513 5.06262C7.18292 5.58031 7.18292 6.41964 6.66513 6.93734L2.67348 10.929C2.45954 11.143 2.35257 11.25 2.21964 11.25C2.08671 11.25 1.97973 11.143 1.76578 10.9291L1.26744 10.4307C1.0535 10.2168 0.946532 10.1098 0.946535 9.97686C0.946538 9.84393 1.05351 9.73697 1.26746 9.52303L4.18537 6.60508C4.47062 6.31983 4.61325 6.17721 4.61324 5.99998C4.61324 5.82275 4.47062 5.68012 4.18537 5.39487L1.26744 2.47694C1.0535 2.263 0.946533 2.15603 0.946533 2.02311C0.946533 1.89019 1.0535 1.78322 1.26744 1.56928L1.76581 1.07091Z" fill="white" style="fill:white;fill-opacity:1;"/>
</svg>
