<svg width="14" height="14" viewBox="0 0 14 14" fill="none" xmlns="http://www.w3.org/2000/svg">
<path d="M6.46317 8.20791C6.75966 7.91142 7.24036 7.91142 7.53685 8.20791L9.78487 10.4559C10.0814 10.7524 10.0814 11.2331 9.78487 11.5296L7.53685 13.7776C7.24036 14.0741 6.75966 14.0741 6.46317 13.7776L4.21515 11.5296C3.91866 11.2331 3.91866 10.7524 4.21515 10.4559L6.46317 8.20791Z" fill="#FCFCFC" style="fill:#FCFCFC;fill:color(display-p3 0.9900 0.9900 0.9900);fill-opacity:1;"/>
<path d="M2.47039 4.21515C2.76688 3.91866 3.24758 3.91866 3.54407 4.21515L5.79209 6.46317C6.08858 6.75966 6.08858 7.24036 5.79209 7.53685L3.54407 9.78487C3.24758 10.0814 2.76688 10.0814 2.47039 9.78487L0.222367 7.53685C-0.0741225 7.24036 -0.0741225 6.75966 0.222367 6.46317L2.47039 4.21515Z" fill="#FCFCFC" style="fill:#FCFCFC;fill:color(display-p3 0.9900 0.9900 0.9900);fill-opacity:1;"/>
<path d="M10.4559 4.21515C10.7524 3.91866 11.2331 3.91866 11.5296 4.21515L13.7777 6.46317C14.0741 6.75966 14.0741 7.24036 13.7777 7.53685L11.5296 9.78487C11.2331 10.0814 10.7524 10.0814 10.4559 9.78487L8.20793 7.53685C7.91144 7.24036 7.91144 6.75966 8.20793 6.46317L10.4559 4.21515Z" fill="#FCFCFC" style="fill:#FCFCFC;fill:color(display-p3 0.9900 0.9900 0.9900);fill-opacity:1;"/>
<path d="M6.46317 0.222368C6.75966 -0.0741225 7.24036 -0.0741225 7.53685 0.222368L9.78487 2.47039C10.0814 2.76688 10.0814 3.24758 9.78487 3.54407L7.53685 5.79209C7.24036 6.08858 6.75966 6.08858 6.46317 5.79209L4.21515 3.54407C3.91866 3.24758 3.91866 2.76688 4.21515 2.47039L6.46317 0.222368Z" fill="#FCFCFC" style="fill:#FCFCFC;fill:color(display-p3 0.9900 0.9900 0.9900);fill-opacity:1;"/>
</svg>
