<svg width="14" height="15" viewBox="0 0 14 15" fill="none" xmlns="http://www.w3.org/2000/svg">
<path d="M12.5743 10.6282C11.9751 10.6215 11.4927 10.1252 11.4995 9.52231L11.5461 5.36633C11.5759 2.71262 9.4545 0.530048 6.81664 0.500441C5.54839 0.487597 4.3268 0.981394 3.4199 1.87349C2.513 2.76559 1.99485 3.98312 1.97915 5.25895L1.93251 9.41494C1.92574 10.0178 1.43232 10.5031 0.833078 10.4964C0.660079 10.4945 0.49339 10.5618 0.369681 10.6834C0.245971 10.8051 0.175374 10.9713 0.173421 11.1453C0.171468 11.3193 0.238318 11.487 0.359265 11.6115C0.480212 11.7359 0.645349 11.8069 0.818348 11.8088L12.5596 11.9406C12.7326 11.9426 12.8993 11.8753 13.023 11.7536C13.1467 11.6319 13.2173 11.4658 13.2193 11.2917C13.2212 11.1177 13.1544 10.95 13.0334 10.8256C12.9125 10.7011 12.7473 10.6301 12.5743 10.6282ZM5.63636 12.738C5.57167 12.7373 5.50764 12.7511 5.44894 12.7785C5.39023 12.8058 5.33833 12.846 5.29702 12.8961C5.25571 12.9462 5.22602 13.0049 5.21013 13.068C5.19424 13.1311 5.19253 13.197 5.20514 13.2608C5.34753 13.9817 5.94634 14.4916 6.66039 14.4996C7.37443 14.5076 7.98453 14.0113 8.14307 13.2938C8.15711 13.2302 8.15688 13.1643 8.14241 13.1009C8.12793 13.0375 8.09957 12.9781 8.05939 12.9271C8.01922 12.8761 7.96823 12.8348 7.91016 12.8061C7.85208 12.7774 7.78838 12.7622 7.72369 12.7614L5.63636 12.738Z" fill="#FCFCFC" style="fill:#FCFCFC;fill:color(display-p3 0.9900 0.9900 0.9900);fill-opacity:1;"/>
</svg>
