<svg width="16" height="15" viewBox="0 0 16 15" fill="none" xmlns="http://www.w3.org/2000/svg">
<path d="M7.66558 1.89616C6.46028 1.12413 5.05848 0.714807 3.62712 0.716927C2.77558 0.716057 1.93012 0.860435 1.12712 1.14385C1.01466 1.18361 0.917278 1.25726 0.848399 1.35466C0.77952 1.45205 0.742525 1.56841 0.742508 1.6877V12.6492C0.742521 12.7415 0.764675 12.8325 0.807109 12.9144C0.849543 12.9964 0.91102 13.067 0.986378 13.1202C1.06174 13.1735 1.14878 13.2079 1.24019 13.2206C1.33161 13.2333 1.42473 13.2238 1.51174 13.1931C2.19123 12.9534 2.90661 12.8314 3.62712 12.8323C5.16174 12.8323 6.56789 13.3762 7.66558 14.2831V1.89616ZM8.81943 14.2831C9.95512 13.3432 11.3837 12.83 12.8579 12.8323C13.601 12.8323 14.3117 12.96 14.9733 13.1939C15.0604 13.2246 15.1535 13.2341 15.245 13.2214C15.3365 13.2086 15.4236 13.1741 15.499 13.1208C15.5743 13.0674 15.6358 12.9967 15.6782 12.9147C15.7206 12.8326 15.7426 12.7416 15.7425 12.6492V1.6877C15.7425 1.56841 15.7055 1.45205 15.6366 1.35466C15.5677 1.25726 15.4704 1.18361 15.3579 1.14385C14.5549 0.860435 13.7094 0.716057 12.8579 0.716927C11.4265 0.714807 10.0247 1.12413 8.81943 1.89616V14.2831Z" fill="#FCFCFC" style="fill:#FCFCFC;fill:color(display-p3 0.9900 0.9900 0.9900);fill-opacity:1;"/>
</svg>
