<svg width="11" height="14" viewBox="0 0 11 14" fill="none" xmlns="http://www.w3.org/2000/svg">
<path d="M6.01896 13.0203C6.14205 13.0074 6.26551 13.0438 6.36166 13.1218C6.45781 13.1997 6.51892 13.3128 6.5318 13.4359C6.54466 13.559 6.50826 13.6825 6.43032 13.7786C6.35238 13.8747 6.23921 13.9359 6.11618 13.9488C5.46343 14.0171 4.80506 14.0171 4.15232 13.9488C4.09144 13.9424 4.03235 13.9239 3.97853 13.8947C3.92479 13.8655 3.87732 13.8261 3.83878 13.7786C3.80018 13.731 3.77115 13.6757 3.75371 13.617C3.73633 13.5583 3.73034 13.4968 3.7367 13.4359C3.74306 13.375 3.76162 13.316 3.79078 13.2621C3.81999 13.2083 3.85983 13.1604 3.90744 13.1218C3.955 13.0833 4.00979 13.0541 4.06846 13.0367C4.12712 13.0193 4.18869 13.0139 4.24954 13.0203C4.83771 13.0818 5.43078 13.0817 6.01896 13.0203Z" fill="#FCFCFC" style="fill:#FCFCFC;fill:color(display-p3 0.9900 0.9900 0.9900);fill-opacity:1;"/>
<path d="M6.63266 11.5407C6.69402 11.5521 6.75253 11.5756 6.80462 11.61C6.85666 11.6443 6.90128 11.6887 6.93587 11.7406C6.97048 11.7926 6.9947 11.8513 7.00635 11.9126C7.01795 11.9738 7.01704 12.037 7.00392 12.0979C6.99079 12.1588 6.96555 12.2164 6.92979 12.2674C6.89394 12.3185 6.84782 12.3619 6.7949 12.395C6.74207 12.4281 6.68323 12.4502 6.62172 12.4601C5.6391 12.6465 4.63 12.6465 3.64738 12.4601C3.52587 12.437 3.41868 12.3666 3.34903 12.2644C3.27939 12.1622 3.25316 12.0365 3.27611 11.915C3.28755 11.8549 3.3106 11.7973 3.34417 11.7461C3.37774 11.6949 3.4212 11.6511 3.47177 11.6167C3.52245 11.5822 3.57946 11.5574 3.63948 11.545C3.69946 11.5325 3.76158 11.5323 3.82177 11.5438C4.6892 11.7083 5.5799 11.7083 6.44733 11.5438C6.50828 11.5303 6.57131 11.5293 6.63266 11.5407Z" fill="#FCFCFC" style="fill:#FCFCFC;fill:color(display-p3 0.9900 0.9900 0.9900);fill-opacity:1;"/>
<path d="M5.13425 1.29768e-07C6.26383 -0.000253698 7.3622 0.371874 8.25868 1.0591C9.15517 1.74635 9.80001 2.71042 10.0931 3.80133C10.3862 4.89222 10.3112 6.04949 9.87984 7.09347C9.4485 8.13744 8.68454 9.00974 7.70695 9.57564C7.28023 9.82324 7.01402 10.2029 7.00149 10.5855C6.99823 10.688 6.96127 10.7868 6.89637 10.8662C6.83149 10.9456 6.74213 11.0012 6.64238 11.0248C6.4235 11.0764 6.20094 11.1171 5.9746 11.1464C5.77365 11.1719 5.60096 11.0107 5.60091 10.8073V7.9077C5.79753 7.88588 5.99267 7.85019 6.18423 7.80075C6.245 7.7869 6.30255 7.76119 6.35315 7.7248C6.40378 7.68839 6.44645 7.64193 6.47893 7.58869C6.51142 7.53541 6.53294 7.47602 6.54212 7.4143C6.5513 7.35259 6.54796 7.28939 6.5324 7.22897C6.51683 7.16866 6.48938 7.11201 6.45159 7.06248C6.41373 7.01288 6.36601 6.9713 6.31183 6.94035C6.25775 6.90948 6.19806 6.88945 6.13623 6.88202C6.07434 6.8746 6.01141 6.87998 5.95151 6.89721C5.41569 7.0353 4.85342 7.03527 4.31759 6.89721C4.25823 6.88193 4.19599 6.87828 4.1353 6.88688C4.07472 6.89549 4.01665 6.91653 3.96395 6.94764C3.91121 6.97879 3.86466 7.01961 3.82784 7.06856C3.79106 7.11749 3.76414 7.17335 3.74885 7.23262C3.73357 7.29198 3.73053 7.35422 3.73913 7.41491C3.74774 7.47553 3.76814 7.53414 3.79928 7.58687C3.83044 7.63954 3.87189 7.68559 3.92081 7.72237C3.96976 7.75913 4.02558 7.7861 4.08487 7.80136C4.27635 7.85055 4.47108 7.88608 4.66759 7.9077V10.8079C4.66755 11.0107 4.49539 11.1718 4.2945 11.1464C4.06802 11.1171 3.84513 11.0765 3.62611 11.0248C3.52633 11.0012 3.43701 10.9456 3.37212 10.8662C3.30723 10.7868 3.27026 10.688 3.267 10.5855C3.25509 10.2029 2.98831 9.82324 2.56154 9.57564C1.58396 9.00973 0.81998 8.13745 0.388657 7.09347C-0.042672 6.04946 -0.117121 4.89225 0.175986 3.80133C0.46909 2.71045 1.11336 1.74634 2.00981 1.0591C2.90628 0.371865 4.00468 -0.000233869 5.13425 1.29768e-07Z" fill="#FCFCFC" style="fill:#FCFCFC;fill:color(display-p3 0.9900 0.9900 0.9900);fill-opacity:1;"/>
</svg>
