<svg width="15" height="16" viewBox="0 0 15 16" fill="none" xmlns="http://www.w3.org/2000/svg">
<path d="M4.10107 3.78125C3.91541 3.78125 3.73737 3.70717 3.60609 3.57531C3.47482 3.44345 3.40107 3.26461 3.40107 3.07812V1.20312C3.40107 1.01664 3.47482 0.837802 3.60609 0.70594C3.73737 0.574079 3.91541 0.5 4.10107 0.5C4.28672 0.5 4.46477 0.574079 4.59604 0.70594C4.72732 0.837802 4.80107 1.01664 4.80107 1.20312V3.07812C4.80107 3.26461 4.72732 3.44345 4.59604 3.57531C4.46477 3.70717 4.28672 3.78125 4.10107 3.78125ZM10.1677 3.78125C9.98208 3.78125 9.80403 3.70717 9.67276 3.57531C9.54148 3.44345 9.46773 3.26461 9.46773 3.07812V1.20312C9.46773 1.01664 9.54148 0.837802 9.67276 0.70594C9.80403 0.574079 9.98208 0.5 10.1677 0.5C10.3534 0.5 10.5314 0.574079 10.6627 0.70594C10.794 0.837802 10.8677 1.01664 10.8677 1.20312V3.07812C10.8677 3.26461 10.794 3.44345 10.6627 3.57531C10.5314 3.70717 10.3534 3.78125 10.1677 3.78125Z" fill="#FCFCFC" style="fill:#FCFCFC;fill:color(display-p3 0.9900 0.9900 0.9900);fill-opacity:1;"/>
<path d="M11.5677 2.375H2.70107C2.0205 2.3755 1.36794 2.64728 0.886705 3.13066C0.405469 3.61405 0.134894 4.26952 0.134399 4.95312V12.9219C0.134894 13.6055 0.405469 14.261 0.886705 14.7443C1.36794 15.2277 2.0205 15.4995 2.70107 15.5H11.5677C12.2483 15.4995 12.9009 15.2277 13.3821 14.7443C13.8633 14.261 14.1339 13.6055 14.1344 12.9219V4.95312C14.1339 4.26952 13.8633 3.61405 13.3821 3.13066C12.9009 2.64728 12.2483 2.3755 11.5677 2.375ZM11.5677 14.0937H2.70107C2.058 14.0937 1.5344 13.5678 1.5344 12.9219V7.0625H12.7344V12.9219C12.7344 13.5678 12.2108 14.0937 11.5677 14.0937Z" fill="#FCFCFC" style="fill:#FCFCFC;fill:color(display-p3 0.9900 0.9900 0.9900);fill-opacity:1;"/>
</svg>
