<svg width="8" height="5" viewBox="0 0 8 5" fill="none" xmlns="http://www.w3.org/2000/svg">
<path fill-rule="evenodd" clip-rule="evenodd" d="M1.63832 0.586739C1.52789 0.473014 1.47267 0.416151 1.41591 0.381001C1.24146 0.272983 1.02092 0.272984 0.846476 0.381002C0.789711 0.416152 0.734496 0.473016 0.624067 0.586742L0.609158 0.602095C0.491265 0.723509 0.432318 0.784215 0.397314 0.847621C0.3075 1.01031 0.307504 1.20771 0.397323 1.37039C0.432329 1.4338 0.491278 1.4945 0.609175 1.61591L3.32377 4.41149C3.6972 4.79615 4.30266 4.79615 4.6761 4.41149L7.39066 1.61591C7.50857 1.49451 7.56752 1.43381 7.60253 1.37041C7.69237 1.20772 7.69238 1.01029 7.60255 0.847587C7.56754 0.784186 7.5086 0.723483 7.39071 0.602075L7.37579 0.586718C7.26538 0.47301 7.21017 0.416157 7.15341 0.381011C6.97896 0.272981 6.7584 0.272985 6.58395 0.381023C6.52719 0.416171 6.47199 0.473027 6.36158 0.586739L4.45637 2.67341C4.24295 2.90716 4.13624 3.02403 3.99993 3.02403C3.86362 3.02403 3.75691 2.90716 3.54349 2.67341L1.63832 0.586739Z" fill="#F7F7F7" stroke="#F7F7F7" style="fill:#F7F7F7;fill:color(display-p3 0.9700 0.9700 0.9700);fill-opacity:1;stroke:#F7F7F7;stroke:color(display-p3 0.9700 0.9700 0.9700);stroke-opacity:1;" stroke-width="0.2"/>
</svg>
