<svg width="10" height="5" viewBox="0 0 10 5" fill="none" xmlns="http://www.w3.org/2000/svg">
<path fill-rule="evenodd" clip-rule="evenodd" d="M2.42601 0.414703C2.30565 0.29075 2.24547 0.228774 2.1836 0.190463C1.99347 0.072732 1.7531 0.0727326 1.56297 0.190465C1.5011 0.228776 1.44092 0.290752 1.32056 0.414705L1.30431 0.43144C1.17581 0.563771 1.11157 0.629937 1.07342 0.699044C0.975525 0.876359 0.975528 1.09151 1.07342 1.26883C1.11158 1.33793 1.17583 1.4041 1.30433 1.53642L4.26303 4.5834C4.67004 5.00265 5.32995 5.00265 5.73697 4.5834L8.69564 1.53642C8.82414 1.4041 8.88839 1.33795 8.92655 1.26885C9.02447 1.09152 9.02448 0.876339 8.92658 0.699007C8.88842 0.629905 8.82418 0.563742 8.69568 0.431418L8.67943 0.41468C8.55909 0.290747 8.49891 0.22878 8.43705 0.190474C8.24691 0.0727295 8.00651 0.0727345 7.81638 0.190487C7.75452 0.228796 7.69435 0.290765 7.57401 0.414703L5.49748 2.68902C5.26486 2.94378 5.14856 3.07117 4.99999 3.07117C4.85142 3.07117 4.73512 2.94378 4.50251 2.68901L2.42601 0.414703Z" fill="white" stroke="white" style="fill:white;fill-opacity:1;stroke:white;stroke-opacity:1;" stroke-width="0.111527"/>
</svg>
