<svg width="14" height="11" viewBox="0 0 14 11" fill="none" xmlns="http://www.w3.org/2000/svg">
<path fill-rule="evenodd" clip-rule="evenodd" d="M12.008 0.00261549C13.1176 0.0563869 14 0.933973 14 2.0087V8.03478L13.9973 8.13809C13.9429 9.16524 13.0818 9.98883 12.008 10.0409L11.9 10.0435H2.1L1.99199 10.0409C0.918162 9.98883 0.0571377 9.16524 0.00273438 8.13809L0 8.03478L0 2.0087C0 0.933973 0.882388 0.0563871 1.99199 0.00261549L2.1 0L11.9 0L12.008 0.00261549ZM2.40435 1.3087C1.82445 1.3087 1.35435 1.75836 1.35435 2.31304V7.73043C1.35435 8.28512 1.82445 8.73478 2.40435 8.73478H4.74783V1.3087H2.40435ZM6.10217 8.73478H11.5957C12.1756 8.73478 12.6457 8.28512 12.6457 7.73043V2.31304C12.6457 1.75836 12.1755 1.3087 11.5957 1.3087H6.10217V8.73478Z" fill="white" style="fill:white;fill-opacity:1;"/>
</svg>
