<svg width="15" height="13" viewBox="0 0 15 13" fill="none" xmlns="http://www.w3.org/2000/svg">
<path d="M11.7305 0.426945L2.54358 0.323834C1.90558 0.317137 1.291 0.563919 0.834807 1.00999C0.378613 1.45605 0.1181 2.06494 0.110476 2.70293L0.0270055 10.14C0.0203084 10.778 0.26709 11.3925 0.713158 11.8487C1.15922 12.3049 1.76811 12.5654 2.4061 12.5731L11.593 12.6762C12.231 12.6829 12.8456 12.4361 13.3018 11.99C13.758 11.544 14.0185 10.9351 14.0261 10.2971L14.1096 2.86005C14.1163 2.22205 13.8695 1.60747 13.4234 1.15128C12.9774 0.695082 12.3685 0.434569 11.7305 0.426945ZM3.97408 9.3092C3.97212 9.48324 3.90111 9.64937 3.77667 9.77106C3.65223 9.89274 3.48454 9.96 3.3105 9.95805C3.13647 9.95609 2.97033 9.88509 2.84865 9.76064C2.72697 9.6362 2.65971 9.46851 2.66166 9.29447L2.72549 3.60733C2.72744 3.4333 2.79845 3.26716 2.9229 3.14548C3.04734 3.0238 3.21503 2.95654 3.38906 2.95849C3.5631 2.96044 3.72923 3.03145 3.85092 3.1559C3.9726 3.28034 4.03986 3.44803 4.03791 3.62206L3.97408 9.3092ZM10.7795 7.19795L7.11431 7.15681L7.95348 8.01503C8.07168 8.14008 8.13604 8.30655 8.1327 8.47859C8.12935 8.65064 8.05857 8.81448 7.9356 8.93484C7.81262 9.0552 7.64729 9.12244 7.47522 9.12209C7.30314 9.12173 7.13809 9.05381 7.01562 8.93294L5.06909 6.94222C5.00879 6.8806 4.96123 6.80769 4.92912 6.72768C4.89701 6.64767 4.88098 6.56211 4.88195 6.4759C4.88292 6.38969 4.90086 6.30452 4.93476 6.22525C4.96866 6.14597 5.01784 6.07416 5.0795 6.0139L7.07023 4.06737C7.19471 3.94565 7.36245 3.87837 7.53654 3.88032C7.71063 3.88228 7.87682 3.95331 7.99854 4.07779C8.12026 4.20227 8.18755 4.37001 8.18559 4.54411C8.18364 4.7182 8.11261 4.88439 7.98812 5.00611L7.1299 5.84528L10.795 5.88642C10.9691 5.88837 11.1352 5.95938 11.2569 6.08382C11.3786 6.20827 11.4458 6.37595 11.4439 6.54999C11.4419 6.72403 11.3709 6.89016 11.2465 7.01184C11.122 7.13352 10.9544 7.20079 10.7803 7.19883L10.7795 7.19795Z" fill="#FCFCFC" style="fill:#FCFCFC;fill:color(display-p3 0.9900 0.9900 0.9900);fill-opacity:1;"/>
</svg>
