<svg width="16" height="16" viewBox="0 0 16 16" fill="none" xmlns="http://www.w3.org/2000/svg">
<path d="M2.91511 5.15211C2.91511 5.45746 2.91511 5.61013 2.82025 5.70499C2.72539 5.79985 2.57271 5.79985 2.26737 5.79985H1.40372C1.09837 5.79985 0.945699 5.79985 0.85084 5.70499C0.755981 5.61013 0.755981 5.45746 0.755981 5.15211V1.15773C0.755981 0.852385 0.755981 0.699712 0.85084 0.604853C0.945699 0.509995 1.09837 0.509995 1.40372 0.509995H5.3981C5.70344 0.509995 5.85612 0.509995 5.95098 0.604853C6.04584 0.699712 6.04584 0.852385 6.04584 1.15773V2.02138C6.04584 2.32673 6.04584 2.4794 5.95098 2.57426C5.85612 2.66912 5.70344 2.66912 5.3981 2.66912H3.56284C3.2575 2.66912 3.10482 2.66912 3.00996 2.76398C2.91511 2.85884 2.91511 3.01151 2.91511 3.31686V5.15211Z" fill="white" style="fill:white;fill-opacity:1;"/>
<path d="M2.91511 10.6579C2.91511 10.3525 2.91511 10.1999 2.82025 10.105C2.72539 10.0101 2.57271 10.0101 2.26737 10.0101H1.40372C1.09837 10.0101 0.945699 10.0101 0.85084 10.105C0.755981 10.1999 0.755981 10.3525 0.755981 10.6579V14.6523C0.755981 14.9576 0.755981 15.1103 0.85084 15.2051C0.945699 15.3 1.09837 15.3 1.40372 15.3H5.3981C5.70344 15.3 5.85612 15.3 5.95098 15.2051C6.04584 15.1103 6.04584 14.9576 6.04584 14.6523V13.7886C6.04584 13.4833 6.04584 13.3306 5.95098 13.2357C5.85612 13.1409 5.70344 13.1409 5.3981 13.1409H3.56284C3.2575 13.1409 3.10482 13.1409 3.00996 13.046C2.91511 12.9512 2.91511 12.7985 2.91511 12.4931V10.6579Z" fill="white" style="fill:white;fill-opacity:1;"/>
<path d="M13.3869 5.15211C13.3869 5.45746 13.3869 5.61013 13.4817 5.70499C13.5766 5.79985 13.7292 5.79985 14.0346 5.79985H14.8982C15.2036 5.79985 15.3563 5.79985 15.4511 5.70499C15.546 5.61013 15.546 5.45746 15.546 5.15211V1.15773C15.546 0.852385 15.546 0.699712 15.4511 0.604853C15.3563 0.509995 15.2036 0.509995 14.8982 0.509995H10.9039C10.5985 0.509995 10.4458 0.509995 10.351 0.604853C10.2561 0.699712 10.2561 0.852385 10.2561 1.15773V2.02138C10.2561 2.32673 10.2561 2.4794 10.351 2.57426C10.4458 2.66912 10.5985 2.66912 10.9039 2.66912H12.7391C13.0445 2.66912 13.1971 2.66912 13.292 2.76398C13.3869 2.85884 13.3869 3.01151 13.3869 3.31686V5.15211Z" fill="white" style="fill:white;fill-opacity:1;"/>
<path d="M13.3869 10.6579C13.3869 10.3525 13.3869 10.1999 13.4817 10.105C13.5766 10.0101 13.7292 10.0101 14.0346 10.0101H14.8982C15.2036 10.0101 15.3563 10.0101 15.4511 10.105C15.546 10.1999 15.546 10.3525 15.546 10.6579V14.6523C15.546 14.9576 15.546 15.1103 15.4511 15.2051C15.3563 15.3 15.2036 15.3 14.8982 15.3H10.9039C10.5985 15.3 10.4458 15.3 10.351 15.2051C10.2561 15.1103 10.2561 14.9576 10.2561 14.6523V13.7886C10.2561 13.4833 10.2561 13.3306 10.351 13.2357C10.4458 13.1409 10.5985 13.1409 10.9039 13.1409H12.7391C13.0445 13.1409 13.1971 13.1409 13.292 13.046C13.3869 12.9512 13.3869 12.7985 13.3869 12.4931V10.6579Z" fill="white" style="fill:white;fill-opacity:1;"/>
</svg>
