<svg width="16" height="15" viewBox="0 0 16 15" fill="none" xmlns="http://www.w3.org/2000/svg">
<path fill-rule="evenodd" clip-rule="evenodd" d="M8.1102 8.32726e-08C7.40559 8.32726e-08 6.80328 0.51 6.68712 1.20538L6.61712 1.62769C6.59772 1.7337 6.55076 1.83273 6.48094 1.91483C6.41113 1.99692 6.32094 2.0592 6.21943 2.09538C6.09514 2.14188 5.9725 2.19268 5.85174 2.24769C5.75435 2.29399 5.64647 2.31382 5.53898 2.30518C5.43149 2.29654 5.32817 2.25973 5.23943 2.19846L4.89097 1.94923C4.61312 1.75072 4.27385 1.65723 3.93353 1.6854C3.59322 1.71358 3.27394 1.86158 3.03251 2.10308L2.84559 2.29C2.60409 2.53143 2.45608 2.85071 2.42791 3.19102C2.39974 3.53134 2.49323 3.87061 2.69174 4.14846L2.94097 4.49692C3.00224 4.58567 3.03904 4.68898 3.04769 4.79648C3.05633 4.90397 3.0365 5.01184 2.9902 5.10923C2.93519 5.22999 2.88439 5.35263 2.83789 5.47692C2.80171 5.57843 2.73943 5.66863 2.65733 5.73844C2.57524 5.80825 2.47621 5.85521 2.3702 5.87462L1.94712 5.94538C1.61052 6.00163 1.30477 6.1754 1.08421 6.43582C0.863648 6.69624 0.742574 7.02642 0.742508 7.36769V7.63231C0.742508 8.33692 1.25251 8.93923 1.94789 9.05539L2.3702 9.12538C2.58635 9.16154 2.76097 9.31769 2.83789 9.52308C2.88405 9.64769 2.93558 9.77 2.9902 9.89077C3.0365 9.98816 3.05633 10.096 3.04769 10.2035C3.03904 10.311 3.00224 10.4143 2.94097 10.5031L2.69174 10.8515C2.49323 11.1294 2.39974 11.4687 2.42791 11.809C2.45608 12.1493 2.60409 12.4686 2.84559 12.71L3.03251 12.8969C3.53097 13.3954 4.31712 13.4608 4.89097 13.0508L5.23943 12.8015C5.32817 12.7403 5.43149 12.7035 5.53898 12.6948C5.64647 12.6862 5.75435 12.706 5.85174 12.7523C5.97251 12.8069 6.09482 12.8577 6.21943 12.9046C6.42482 12.9815 6.58097 13.1562 6.61712 13.3723L6.68789 13.7954C6.80328 14.49 7.40482 15 8.1102 15H8.37482C9.07943 15 9.68174 14.49 9.79789 13.7946L9.86789 13.3723C9.88729 13.2663 9.93426 13.1673 10.0041 13.0852C10.0739 13.0031 10.1641 12.9408 10.2656 12.9046C10.3899 12.8581 10.5125 12.8073 10.6333 12.7523C10.7307 12.706 10.8385 12.6862 10.946 12.6948C11.0535 12.7035 11.1568 12.7403 11.2456 12.8015L11.594 13.0508C11.8719 13.2493 12.2112 13.3428 12.5515 13.3146C12.8918 13.2864 13.2111 13.1384 13.4525 12.8969L13.6394 12.71C14.1379 12.2115 14.2033 11.4254 13.7933 10.8515L13.544 10.5031C13.4828 10.4143 13.446 10.311 13.4373 10.2035C13.4287 10.096 13.4485 9.98816 13.4948 9.89077C13.5494 9.77 13.6002 9.64769 13.6471 9.52308C13.724 9.31769 13.8987 9.16154 14.1148 9.12538L14.5379 9.05539C14.8746 8.99912 15.1805 8.82524 15.4011 8.56466C15.6216 8.30408 15.7426 7.97371 15.7425 7.63231V7.36769C15.7425 6.66308 15.2325 6.06077 14.5371 5.94462L14.1148 5.87462C14.0088 5.85521 13.9098 5.80825 13.8277 5.73844C13.7456 5.66863 13.6833 5.57843 13.6471 5.47692C13.6006 5.35265 13.5498 5.23001 13.4948 5.10923C13.4485 5.01184 13.4287 4.90397 13.4373 4.79648C13.446 4.68898 13.4828 4.58567 13.544 4.49692L13.7933 4.14846C13.9918 3.87061 14.0853 3.53134 14.0571 3.19102C14.0289 2.85071 13.8809 2.53143 13.6394 2.29L13.4525 2.10308C13.2111 1.86158 12.8918 1.71358 12.5515 1.6854C12.2112 1.65723 11.8719 1.75072 11.594 1.94923L11.2456 2.19846C11.1568 2.25973 11.0535 2.29654 10.946 2.30518C10.8385 2.31382 10.7307 2.29399 10.6333 2.24769C10.5125 2.19269 10.3899 2.14189 10.2656 2.09538C10.1641 2.0592 10.0739 1.99692 10.0041 1.91483C9.93426 1.83273 9.88729 1.7337 9.86789 1.62769L9.79789 1.20462C9.74163 0.867883 9.56774 0.562026 9.30717 0.34145C9.04659 0.120875 8.71622 -0.000115874 8.37482 8.32726e-08H8.1102ZM8.24251 10.3846C9.00756 10.3846 9.74127 10.0807 10.2822 9.53973C10.8232 8.99876 11.1271 8.26505 11.1271 7.5C11.1271 6.73495 10.8232 6.00124 10.2822 5.46027C9.74127 4.9193 9.00756 4.61538 8.24251 4.61538C7.47746 4.61538 6.74375 4.9193 6.20278 5.46027C5.66181 6.00124 5.35789 6.73495 5.35789 7.5C5.35789 8.26505 5.66181 8.99876 6.20278 9.53973C6.74375 10.0807 7.47746 10.3846 8.24251 10.3846Z" fill="#FCFCFC" style="fill:#FCFCFC;fill:color(display-p3 0.9900 0.9900 0.9900);fill-opacity:1;"/>
</svg>
