<svg width="14" height="11" viewBox="0 0 14 11" fill="none" xmlns="http://www.w3.org/2000/svg">
<path fill-rule="evenodd" clip-rule="evenodd" d="M12.008 0.00270833C13.1176 0.0583885 14 0.967127 14 2.08V8.32L13.9973 8.42698C13.9429 9.49058 13.0818 10.3434 12.008 10.3973L11.9 10.4H2.1L1.99199 10.3973C0.918162 10.3434 0.0571377 9.49058 0.00273438 8.42698L0 8.32V2.08C0 0.967127 0.882388 0.0583887 1.99199 0.00270833L2.1 0H11.9L12.008 0.00270833ZM2.1 1.04C1.5201 1.04 1.05 1.50562 1.05 2.08V8.32C1.05 8.89438 1.5201 9.36 2.1 9.36H4.9V1.04H2.1ZM5.95 9.36H11.9C12.4799 9.36 12.95 8.89438 12.95 8.32V2.08C12.95 1.50562 12.4799 1.04 11.9 1.04H5.95V9.36Z" fill="white" style="fill:white;fill-opacity:1;"/>
<path d="M3.88053 5.408C3.9152 5.40805 3.94316 5.43584 3.94329 5.47016V5.96984C3.94316 6.00416 3.9152 6.03195 3.88053 6.032H2.11666C2.08194 6.032 2.05342 6.00419 2.05329 5.96984V5.47016C2.05342 5.43581 2.08194 5.408 2.11666 5.408H3.88053Z" fill="white" style="fill:white;fill-opacity:1;"/>
<path d="M3.88053 3.9C3.9152 3.90005 3.94316 3.92784 3.94329 3.96216V4.46184C3.94316 4.49616 3.9152 4.52395 3.88053 4.524H2.11666C2.08194 4.524 2.05342 4.49619 2.05329 4.46184V3.96216C2.05342 3.92781 2.08194 3.9 2.11666 3.9H3.88053Z" fill="white" style="fill:white;fill-opacity:1;"/>
<path d="M3.88053 2.39222C3.9152 2.39227 3.94316 2.42006 3.94329 2.45438V2.95406C3.94316 2.98838 3.9152 3.01617 3.88053 3.01622H2.11666C2.08194 3.01622 2.05342 2.98841 2.05329 2.95406V2.45438C2.05342 2.42003 2.08194 2.39222 2.11666 2.39222H3.88053Z" fill="white" style="fill:white;fill-opacity:1;"/>
</svg>
