<svg width="13" height="12" viewBox="0 0 13 12" fill="none" xmlns="http://www.w3.org/2000/svg">
<path d="M6.5791 0.359863C6.7618 0.378051 6.93353 0.459407 7.06445 0.590332C7.21408 0.739994 7.29785 0.943066 7.29785 1.15479V5.22217H11.3652C11.577 5.22217 11.78 5.30594 11.9297 5.45557C12.0794 5.60524 12.1641 5.80827 12.1641 6.02002C12.1641 6.23177 12.0794 6.4348 11.9297 6.58447C11.78 6.73409 11.577 6.81787 11.3652 6.81787H7.29785V10.8853C7.29785 11.097 7.21408 11.3 7.06445 11.4497C6.91478 11.5994 6.71175 11.6841 6.5 11.6841C6.28825 11.6841 6.08522 11.5994 5.93555 11.4497C5.78592 11.3 5.70215 11.097 5.70215 10.8853V6.81787H1.63477C1.42305 6.81787 1.21997 6.73409 1.07031 6.58447C0.920643 6.4348 0.835938 6.23177 0.835938 6.02002C0.835938 5.80827 0.920643 5.60524 1.07031 5.45557C1.21997 5.30594 1.42305 5.22217 1.63477 5.22217H5.70215V1.15479C5.70215 0.943066 5.78592 0.739994 5.93555 0.590332C6.08522 0.440662 6.28825 0.355957 6.5 0.355957L6.5791 0.359863Z" fill="#FCFCFC" stroke="#FCFCFC" style="fill:#FCFCFC;fill:color(display-p3 0.9900 0.9900 0.9900);fill-opacity:1;stroke:#FCFCFC;stroke:color(display-p3 0.9900 0.9900 0.9900);stroke-opacity:1;" stroke-width="0.327273"/>
</svg>
