<svg width="15" height="15" viewBox="0 0 15 15" fill="none" xmlns="http://www.w3.org/2000/svg">
<path opacity="0.9" d="M13.2915 7.71129C13.3965 7.76388 13.5131 7.78876 13.6304 7.78358C13.7476 7.77841 13.8616 7.74334 13.9615 7.68171C14.0614 7.62008 14.1439 7.53394 14.2011 7.43147C14.2583 7.32899 14.2884 7.21359 14.2885 7.09621V5.49516C14.288 4.82575 14.0219 4.18389 13.5485 3.71055C13.0752 3.2372 12.4333 2.97106 11.7639 2.97057H10.1344C10.1436 2.89438 10.1574 2.82002 10.1574 2.74106C10.1574 1.72847 9.33389 0.904999 8.3213 0.904999C7.30871 0.904999 6.48523 1.72847 6.48523 2.74106C6.48523 2.82002 6.499 2.89438 6.50818 2.97057H4.87868C4.20926 2.97106 3.56741 3.2372 3.09406 3.71055C2.62071 4.18389 2.35457 4.82575 2.35409 5.49516V7.12467C2.27789 7.11457 2.20353 7.10172 2.12458 7.10172C1.11199 7.10172 0.288513 7.9252 0.288513 8.93779C0.288513 9.95038 1.11199 10.7739 2.12458 10.7739C2.20353 10.7739 2.27789 10.7601 2.35409 10.7509V12.3804C2.35457 13.0498 2.62071 13.6917 3.09406 14.165C3.56741 14.6384 4.20926 14.9045 4.87868 14.905H6.47973C6.71842 14.905 6.93966 14.7811 7.06543 14.5791C7.12696 14.4792 7.16202 14.3652 7.16732 14.2479C7.17262 14.1307 7.14798 14.014 7.09573 13.9089C6.99834 13.72 6.94646 13.511 6.94425 13.2984C6.94425 12.5392 7.56209 11.9214 8.3213 11.9214C9.08051 11.9214 9.69835 12.5392 9.69835 13.2984C9.69835 13.5013 9.64694 13.707 9.54596 13.9099C9.49346 14.0148 9.46871 14.1315 9.47406 14.2488C9.47941 14.366 9.51469 14.4799 9.57653 14.5797C9.63838 14.6795 9.72473 14.7617 9.82736 14.8187C9.93 14.8756 10.0455 14.9053 10.1629 14.905H11.7639C12.4333 14.9045 13.0752 14.6384 13.5485 14.165C14.0219 13.6917 14.288 13.0498 14.2885 12.3804V10.7794C14.2884 10.662 14.2583 10.5466 14.2011 10.4441C14.1439 10.3416 14.0614 10.2555 13.9615 10.1939C13.8616 10.1322 13.7476 10.0972 13.6304 10.092C13.5131 10.0868 13.3965 10.1117 13.2915 10.1643C12.3487 10.6371 11.3049 9.90264 11.3049 8.9387C11.3049 7.97477 12.346 7.24034 13.2915 7.71313V7.71129Z" fill="#FCFCFC" style="fill:#FCFCFC;fill:color(display-p3 0.9900 0.9900 0.9900);fill-opacity:1;"/>
</svg>
