<svg width="14" height="15" viewBox="0 0 14 15" fill="none" xmlns="http://www.w3.org/2000/svg">
<path d="M10.2206 3.25032C8.93582 2.60701 7.46827 2.37633 6.04756 2.59431C4.62685 2.81229 3.33311 3.46667 2.36873 4.45508C1.40433 5.44349 0.82368 6.71017 0.717595 8.057C0.61151 9.40383 0.985975 10.7548 1.78242 11.8987C2.57886 13.0426 3.75234 13.9147 5.11933 14.3788C6.48632 14.8428 7.96969 14.8727 9.33742 14.4635C10.7051 14.0544 11.88 13.2294 12.6784 12.1175C13.4076 11.1022 13.7851 9.89979 13.7659 8.6697C13.7634 8.50889 13.7622 8.42848 13.7026 8.37621C13.6431 8.32392 13.554 8.32821 13.3759 8.33677L12.2052 8.39307C12.0322 8.40139 11.9458 8.40555 11.8957 8.45453C11.8456 8.50352 11.8447 8.58967 11.8429 8.76197C11.8346 9.59377 11.5694 10.4034 11.0753 11.0915C10.512 11.8759 9.683 12.458 8.71794 12.7467C7.75289 13.0354 6.70623 13.0144 5.7417 12.6869C4.77717 12.3595 3.94915 11.7441 3.3872 10.937C2.82524 10.1299 2.56102 9.17664 2.63586 8.22633C2.71072 7.27603 3.12043 6.38227 3.8009 5.68486C4.48136 4.98743 5.39421 4.52571 6.39665 4.37191C7.39909 4.2181 8.43458 4.38087 9.34114 4.83477L10.2206 3.25032Z" fill="#FAFAFA" style="fill:#FAFAFA;fill:color(display-p3 0.9800 0.9800 0.9800);fill-opacity:1;"/>
<path d="M10.0459 4.19742L7.22176 5.0958C7.06302 5.14631 6.98364 5.17155 6.95009 5.23358C6.91653 5.29561 6.94111 5.37166 6.99027 5.52373L7.27011 6.38934C7.32368 6.55506 7.35047 6.63792 7.4219 6.6731C7.49333 6.70829 7.58003 6.68132 7.75344 6.6274L11.765 5.37991C11.9231 5.33073 12.0021 5.30614 12.0362 5.24477C12.0702 5.18339 12.0469 5.10754 12.0003 4.95586L10.7996 1.05236C10.7484 0.886047 10.7229 0.802892 10.6519 0.766807C10.581 0.730721 10.4939 0.756545 10.3197 0.808194L9.4733 1.05915C9.31341 1.10655 9.23347 1.13025 9.19854 1.19159C9.16361 1.25293 9.18652 1.3294 9.23235 1.48232L10.0459 4.19742Z" fill="#FAFAFA" style="fill:#FAFAFA;fill:color(display-p3 0.9800 0.9800 0.9800);fill-opacity:1;"/>
<path d="M9.99566 5.02619L10.7058 3.74689L9.15794 2.97192L8.44783 4.25121L9.99566 5.02619Z" fill="#FAFAFA" style="fill:#FAFAFA;fill:color(display-p3 0.9800 0.9800 0.9800);fill-opacity:1;"/>
</svg>
