<svg width="15" height="16" viewBox="0 0 15 16" fill="none" xmlns="http://www.w3.org/2000/svg">
<path d="M10.7516 2.82358C9.30065 2.0971 7.64337 1.83659 6.03897 2.08275C4.43459 2.32892 2.97359 3.0679 1.88453 4.18409C0.795448 5.30029 0.139725 6.73073 0.0199251 8.25169C-0.0998757 9.77265 0.323002 11.2983 1.22241 12.5901C2.12182 13.8818 3.44702 14.8667 4.99074 15.3908C6.53446 15.9148 8.20961 15.9485 9.75417 15.4865C11.2987 15.0245 12.6255 14.0928 13.5271 12.8372C14.3506 11.6906 14.7768 10.3327 14.7552 8.9436C14.7524 8.76201 14.751 8.6712 14.6838 8.61217C14.6165 8.55312 14.5159 8.55796 14.3147 8.56763L12.9927 8.63121C12.7974 8.6406 12.6998 8.6453 12.6432 8.70061C12.5866 8.75594 12.5856 8.85323 12.5836 9.0478C12.5742 9.98715 12.2747 10.9014 11.7168 11.6785C11.0806 12.5643 10.1444 13.2217 9.0546 13.5477C7.96478 13.8737 6.7828 13.85 5.69358 13.4802C4.60434 13.1104 3.66928 12.4155 3.03467 11.504C2.40005 10.5926 2.10167 9.51609 2.1862 8.44292C2.27073 7.36975 2.73341 6.36044 3.50185 5.57286C4.27029 4.78527 5.30115 4.26386 6.4332 4.09017C7.56524 3.91647 8.73461 4.10029 9.75837 4.61288L10.7516 2.82358Z" fill="white" style="fill:white;fill-opacity:1;"/>
<path d="M10.5542 3.89312L7.36499 4.90765C7.18572 4.96469 7.09608 4.9932 7.05819 5.06325C7.0203 5.13329 7.04805 5.21917 7.10357 5.39091L7.41958 6.36842C7.48009 6.55557 7.51034 6.64914 7.591 6.68888C7.67167 6.72861 7.76958 6.69815 7.9654 6.63726L12.4956 5.22849C12.6741 5.17296 12.7634 5.14519 12.8018 5.07588C12.8403 5.00656 12.8139 4.92091 12.7613 4.74962L11.4054 0.341448C11.3476 0.153636 11.3187 0.0597296 11.2386 0.0189794C11.1586 -0.021772 11.0602 0.00739086 10.8635 0.0657177L9.90761 0.349115C9.72706 0.402643 9.63678 0.429413 9.59734 0.498687C9.55789 0.567948 9.58377 0.654305 9.63551 0.826994L10.5542 3.89312Z" fill="white" style="fill:white;fill-opacity:1;"/>
<path d="M10.4975 4.82904L11.2994 3.38435L9.55149 2.50918L8.74957 3.95387L10.4975 4.82904Z" fill="white" style="fill:white;fill-opacity:1;"/>
</svg>
