<svg width="14" height="13" viewBox="0 0 14 13" fill="none" xmlns="http://www.w3.org/2000/svg">
<path fill-rule="evenodd" clip-rule="evenodd" d="M4.34633 5.87791C4.25305 6.41237 3.96463 6.89322 3.537 7.22716C3.10936 7.56104 2.57298 7.7243 2.03182 7.68525C1.49066 7.6462 0.983288 7.40758 0.608055 7.01568C0.232816 6.62379 0.0164506 6.10656 0.000900232 5.56422C-0.0146502 5.02188 0.171725 4.49308 0.523891 4.08034C0.876056 3.6676 1.36893 3.40031 1.90696 3.3303C2.44498 3.26029 2.98984 3.39254 3.43591 3.70142C3.88197 4.0103 4.19746 4.47379 4.32122 5.00206L5.08692 5.00212C5.14911 5.0021 5.21059 5.01532 5.26728 5.04092C5.32396 5.06651 5.37452 5.10389 5.41561 5.15056C5.45676 5.19723 5.4874 5.25213 5.50567 5.31159C5.52388 5.37105 5.52925 5.43372 5.52137 5.4954L5.52038 5.50069C5.50602 5.61351 5.4483 5.71631 5.35951 5.78734C5.27068 5.85837 5.15771 5.89205 5.0445 5.88125C5.01852 5.87888 4.99245 5.87774 4.96637 5.87783L4.34633 5.87791ZM0.876044 5.50226C0.875618 5.1643 1.00549 4.83918 1.23865 4.59453C1.47181 4.34987 1.79031 4.20453 2.1279 4.18871C2.4655 4.17289 2.79619 4.28783 3.05121 4.5096C3.30622 4.73138 3.46593 5.04293 3.4971 5.37945C3.49013 5.43001 3.49197 5.4814 3.50256 5.53132C3.49871 5.87962 3.35664 6.2121 3.10764 6.45568C2.85863 6.69926 2.52307 6.83392 2.17476 6.83007C1.82647 6.82621 1.49397 6.68414 1.25041 6.43513C1.00685 6.18613 0.872191 5.85055 0.876044 5.50226ZM6.72736 3.90809C6.38222 4.27774 6.13753 4.72962 6.01659 5.22066C5.89564 5.7117 5.90242 6.22553 6.03638 6.71321C6.09901 6.94167 6.18878 7.16184 6.30377 7.36894C6.37294 7.49362 6.40866 7.63406 6.40743 7.7766C6.40621 7.91914 6.36815 8.05893 6.29694 8.18239L5.97334 8.74262C5.46084 8.56436 4.90047 8.58275 4.40079 8.79417C3.90111 9.00564 3.49773 9.39509 3.26887 9.88703C3.04 10.379 3.00194 10.9383 3.16208 11.4568C3.32221 11.9752 3.66912 12.4156 4.13557 12.6928C4.60201 12.97 5.15475 13.0641 5.68662 12.9569C6.21849 12.8497 6.69164 12.5488 7.01431 12.1126C7.33692 11.6764 7.48612 11.1359 7.43294 10.5959C7.37977 10.056 7.12796 9.55496 6.72637 9.19009L11.3532 1.17669C11.3965 1.1017 11.4166 1.01556 11.4109 0.92915C11.4053 0.842744 11.3741 0.759961 11.3214 0.691268C11.2686 0.622575 11.1968 0.571059 11.1148 0.543235C11.0328 0.515412 10.9443 0.51253 10.8607 0.534955L10.392 0.660629C9.83727 0.809154 9.33546 1.11058 8.94374 1.53052L6.72736 3.90809ZM4.11682 10.1535C4.02923 10.3029 3.97205 10.4682 3.94859 10.6398C3.92514 10.8114 3.93585 10.986 3.98013 11.1534C4.02441 11.3208 4.10136 11.4779 4.20657 11.6155C4.31179 11.7531 4.44318 11.8685 4.59317 11.9551C4.74317 12.0417 4.90882 12.0977 5.08057 12.12C5.25233 12.1424 5.42682 12.1305 5.59399 12.0851C5.7611 12.0397 5.91765 11.9617 6.05453 11.8556C6.19141 11.7495 6.30593 11.6174 6.39156 11.4668C6.56293 11.1653 6.60811 10.8082 6.51729 10.4735C6.42641 10.1388 6.20682 9.8537 5.9065 9.68028C5.60613 9.50692 5.24939 9.45935 4.9141 9.54802C4.57882 9.63662 4.29221 9.85434 4.11682 10.1535ZM7.35286 6.56512C7.45337 6.5071 7.52674 6.41149 7.5568 6.2993C7.58686 6.18718 7.5711 6.06767 7.51308 5.96713C7.45501 5.86658 7.3594 5.79321 7.24727 5.76316C7.13508 5.7331 7.01559 5.74883 6.91508 5.80689C6.81451 5.86494 6.74114 5.96056 6.71108 6.07271C6.68102 6.18484 6.69678 6.30432 6.7548 6.4049C6.81287 6.50547 6.90849 6.57884 7.02061 6.6089C7.1328 6.6389 7.25229 6.6232 7.35286 6.56512Z" fill="#FCFCFC" style="fill:#FCFCFC;fill:color(display-p3 0.9900 0.9900 0.9900);fill-opacity:1;"/>
<path fill-rule="evenodd" clip-rule="evenodd" d="M4.34633 5.87791C4.25305 6.41237 3.96463 6.89322 3.537 7.22716C3.10936 7.56104 2.57298 7.7243 2.03182 7.68525C1.49066 7.6462 0.983288 7.40758 0.608055 7.01568C0.232816 6.62379 0.0164506 6.10656 0.000900232 5.56422C-0.0146502 5.02188 0.171725 4.49308 0.523891 4.08034C0.876056 3.6676 1.36893 3.40031 1.90696 3.3303C2.44498 3.26029 2.98984 3.39254 3.43591 3.70142C3.88197 4.0103 4.19746 4.47379 4.32122 5.00206L5.08692 5.00212C5.14911 5.0021 5.21059 5.01532 5.26728 5.04092C5.32396 5.06651 5.37452 5.10389 5.41561 5.15056C5.45676 5.19723 5.4874 5.25213 5.50567 5.31159C5.52388 5.37105 5.52925 5.43372 5.52137 5.4954L5.52038 5.50069C5.50602 5.61351 5.4483 5.71631 5.35951 5.78734C5.27068 5.85837 5.15771 5.89205 5.0445 5.88125C5.01852 5.87888 4.99245 5.87774 4.96637 5.87783L4.34633 5.87791ZM0.876044 5.50226C0.875618 5.1643 1.00549 4.83918 1.23865 4.59453C1.47181 4.34987 1.79031 4.20453 2.1279 4.18871C2.4655 4.17289 2.79619 4.28783 3.05121 4.5096C3.30622 4.73138 3.46593 5.04293 3.4971 5.37945C3.49013 5.43001 3.49197 5.4814 3.50256 5.53132C3.49871 5.87962 3.35664 6.2121 3.10764 6.45568C2.85863 6.69926 2.52307 6.83392 2.17476 6.83007C1.82647 6.82621 1.49397 6.68414 1.25041 6.43513C1.00685 6.18613 0.872191 5.85055 0.876044 5.50226ZM6.72736 3.90809C6.38222 4.27774 6.13753 4.72962 6.01659 5.22066C5.89564 5.7117 5.90242 6.22553 6.03638 6.71321C6.09901 6.94167 6.18878 7.16184 6.30377 7.36894C6.37294 7.49362 6.40866 7.63406 6.40743 7.7766C6.40621 7.91914 6.36815 8.05893 6.29694 8.18239L5.97334 8.74262C5.46084 8.56436 4.90047 8.58275 4.40079 8.79417C3.90111 9.00564 3.49773 9.39509 3.26887 9.88703C3.04 10.379 3.00194 10.9383 3.16208 11.4568C3.32221 11.9752 3.66912 12.4156 4.13557 12.6928C4.60201 12.97 5.15475 13.0641 5.68662 12.9569C6.21849 12.8497 6.69164 12.5488 7.01431 12.1126C7.33692 11.6764 7.48612 11.1359 7.43294 10.5959C7.37977 10.056 7.12796 9.55496 6.72637 9.19009L11.3532 1.17669C11.3965 1.1017 11.4166 1.01556 11.4109 0.92915C11.4053 0.842744 11.3741 0.759961 11.3214 0.691268C11.2686 0.622575 11.1968 0.571059 11.1148 0.543235C11.0328 0.515412 10.9443 0.51253 10.8607 0.534955L10.392 0.660629C9.83727 0.809154 9.33546 1.11058 8.94374 1.53052L6.72736 3.90809ZM4.11682 10.1535C4.02923 10.3029 3.97205 10.4682 3.94859 10.6398C3.92514 10.8114 3.93585 10.986 3.98013 11.1534C4.02441 11.3208 4.10136 11.4779 4.20657 11.6155C4.31179 11.7531 4.44318 11.8685 4.59317 11.9551C4.74317 12.0417 4.90882 12.0977 5.08057 12.12C5.25233 12.1424 5.42682 12.1305 5.59399 12.0851C5.7611 12.0397 5.91765 11.9617 6.05453 11.8556C6.19141 11.7495 6.30593 11.6174 6.39156 11.4668C6.56293 11.1653 6.60811 10.8082 6.51729 10.4735C6.42641 10.1388 6.20682 9.8537 5.9065 9.68028C5.60613 9.50692 5.24939 9.45935 4.9141 9.54802C4.57882 9.63662 4.29221 9.85434 4.11682 10.1535ZM7.35286 6.56512C7.45337 6.5071 7.52674 6.41149 7.5568 6.2993C7.58686 6.18718 7.5711 6.06767 7.51308 5.96713C7.45501 5.86658 7.3594 5.79321 7.24727 5.76316C7.13508 5.7331 7.01559 5.74883 6.91508 5.80689C6.81451 5.86494 6.74114 5.96056 6.71108 6.07271C6.68102 6.18484 6.69678 6.30432 6.7548 6.4049C6.81287 6.50547 6.90849 6.57884 7.02061 6.6089C7.1328 6.6389 7.25229 6.6232 7.35286 6.56512Z" fill="#FCFCFC" style="fill:#FCFCFC;fill:color(display-p3 0.9900 0.9900 0.9900);fill-opacity:1;"/>
<path d="M9.52347 5.22092C9.56194 5.15437 9.61716 5.09911 9.6837 5.06069C9.7503 5.02226 9.82577 5.00203 9.90259 5.00203L13.5625 5.00203C13.649 5.00207 13.7337 5.0278 13.8057 5.07596C13.8777 5.12413 13.9338 5.19256 13.9668 5.2726C13.9999 5.35264 14.0085 5.44069 13.9915 5.52562C13.9746 5.61055 13.9328 5.68853 13.8714 5.7497L13.5288 6.09245C13.1226 6.49846 12.6106 6.7822 12.051 6.91132L8.98979 7.61777C8.90667 7.63703 8.81976 7.63155 8.73968 7.60207C8.65959 7.57259 8.5899 7.52035 8.53917 7.45177C8.48839 7.38318 8.4588 7.30129 8.45395 7.21607C8.44911 7.13091 8.4693 7.04615 8.51197 6.97231L9.52347 5.22092Z" fill="#FCFCFC" style="fill:#FCFCFC;fill:color(display-p3 0.9900 0.9900 0.9900);fill-opacity:1;"/>
<path d="M9.52347 5.22092C9.56194 5.15437 9.61716 5.09911 9.6837 5.06069C9.7503 5.02226 9.82577 5.00203 9.90259 5.00203L13.5625 5.00203C13.649 5.00207 13.7337 5.0278 13.8057 5.07596C13.8777 5.12413 13.9338 5.19256 13.9668 5.2726C13.9999 5.35264 14.0085 5.44069 13.9915 5.52562C13.9746 5.61055 13.9328 5.68853 13.8714 5.7497L13.5288 6.09245C13.1226 6.49846 12.6106 6.7822 12.051 6.91132L8.98979 7.61777C8.90667 7.63703 8.81976 7.63155 8.73968 7.60207C8.65959 7.57259 8.5899 7.52035 8.53917 7.45177C8.48839 7.38318 8.4588 7.30129 8.45395 7.21607C8.44911 7.13091 8.4693 7.04615 8.51197 6.97231L9.52347 5.22092Z" fill="#FCFCFC" style="fill:#FCFCFC;fill:color(display-p3 0.9900 0.9900 0.9900);fill-opacity:1;"/>
</svg>
