<svg width="14" height="14" viewBox="0 0 14 14" fill="none" xmlns="http://www.w3.org/2000/svg">
<path d="M4.34525 6.70075C4.19977 6.70084 4.05838 6.65258 3.94331 6.56356C3.82824 6.47455 3.74601 6.34981 3.70955 6.20897C3.67308 6.06813 3.68445 5.91917 3.74187 5.7855C3.79929 5.65182 3.8995 5.54102 4.02675 5.4705L8.463 3.0065C8.61512 2.9237 8.7938 2.90438 8.9601 2.95277C9.1264 3.00116 9.26682 3.11333 9.35077 3.26482C9.43471 3.41631 9.45536 3.59484 9.40823 3.7615C9.36109 3.92816 9.24998 4.06942 9.09913 4.1545L4.66375 6.6185C4.56635 6.67266 4.4567 6.70097 4.34525 6.70075ZM8.77975 11.0758C8.6683 11.076 8.55865 11.0477 8.46125 10.9935L4.02587 8.5295C3.87364 8.44503 3.7612 8.30354 3.71328 8.13617C3.66537 7.96879 3.6859 7.78923 3.77038 7.637C3.85485 7.48477 3.99633 7.37232 4.16371 7.32441C4.33109 7.27649 4.51064 7.29703 4.66287 7.3815L9.09913 9.8455C9.22644 9.91606 9.32669 10.0269 9.38409 10.1607C9.44149 10.2945 9.4528 10.4435 9.41622 10.5844C9.37965 10.7253 9.29727 10.85 9.18205 10.939C9.06683 11.0279 8.92531 11.076 8.77975 11.0758Z" fill="#FCFCFC" style="fill:#FCFCFC;fill:color(display-p3 0.9900 0.9900 0.9900);fill-opacity:1;"/>
<path d="M2.625 9.625C3.32119 9.625 3.98887 9.34844 4.48116 8.85616C4.97344 8.36387 5.25 7.69619 5.25 7C5.25 6.30381 4.97344 5.63613 4.48116 5.14384C3.98887 4.65156 3.32119 4.375 2.625 4.375C1.92881 4.375 1.26113 4.65156 0.768845 5.14384C0.276562 5.63613 0 6.30381 0 7C0 7.69619 0.276562 8.36387 0.768845 8.85616C1.26113 9.34844 1.92881 9.625 2.625 9.625ZM10.5 5.25C11.1962 5.25 11.8639 4.97344 12.3562 4.48116C12.8484 3.98887 13.125 3.32119 13.125 2.625C13.125 1.92881 12.8484 1.26113 12.3562 0.768845C11.8639 0.276562 11.1962 0 10.5 0C9.80381 0 9.13613 0.276562 8.64384 0.768845C8.15156 1.26113 7.875 1.92881 7.875 2.625C7.875 3.32119 8.15156 3.98887 8.64384 4.48116C9.13613 4.97344 9.80381 5.25 10.5 5.25ZM10.5 14C11.1962 14 11.8639 13.7234 12.3562 13.2312C12.8484 12.7389 13.125 12.0712 13.125 11.375C13.125 10.6788 12.8484 10.0111 12.3562 9.51884C11.8639 9.02656 11.1962 8.75 10.5 8.75C9.80381 8.75 9.13613 9.02656 8.64384 9.51884C8.15156 10.0111 7.875 10.6788 7.875 11.375C7.875 12.0712 8.15156 12.7389 8.64384 13.2312C9.13613 13.7234 9.80381 14 10.5 14Z" fill="#FCFCFC" style="fill:#FCFCFC;fill:color(display-p3 0.9900 0.9900 0.9900);fill-opacity:1;"/>
</svg>
