<svg width="14" height="4" viewBox="0 0 14 4" fill="none" xmlns="http://www.w3.org/2000/svg">
<path fill-rule="evenodd" clip-rule="evenodd" d="M3.07101 1.53254C3.07101 2.37895 2.38354 3.06509 1.5355 3.06509C0.687465 3.06509 0 2.37895 0 1.53254C0 0.686141 0.687465 0 1.5355 0C2.38354 0 3.07101 0.686141 3.07101 1.53254ZM8.5355 1.53254C8.5355 2.37895 7.84804 3.06509 7 3.06509C6.15196 3.06509 5.4645 2.37895 5.4645 1.53254C5.4645 0.686141 6.15196 0 7 0C7.84804 0 8.5355 0.686141 8.5355 1.53254ZM12.4645 3.06509C13.3125 3.06509 14 2.37895 14 1.53254C14 0.686141 13.3125 0 12.4645 0C11.6165 0 10.929 0.686141 10.929 1.53254C10.929 2.37895 11.6165 3.06509 12.4645 3.06509Z" fill="#C7C7C7" style="fill:#C7C7C7;fill:color(display-p3 0.7800 0.7800 0.7800);fill-opacity:1;"/>
</svg>
